<svg xmlns="http://www.w3.org/2000/svg" viewBox="0 0 1044 1144"><title>Веб-стандарты</title><defs><linearGradient id="a" gradientUnits="userSpaceOnUse" x1="984" y1="572" x2="984" y2="316"><stop offset="0" stop-color="#a8cd4b"/><stop offset=".9" stop-color="#98c55b"/></linearGradient><linearGradient id="b" gradientUnits="userSpaceOnUse" x1="984" y1="316" x2="522" y2="60"><stop offset="0" stop-color="#98c55b"/><stop offset=".9" stop-color="#79b580"/></linearGradient><linearGradient id="c" gradientUnits="userSpaceOnUse" x1="522" y1="60" x2="60" y2="316"><stop offset="0" stop-color="#79b580"/><stop offset=".8" stop-color="#5aa5a7"/></linearGradient><linearGradient id="d" gradientUnits="userSpaceOnUse" x1="60" y1="316" x2="522" y2="572"><stop offset="0" stop-color="#5aa5a7"/><stop offset=".9" stop-color="#4a94b1"/></linearGradient><linearGradient id="e" gradientUnits="userSpaceOnUse" x1="522" y1="572" x2="522" y2="1084"><stop offset="0" stop-color="#4a94b1"/><stop offset=".8" stop-color="#49839f"/></linearGradient><linearGradient id="f" gradientUnits="userSpaceOnUse" x1="984" y1="828" x2="522" y2="1084"><stop offset="0" stop-color="#466d85"/><stop offset=".7" stop-color="#49839f"/></linearGradient><linearGradient id="g" gradientUnits="userSpaceOnUse" x1="522" y1="1084" x2="60" y2="828"><stop offset=".3" stop-color="#49839f"/><stop offset=".9" stop-color="#47728b"/></linearGradient><linearGradient id="h" gradientUnits="userSpaceOnUse" x1="60" y1="828" x2="60" y2="572"><stop offset="0" stop-color="#47728b"/><stop offset="1" stop-color="#456a81"/></linearGradient></defs><g stroke-width="120" stroke-linecap="round" stroke-linejoin="round" fill="none"><path stroke="url(#a)" d="M984 572V316"/><path stroke="url(#b)" d="M984 316L522 60"/><path stroke="url(#c)" d="M522 60L60 316"/><path stroke="url(#d)" d="M60 316l462 256"/><path stroke="url(#e)" d="M522 572v512"/><path stroke="url(#f)" d="M984 828l-462 256"/><path stroke="url(#g)" d="M522 1084L60 828"/><path stroke="url(#h)" d="M60 828V572"/></g></svg>