<svg xmlns="http://www.w3.org/2000/svg" viewBox="0 0 117.75 117.1"><title>slack</title><path d="M117.37 61.77l-.13-.42a10.07 10.07 0 0 0-9.72-6.75 10.71 10.71 0 0 0-3.3.56l-11.54 3.9-7.47-22.17 11.12-3.79c4.64-1.56 8.52-6.43 7-11.88l-.12-.4A10 10 0 0 0 93.43 14a11.31 11.31 0 0 0-3 .45l-11.48 3.83L75.14 7a10.25 10.25 0 0 0-19.58 6.08l.14.46 3.8 11.25-21.94 7.35-3.78-11.23A10.25 10.25 0 0 0 14.2 27l.14.46 3.77 11.21L7 42.38A10.2 10.2 0 0 0 .39 54.85c0 .15.09.31.14.47A9.74 9.74 0 0 0 10 62a10.88 10.88 0 0 0 3.39-.58l11.11-3.8 7.4 22-11.06 3.73a10.28 10.28 0 0 0-6.59 12.59l.15.47a9.72 9.72 0 0 0 9.52 6.59 11.5 11.5 0 0 0 3.54-.6l10.87-3.72 3.85 11.45a10.24 10.24 0 0 0 9.81 7A10.24 10.24 0 0 0 61.74 104c0-.15-.09-.31-.14-.45L57.71 92l21.9-7.49 3.93 11.67a10.23 10.23 0 0 0 9.8 7 10.46 10.46 0 0 0 3.18-.53 10.28 10.28 0 0 0 6.53-12.73l-.05-.28-4-11.76 12.13-4.15s3.77-1.63 5-3.49a10.56 10.56 0 0 0 1.24-8.47zM51.32 73L43.9 51l21.9-7.48 7.44 22.11z"/></svg>