<svg viewBox="0 0 119 118" xmlns="http://www.w3.org/2000/svg"><path d="M10.258 62.86c-4.395.032-8.118-2.587-9.49-6.674-.053-.16-.1-.314-.143-.466C-.87 50.484 2.03 45.008 7.23 43.255L90.613 15.32a11.31 11.31 0 0 1 3.046-.446c4.51-.036 8.33 2.64 9.74 6.816l.12.403c1.56 5.452-2.32 10.32-6.96 11.88l-82.92 28.31a10.88 10.88 0 0 1-3.39.576m13.9 41c-4.43.03-8.17-2.55-9.52-6.58-.05-.16-.1-.31-.15-.47a10.28 10.28 0 0 1 6.59-12.59l83.383-28.19a10.71 10.71 0 0 1 3.306-.56c4.444-.04 8.346 2.68 9.72 6.75l.13.42c.805 2.81.33 5.98-1.27 8.48-1.195 1.86-4.96 3.49-4.96 3.49l-83.7 28.64a11.5 11.5 0 0 1-3.54.6"/><path d="M93.572 104.043a10.233 10.233 0 0 1-9.802-6.976L55.94 14.402l-.14-.465c-1.506-5.27 1.392-10.77 6.59-12.522a10.193 10.193 0 0 1 7.83.532 10.214 10.214 0 0 1 5.157 5.913l27.828 82.658.08.265c1.563 5.473-1.33 10.976-6.527 12.726-1.03.34-2.103.52-3.184.53m-41.37 13.93a10.242 10.242 0 0 1-9.806-6.99L14.575 28.32a19.1 19.1 0 0 1-.14-.46 10.235 10.235 0 0 1 6.583-12.523 10.333 10.333 0 0 1 3.187-.536 10.24 10.24 0 0 1 9.805 6.98l27.824 82.67c.052.14.1.3.14.45a10.235 10.235 0 0 1-9.768 13.06"/></svg>
