<svg xmlns="http://www.w3.org/2000/svg" viewBox="0 0 16 16"><path fill="#FFF" d="M15.96 3.42c-.04.153-.144.31-.237.414l-.118.058v.118l-.59.532-.237.295c-.05.036-.398.21-.413.237V6.49h-.06v.473h-.058v.294h-.058v.296h-.06v.235h-.06v.237h-.06c-.1.355-.197.71-.295 1.064h-.06v.114h-.06c-.02.1-.04.197-.058.296h-.06c-.04.12-.08.238-.118.356h-.06c-.04.118-.08.236-.118.353l-.118.06-.06.233-.117.06v.116l-.118.06v.12h-.06l-.06.174-.117.06v.117l-.177.12v.117l-.237.177v.118l-.59.53-.533.592h-.117c-.06.078-.117.156-.176.236l-.177.06-.06.118h-.118l-.06.118-.178.06v.058h-.118l-.06.118-.353.12-.06.117c-.077.02-.155.04-.234.056v.06c-.118.038-.236.078-.354.118v.058H8.76v.06h-.12v.06h-.176v.058h-.118v.06H8.17v.06h-.18v.06l-.413.057v.06H7.34c-.667.22-1.455.293-2.36.293h-.886v-.058h-.53v-.06H3.27v-.06h-.295v-.06H2.68v-.057h-.177v-.06h-.236v-.058H2.09v-.06h-.177V14.4h-.177v-.06H1.56v-.06h-.12v-.06l-.294-.06v-.056c-.118-.04-.236-.08-.355-.118v-.06H.676v-.058h-.12v-.06H.438v-.058H.32l-.06-.12H.142v-.058c-.13-.08-.083.026-.177-.118H1.56v-.06c.294-.04.59-.077.884-.117v-.06h.177v-.058h.24v-.06h.117v-.06h.177v-.06h.118v-.06h.178v-.057l.236-.06v-.058l.236-.06c.02-.038.04-.078.058-.117l.237-.06c.02-.04.04-.078.058-.118h.118l.06-.118h.12c.035-.025.046-.078.117-.118V12.1c-1.02-.08-1.84-.54-2.303-1.183-.08-.058-.157-.118-.236-.176v-.115l-.117-.06v-.117c-.115-.202-.268-.355-.296-.65.453.004.987.008 1.354-.06v-.06c-.253-.008-.47-.08-.65-.175v-.058h-.12v-.06c-.08-.02-.157-.04-.236-.058l-.06-.118h-.117l-.117-.18h-.12l-.236-.294-.118-.06V8.56l-.177-.12C.79 7.936.54 7.29.55 6.432h.06c.203.234.947.377 1.356.415v-.06c-.257-.118-.676-.54-.827-.768V5.9l-.12-.06C.98 5.723.94 5.604.9 5.486h-.06v-.118H.787c-.04-.196-.08-.394-.118-.59C.61 4.588.46 4.08.55 3.773h.06V3.36h.06v-.177h.06v-.177h.055V2.83h.06c.04-.118.078-.236.117-.355h.118v.06c.12.097.238.196.356.295v.118l.118.058c.08.098.157.197.236.295l.176.06.354.415h.118l.177.236h.118l.06.118h.117c.04.06.08.118.118.177h.118l.06.118.235.06.06.117.358.12.06.116.53.176v.06h.118v.058l.236.06v.06c.12.02.237.04.356.058v.06h.177v.058h.177v.06h.176v.058h.236v.06l.472.057v.06l1.417.18v-.235c-.1-.112-.057-.442-.056-.65 0-.573.15-.99.354-1.358V3.54l.12-.06.06-.236.175-.118v-.118c.14-.118.276-.236.414-.355l.06-.117h.116l.12-.177.235-.06.06-.12h.118v-.057H9.7v-.058h.177v-.06h.177v-.058h.177v-.06h.298V1.83h1.063v.058h.295v.06h.177v.058h.18v.06h.176v.058h.118v.06h.118l.06.117.236.06c.04.06.08.118.118.177h.118l.06.117c.142.133.193.163.472.178.136-.12.283-.05.472-.117v-.06h.177v-.058h.177v-.06l.236-.058v-.06h.177l.59-.353v.176h-.058l-.06.296h-.06v.116h-.06v.118l-.117.06v.12l-.177.117v.118l-.118.06-.354.412h-.117l-.177.236h.06c.13-.112.4-.053.59-.117l1.062-.354z"/></svg>
