<svg xmlns="http://www.w3.org/2000/svg" viewBox="0 0 16 16"><path d="M13 0H3C1 0 0 1 0 3v10c0 2 1 3 3 3h10c2 0 3-1 3-3V3c0-2-1-3-3-3zm.452 11.394l-1.603.022s-.348.068-.8-.243c-.6-.41-1.167-1.48-1.607-1.342-.446.147-.432 1.11-.432 1.11s.004.205-.1.314c-.11.12-.325.144-.325.144H7.87s-1.582.095-2.975-1.356C3.375 8.46 2.033 5.32 2.033 5.32s-.078-.206.006-.305c.09-.112.35-.12.35-.12l1.713-.01s.162.026.277.11c.096.07.15.202.15.202s.277.7.644 1.335C5.89 7.77 6.224 8.04 6.467 7.907c.353-.193.247-1.75.247-1.75s.006-.565-.178-.817c-.145-.194-.415-.25-.534-.267-.096-.012.062-.236.267-.336.31-.15.85-.16 1.495-.153.502.005.646.036.842.084.59.143.39.694.39 2.016 0 .42-.076 1.017.23 1.214.13.085.452.013 1.255-1.352.38-.647.666-1.407.666-1.407s.062-.137.16-.195c.1-.06.232-.04.232-.04l1.804-.01s.542-.065.63.18c.092.257-.203.857-.94 1.84-1.21 1.61-1.345 1.46-.34 2.394.96.89 1.16 1.324 1.192 1.38.4.66-.44.71-.44.71z"/></svg>