<svg xmlns="http://www.w3.org/2000/svg" viewBox="0 0 238.139 114.313"><g fill="#414042"><path d="M186.44 98.354h-12.06V29.167h12.06v69.187"/><path d="M186.44 98.354h-12.06V29.167h12.06v69.187M238.14 80.075c0-26.99-31.138-18-31.138-33.12 0-4.542 2.96-8.002 8.302-8.002 6.326 0 10.28 4.046 9.49 12.056h11.862c.986-7.915-2.076-22.737-20.856-22.737-11.658 0-21.156 5.73-21.156 18.385 0 26.092 31.133 17.596 30.942 33.308-.105 5.735-4.35 8.6-9.595 8.6-5.72 0-10.376-3.555-9.576-13.537H194.55c-.99 14.13 5.335 24.217 21.844 24.217 13.938 0 21.745-7.72 21.745-19.172zM152.14 50.813h12.062c.387-7.815-2.575-22.732-21.654-22.732-14.036 0-24.213 9.487-24.213 26.98 0 2.373.1 11.968.1 19.58 0 18.983 13.146 24.706 25.498 24.706 5.336 0 13.744-.89 19.376-7.323v-29.25h-21.744V74.24h9.682v13.557c-7.315 2.474-20.586 3.13-20.586-13.667V53.97c0-10.973 4.774-15.543 10.7-15.543 6.325 0 10.78 3.68 10.78 12.386z"/></g><path fill="#A6CE39" d="M112.155 50.688c0 27.987-22.693 50.68-50.685 50.68-27.993 0-50.686-22.693-50.686-50.68C10.784 22.695 33.477.002 61.47.002s50.685 22.693 50.685 50.686z"/><path fill="#00B2DD" d="M61.47 0C42.78 0 26.462 10.125 17.675 25.18c8.872-7.624 20.397-12.24 33.01-12.24 27.993 0 50.688 22.694 50.688 50.687 0 9.298-2.516 18.002-6.885 25.493 10.81-9.295 17.667-23.06 17.667-38.435C112.155 22.693 89.462 0 61.47 0z"/><path fill="#FFF" d="M96.06 47.45c0-12.798-9.08-22.094-23.955-22.094-18.157 0-27.673 13.89-24.5 31.39h12.69c-1.097-15.093 4.92-18.703 11.154-18.703 7.876 0 9.624 5.797 9.624 10.39 0 12.36-13.344 25.158-35.11 44.08l.067 6.452c4.87 1.555 10.055 2.402 15.44 2.402 12.617 0 24.147-4.62 33.016-12.245h-27.85c10.83-9.295 29.423-23.405 29.423-41.67z"/><path fill="#F9EC00" d="M61.47 101.37c-27.993 0-50.686-22.694-50.686-50.682 0-9.303 2.517-18.014 6.89-25.506C6.86 34.478 0 48.246 0 63.627c0 27.993 22.693 50.686 50.685 50.686 18.695 0 35.015-10.127 43.8-25.19-8.87 7.627-20.4 12.246-33.015 12.246z"/></svg>