<svg xmlns="http://www.w3.org/2000/svg" viewBox="0 0 238.14 114.31"><g fill="#414042"><path d="M186.44 98.35h-12.06V29.17h12.06v69.18"/><path d="M186.44 98.35h-12.06V29.17h12.06v69.18m51.7-18.27c0-27-31.14-18-31.14-33.12 0-4.55 2.96-8 8.3-8 6.33 0 10.28 4.04 9.5 12.05h11.86c.98-7.92-2.08-22.74-20.86-22.74-11.66 0-21.16 5.73-21.16 18.39 0 26.09 31.14 17.6 30.95 33.3-.1 5.74-4.35 8.6-9.6 8.6-5.72 0-10.38-3.55-9.58-13.53h-11.86c-.99 14.13 5.33 24.21 21.84 24.21 13.94 0 21.75-7.72 21.75-19.17zm-86-29.27h12.06c.39-7.81-2.57-22.73-21.65-22.73-14.04 0-24.22 9.49-24.22 26.98 0 2.37.1 11.97.1 19.58 0 18.98 13.15 24.7 25.5 24.7 5.34 0 13.75-.88 19.38-7.32V62.77h-21.75v11.47h9.69V87.8c-7.32 2.47-20.59 3.13-20.59-13.67V53.97c0-10.97 4.78-15.54 10.7-15.54 6.33 0 10.78 3.68 10.78 12.38z"/></g><path fill="#A6CE39" d="M112.16 50.69a50.68 50.68 0 1 1-101.37-.01 50.68 50.68 0 0 1 101.37 0z"/><path fill="#00B2DD" d="M61.47 0c-18.69 0-35 10.13-43.8 25.18a50.69 50.69 0 0 1 76.81 63.94A50.69 50.69 0 0 0 61.47 0z"/><path fill="#FFF" d="M96.06 47.45c0-12.8-9.08-22.1-23.95-22.1-18.16 0-27.68 13.9-24.5 31.4H60.3c-1.1-15.1 4.92-18.7 11.15-18.7 7.87 0 9.62 5.79 9.62 10.38 0 12.36-13.34 25.16-35.1 44.08l.06 6.46a50.67 50.67 0 0 0 48.46-9.85H66.64c10.83-9.3 29.42-23.4 29.42-41.67z"/><path fill="#F9EC00" d="M61.47 101.37a50.69 50.69 0 0 1-43.8-76.19 50.69 50.69 0 1 0 76.81 63.94 50.46 50.46 0 0 1-33.01 12.25z"/></svg>