<svg xmlns="http://www.w3.org/2000/svg" viewBox="0 0 800 244"><path d="M413.3 215.52a88.66 88.66 0 0 1-87.5-74.41 88.69 88.69 0 0 1 78.61-74 88.68 88.68 0 0 0-49.22 103.78 60.16 60.16 0 0 0 58.11 44.59" fill="#61c2a4"/><path d="M404.41 67.15c2.95-.29 5.92-.44 8.89-.44a88.69 88.69 0 0 1 27.05 4.23c-5.43 15.51-13.18 25.38-20.76 24.58a60.21 60.21 0 0 0-64.94 73.3 88.68 88.68 0 0 1 49.76-101.67" fill="#ebd769"/><path d="M453.56 110.64c-5.66-5.09-3.51-17.46 4.38-31.87a88.6 88.6 0 1 1-132.14 62.34 88.68 88.68 0 0 0 87.5 74.41 60.17 60.17 0 0 0 40.26-104.88" fill="#1281bd"/><path d="M221.05 9.16v64.69a62.68 62.68 0 0 0-29.3-7.14c-31.88 0-57.72 23.11-57.72 51.61v74.07c0 28.5 25.84 51.61 57.72 51.61s57.72-23.11 57.72-51.61V9.16zm0 183.23c0 12.77-13.12 23.13-29.3 23.13s-29.29-10.36-29.29-23.13v-74.07c0-12.77 13.11-23.13 29.29-23.13s29.3 10.36 29.3 23.13zM57.78 66.71c-20.34 0-38.21 9.41-48.49 23.61L31.11 108l3-3.33c5.33-5.75 13.94-9.48 23.65-9.48 16.18 0 29.3 10.36 29.3 23.13L87 128.93l-42.73 11.46C16.59 147.8 0 168.52 0 192.39 0 220.89 25.84 244 57.72 244s57.72-23.11 57.72-51.61l.06-74.07c0-28.5-25.84-51.61-57.72-51.61zM87 192.39c0 12.77-13.12 23.13-29.3 23.13s-29.29-10.36-29.29-23.13c0-10.93 10-20.89 23.06-24.41L87 158.45zM342.56 32.32a27.51 27.51 0 0 0-41.25 23.82v14.31h29.93l-12.66 28.42h-17.27V235h-28.49V56.16a56 56 0 0 1 84-48.49l-11.67 26.16zm359.15 53.07a56 56 0 0 1 97.73 37.3V235H771V122.69a27.51 27.51 0 0 0-55 0V235h-28.53V122.69a27.5 27.5 0 0 0-55 0V235H604V122.69a56 56 0 0 1 97.72-37.3M590.24 98.87A27.51 27.51 0 0 0 549 122.69V235h-28.5V122.69a56 56 0 0 1 84-48.48z" fill="#737475"/></svg>