<svg xmlns="http://www.w3.org/2000/svg" viewBox="0 0 295.92 153.86"><path fill="#4e4e4e" d="M222.23 71.79c.86.83 1.74 1.65 2.58 2.5l68.13 68.11a9.9 9.9 0 0 1 3 4.48v1.68a14.61 14.61 0 0 1-1.71 3.09c-2.58 2.81-6.14 2.94-8.84.24q-32.76-32.76-65.48-65.52c-.78-.78-1.16-.78-1.92 0q-32.57 32.63-65.13 65.21a6.8 6.8 0 0 1-9.91 0q-32.47-32.68-65.1-65.22c-.77-.77-1.14-.76-1.9 0q-32.67 32.73-65.4 65.43c-2.08 2.08-4.26 2.59-6.62 1.55A6.45 6.45 0 0 1 0 147.17 5.17 5.17 0 0 1 1.3 144c.26-.3.55-.58.84-.86q35-35 70-70.12a6.72 6.72 0 0 1 9.47 0q32.55 32.7 65.2 65.3c.84.85 1.24.86 2.09 0q30.21-30.28 60.47-60.52c.32-.31.6-.65.9-1l4-3.91a6.31 6.31 0 0 1 5-2 25.3 25.3 0 0 1 2.64.6c.09.22.18.27.32.3z"/><path fill="#fab03c" d="M222 71.57a25.3 25.3 0 0 0-2.64-.6 6.31 6.31 0 0 0-5 2c-1.32 1.31-2.66 2.61-4 3.91-1.92-1.92-3.83-3.86-5.76-5.78L149 15.5c-1.23-1.23-.93-1.21-2.17 0l-45 45c-.3.3-.59.62-1.08 1.14h82.47c2.83 0 4.77 1.24 5.66 3.59a6.47 6.47 0 0 1-1.62 7.15 5.75 5.75 0 0 1-4 1.3h-29.57c-5.16 0-10.32-.06-15.47 0-17.2.25-34.39 0-51.58.13a6.26 6.26 0 0 1-6.13-4.16c-1-2.33-.45-4.46 1.6-6.51l60-60A13.5 13.5 0 0 1 146.16 0h3.36a11.52 11.52 0 0 1 3.91 2.87L221 70.5c.37.34.67.71 1 1.07z"/></svg>