<svg xmlns="http://www.w3.org/2000/svg" viewBox="0 0 2000.06 550.22"><path fill="#0086FB" d="M170.06 186.22c-18 0-27 13-27 22 4-3 9-6 14-8 1-1 3-1 5-1-7 7-2 16 9 16 12 0 16-10 8-17h14c-3-6-12-12-23-12zm197-131c-52-8-96-8-124-51-1-1-2-2-3-2-6-4-12 1-11 8 1 6 7 12 11 20 3 6 6 12 6 20l1 95c-3-1-5-2-8-3-25-9-55-10-80 1-2 0-3 1-5 2-2-26-2-67-2-92 1-9 4-16 7-21 5-7 12-12 17-19 7-10 0-17-10-11-2 1-5 3-7 4-47 29-80 30-124 44-7 1-12 8-9 10 11 10 37-8 43-4 1 8-42 19-40 29 6 8 41-15 47-10 1 10-38 20-31 26 5 3 23-4 34-8 0 121-21 234-28 355-7 43-5 42-48 54-5 3-4 11 4 11s27-5 27-1c2 9-27 2-28 14 5 14 36-4 40 5-1 6-24 6-29 12l-1 1c0 2 12 4 26 4h75c14 0 26-2 26-4l1-71c4-1 10-2 15-3 26-5 54-7 80-5 8 0 16 1 24 3 7 26-11 32-24 37-6 2-10 4-9 8 1 3 5 4 9 4 8 0 19-2 19 2 1 3-11 4-19 6-5 1-8 2-8 5 1 3 4 4 8 4 8 1 21-1 19 4 0 2-16 3-19 8h1c0 2 12 4 26 4h66c14 0 26-2 26-4-2-155-30-302-40-449 12 1 38 12 40 3 4-6-33-13-34-19 1-7 39 12 44 4 2-12-32-13-38-21 9-1 25 5 43 3 6-2 5-12-6-12zm-168 201c-16 2-28-5-28-5 3 11 18 22 28 22v25h-1c-45 0-81-35-81-77 0-43 36-77 81-77h1v112zm41-46c-6 0-13-3-13-8s6-7 13-7c6 0 13 2 13 7-1 5-7 8-13 8zm1287-185v35h58v174h52v-174h58v-35h-168zm-834 0v35h58v174h52v-174h58v-35h-168zm748 0v82h-67v-82h-51v209h51v-91h67v91h51v-209h-51zm-378 0v208h-51v-173h-52v50c0 44-5 75-19 96-4 5-23 32-64 32l-6-41c9-2 17-5 22-10 15-13 17-38 17-78v-84h153zm-477-6c-28 0-47 6-64 15v40c15-10 35-16 53-16 28 0 46 9 46 36v16h-18c-81 0-100 35-100 68 0 38 29 60 63 60 22 0 43-8 58-24h1v19h45v-138c0-59-40-76-84-76m34 171c-9 6-26 11-37 11-16 0-31-8-31-26 0-29 34-37 68-34v49zm571-171c-28 0-47 6-64 15v40c15-10 35-16 53-16 28 0 46 9 46 36v16h-18c-81 0-100 35-100 68 0 38 29 60 63 60 22 0 43-8 58-24h1v19h46v-138c0-59-40-76-85-76m35 171c-9 6-26 11-37 11-16 0-31-8-31-26 0-29 34-37 68-34v49z"/><path fill="#F01616" d="M1293.06 497.22c-15 9-34 13-51 13-44 0-68-21-68-65h130c2-8 2-17 2-25 0-61-40-92-88-92-62 0-97 48-97 109 0 68 37 113 107 113 22 0 46-3 66-13v-40h-1zm-78-134c25 0 39 18 39 41v8h-81c0-27 12-49 42-49m-713-28v36h58v173h51v-173h58v-36h-167zm1180 104c0 29-5 76-47 76-41 0-47-47-47-76s5-76 47-76c41 0 47 48 47 76m54-1c0-58-30-109-99-109-68 0-102 55-102 112 0 58 30 109 99 109 68 0 102-55 102-112m213-103l-63 95-63-95h-51v209h51v-135l63 89 63-89v135h51v-209h-51zm-864 0v208h-51v-172h-52v50c0 44-5 75-19 96-4 5-23 32-64 32l-6-41c9-2 17-5 22-10 15-13 17-38 17-78v-84h153v-1zm-229 162c-15 9-34 13-51 13-44 0-68-21-68-65h130c2-8 2-17 2-25 0-61-40-92-88-92-62 0-97 48-97 109-1 68 36 113 106 113 22 0 46-3 66-13v-40zm-77-134c25 0 39 18 39 41v8h-81c-1-27 12-49 42-49m691 181h52c-9-18-16-41-22-56-13-33-30-56-57-60l78-92h-57l-69 87h-1v-87h-50v208h50v-86h6c26 0 41 14 51 42 8 19 14 35 19 44"/></svg>