<svg xmlns="http://www.w3.org/2000/svg" viewBox="0 0 150.22 48"><path d="M107.11 8c.55 0 1.06-.65 1.13-1.2l.67-5.52C109 .74 108.59 0 108 0h-4.16a1.36 1.36 0 0 0-1.13 1.18l-.67 5.53C102 7.25 102.4 8 103 8z" fill="#3cd46b"/><path d="M18.32 21.48a6.09 6.09 0 0 1-.56 2.62 5.32 5.32 0 0 1-2 2.1A13.15 13.15 0 0 1 12 27.77a38.63 38.63 0 0 1-5.95 1A4.7 4.7 0 0 0 7 31.89a3.37 3.37 0 0 0 2.64 1 6.59 6.59 0 0 0 1.43-.14 5.7 5.7 0 0 0 1.06-.36 8.88 8.88 0 0 0 .82-.47l.69-.46a3.09 3.09 0 0 1 .7-.36 2.11 2.11 0 0 1 .82-.14 1.19 1.19 0 0 1 .58.15 1.92 1.92 0 0 1 .51.39l1 1.18.6.69-.55.53a20.67 20.67 0 0 1-1.62 1.35 11.19 11.19 0 0 1-2.17 1.31 10 10 0 0 1-2.38.76 14.63 14.63 0 0 1-2.74.24A9 9 0 0 1 5 36.92a7.68 7.68 0 0 1-2.66-1.8 8 8 0 0 1-1.73-2.78A10.24 10.24 0 0 1 0 28.71a14.17 14.17 0 0 1 .37-3.26 14 14 0 0 1 1.07-3 12.66 12.66 0 0 1 1.7-2.58 11.15 11.15 0 0 1 2.27-2 10.45 10.45 0 0 1 5.94-1.79 8.49 8.49 0 0 1 3 .48 6.85 6.85 0 0 1 2.19 1.26 5.54 5.54 0 0 1 1.35 1.74 4.4 4.4 0 0 1 .43 1.92zM11 20.28a3.65 3.65 0 0 0-2.72 1.23 8 8 0 0 0-1.75 3.4 31.39 31.39 0 0 0 3.16-.64 8 8 0 0 0 1.88-.72 2.22 2.22 0 0 0 .89-.85 2 2 0 0 0 .23-1 1.48 1.48 0 0 0-.4-1 1.62 1.62 0 0 0-1.29-.42zM19.37 37l2.54-21h3.22a2.43 2.43 0 0 1 1.52.63 2.25 2.25 0 0 1 .55 1.65v1.23a11.39 11.39 0 0 1 2.8-2.63 6 6 0 0 1 3.06-.88A4 4 0 0 1 36 17.17a5.74 5.74 0 0 1 1.49 3.35 10.4 10.4 0 0 1 3-3.41A6.64 6.64 0 0 1 44.25 16a5.26 5.26 0 0 1 2.13.41A4.35 4.35 0 0 1 48 17.66a5.69 5.69 0 0 1 1.05 2 9.18 9.18 0 0 1 .37 2.7v.79c0 .27 0 .44-.07.73L47.76 37H41.6l1.57-13.15c0-.23 0-.38.06-.57s0-.34 0-.52a2.34 2.34 0 0 0-.32-1.41 1.17 1.17 0 0 0-1-.4 2.37 2.37 0 0 0-1.2.34 4 4 0 0 0-1.09 1 7.39 7.39 0 0 0-.93 1.53 12.83 12.83 0 0 0-.69 1.86L36.64 37h-6.16l1.57-13.15c0-.23.05-.38.06-.57a4.61 4.61 0 0 0 0-.52 2.27 2.27 0 0 0-.32-1.41 1.16 1.16 0 0 0-1-.4 2.34 2.34 0 0 0-1.2.35 4 4 0 0 0-1.1 1 8.15 8.15 0 0 0-.94 1.56 12.34 12.34 0 0 0-.74 1.93L25.49 37zM69.9 21.48a6 6 0 0 1-.56 2.62 5.32 5.32 0 0 1-2 2.1 13.15 13.15 0 0 1-3.77 1.57 38.63 38.63 0 0 1-6 1 4.7 4.7 0 0 0 .94 3.12 3.4 3.4 0 0 0 2.65 1 6.66 6.66 0 0 0 1.43-.14 5.84 5.84 0 0 0 1-.36 7.73 7.73 0 0 0 .82-.47l.69-.46a3.32 3.32 0 0 1 .7-.36 2.11 2.11 0 0 1 .82-.14 1.26 1.26 0 0 1 .59.15 2.05 2.05 0 0 1 .5.39l1.61 1.87a21.92 21.92 0 0 1-2.16 1.88 11.26 11.26 0 0 1-2.18 1.31 10 10 0 0 1-2.37.76 14.74 14.74 0 0 1-2.75.24 8.91 8.91 0 0 1-3.4-.63 7.63 7.63 0 0 1-2.67-1.8 8 8 0 0 1-1.73-2.78 10.24 10.24 0 0 1-.62-3.63 14.74 14.74 0 0 1 .56-3.27 14 14 0 0 1 1.07-3 13.09 13.09 0 0 1 1.7-2.58 11.15 11.15 0 0 1 2.27-2 11 11 0 0 1 2.76-1.32 10.7 10.7 0 0 1 3.19-.47 8.57 8.57 0 0 1 3 .48 6.9 6.9 0 0 1 2.18 1.26 5.54 5.54 0 0 1 1.35 1.74 4.4 4.4 0 0 1 .38 1.92zm-7.32-1.2a3.64 3.64 0 0 0-2.72 1.23 7.76 7.76 0 0 0-1.75 3.4 32 32 0 0 0 3.16-.64 8 8 0 0 0 1.87-.72 2.22 2.22 0 0 0 .86-.85 2 2 0 0 0 .24-1 1.49 1.49 0 0 0-.41-1 1.6 1.6 0 0 0-1.25-.42zM71 37l2.54-21h3.22a3.08 3.08 0 0 1 1.73.63 2.34 2.34 0 0 1 .76 1.65v2.38c0-1.42 1.46-2.52 2.4-3.28a4.28 4.28 0 0 1 2.81-1.15 3.76 3.76 0 0 1 1.61.38l-.73 5.83A7.13 7.13 0 0 0 82.9 22a3.54 3.54 0 0 0-2.75 1.4 10.32 10.32 0 0 0-2 4.38L77.07 37zm50.83 0l1.57-13.15c0-.22 0-.36.06-.54a4.18 4.18 0 0 0 0-.49 2.16 2.16 0 0 0-.37-1.46A1.42 1.42 0 0 0 122 21a3 3 0 0 0-1.43.43 5.69 5.69 0 0 0-1.42 1.19 8.83 8.83 0 0 0-1.23 1.86 9.64 9.64 0 0 0-.89 2.31L115.87 37h-6.24l2.5-21h3.22a2.14 2.14 0 0 1 1.41.63 2.23 2.23 0 0 1 .44 1.65V20a10.51 10.51 0 0 1 3.4-3 8.07 8.07 0 0 1 3.76-.95 5.49 5.49 0 0 1 2.17.42 4.58 4.58 0 0 1 1.69 1.24 5.77 5.77 0 0 1 1.11 2 8.49 8.49 0 0 1 .41 2.74v.74c0 .25 0 .41-.07.68L128.07 37zm28.39-15.52a6.09 6.09 0 0 1-.56 2.62 5.28 5.28 0 0 1-2 2.1 13.08 13.08 0 0 1-3.76 1.57 38.63 38.63 0 0 1-6 1 4.7 4.7 0 0 0 .93 3.12 3.4 3.4 0 0 0 2.65 1 6.59 6.59 0 0 0 1.43-.14 6 6 0 0 0 1.06-.36 7.54 7.54 0 0 0 .81-.47l.7-.46a3.24 3.24 0 0 1 .69-.36 2.16 2.16 0 0 1 .83-.14 1.22 1.22 0 0 1 .58.15 1.92 1.92 0 0 1 .51.39l1.61 1.87a20.88 20.88 0 0 1-2.17 1.88 11.19 11.19 0 0 1-2.17 1.31 10 10 0 0 1-2.38.76 14.67 14.67 0 0 1-2.75.24 9 9 0 0 1-3.4-.63 7.82 7.82 0 0 1-2.67-1.8 8.13 8.13 0 0 1-1.73-2.78 10.24 10.24 0 0 1-.61-3.63 14.17 14.17 0 0 1 .37-3.26 13.44 13.44 0 0 1 1.07-3 12.66 12.66 0 0 1 1.7-2.58 11.1 11.1 0 0 1 2.26-2 11 11 0 0 1 2.76-1.32 10.7 10.7 0 0 1 3.19-.47 8.49 8.49 0 0 1 3 .48 6.85 6.85 0 0 1 2.19 1.26 5.54 5.54 0 0 1 1.35 1.74 4.55 4.55 0 0 1 .51 1.91zm-7.33-1.2a3.65 3.65 0 0 0-2.72 1.23 7.87 7.87 0 0 0-1.75 3.4 31.39 31.39 0 0 0 3.16-.64 7.77 7.77 0 0 0 1.87-.72 2.25 2.25 0 0 0 .9-.85 2.16 2.16 0 0 0 .23-1 1.48 1.48 0 0 0-.4-1 1.62 1.62 0 0 0-1.29-.42z" fill="#221f1f"/><path fill="#3cd46b" d="M101.45 11l-4.53 37h6.16l4.53-37h-6.16zM86.21 48l5.9-48h6.16l-5.9 48z"/></svg>