<svg xmlns="http://www.w3.org/2000/svg" viewBox="0 0 566.88 205.04"><path d="M58.42 65.41v-4.33l-3.75-2.17-3.75 2.17v4.33l3.75 2.17 3.75-2.17zm0 19.64v-4.33l-3.75-2.17-3.75 2.17v4.33l3.75 2.17 3.75-2.17zm0 19.64v-4.33l-3.75-2.17-3.75 2.17v4.33l3.75 2.16 3.75-2.16zm0 19.64v-4.34l-3.75-2.16-3.75 2.16v4.34l3.75 2.16 3.75-2.16zm0 19.63v-4.33l-3.75-2.16-3.75 2.16v4.33l3.75 2.17 3.75-2.17zm4.54 22.26v-9.57l-8.29-4.79-8.29 4.79v9.57l8.29 4.79 8.29-4.79zm0 19.64v-9.57l-8.29-4.79-8.29 4.79v9.57l8.29 4.79 8.29-4.79zM41.52 35.96v-4.33l-3.75-2.17-3.75 2.17v4.33l3.75 2.16 3.75-2.16zm0 19.63v-4.33l-3.75-2.16-3.75 2.16v4.33l3.75 2.17 3.75-2.17zm0 19.64V70.9l-3.75-2.16-3.75 2.16v4.33l3.75 2.17 3.75-2.17zm0 19.64v-4.33l-3.75-2.17-3.75 2.17v4.33l3.75 2.17 3.75-2.17zm0 19.64v-4.33l-3.75-2.17-3.75 2.17v4.33l3.75 2.16 3.75-2.16zm0 19.64v-4.34l-3.75-2.16-3.75 2.16v4.34l3.75 2.16 3.75-2.16zm0 19.63v-4.33l-3.75-2.16-3.75 2.16v4.33l3.75 2.17 3.75-2.17zm0 19.64v-4.33l-3.75-2.16-3.75 2.16v4.33l3.75 2.17 3.75-2.17zM24.51 45.77v-4.33l-3.75-2.16-3.75 2.16v4.33l3.75 2.17 3.75-2.17zm0 19.64v-4.33l-3.75-2.17-3.75 2.17v4.33l3.75 2.17 3.75-2.17zm0 19.64v-4.33l-3.75-2.17-3.75 2.17v4.33l3.75 2.17 3.75-2.17zm0 19.64v-4.33l-3.75-2.17-3.75 2.17v4.33l3.75 2.16 3.75-2.16zm0 19.64v-4.34l-3.75-2.16-3.75 2.16v4.34l3.75 2.16 3.75-2.16zm0 19.63v-4.33l-3.75-2.16-3.75 2.16v4.33l3.75 2.17 3.75-2.17zm0 19.64v-4.33l-3.75-2.17-3.75 2.17v4.33l3.75 2.17 3.75-2.17zM7.5 55.59v-4.33L3.75 49.1 0 51.26v4.33l3.75 2.17 3.75-2.17zm0 19.64V70.9l-3.75-2.16L0 70.9v4.33l3.75 2.17 3.75-2.17zm0 19.64v-4.33l-3.75-2.17L0 90.54v4.33l3.75 2.17 3.75-2.17zm0 19.64v-4.33l-3.75-2.17L0 110.18v4.33l3.75 2.16 3.75-2.16zm0 19.64v-4.34l-3.75-2.16L0 129.81v4.34l3.75 2.16 3.75-2.16zm0 19.63v-4.33l-3.75-2.16L0 149.45v4.33l3.75 2.17 3.75-2.17zm68.05-78.55V70.9l-3.75-2.16-3.75 2.16v4.33l3.75 2.17 3.75-2.17zm0 19.64v-4.33l-3.75-2.17-3.75 2.17v4.33l3.75 2.17 3.75-2.17zm0 19.64v-4.33l-3.75-2.17-3.75 2.17v4.33l3.75 2.16 3.75-2.16zm0 19.64v-4.34l-3.75-2.16-3.75 2.16v4.34l3.75 2.16 3.75-2.16zm4.54 22.26v-9.58l-8.29-4.79-8.29 4.79v9.58l8.29 4.78 8.29-4.78zm0 19.63v-9.57l-8.29-4.79-8.29 4.79v9.57l8.29 4.79 8.29-4.79zm0 19.64v-9.57l-8.29-4.79-8.29 4.79v9.57l8.29 4.79 8.29-4.79zM92.55 6.5V2.17L88.8 0l-3.75 2.17V6.5l3.75 2.16 3.75-2.16zm.08 78.59v-4.42l-3.83-2.2-3.83 2.2v4.42l3.83 2.21 3.83-2.21zm-.08 19.6v-4.33l-3.75-2.17-3.75 2.17v4.33l3.75 2.16 3.75-2.16zm.08 19.68v-4.42l-3.83-2.21-3.83 2.21v4.42l3.83 2.21 3.83-2.21zm4.46 22.21v-9.57l-8.29-4.79-8.29 4.79v9.57l8.29 4.79 8.29-4.79zm0 19.64v-9.57l-8.29-4.79-8.29 4.79v9.57l8.29 4.79 8.29-4.79zm0 19.64v-9.57l-8.29-4.79-8.29 4.79v9.57l8.29 4.79 8.29-4.79zm-4.54 17.02v-4.34l-3.75-2.16-3.75 2.16v4.34l3.75 2.16 3.75-2.16zm26.64-98.19v-4.33l3.75-2.17 3.75 2.17v4.33l-3.75 2.16-3.75-2.16zm-4.54 22.26v-9.58l8.29-4.79 8.29 4.79v9.58l-8.29 4.78-8.29-4.78zm0 19.63v-9.57l8.29-4.79 8.29 4.79v9.57l-8.29 4.79-8.29-4.79zm0 19.64v-9.57l8.29-4.79 8.29 4.79v9.57l-8.29 4.79-8.29-4.79zm0 19.64v-9.57l8.29-4.79 8.29 4.79v9.57l-8.29 4.79-8.29-4.79zm21.36-90.94V90.5l3.82-2.21 3.83 2.21v4.42l-3.83 2.2-3.82-2.2zm0 19.63v-4.41l3.82-2.22 3.83 2.22v4.41l-3.83 2.21-3.82-2.21zm-4.47 22.22v-9.58l8.3-4.78 8.28 4.78v9.58l-8.28 4.79-8.3-4.79zm0 19.64v-9.58l8.3-4.79 8.28 4.79v9.58l-8.28 4.78-8.3-4.78zm0 19.63v-9.57l8.3-4.79 8.28 4.79v9.57l-8.28 4.79-8.3-4.79zm21.55-71.35v-4.33l3.75-2.17 3.75 2.17v4.33l-3.75 2.16-3.75-2.16zm-4.54 22.26v-9.58l8.29-4.79 8.3 4.79v9.58l-8.3 4.78-8.29-4.78zm0 19.63v-9.57l8.29-4.79 8.3 4.79v9.57l-8.3 4.79-8.29-4.79zm0 19.64v-9.57l8.29-4.79 8.3 4.79v9.57l-8.3 4.79-8.29-4.79zm21.48-71.3V90.5l3.82-2.21 3.83 2.21v4.42l-3.83 2.2-3.82-2.2zm0 19.63v-4.41l3.82-2.22 3.83 2.22v4.41l-3.83 2.21-3.82-2.21zm-4.47 22.22v-9.58l8.29-4.78 8.3 4.78v9.58l-8.3 4.79-8.29-4.79zm4.54 17.01v-4.33l3.75-2.16 3.76 2.16v4.33l-3.76 2.17-3.75-2.17zm0-98.43v-4.33l3.75-2.17 3.76 2.17v4.33l-3.76 2.16-3.75-2.16zM62.96 28.76v-9.58l-8.29-4.78-8.29 4.78v9.58l8.29 4.78 8.29-4.78zm0 19.64v-9.58l-8.29-4.79-8.29 4.79v9.58l8.29 4.78 8.29-4.78zm17.13-29.46V9.37L71.8 4.58l-8.29 4.79v9.57l8.29 4.79 8.29-4.79zm0 19.64V29l-8.29-4.78L63.51 29v9.58l8.29 4.79 8.29-4.79zm0 19.64v-9.58l-8.29-4.79-8.29 4.79v9.58L71.8 63l8.29-4.78zm17-29.46v-9.58L88.8 14.4l-8.29 4.78v9.58l8.29 4.78 8.29-4.78zm0 19.64v-9.58l-8.29-4.79-8.29 4.79v9.58l8.29 4.78 8.29-4.78zm0 19.63v-9.57l-8.29-4.79-8.29 4.79v9.57l8.29 4.79 8.29-4.79zm17.56-39.27v-9.58l8.29-4.78 8.29 4.78v9.58l-8.29 4.78-8.29-4.78zm0 19.64v-9.58l8.29-4.79 8.29 4.79v9.58l-8.29 4.78-8.29-4.78zm0 19.63v-9.57l8.29-4.79 8.29 4.79v9.57l-8.29 4.79-8.29-4.79zm0 19.64V78.1l8.29-4.79 8.29 4.79v9.57l-8.29 4.79-8.29-4.79zm16.89-49.09V29l8.3-4.78 8.28 4.78v9.58l-8.28 4.79-8.3-4.79zm0 19.64v-9.58l8.3-4.79 8.28 4.79v9.58L139.84 63l-8.3-4.78zm0 19.64v-9.58l8.3-4.79 8.28 4.79v9.58l-8.28 4.78-8.3-4.78zm17.01-29.46v-9.58l8.29-4.79 8.3 4.79v9.58l-8.3 4.78-8.29-4.78zm0 19.63v-9.57l8.29-4.79 8.3 4.79v9.57l-8.3 4.79-8.29-4.79zm0 19.64V78.1l8.29-4.79 8.3 4.79v9.57l-8.3 4.79-8.29-4.79zm17.01-9.81v-9.58l8.29-4.79 8.3 4.79v9.58l-8.3 4.78-8.29-4.78zM97.51 18.94V9.37l8.29-4.79 8.3 4.79v9.57l-8.3 4.79-8.29-4.79zm0 19.64V29l8.29-4.78 8.3 4.78v9.58l-8.3 4.79-8.29-4.79zm0 19.64v-9.58l8.29-4.79 8.3 4.79v9.58L105.8 63l-8.29-4.78zm0 19.64v-9.58l8.29-4.79 8.3 4.79v9.58l-8.3 4.78-8.29-4.78zm4.47 17.06V90.5l3.82-2.21 3.83 2.21v4.42l-3.83 2.2-3.82-2.2zm0 19.63v-4.41l3.82-2.22 3.83 2.22v4.41l-3.83 2.21-3.82-2.21zm-4.47 22.22v-9.58l8.29-4.78 8.3 4.78v9.58l-8.3 4.79-8.29-4.79zm0 19.64v-9.58l8.29-4.79 8.3 4.79v9.58l-8.3 4.78-8.29-4.78zm0 19.63v-9.57l8.29-4.79 8.3 4.79v9.57l-8.3 4.79-8.29-4.79zm0 19.64v-9.57l8.29-4.79 8.3 4.79v9.57l-8.3 4.79-8.29-4.79zM259.24 69.57h-1.91c-.66-4-1.72-6.47-3.18-7.62s-3.41-1.64-7.31-1.64h-2.3c-2.39 0-2.79.31-2.79 2.22v10.09h1.06c4.21 0 6-1.73 6.2-6.06h2.08v14.52H249c-.09-2.62-.53-4-1.68-5.18-.89-.93-2-1.2-4.7-1.2h-.88V86c0 .93 0 1.2.35 1.46a4.63 4.63 0 002.84.67h2.92c3.72 0 6.24-.84 7.61-2.61 1.07-1.29 2.08-4 2.66-7.13h1.95l-.89 11.82H232v-2.09h.79c3.59 0 4-.22 4-2.08V62.39c0-1.86-.4-2.08-4-2.08H232v-2.08h26.61zm17.44 5a6.44 6.44 0 00.4-1.86c0-1-.84-1.55-2.39-1.55h-.62v-1.59h8.86v1.59h-.18c-1.68 0-2.92 1.24-4.12 4.16l-6.28 15.54h-1.55l-7.62-17.8c-.62-1.5-1.24-1.9-2.92-1.9h-.36v-1.59h10.45v1.59h-.62c-1.81 0-2.39.26-2.39 1a2.47 2.47 0 00.22.93l5.05 11.73zm23.25 5.31c0 6.11-4.25 11-9.57 11S280.8 86 280.8 79.93s4.25-11 9.65-11c5.23 0 9.48 4.92 9.48 11m-14.48.05c0 5.84 1.73 9 4.91 9s4.92-3.19 4.92-9.08-1.73-9.07-4.83-9.07c-3.32 0-5 3.1-5 9.12"/><path d="M306.28 84.75v1.77c0 1.77.49 2.08 3.37 2.08h.35v1.6h-11.51v-1.6h.31c2.83 0 3.32-.31 3.32-2.08V62.17c0-1.9-.27-2.21-1.86-2.21h-2.17v-1.9l8.19-.49z"/><path d="M324.93 86.83c-1.95 2.84-4 4-6.91 4a6.84 6.84 0 01-6-2.83c-.67-1-.84-2-.84-4.3v-9.53c0-1.9-.27-2.21-1.91-2.21h-1.68v-1.91l7.75-.48v13.5c0 2.44.09 2.88.66 3.72a3.6 3.6 0 003.1 1.37 5.24 5.24 0 004.87-3.1 12.21 12.21 0 00.93-5.44v-5.45c0-1.9-.27-2.21-1.91-2.21h-2.25v-1.91l8.32-.48v15.49c0 2.84.36 3.23 2.79 3.23H333v1.91l-8.06.31zm19.66-17.26v1.9h-6.51v12.09a9.6 9.6 0 00.4 3.32 2.36 2.36 0 002.22 1.28c2.16 0 3.32-2 3.45-6H346v1a8.78 8.78 0 01-2.3 6.2 6.08 6.08 0 01-4.25 1.5c-2.57 0-4.34-1-5.05-2.88-.44-1-.53-2.12-.53-5.22V71.47h-3.63v-1.73c3.59-.26 5.54-3.18 6-8.94h1.81v8.77z"/><path d="M352.92 84.75v1.77c0 1.77.49 2.08 3.37 2.08h.31v1.6h-11.47v-1.6h.31c2.83 0 3.32-.31 3.32-2.08V73.69c0-1.9-.26-2.21-1.9-2.21h-2.35v-1.91l8.41-.23zm.49-23.64a2.57 2.57 0 11-2.57-2.57 2.58 2.58 0 012.57 2.57"/><path d="M374.33 79.88c0 6.11-4.25 11-9.57 11S355.2 86 355.2 79.93s4.25-11 9.65-11c5.23 0 9.48 4.92 9.48 11m-14.48.05c0 5.84 1.73 9 4.91 9s4.92-3.19 4.92-9.08-1.73-9.07-4.83-9.07c-3.32 0-5 3.1-5 9.12"/><path d="M380.92 73.15c1.95-2.92 4.17-4.25 7-4.25a6.59 6.59 0 016 3.41c.79 1.51.93 2.3.93 5.49v8.72c0 1.77.48 2.08 3.32 2.08h.18v1.6h-11.23v-1.6h.18c2.88 0 3.36-.31 3.36-2.08v-8.94a7.58 7.58 0 00-1-4.43 4.25 4.25 0 00-3.14-1.55 5.66 5.66 0 00-4.8 3.4 13.69 13.69 0 00-.8 5.18v6.37c0 1.77.49 2.08 3.37 2.08h.18v1.6h-11.21V88.6h.18c2.83 0 3.32-.31 3.32-2.08V74.17c0-1.9-.27-2.21-1.9-2.21h-1.6v-1.91l7.66-.48zm55.13-2.79h-1.91c-1.81-7.08-5.31-10.71-10.36-10.71-6.15 0-9.43 5.27-9.43 15.14 0 4.74.71 7.88 2.35 10.32a9 9 0 007.21 3.67c2.88 0 5.72-1.5 6.82-3.67a11.49 11.49 0 00.89-4.74c0-2.44-.31-2.66-4-2.66h-.84v-2.08h14.08v2.08h-.67c-2.39 0-3.32.18-3.72.62s-.26.36-.26 2.75v9.74h-1.86l-1.64-4c-2.88 2.88-5.49 4-9.21 4A14.85 14.85 0 01412.4 86a16.27 16.27 0 01-3.89-11.16c0-6 2-10.45 6.42-14a13.38 13.38 0 019-3.23c3.23 0 5.18.75 8.06 3l1.72-2.7h1.69z"/><path d="M458.2 84.84c0 2.21.45 3.06 1.69 3.06a3.14 3.14 0 001.24-.31 1.55 1.55 0 01.66-.18.5.5 0 01.45.53c0 1.28-2.09 2.57-4.08 2.57s-3.19-.89-3.9-3.15a9.87 9.87 0 01-7.7 3.5c-3.9 0-6.42-2-6.42-5.18 0-2.79 1.86-4.87 5.67-6.29 2.17-.84 3.58-1.19 8.23-2v-1.71c0-2-.31-3.06-1.15-3.77a5.94 5.94 0 00-3.63-1.1c-2.12 0-3.94.79-3.94 1.72 0 .13.05.27.31.58a3.2 3.2 0 01.67 1.81 2.25 2.25 0 01-2.4 2.26 2.49 2.49 0 01-2.56-2.74c0-3.19 3.67-5.54 8.63-5.54a10.37 10.37 0 016.47 1.77c1.28 1.07 1.76 2.48 1.76 5.27zm-4.2-5.53a25.76 25.76 0 00-6.51 1.69c-1.95.93-2.88 2.25-2.88 4.11a3.4 3.4 0 003.5 3.46 6.4 6.4 0 005.05-2.75c.75-1.15.88-1.77.88-4.43z"/><path d="M469.41 73c1.73-2.79 3.72-4.08 6.38-4.08a6.15 6.15 0 016.11 4.43c1.9-3.06 4-4.43 6.9-4.43a6.47 6.47 0 015.2 2.5c1.15 1.51 1.42 2.44 1.42 5.19v9.87c0 1.81.48 2.12 3.32 2.12h.17v1.6h-11.2v-1.6h.18c2.88 0 3.36-.31 3.36-2.08v-9a9 9 0 00-.53-3.67 3.43 3.43 0 00-3.23-2.22c-3.1 0-5.09 2.84-5.09 7.26v7.66c0 1.77.48 2.08 3.32 2.08h.18v1.6h-11.18V88.6h.18c2.88 0 3.37-.31 3.37-2.08V77a6.68 6.68 0 00-.89-3.94 3.64 3.64 0 00-2.92-1.46c-2.88 0-5 2.92-5 6.87v8c0 1.81.49 2.12 3.32 2.12h.18v1.6h-11.21V88.6h.18c2.83 0 3.32-.31 3.32-2.12V74.17c0-1.9-.27-2.21-1.9-2.21h-1.82v-1.91l7.88-.49z"/><path d="M506.53 84.75v1.77c0 1.77.49 2.08 3.37 2.08h.31v1.6h-11.47v-1.6h.31c2.83 0 3.32-.31 3.32-2.08V74.17c0-1.9-.26-2.21-1.91-2.21h-2.25v-1.91l8.32-.49zm.47-23.64a2.57 2.57 0 11-2.57-2.57 2.58 2.58 0 012.57 2.57"/><path d="M517.61 73.15c1.95-2.92 4.16-4.25 7-4.25a6.58 6.58 0 016 3.41c.8 1.51.93 2.3.93 5.49v8.72c0 1.77.49 2.08 3.32 2.08h.14v1.6h-11.2v-1.6h.2c2.88 0 3.37-.31 3.37-2.08v-8.94a7.58 7.58 0 00-1-4.43 4.29 4.29 0 00-3.15-1.55 5.66 5.66 0 00-4.81 3.4 13.69 13.69 0 00-.8 5.18v6.37c0 1.77.49 2.08 3.36 2.08h.18v1.6H510V88.6h.18c2.83 0 3.32-.31 3.32-2.08V74.17c0-1.9-.27-2.21-1.91-2.21H510v-1.91l7.66-.48z"/><path d="M546 86.92c3.05 0 4.47.18 5.62.62a4.75 4.75 0 012.66 4.65c0 4.65-3.72 7-11.12 7-5.93 0-9.34-1.64-9.34-4.56 0-1.82 1.33-3.24 4.07-4.21-2.08-.71-3-1.86-3-3.81 0-2.43 1.24-3.76 4.2-4.43a6.41 6.41 0 01-3.72-5.93c0-4.43 3.46-7.35 8.73-7.35a8.77 8.77 0 015.49 1.68c2-1.86 2.83-2.3 4.25-2.3a2.64 2.64 0 012.92 2.57 2 2 0 01-2 2.13 1.83 1.83 0 01-2-1.64c-.09-.49-.22-.62-.45-.62s-.75.26-1.5 1.06a5.89 5.89 0 011.64 4.34 6.76 6.76 0 01-4.17 6.42c-1.46.66-2.12.75-6.33.84-3 .09-4.16.66-4.16 2a1.35 1.35 0 00.53 1.15c.53.31.67.36 3.1.4zm-5.58 3.81c-2.13 1.11-2.92 2.08-2.92 3.54 0 2 2.12 3.1 5.84 3.1 5 0 7.84-1.46 7.84-4 0-1.42-1.11-2.4-2.88-2.57a36.17 36.17 0 00-4.61-.09zm-1-14.43c0 3.32 1.72 5.4 4.47 5.4s4.51-2.08 4.51-5.54-1.55-5.36-4.34-5.36c-3 0-4.64 2-4.64 5.5m-267.79 36.85h-2.81c-1-5.88-2.55-9.53-4.7-11.23s-5-2.42-10.78-2.42H250c-3.53 0-4.12.46-4.12 3.27v14.89h1.57c6.2 0 8.82-2.55 9.14-9h3.07v21.41h-3.07c-.13-3.85-.78-5.94-2.48-7.63-1.31-1.38-2.94-1.77-6.92-1.77h-1.31v16.65c0 1.37.07 1.77.53 2.16.58.59 2.22 1 4.17 1h4.31c5.49 0 9.21-1.24 11.23-3.86 1.57-1.89 3.07-5.94 3.92-10.51h2.88l-1.31 17.44h-40.14v-3.07h1.17c5.29 0 5.88-.33 5.88-3.07v-34.84c0-2.74-.59-3.07-5.88-3.07h-1.17v-3.07h39.24zm12.86 5.29c2.87-4.31 6.13-6.27 10.31-6.27a9.68 9.68 0 018.82 5c1.17 2.22 1.37 3.39 1.37 8.09v12.87c0 2.61.72 3.07 4.9 3.07h.26v2.35h-16.52v-2.35h.26c4.24 0 5-.46 5-3.07V125c0-3.14-.45-5.16-1.44-6.53a6.23 6.23 0 00-4.63-2.29 8.37 8.37 0 00-7.12 5 20.32 20.32 0 00-1.17 7.65v9.4c0 2.61.71 3.07 5 3.07h.26v2.35h-16.6v-2.35h.26c4.18 0 4.9-.46 4.9-3.07v-18.29c0-2.81-.39-3.27-2.81-3.27h-2.35v-2.8l11.3-.72z"/><path d="M326.27 138.74c4.51 0 6.6.27 8.3.92 2.41 1 3.92 3.59 3.92 6.86 0 6.85-5.49 10.31-16.4 10.31-8.74 0-13.77-2.41-13.77-6.72 0-2.68 2-4.77 6-6.21-3.07-1-4.38-2.74-4.38-5.61 0-3.59 1.83-5.55 6.2-6.53a9.47 9.47 0 01-5.48-8.75c0-6.53 5.09-10.84 12.86-10.84a12.91 12.91 0 018.1 2.48c3-2.74 4.18-3.39 6.27-3.39 2.54 0 4.3 1.56 4.3 3.78a3 3 0 01-2.93 3.14 2.7 2.7 0 01-2.94-2.42c-.13-.72-.33-.91-.66-.91-.52 0-1.1.39-2.21 1.56a8.72 8.72 0 012.41 6.4 10 10 0 01-6.13 9.47c-2.16 1-3.14 1.11-9.34 1.24-4.38.13-6.14 1-6.14 2.94a2 2 0 00.78 1.7c.79.45 1 .52 4.57.58zm-8.22 5.62c-3.14 1.63-4.31 3.07-4.31 5.22 0 2.94 3.13 4.57 8.62 4.57 7.31 0 11.55-2.15 11.55-5.87 0-2.09-1.63-3.53-4.24-3.79-1-.13-1.37-.13-6.79-.13zm-1.44-21.29c0 4.9 2.55 8 6.6 8s6.66-3.07 6.66-8.16-2.29-7.9-6.4-7.9c-4.38 0-6.86 2.94-6.86 8.09m38.72 12.44v2.62c0 2.61.72 3.07 5 3.07h.46v2.35h-16.95v-2.35h.46c4.17 0 4.89-.46 4.89-3.07v-18.22c0-2.81-.39-3.27-2.81-3.27h-3.33v-2.8l12.28-.72zm.72-32.62a3.79 3.79 0 11-3.79-3.78 3.81 3.81 0 013.79 3.78m16.07 15.52c2.87-4.31 6.13-6.27 10.31-6.27a9.7 9.7 0 018.82 5c1.17 2.22 1.37 3.39 1.37 8.09v12.87c0 2.61.72 3.07 4.89 3.07h.26v2.35h-16.51v-2.35h.26c4.24 0 5-.46 5-3.07V125c0-3.14-.46-5.16-1.44-6.53a6.23 6.23 0 00-4.63-2.29 8.37 8.37 0 00-7.12 5 20.32 20.32 0 00-1.17 7.65v9.4c0 2.61.71 3.07 5 3.07h.26v2.35h-16.6v-2.35h.26c4.18 0 4.9-.46 4.9-3.07v-18.29c0-2.81-.39-3.27-2.81-3.27h-2.35v-2.8l11.3-.72z"/><path d="M402.41 128.89c-.06 3.59.46 5.87 1.63 7.83a8.1 8.1 0 007.45 4.31c4.37 0 7.11-2 9.79-7l2.29 1.24c-2.68 6.21-7.12 9.28-13.32 9.28-8.82 0-14.76-6.21-14.76-15.35 0-9.79 6.27-17 14.62-17 8 0 13.52 6.92 13.46 16.72zm11.49-2.81c2.09 0 2.68-.53 2.68-2.42 0-5.22-2.61-8.68-6.59-8.68-3.14 0-5.23 1.89-6.6 5.81a14.36 14.36 0 00-.91 5.29zm17.23 2.81c-.07 3.59.45 5.87 1.63 7.83a8.09 8.09 0 007.44 4.28c4.38 0 7.12-2 9.8-7l2.28 1.24c-2.68 6.21-7.11 9.28-13.32 9.28-8.81 0-14.75-6.21-14.75-15.35 0-9.79 6.27-17 14.62-17 8 0 13.52 6.92 13.45 16.72zm11.49-2.81c2.09 0 2.68-.53 2.68-2.42 0-5.22-2.62-8.68-6.6-8.68-3.13 0-5.22 1.89-6.59 5.81a14.17 14.17 0 00-.92 5.29z"/><path d="M463.38 121.25c2.09-5.75 5.68-9.08 9.8-9.08 3.46 0 5.68 2.09 5.68 5.22 0 2.68-1.63 4.44-4 4.44a3.46 3.46 0 01-3.6-3.59 3.79 3.79 0 011.18-2.94c-2.75.33-5 2.35-6.53 6a35.27 35.27 0 00-2.55 13.58v3.27c0 2.61.72 3.07 4.9 3.07h1.24v2.35h-17.41v-2.35h.26c4.24 0 5-.46 5-3.07v-18.21c0-2.81-.39-3.26-2.81-3.26h-2.68v-2.81l11.56-.72zm28.99 14.29v2.62c0 2.61.72 3.07 5 3.07h.46v2.35h-16.95v-2.35h.46c4.18 0 4.89-.46 4.89-3.07v-18.22c0-2.81-.39-3.27-2.8-3.27h-3.33v-2.8l12.27-.72zm.72-32.62a3.79 3.79 0 11-3.79-3.78 3.81 3.81 0 013.79 3.78m16.07 15.52c2.87-4.31 6.14-6.27 10.31-6.27a9.68 9.68 0 018.82 5c1.18 2.22 1.37 3.39 1.37 8.09v12.87c0 2.61.72 3.07 4.9 3.07h.26v2.35H518.3v-2.35h.26c4.24 0 5-.46 5-3.07V125c0-3.14-.45-5.16-1.43-6.53a6.26 6.26 0 00-4.64-2.29 8.38 8.38 0 00-7.12 5 20.52 20.52 0 00-1.17 7.65v9.4c0 2.61.72 3.07 5 3.07h.26v2.35h-16.6v-2.35h.26c4.18 0 4.9-.46 4.9-3.07v-18.29c0-2.81-.39-3.27-2.81-3.27h-2.35v-2.8l11.3-.72z"/><path d="M551 138.74c4.5 0 6.59.27 8.29.92 2.42 1 3.92 3.59 3.92 6.86 0 6.85-5.49 10.31-16.39 10.31-8.75 0-13.78-2.41-13.78-6.72 0-2.68 2-4.77 6-6.21-3.07-1-4.38-2.74-4.38-5.61 0-3.59 1.83-5.55 6.21-6.53a9.46 9.46 0 01-5.49-8.75c0-6.53 5.09-10.84 12.86-10.84a12.91 12.91 0 018.1 2.48c3-2.74 4.18-3.39 6.27-3.39 2.54 0 4.31 1.56 4.31 3.78a3 3 0 01-2.94 3.14 2.71 2.71 0 01-2.94-2.42c-.13-.72-.33-.91-.65-.91-.52 0-1.11.39-2.22 1.56a8.68 8.68 0 012.41 6.4 10 10 0 01-6.13 9.47c-2.16 1-3.14 1.11-9.34 1.24-4.38.13-6.14 1-6.14 2.94a2 2 0 00.79 1.7c.78.45 1 .52 4.57.58zm-8.23 5.62c-3.13 1.63-4.31 3.07-4.31 5.22 0 2.94 3.13 4.57 8.62 4.57 7.31 0 11.56-2.15 11.56-5.87 0-2.09-1.64-3.53-4.25-3.79-1-.13-1.37-.13-6.79-.13zm-1.44-21.29c0 4.9 2.55 8 6.6 8s6.66-3.07 6.66-8.16-2.29-7.9-6.4-7.9c-4.38 0-6.86 2.94-6.86 8.09"/></svg>