<svg xmlns="http://www.w3.org/2000/svg" viewBox="0 0 55.14 55.15"><path fill="#4CC1C4" d="M24.75 53.97a4 4 0 1 1 5.65-5.64 4 4 0 0 1-5.65 5.64"/><path fill="#343433" d="M24.75 30.4a4.03 4.03 0 0 1 0-5.66 4.02 4.02 0 0 1 5.64 0 4.01 4.01 0 0 1 0 5.65 4.04 4.04 0 0 1-2.82 1.17 4.03 4.03 0 0 1-2.82-1.17"/><path fill="#4CC1C4" d="M24.75 6.81A4.05 4.05 0 0 1 23.58 4c0-1.05.43-2.08 1.17-2.83a4.01 4.01 0 0 1 5.64 0 4.02 4.02 0 0 1 0 5.65 4.02 4.02 0 0 1-5.64 0m-.11 11.68a3.99 3.99 0 1 1 5.85-5.4 3.99 3.99 0 0 1-5.85 5.4m.11 23.69a4.02 4.02 0 0 1 0-5.65 4.02 4.02 0 0 1 5.64 0 4.02 4.02 0 0 1 0 5.65 4.03 4.03 0 0 1-2.82 1.17 4.04 4.04 0 0 1-2.82-1.17"/><path fill="#343433" d="M36.53 30.4a4.03 4.03 0 0 1 0-5.65 4.02 4.02 0 0 1 5.65 0 4.02 4.02 0 0 1 0 5.64 4.04 4.04 0 0 1-2.82 1.17 4.04 4.04 0 0 1-2.83-1.17m0-11.79a4 4 0 0 1 0-5.65 4.03 4.03 0 0 1 5.65 0 4.01 4.01 0 0 1-2.82 6.83 4.04 4.04 0 0 1-2.83-1.18m0 23.58a4.04 4.04 0 0 1-1.17-2.82c0-1.06.43-2.08 1.17-2.83a4.03 4.03 0 0 1 5.65 0 4.02 4.02 0 0 1 0 5.65 4.02 4.02 0 0 1-5.65 0m11.8-11.79a4.02 4.02 0 0 1 0-5.65 4.02 4.02 0 0 1 5.64 0 4.02 4.02 0 0 1 0 5.65 4.03 4.03 0 0 1-2.82 1.17 4.04 4.04 0 0 1-2.83-1.17m-35.37 0a4.02 4.02 0 0 1 2.83-6.82 4.02 4.02 0 0 1 2.82 6.82 4.04 4.04 0 0 1-2.82 1.17 4.04 4.04 0 0 1-2.82-1.17"/><path fill="#4CC1C4" d="M12.96 18.6a3.98 3.98 0 1 1 5.64 0 4.02 4.02 0 0 1-2.82 1.18 4.01 4.01 0 0 1-2.82-1.18m0 23.58a4.01 4.01 0 0 1 0-5.65 4.02 4.02 0 0 1 5.64 0 4.02 4.02 0 0 1 0 5.65 4.02 4.02 0 0 1-5.64 0"/><path fill="#343433" d="M1.17 30.4a4.01 4.01 0 0 1 0-5.66 4.03 4.03 0 0 1 5.65 0 4.02 4.02 0 0 1 0 5.65 4.03 4.03 0 0 1-5.65 0"/></svg>