<svg xmlns="http://www.w3.org/2000/svg" viewBox="0 0 55.141 55.146"><path fill="#4CC1C4" d="M24.746 53.97c-.75-.744-1.168-1.773-1.168-2.824 0-1.052.418-2.078 1.168-2.822.746-.744 1.773-1.167 2.824-1.167 1.054 0 2.08.423 2.824 1.167.744.744 1.168 1.77 1.168 2.822 0 1.05-.424 2.08-1.168 2.824-.744.74-1.77 1.176-2.824 1.176-1.05 0-2.078-.435-2.824-1.176"/><path fill="#343433" d="M24.746 30.392c-.744-.746-1.168-1.776-1.168-2.824 0-1.054.424-2.08 1.168-2.825.744-.743 1.773-1.167 2.82-1.167 1.058 0 2.082.424 2.828 1.167.744.744 1.168 1.77 1.168 2.825 0 1.048-.424 2.078-1.168 2.824-.746.74-1.77 1.17-2.827 1.17-1.047 0-2.077-.43-2.82-1.17"/><path fill="#4CC1C4" d="M24.748 6.813c-.74-.75-1.17-1.773-1.17-2.822 0-1.055.43-2.08 1.17-2.83C25.49.42 26.518 0 27.568 0c1.053 0 2.082.42 2.824 1.16.746.748 1.17 1.774 1.17 2.83 0 1.05-.424 2.074-1.17 2.823-.742.742-1.77 1.167-2.825 1.167-1.05 0-2.077-.425-2.82-1.167M24.64 18.49c-.714-.77-1.1-1.812-1.056-2.86.04-1.06.502-2.067 1.277-2.784.773-.712 1.814-1.095 2.867-1.054 1.05.04 2.062.5 2.774 1.27.716.777 1.106 1.815 1.065 2.874-.043 1.05-.51 2.06-1.283 2.773-.767.713-1.815 1.1-2.86 1.064-1.057-.044-2.065-.512-2.78-1.286m.106 23.692c-.744-.745-1.17-1.772-1.17-2.823 0-1.054.426-2.08 1.17-2.825.744-.743 1.77-1.167 2.822-1.167 1.05 0 2.08.424 2.822 1.167.744.744 1.17 1.77 1.17 2.825 0 1.05-.426 2.078-1.17 2.824-.742.74-1.77 1.17-2.822 1.17-1.053 0-2.078-.43-2.822-1.168"/><path fill="#343433" d="M36.535 30.392c-.742-.746-1.168-1.776-1.168-2.824 0-1.054.426-2.08 1.168-2.825.744-.743 1.774-1.167 2.824-1.167 1.052 0 2.073.424 2.822 1.167.744.744 1.173 1.77 1.173 2.825 0 1.048-.43 2.078-1.173 2.824-.75.74-1.77 1.17-2.824 1.17-1.05 0-2.08-.43-2.825-1.17m.002-11.792c-.742-.74-1.164-1.77-1.164-2.82 0-1.055.424-2.08 1.166-2.826.744-.74 1.775-1.16 2.824-1.16 1.053 0 2.077.42 2.823 1.16.744.747 1.173 1.77 1.173 2.827 0 1.05-.43 2.08-1.173 2.82-.746.745-1.77 1.18-2.824 1.18-1.05 0-2.08-.435-2.826-1.18m0 23.58c-.74-.745-1.17-1.772-1.17-2.823 0-1.054.43-2.08 1.17-2.825.745-.743 1.775-1.167 2.825-1.167 1.055 0 2.082.424 2.822 1.167.744.744 1.173 1.77 1.173 2.825 0 1.05-.43 2.078-1.173 2.824-.74.74-1.768 1.17-2.824 1.17-1.05 0-2.08-.43-2.825-1.168m11.793-11.79c-.746-.746-1.17-1.776-1.17-2.824 0-1.054.424-2.08 1.17-2.825.744-.743 1.774-1.167 2.822-1.167 1.054 0 2.084.424 2.824 1.167.742.744 1.168 1.77 1.168 2.825 0 1.048-.426 2.078-1.168 2.824-.74.74-1.77 1.17-2.824 1.17-1.048 0-2.078-.43-2.822-1.17m-35.37 0c-.743-.746-1.17-1.776-1.17-2.824 0-1.054.427-2.08 1.17-2.825.745-.743 1.774-1.167 2.827-1.167 1.047 0 2.076.424 2.822 1.167.742.744 1.168 1.77 1.168 2.825 0 1.048-.426 2.078-1.168 2.824-.746.74-1.775 1.17-2.822 1.17-1.053 0-2.082-.43-2.826-1.17"/><path fill="#4CC1C4" d="M12.96 18.6c-.75-.74-1.173-1.77-1.173-2.82 0-1.055.423-2.08 1.172-2.826.74-.74 1.767-1.16 2.822-1.16 1.05 0 2.076.42 2.82 1.16.74.747 1.17 1.77 1.17 2.827 0 1.05-.43 2.08-1.17 2.82-.744.745-1.77 1.18-2.82 1.18-1.056 0-2.082-.435-2.824-1.18m0 23.58c-.745-.745-1.166-1.772-1.166-2.823 0-1.054.42-2.08 1.165-2.825.744-.743 1.77-1.167 2.826-1.167 1.052 0 2.082.424 2.822 1.167.744.744 1.17 1.77 1.17 2.825 0 1.05-.426 2.078-1.17 2.824-.74.74-1.77 1.17-2.822 1.17-1.056 0-2.082-.43-2.826-1.168"/><path fill="#343433" d="M1.168 30.392C.42 29.646 0 28.615 0 27.567c0-1.054.42-2.08 1.168-2.825.746-.743 1.774-1.167 2.824-1.167 1.05 0 2.08.424 2.824 1.167.742.744 1.168 1.77 1.168 2.825 0 1.048-.426 2.078-1.168 2.824-.744.743-1.773 1.17-2.824 1.17-1.05.003-2.078-.426-2.824-1.167"/></svg>