<svg xmlns="http://www.w3.org/2000/svg" viewBox="0 0 79.421 79.429"><g fill="#4CC1C4"><path d="M35.643 77.735c-1.08-1.072-1.682-2.554-1.682-4.068 0-1.515.604-2.993 1.684-4.065 1.074-1.072 2.554-1.68 4.068-1.68 1.52 0 2.997.608 4.07 1.68 1.07 1.072 1.68 2.55 1.68 4.065 0 1.514-.61 2.996-1.68 4.068-1.073 1.068-2.55 1.694-4.07 1.694-1.513 0-2.993-.628-4.067-1.696M35.646 9.814C34.58 8.734 33.96 7.26 33.96 5.75c0-1.523.62-3 1.686-4.077C36.716.606 38.193 0 39.706 0c1.518 0 3 .606 4.07 1.672 1.074 1.076 1.684 2.554 1.684 4.076 0 1.51-.61 2.986-1.685 4.065-1.07 1.068-2.55 1.68-4.07 1.68-1.512.002-2.99-.612-4.06-.68M35.49 26.63c-1.03-1.105-1.583-2.607-1.52-4.118.058-1.526.722-2.978 1.84-4.01 1.11-1.025 2.608-1.577 4.126-1.518 1.51.058 2.97.72 3.995 1.83 1.03 1.12 1.594 2.615 1.535 4.14-.062 1.51-.734 2.966-1.848 3.994-1.106 1.03-2.616 1.588-4.12 1.535-1.524-.063-2.975-.738-4.005-1.852m.154 34.125c-1.072-1.075-1.685-2.554-1.685-4.068 0-1.518.615-2.997 1.687-4.07 1.072-1.07 2.547-1.68 4.065-1.68 1.515 0 2.997.61 4.066 1.68 1.072 1.073 1.685 2.553 1.685 4.07 0 1.514-.612 2.993-1.684 4.068-1.07 1.063-2.55 1.68-4.066 1.68-1.517 0-2.993-.617-4.064-1.68M18.665 26.79c-1.08-1.068-1.688-2.55-1.688-4.06 0-1.52.61-2.997 1.688-4.073 1.07-1.068 2.547-1.672 4.068-1.672 1.51 0 2.99.605 4.062 1.672 1.066 1.076 1.685 2.552 1.685 4.072 0 1.51-.62 2.99-1.685 4.06-1.072 1.07-2.552 1.697-4.062 1.697-1.52 0-3-.626-4.068-1.698m-.002 33.965c-1.072-1.075-1.678-2.554-1.678-4.068 0-1.518.606-2.997 1.678-4.07 1.072-1.07 2.55-1.68 4.07-1.68 1.516 0 3 .61 4.066 1.68 1.07 1.073 1.683 2.553 1.683 4.07 0 1.514-.613 2.993-1.685 4.068-1.067 1.063-2.55 1.68-4.066 1.68-1.52 0-3-.617-4.07-1.68"/></g><g fill="#343433"><path d="M35.643 43.774c-1.072-1.075-1.682-2.56-1.682-4.068 0-1.518.61-2.997 1.684-4.07 1.072-1.07 2.554-1.68 4.063-1.68 1.522 0 2.998.61 4.072 1.68 1.07 1.073 1.68 2.552 1.68 4.07 0 1.51-.61 2.993-1.68 4.068-1.076 1.068-2.55 1.685-4.073 1.685-1.51 0-2.99-.62-4.063-1.687M52.623 43.774c-1.07-1.075-1.682-2.56-1.682-4.068 0-1.518.615-2.997 1.684-4.07 1.072-1.07 2.554-1.68 4.068-1.68 1.52 0 2.99.61 4.07 1.68 1.07 1.073 1.688 2.552 1.688 4.07 0 1.51-.617 2.993-1.69 4.068-1.078 1.068-2.55 1.685-4.067 1.685-1.512 0-2.995-.62-4.067-1.687m-.003-16.983c-1.07-1.068-1.677-2.55-1.677-4.06 0-1.52.608-2.997 1.677-4.073 1.072-1.068 2.557-1.672 4.068-1.672 1.52 0 2.995.605 4.07 1.672 1.07 1.076 1.69 2.552 1.69 4.072 0 1.51-.618 2.99-1.69 4.06-1.075 1.07-2.55 1.697-4.068 1.697-1.51 0-2.995-.626-4.067-1.698m-.002 33.965c-1.07-1.075-1.685-2.554-1.685-4.068 0-1.518.616-2.997 1.685-4.07 1.072-1.07 2.554-1.68 4.068-1.68 1.524 0 3.004.61 4.07 1.68 1.07 1.073 1.69 2.553 1.69 4.07 0 1.514-.618 2.993-1.69 4.068-1.066 1.063-2.546 1.68-4.068 1.68-1.512 0-2.995-.617-4.067-1.68m16.98-16.98c-1.074-1.076-1.684-2.56-1.684-4.07 0-1.517.61-2.996 1.687-4.07 1.072-1.07 2.554-1.68 4.065-1.68 1.52 0 3.003.61 4.07 1.68 1.068 1.074 1.68 2.553 1.68 4.07 0 1.51-.612 2.994-1.68 4.07-1.067 1.067-2.55 1.684-4.07 1.684-1.51 0-2.992-.62-4.064-1.687m-50.945 0c-1.072-1.074-1.685-2.56-1.685-4.067 0-1.518.613-2.997 1.685-4.07 1.072-1.07 2.554-1.68 4.07-1.68 1.51 0 2.99.61 4.066 1.68 1.067 1.073 1.68 2.552 1.68 4.07 0 1.51-.613 2.993-1.68 4.068-1.077 1.068-2.56 1.685-4.067 1.685-1.517 0-3-.62-4.07-1.687M1.682 43.774C.606 42.7 0 41.216 0 39.706c0-1.518.606-2.997 1.682-4.07 1.075-1.07 2.554-1.68 4.068-1.68 1.514 0 2.996.61 4.068 1.68 1.07 1.073 1.682 2.552 1.682 4.07 0 1.51-.613 2.993-1.682 4.068-1.072 1.068-2.554 1.685-4.068 1.685-1.513 0-2.993-.62-4.068-1.687"/></g></svg>