<svg xmlns="http://www.w3.org/2000/svg" viewBox="0 0 269.97 97.54"><g fill="#005E9D"><path d="M132.84 10.42v76.23s0 .47.48.47v-76.7h-.48z"/><path d="M94.75 48.3v.47h77.13l-.47-.48H94.75zm19.52 26.98a7.5 7.5 0 0 1 7.62-7.57c3.8 0 7.14 3.31 7.14 7.57s-3.33 7.58-7.14 7.58a7.5 7.5 0 0 1-7.62-7.58zm-.47 0a8 8 0 0 0 8.09 8.05c4.28 0 7.62-3.79 7.62-8.05a7.5 7.5 0 0 0-7.62-7.57c-4.76 0-8.1 3.31-8.1 7.57zm23.33 0a7.5 7.5 0 0 1 7.61-7.57c3.81 0 7.14 3.31 7.14 7.57s-3.33 7.58-7.14 7.58a7.5 7.5 0 0 1-7.62-7.58zm-.48 0c0 4.26 3.8 8.05 8.1 8.05s7.61-3.79 7.61-8.05c0-4.26-3.33-7.57-7.62-7.57s-8.1 3.31-8.1 7.57zm22.85 0a8.32 8.32 0 0 0 8.1 8.05v-.47a7.5 7.5 0 0 1-7.62-7.58 7.5 7.5 0 0 1 7.62-7.57c-4.29 0-8.1 3.31-8.1 7.57zm-60.94-7.57a7.5 7.5 0 0 1 7.62 7.57 7.5 7.5 0 0 1-7.62 7.58v.47c4.28 0 8.1-3.78 8.1-8.05 0-4.26-3.82-7.57-8.1-7.57zm0-53.5v.47c4.28 0 7.62 3.31 7.62 7.1a7.5 7.5 0 0 1-7.62 7.58v.47a8 8 0 0 0 8.1-8.05c0-4.26-3.82-7.58-8.1-7.58zm60.94 7.57a8 8 0 0 0 8.1 8.05v-.47a7.5 7.5 0 0 1-7.62-7.58c0-3.79 3.33-7.1 7.62-7.1v-.48c-4.29 0-8.1 3.32-8.1 7.58zm-14.76 0c0-1.9 1.9-3.31 3.81-3.31 1.9 0 3.33 1.42 3.33 3.31 0 2.37-1.42 3.79-3.33 3.79a3.75 3.75 0 0 1-3.8-3.79zm-.47 0c0 2.37 1.9 4.26 4.28 4.26 1.9 0 3.81-1.9 3.81-4.26 0-1.9-1.9-3.79-3.8-3.79-2.39 0-4.3 1.9-4.3 3.79zm-30 0c0-1.9 1.43-3.31 3.33-3.31 2.38 0 3.81 1.42 3.81 3.31 0 2.37-1.43 3.79-3.8 3.79-1.91 0-3.34-1.42-3.34-3.79zm-.47 0c0 2.37 1.9 4.26 3.8 4.26 2.39 0 4.29-1.9 4.29-4.26 0-1.9-1.9-3.79-4.29-3.79-1.9 0-3.8 1.9-3.8 3.79z"/><path d="M121.89 82.86c-4.29 0-8.1-3.31-8.1-7.58v-53.5c0-1.9 1.91-3.79 3.81-3.79h30.95c1.9 0 3.81 1.9 3.81 3.79v53.5a7.5 7.5 0 0 1-7.62 7.58h22.86a7.5 7.5 0 0 1-7.62-7.58v-53.5a7.8 7.8 0 0 1 7.62-7.58H98.56a7.8 7.8 0 0 1 7.62 7.58v53.5a7.5 7.5 0 0 1-7.62 7.58h23.33z"/><path d="M99.03 14.68h68.57v68.18H99.04V14.68zm-.47-.48v69.13h69.04V14.2H98.56zm124.27 0v.48h3.8c9.53.47 17.63 4.73 23.82 11.36 6.19 6.63 9.04 15.63 8.57 24.62-.48 9-4.29 17.52-11.43 23.2a34.16 34.16 0 0 1-24.76 9v.47c9.52.48 18.1-2.84 25.23-9 6.67-6.15 10.95-14.67 11.43-23.67.48-9-2.38-17.99-8.57-25.1a35.6 35.6 0 0 0-24.28-11.36h-3.81z"/><path d="M243.3 26.04v.48a33.62 33.62 0 0 1 0 44.03v.47h.48c10.95-12.78 10.95-31.72 0-44.98h-.48z"/><path d="M247.59 10.42v76.23s0 .47.47.47v-76.7h-.47z"/><path d="M179.03 48.3c-.48 0-.48.47-.48.47h77.13v-.48h-76.66z"/><path d="M179.98 11.36v.48l74.27 73.86h.48l-74.75-74.34z"/><path d="M254.25 11.36L179.98 85.7l74.75-73.86v-.48h-.48z"/><path d="M217.12 10.42v76.7l.47-.47V10.42h-.47z"/><path d="M251.4 14.68v68.18h-68.57V14.68h68.57zm.47-.48h-69.51v69.13h69.51V14.2z"/><path d="M222.83 14.2h-3.81c-20.47 1.42-35.23 14.68-36.66 32.67-.48 9 2.85 18 9.04 24.63 6.2 7.1 14.76 10.89 23.81 11.83h7.62a35.29 35.29 0 0 0 25.24-9v-10.4c-.48 0-.48.48-.48.48a18.02 18.02 0 0 1-4.29 6.15c-5.23 6.15-13.33 9.94-22.37 9.94a28.93 28.93 0 0 1-21.9-9.94c-11.43-12.79-11.43-31.25 0-44.04 10.94-13.25 31.9-10.41 44.27 0l.48.95h.48V19.9a34.12 34.12 0 0 0-21.43-5.69zM11.9 11.36c-.47.48-.47.48 0 .48L86.18 85.7h.47L11.9 11.36z"/><path d="M86.18 11.36L11.9 85.7c-.47 0-.47 0 0 0l74.75-73.86v-.48h-.47zM53.33 21.78a7.3 7.3 0 0 1 7.14-7.1c4.28 0 7.62 3.31 7.62 7.1a7.5 7.5 0 0 1-7.62 7.58c-3.81 0-7.15-3.32-7.15-7.58zm-.48 0c0 4.74 3.33 8.05 7.62 8.05s8.1-3.31 8.1-8.05c0-4.26-3.82-7.58-8.1-7.58a7.5 7.5 0 0 0-7.62 7.58zm-22.85 0c0-3.79 3.33-7.1 7.61-7.1s7.62 3.31 7.62 7.1c0 4.26-3.33 7.58-7.62 7.58S30 26.04 30 21.78zm-.48 0a8 8 0 0 0 8.1 8.05c4.28 0 7.61-3.31 7.61-8.05 0-4.26-3.33-7.58-7.62-7.58s-8.09 3.32-8.09 7.58z"/><path d="M10.95 48.3c-.47 0-.47.47-.47.47H87.6v-.48H10.95z"/><path d="M83.32 14.68v68.18H14.76V14.68h68.56zm0-.48H14.28v68.66s0 .47.48.47h68.56c.48 0 .48-.47.48-.47V14.2h-.48z"/><path d="M53.33 75.28c0-4.26 3.33-7.57 7.14-7.57a7.5 7.5 0 0 1 7.62 7.57 7.5 7.5 0 0 1-7.62 7.58c-3.81 0-7.15-3.31-7.15-7.58zm-.48 0c0 4.26 3.33 8.05 7.62 8.05s8.1-3.79 8.1-8.05c0-4.26-3.82-7.57-8.1-7.57a7.5 7.5 0 0 0-7.62 7.57zm-22.85 0c0-4.26 3.33-7.57 7.61-7.57s7.62 3.31 7.62 7.57-3.33 7.58-7.62 7.58S30 79.55 30 75.28zm-.48 0a8.32 8.32 0 0 0 8.1 8.05c4.28 0 7.61-3.79 7.61-8.05 0-4.26-3.33-7.57-7.62-7.57s-8.09 3.31-8.09 7.57z"/><path d="M60.47 63.45h-7.14V33.62h7.14A15 15 0 0 1 75.7 48.77c0 8.05-6.66 14.68-15.23 14.68zm-15.24 0h-7.62c-8.57 0-15.23-6.63-15.23-14.68A15 15 0 0 1 37.6 33.62h7.62v29.83zm19.05-34.1H53.33v-7.57a7.3 7.3 0 0 1 7.14-7.1v-.48H37.62v.48c4.28 0 7.61 3.31 7.61 7.1v7.58H33.81a19.25 19.25 0 0 0-19.52 19.4c0 10.43 8.57 18.95 19.52 18.95h11.42v7.57a7.5 7.5 0 0 1-7.62 7.58v.47h22.86v-.47c-3.81 0-7.14-3.32-7.14-7.58v-7.57h10.95c10.95 0 19.52-8.53 19.52-18.94a19.26 19.26 0 0 0-19.52-19.41z"/><path d="M4.29 10.42v82.86h261.39V4.26H4.28v6.16zM259.49 0h10.48v97.54H0V0"/></g></svg>