<svg xmlns="http://www.w3.org/2000/svg" viewBox="0 0 269.966 97.538"><g fill="#005E9D"><path d="M132.84 10.417v76.23s0 .474.476.474v-.472-76.23h-.476z"/><path d="M94.75 48.296v.473h77.133l-.476-.474H94.75zM114.27 75.284c0-4.26 3.334-7.576 7.62-7.576 3.808 0 7.14 3.314 7.14 7.576 0 4.26-3.332 7.576-7.14 7.576-4.286 0-7.62-3.314-7.62-7.576zm-.475 0c0 4.26 3.333 8.05 8.094 8.05 4.284 0 7.617-3.79 7.617-8.05 0-4.26-3.333-7.576-7.618-7.576-4.762 0-8.095 3.315-8.095 7.576zM137.125 75.284c0-4.26 3.333-7.576 7.618-7.576 3.81 0 7.142 3.314 7.142 7.576 0 4.26-3.333 7.576-7.142 7.576-4.285 0-7.618-3.314-7.618-7.576zm-.476 0c0 4.26 3.808 8.05 8.093 8.05s7.618-3.79 7.618-8.05c0-4.26-3.332-7.576-7.617-7.576s-8.094 3.315-8.094 7.576zM159.504 75.284c0 4.26 3.81 8.05 8.094 8.05v-.474c-4.285 0-7.618-3.314-7.618-7.576 0-4.26 3.333-7.576 7.618-7.576-4.285 0-8.094 3.315-8.094 7.576zM98.56 67.708c4.284 0 7.617 3.314 7.617 7.576 0 4.26-3.333 7.576-7.618 7.576v.474c4.284 0 8.093-3.788 8.093-8.05 0-4.26-3.81-7.576-8.094-7.576zM98.56 14.204v.474c4.284 0 7.617 3.314 7.617 7.102 0 4.26-3.333 7.576-7.618 7.576v.473c4.284 0 8.093-3.315 8.093-8.05 0-4.26-3.81-7.576-8.094-7.576zM159.504 21.78c0 4.735 3.81 8.05 8.094 8.05v-.474c-4.285 0-7.618-3.314-7.618-7.576 0-3.788 3.333-7.102 7.618-7.102v-.474c-4.285 0-8.094 3.315-8.094 7.576zM144.743 21.78c0-1.894 1.904-3.314 3.81-3.314 1.903 0 3.332 1.42 3.332 3.314 0 2.367-1.428 3.788-3.333 3.788-1.904 0-3.81-1.42-3.81-3.788zm-.476 0c0 2.367 1.905 4.26 4.285 4.26 1.904 0 3.81-1.893 3.81-4.26 0-1.894-1.906-3.788-3.81-3.788-2.38 0-4.285 1.894-4.285 3.788zM114.27 21.78c0-1.894 1.43-3.314 3.334-3.314 2.38 0 3.81 1.42 3.81 3.314 0 2.367-1.43 3.788-3.81 3.788-1.904 0-3.333-1.42-3.333-3.788zm-.475 0c0 2.367 1.905 4.26 3.81 4.26 2.38 0 4.284-1.893 4.284-4.26 0-1.894-1.906-3.788-4.286-3.788-1.904 0-3.81 1.894-3.81 3.788z"/><path d="M121.89 82.86c-4.286 0-8.095-3.314-8.095-7.576V21.78c0-1.894 1.905-3.788 3.81-3.788h30.947c1.904 0 3.81 1.894 3.81 3.788v53.504c0 4.26-3.334 7.576-7.62 7.576h22.855c-4.285 0-7.618-3.314-7.618-7.576V21.78c0-3.788 3.332-7.576 7.617-7.576h-69.04c4.286 0 7.62 3.788 7.62 7.576v53.504c0 4.26-3.334 7.576-7.62 7.576h23.332z"/><path d="M99.035 14.678h68.563V82.86H99.035V14.678zm-.476-.474v69.128h69.038v-.473-68.655h-69.04zM222.83 14.204v.474h3.808c9.523.474 17.617 4.735 23.807 11.364 6.19 6.63 9.046 15.625 8.57 24.62-.476 8.997-4.285 17.52-11.427 23.202-6.666 6.155-15.712 9.47-24.76 8.996v.474c9.524.473 18.094-2.84 25.236-8.996 6.666-6.155 10.95-14.678 11.427-23.674.477-8.996-2.38-17.992-8.57-25.095-6.19-6.63-14.76-10.89-24.282-11.365h-3.81z"/><path d="M243.302 26.042v.474c10.95 12.784 10.95 31.25 0 44.034v.474h.476c10.95-12.784 10.95-31.724 0-44.98l-.476-.002z"/><path d="M247.588 10.417v76.23s0 .474.476.474v-.472-76.23h-.476z"/><path d="M179.025 48.296c-.476 0-.476.473-.476.473H255.68v-.474h-76.657z"/><path d="M179.977 11.364v.474l74.276 73.864h.476l-74.753-74.338z"/><path d="M254.254 11.364L179.978 85.7l74.752-73.863v-.474h-.476z"/><path d="M217.115 10.417V87.12l.476-.472v-76.23h-.475z"/><path d="M251.397 14.678V82.86h-68.563V14.678h68.563zm.476-.474h-69.515v69.13h69.515v-69.13z"/><path d="M222.83 14.204H219.02c-20.474 1.42-35.234 14.678-36.662 32.67-.476 8.997 2.857 17.993 9.047 24.622 6.19 7.102 14.76 10.89 23.806 11.837h7.62c9.045.473 18.568-2.84 25.234-8.996v-9.943-.473c-.476 0-.476.474-.476.474-.952 2.367-2.38 4.26-4.285 6.155-5.237 6.154-13.332 9.942-22.378 9.942-8.57 0-16.664-3.788-21.902-9.943-11.427-12.785-11.427-31.25 0-44.035 10.95-13.258 31.9-10.417 44.28 0l.476.947h.475v-.474-6.63-.472c-6.19-4.26-13.808-6.155-21.426-5.682zM11.903 11.364c-.476.474-.476.474 0 .474L86.18 85.702h.475L11.903 11.364z"/><path d="M86.18 11.364L11.902 85.7c-.476 0-.476 0 0 0l74.752-73.863v-.474h-.476zM53.327 21.78c0-3.788 3.333-7.102 7.142-7.102 4.284 0 7.617 3.314 7.617 7.102 0 4.26-3.333 7.576-7.618 7.576-3.81 0-7.143-3.314-7.143-7.576zm-.477 0c0 4.735 3.333 8.05 7.618 8.05s8.094-3.315 8.094-8.05c0-4.26-3.81-7.576-8.094-7.576-4.285 0-7.618 3.315-7.618 7.576zM29.996 21.78c0-3.788 3.333-7.102 7.618-7.102s7.618 3.314 7.618 7.102c0 4.26-3.333 7.576-7.618 7.576s-7.618-3.314-7.618-7.576zm-.476 0c0 4.735 3.81 8.05 8.094 8.05 4.285 0 7.618-3.315 7.618-8.05 0-4.26-3.333-7.576-7.618-7.576S29.52 17.52 29.52 21.78z"/><path d="M10.95 48.296c-.475 0-.475.473-.475.473H87.61v-.474H10.95z"/><path d="M83.323 14.678V82.86H14.76V14.678h68.563zm0-.474h-69.04V82.86s0 .473.477.473h68.563c.476 0 .476-.474.476-.474V14.203h-.477z"/><path d="M53.327 75.284c0-4.26 3.333-7.576 7.142-7.576 4.284 0 7.617 3.314 7.617 7.576 0 4.26-3.333 7.576-7.618 7.576-3.81 0-7.143-3.314-7.143-7.576zm-.477 0c0 4.26 3.333 8.05 7.618 8.05s8.094-3.79 8.094-8.05c0-4.26-3.81-7.576-8.094-7.576-4.285 0-7.618 3.315-7.618 7.576zM29.996 75.284c0-4.26 3.333-7.576 7.618-7.576s7.618 3.314 7.618 7.576c0 4.26-3.333 7.576-7.618 7.576s-7.618-3.314-7.618-7.576zm-.476 0c0 4.26 3.81 8.05 8.094 8.05 4.285 0 7.618-3.79 7.618-8.05 0-4.26-3.333-7.576-7.618-7.576s-8.094 3.315-8.094 7.576z"/><path d="M60.47 63.447h-7.143v-29.83h7.142c8.57 0 15.235 6.63 15.235 15.15 0 8.05-6.666 14.68-15.236 14.68zm-15.238 0h-7.618c-8.57 0-15.236-6.63-15.236-14.678 0-8.524 6.666-15.152 15.236-15.152h7.618v29.83zm19.046-34.09h-10.95V21.78c0-3.788 3.332-7.102 7.14-7.102v-.474H37.616v.474c4.285 0 7.618 3.314 7.618 7.102v7.576H33.806c-10.95 0-19.52 8.523-19.52 19.413 0 10.416 8.57 18.938 19.52 18.938h11.427v7.576c0 4.26-3.333 7.576-7.618 7.576v.474H60.47v-.474c-3.81 0-7.143-3.314-7.143-7.576v-7.576h10.95c10.952 0 19.522-8.523 19.522-18.94 0-10.89-8.572-19.412-19.522-19.412z"/><path d="M4.285 10.417v82.86H265.68V4.262H4.286v6.157zM259.49 0h10.476v97.538H0V0"/></g></svg>