<svg xmlns="http://www.w3.org/2000/svg" viewBox="0 0 794.28 380.17"><path d="M226.48 94.06h57.21v16.82h-38.33v23.85h35.29v16.82h-35.29v39h-18.88zm107.66 44.39a23.37 23.37 0 0 0-7.72-1.52 12.63 12.63 0 0 0-8.06 2.55A12.28 12.28 0 0 0 314 146v44.52h-17.91v-68.89H310l2.07 9.1h.55a18.79 18.79 0 0 1 6.34-7.86 16.1 16.1 0 0 1 9.37-2.76 26.1 26.1 0 0 1 8.13 1.52zm7.03 17.65q0-17.5 8.55-26.95t24-9.44a36 36 0 0 1 14.28 2.61 26.82 26.82 0 0 1 10.06 7.38 31.57 31.57 0 0 1 6 11.51 52.38 52.38 0 0 1 2 14.89q0 17.51-8.48 26.95t-23.92 9.44a36 36 0 0 1-14.34-2.62 27.35 27.35 0 0 1-10.13-7.37 30.92 30.92 0 0 1-6.02-11.5 52.29 52.29 0 0 1-2-14.9zm18.47 0a40.14 40.14 0 0 0 .83 8.41 23.44 23.44 0 0 0 2.48 6.75 12 12 0 0 0 4.34 4.48 12.39 12.39 0 0 0 6.41 1.59q7 0 10.48-5.1t3.45-16.13q0-9.51-3.17-15.37t-10.75-5.86a12.2 12.2 0 0 0-10.34 5q-3.73 4.92-3.73 16.23zm101.04 34.46v-39.15q0-8.41-2.41-12.13t-8.2-3.72a12.92 12.92 0 0 0-8.62 3 16.46 16.46 0 0 0-5 7.38v44.66H418.5v-68.97h14.2l2.07 9.1h.55a29.7 29.7 0 0 1 8.41-7.72q5.24-3.31 13.51-3.31a27.89 27.89 0 0 1 9.1 1.38 15.52 15.52 0 0 1 6.75 4.55 20.69 20.69 0 0 1 4.13 8.62 55.78 55.78 0 0 1 1.38 13.44v42.87zm25.78-68.93H496v-13l17.92-5.1v18.06h16.82v15.21h-16.85v26.47q0 7.17 1.45 10.27t5.45 3.1a18 18 0 0 0 4.76-.55 32.15 32.15 0 0 0 4.48-1.65l3.17 13.79a45.43 45.43 0 0 1-8.68 3 41.33 41.33 0 0 1-10.06 1.24q-9.51 0-14-4.89T496 171.53V136.8h-9.51zM539.12 143h34.6v15.85h-34.6zm105.18 41.63a35 35 0 0 1-11.23 5.58 49.19 49.19 0 0 1-15.07 2.28q-16.68 0-24.4-9.72t-7.72-26.67q0-18.2 8.68-27.29t24.4-9.1a38 38 0 0 1 10.2 1.38 23.77 23.77 0 0 1 8.82 4.55 22.41 22.41 0 0 1 6.2 8.55 33.54 33.54 0 0 1 2.34 13.37 60.38 60.38 0 0 1-.34 6.2q-.34 3.31-1 6.89h-41.27q.41 8.68 4.46 13.1t13.12 4.41a29.17 29.17 0 0 0 16.9-5.24zM618.72 134q-7 0-10.35 4.2t-4 11.23h25.5q.55-7.44-2.26-11.44t-8.89-3.99zm82.64 56.56v-39.15q0-8.41-2.41-12.13t-8.2-3.72a12.92 12.92 0 0 0-8.62 3 16.46 16.46 0 0 0-5 7.38v44.66h-17.95v-68.97h14.2l2.07 9.1h.55a29.7 29.7 0 0 1 8.41-7.72q5.24-3.31 13.51-3.31a27.89 27.89 0 0 1 9.1 1.38 15.52 15.52 0 0 1 6.75 4.55 20.69 20.69 0 0 1 4.13 8.62 55.77 55.77 0 0 1 1.38 13.44v42.87zm91.54-24.26q0 5.79.14 11.58a98.09 98.09 0 0 0 1.24 12.82h-12.82l-2.48-9h-.55a20.83 20.83 0 0 1-7.93 7.79 24.12 24.12 0 0 1-12.2 3q-13 0-20.13-8.55T731 157.2q0-17.64 8-27.43t23.43-9.77a42.15 42.15 0 0 1 7 .48A27.84 27.84 0 0 1 775 122V94h17.9zm-30.46 11q5.24 0 8.27-2.55a13.79 13.79 0 0 0 4.29-7.35v-29.22a13.74 13.74 0 0 0-4.27-2.27 20.19 20.19 0 0 0-6.07-.76q-7.58 0-11.37 5.1t-3.79 17.51q0 8.82 3.1 14.2t9.83 5.36zM268.11 280.22a9 9 0 0 0-3.24-7.17 35.8 35.8 0 0 0-8.13-5q-4.89-2.27-10.61-4.69a54.19 54.19 0 0 1-10.61-5.93 30.18 30.18 0 0 1-8.13-8.75q-3.24-5.24-3.24-13.37a29.31 29.31 0 0 1 2.34-12.2 22.89 22.89 0 0 1 6.69-8.62 28.74 28.74 0 0 1 10.27-5.1 49.2 49.2 0 0 1 13.23-1.65 83 83 0 0 1 15.85 1.45 40.3 40.3 0 0 1 12.27 4.21l-5.93 15.85a33.22 33.22 0 0 0-9.1-3.52 51.76 51.76 0 0 0-13.1-1.59q-6.62 0-10.13 2.62a8.32 8.32 0 0 0-3.52 7 8.68 8.68 0 0 0 3.24 6.89 37.35 37.35 0 0 0 8.13 5.1q4.89 2.35 10.61 4.82a57.07 57.07 0 0 1 10.61 6 30.61 30.61 0 0 1 8.13 8.68 23.86 23.86 0 0 1 3.26 12.9 31.82 31.82 0 0 1-2.55 13.3 25.24 25.24 0 0 1-7.17 9.3 30.28 30.28 0 0 1-11.17 5.51 54.53 54.53 0 0 1-14.41 1.79 76.77 76.77 0 0 1-18.2-1.93 55.54 55.54 0 0 1-11.58-3.86l6.08-16.11a36.91 36.91 0 0 0 3.93 1.79 49.87 49.87 0 0 0 5.44 1.79 62.23 62.23 0 0 0 6.41 1.38 43 43 0 0 0 7 .55q8.41 0 12.89-2.83a9.49 9.49 0 0 0 4.44-8.61zm79.81 21.64a29.92 29.92 0 0 1-10 4.62 46 46 0 0 1-12.06 1.58 33.52 33.52 0 0 1-14-2.62 23.82 23.82 0 0 1-9.3-7.37 30.37 30.37 0 0 1-5.17-11.51 65.13 65.13 0 0 1-1.59-14.89q0-17.5 7.86-26.95t22.88-9.44a48.57 48.57 0 0 1 12.2 1.24 41.45 41.45 0 0 1 8.34 3.17l-4.27 14.61a36.19 36.19 0 0 0-6.27-2.34 27.63 27.63 0 0 0-7.1-.83q-7.44 0-11.3 4.89t-3.86 15.65a32.32 32.32 0 0 0 1 8.13 19.82 19.82 0 0 0 2.89 6.48 13.54 13.54 0 0 0 5 4.34 15.69 15.69 0 0 0 7.24 1.58 22.35 22.35 0 0 0 7.72-1.17 27 27 0 0 0 5.65-2.83zm9.79-84.08a9.08 9.08 0 0 1 3-6.82q3-2.82 8.2-2.83a12.44 12.44 0 0 1 8.48 2.83 8.75 8.75 0 0 1 3.24 6.82 8.35 8.35 0 0 1-3.24 6.69 12.85 12.85 0 0 1-8.48 2.69q-5.24 0-8.2-2.69a8.65 8.65 0 0 1-3-6.69zm2.62 19.44h17.92v68.92h-17.92zM451 300.21a35.07 35.07 0 0 1-11.24 5.58 49.18 49.18 0 0 1-15.09 2.27q-16.68 0-24.4-9.72t-7.72-26.67q0-18.19 8.68-27.29t24.4-9.1a38 38 0 0 1 10.2 1.38 23.77 23.77 0 0 1 8.82 4.55 22.43 22.43 0 0 1 6.2 8.55 33.54 33.54 0 0 1 2.34 13.37 60.4 60.4 0 0 1-.34 6.2q-.34 3.31-1 6.89h-41.21q.41 8.68 4.47 13.1t13.12 4.41a29.18 29.18 0 0 0 16.9-5.24zm-25.58-50.59q-7 0-10.35 4.21t-4 11.23h25.5q.55-7.44-2.26-11.44t-8.86-4zm82.68 56.52V267q0-8.41-2.41-12.13t-8.2-3.72a12.91 12.91 0 0 0-8.62 3 16.46 16.46 0 0 0-5 7.38v44.66h-17.95v-68.98h14.2l2.07 9.1h.55a29.69 29.69 0 0 1 8.41-7.72q5.24-3.31 13.51-3.31a27.9 27.9 0 0 1 9.1 1.38 15.52 15.52 0 0 1 6.75 4.55 20.69 20.69 0 0 1 4.13 8.62 55.78 55.78 0 0 1 1.36 13.44v42.87zm81.75-4.28a29.92 29.92 0 0 1-10 4.62 46 46 0 0 1-12.06 1.58 33.51 33.51 0 0 1-14-2.62 23.82 23.82 0 0 1-9.3-7.37 30.35 30.35 0 0 1-5.17-11.51 65.13 65.13 0 0 1-1.59-14.89q0-17.5 7.86-26.95t22.88-9.44a48.57 48.57 0 0 1 12.2 1.24 41.46 41.46 0 0 1 8.34 3.17l-4.27 14.61a36.22 36.22 0 0 0-6.27-2.34 27.64 27.64 0 0 0-7.1-.83q-7.44 0-11.3 4.89t-3.86 15.65a32.29 32.29 0 0 0 1 8.13 19.81 19.81 0 0 0 2.89 6.48 13.54 13.54 0 0 0 5 4.34 15.69 15.69 0 0 0 7.24 1.58 22.35 22.35 0 0 0 7.72-1.17 26.94 26.94 0 0 0 5.65-2.83zm63.68-1.65a35.07 35.07 0 0 1-11.23 5.58 49.19 49.19 0 0 1-15.09 2.27q-16.68 0-24.4-9.72t-7.72-26.67q0-18.19 8.68-27.29t24.4-9.1a38 38 0 0 1 10.2 1.38 23.77 23.77 0 0 1 8.82 4.55 22.41 22.41 0 0 1 6.2 8.55 33.54 33.54 0 0 1 2.34 13.37 60.43 60.43 0 0 1-.34 6.2q-.34 3.31-1 6.89h-41.25q.41 8.68 4.46 13.1t13.12 4.41a29.18 29.18 0 0 0 16.9-5.24zM628 249.62q-7 0-10.35 4.21t-4 11.23h25.5q.55-7.44-2.26-11.44t-8.89-4zm-486 42.16a23.3 23.3 0 0 0-2.86-8.1 14.58 14.58 0 0 0-7.71-6.54c-3-1.15-7.78-1.7-14.51-1.7h-16.16c-5.37 0-9.22-.92-11.18-2.64s-2.82-4.83-2.82-9.38c0-.24 0-.6.07-1.09.08-.78.11-1.35.11-1.72v-3H69.27v3c0 .35 0 .89.08 1.62 0 .53.05.93.05 1.2 0 4.55-1 7.69-2.82 9.38s-5.81 2.64-11.18 2.64H39.29c-6.59 0-11.29.55-14.36 1.69a15 15 0 0 0-7.85 6.53 24.91 24.91 0 0 0-2.78 7.92 63 63 0 0 0-.84 11.35v7.14h17.67v-3c0-.4 0-1-.07-1.71 0-.56-.06-1-.06-1.23 0-5 1.12-6.83 1.8-7.45s2.6-1.77 9.28-1.77h15.6c7.4 0 12.65-1.12 16-3.42a15.12 15.12 0 0 0 4.32-4.7 15.07 15.07 0 0 0 4.38 4.69c3.38 2.27 8.64 3.39 16.07 3.39h15.73c6.7 0 8.71 1.2 9.27 1.72s1.73 2.34 1.73 7.37c0 .29 0 .71-.06 1.3 0 .79-.07 1.38-.07 1.77v3h17.67v-6a75 75 0 0 0-.72-12.26zM28.32 243.65A150 150 0 0 1 7.06 203a142.45 142.45 0 0 1 0-88.58 148.13 148.13 0 0 1 21.26-40.6h23.29a162.87 162.87 0 0 0-21.52 41.42 138.48 138.48 0 0 0 0 87 162.7 162.7 0 0 0 21.52 41.41zm76.3 0q14.6-20.67 21.56-41.41a136.24 136.24 0 0 0 7-43.44 136.67 136.67 0 0 0-7-43.55q-7-20.73-21.56-41.42h23.57a146.18 146.18 0 0 1 21.08 40.53 141.82 141.82 0 0 1 6.94 44.45 140.73 140.73 0 0 1-6.94 44.39 148 148 0 0 1-21.08 40.47z" fill="#231f20"/><path d="M78.1 165.42a31.88 31.88 0 1 1 31.9-31.87 31.91 31.91 0 0 1-31.9 31.87zm0-45.55a13.66 13.66 0 1 0 13.65 13.68 13.68 13.68 0 0 0-13.65-13.68zm44.29-63.68L83.07 0h-10L33.81 56.19h23.98l20.29-28.76 20.34 28.76h23.97z" fill="#231f20"/><path fill="#ffde17" d="M33.81 323.99l39.33 56.18h10l39.25-56.18H98.42l-20.3 28.76-20.33-28.76H33.81z"/></svg>