<svg xmlns="http://www.w3.org/2000/svg" viewBox="0 0 195.27 220.5"><path d="M22.69 193.86l74.89 20.93 75-20.92L189.26 5.5H6z" fill="#fff"/><path d="M97.59 209.08l69.82-19.48L183.25 11h-85.7z" fill="#e8e8e8" opacity=".8"/><path d="M0 0l17.55 198.13 80 22.36 80.11-22.35L195.27 0H0zm26.2 171.11l14-13.76 9.19-9.25 9.26-1.73 3 .71 11 2.58 5.35-3.89 13-9.68 3.79-1.5 2-.77 1-.4-1.28-9.42 7.59-5.4 1.35-1-.37-1-2.75-7.6.69-.17 4.06-10.9.74-2-12.48-11 12.41-3.58 29.1-8.58 4.54 1.58 2 7.48-25.63 14.96a17.24 17.24 0 0 0 1.47 2.63c.72 1 .06.35.67 0 4.31-2.51 21.75-10.58 21.75-10.58L145.76 99l-24.23 15.27s1.23 1.58 1.65 2.29 0 .43 3.33-1.33 14.73-7.35 14.73-7.35l3.08 9.39-12.61 8.73.94 2s4.27-1.62 4.2-1.62 1.95 7.71 1.95 7.71l-10.37 6.68L112 151.36l-9.69 6.24-4.92-.45-5.24-.47L105 141.36l-1.65-1.3-16.7 20-28.38 38.03-30.44-8.5zm33.38-73.79l10.27 5.1 11.44 5.67 7.83 3.91 6.5-1.53 1.26 3.5.5 1.44-5.38 3.81-11.64-3-2-.53-14.61-3.8-9.65-2.51-.54-9.17 6.2-2.45zm37.77-24.47a18.65 18.65 0 0 1-2.27 3 32.49 32.49 0 0 1-6.25 4.88c-1.2.66-2.14.83-4.38.72-.91 0-9.11-.73-10.63-1.93h.15L73.52 72l6.36-1.3 10.51-2.14 11.72-2.38 4.85-1 .67 1.12 4.37 7.22-8.12 2.36-8.1 2.35a24.89 24.89 0 0 0 2.56-3c.54-.77.83-1.29.89-1.36zM81.42 83.17a26.66 26.66 0 0 0 5.29.28l1 3.5 11.91 10.59.27.22-2.15 5.81-7.84 1.83-5.3-2.64-17.5-8.66-4.94-2.45.84-3.4.66-2.55.25-.95 8.32-3.82c1.43 1.19 5.77 1.8 9.19 2.24zm-20.6 34.35l20.42 5.32 8.58 2.23.08.85h.06l.2 3.6-6 2.41-1 .38-15.76-3.41-4.75-1-10.44-2.27-.7-2.14-1.14-3.49.56-1.06 1.8-3.48zM51 131.7l25.07 5.47.1 1.94-5.29 3.84L58.62 140l-3.85.72h-.14l-5 .93-.82-2.2L47.6 136l1-1.2zm13.75 68.2l27.19-36.35.6-.6 11.36 1 6.31 5.59 29.45 27.78-42.07 11.76zm81.25-4.34l-30.37-29.51-6.08-5.74 7.05-4.54 15.71-10.1 6.92-4.43 11.25 12 18.8 14.91-1.91 21.49zm24-35.17l-16-11-10.3-12 1.12-1.37-3.05-11.08 7.62-4.38-3.83-15.68 5.9-4.41-6.15-14.37 3-2.35-3.57-13-7.9-3.1-17.62 4.59-4.73-7.74-3.82-6.3-35.3 7.17-5.73 1.16-2.46.47.54 9.26-8 3.66-1 .43-.72 2.77-2.49 9.66-8.45 3.32.89 15L46 115l-2.28 4.41.7 2.12 2 6.07-5.85 7.4.43 1.09.68 1.82 2.49 6.57-6.39 6.42-12.35 11.5L12 11h171.25z"/><path d="M90 125.93v.72l-.1-.72h.1zm-35.18 14.84h-.13.09zm63.02 17.97l1-.78s12.13 12.15 15.23 15.19c.66.65.53.47.29.75a3.45 3.45 0 0 1-.39.39z"/></svg>