<svg xmlns="http://www.w3.org/2000/svg" viewBox="0 0 80 27"><path d="M10.4 21a10.5 10.5 0 0 1 0-21 9.84 9.84 0 0 1 7 2.9l-1.9 2a6.76 6.76 0 0 0-5-2 7.41 7.41 0 0 0-7.3 7.6 7.41 7.41 0 0 0 7.3 7.6 6.43 6.43 0 0 0 5.1-2.1 6.09 6.09 0 0 0 1.5-3.8h-6.6V9.3h9.3a9 9 0 0 1 .2 1.8c0 2.2-.5 5-2.4 6.9a9.36 9.36 0 0 1-7.2 3z" fill="#4285f4"/><path d="M34.2 14.1a6.6 6.6 0 1 1-13.2 0 6.6 6.6 0 1 1 13.2 0zm-2.8 0a3.8 3.8 0 0 0-3.7-4.1 3.86 3.86 0 0 0-3.7 4.1 3.86 3.86 0 0 0 3.7 4.1 3.92 3.92 0 0 0 3.7-4.1z" fill="#ea4335"/><path d="M48.4 14.1a6.6 6.6 0 1 1-13.2 0 6.6 6.6 0 1 1 13.2 0zm-2.9 0a3.8 3.8 0 0 0-3.7-4.1 3.86 3.86 0 0 0-3.7 4.1 3.72 3.72 0 1 0 7.4 0z" fill="#fbbc03"/><path d="M61.7 7.8V20c0 5-2.7 7-6.1 7a6.3 6.3 0 0 1-5.8-4l2.5-1.1a3.54 3.54 0 0 0 3.3 2.4c2.1 0 3.4-1.4 3.4-3.9v-1h-.1a4.26 4.26 0 0 1-3.4 1.6 6.51 6.51 0 0 1-6.2-6.8 6.42 6.42 0 0 1 6.2-6.7 4.13 4.13 0 0 1 3.4 1.6h.1V7.8zm-2.5 6.3c0-2.4-1.5-4.1-3.5-4.1s-3.5 1.7-3.5 4.1 1.5 4.1 3.5 4.1 3.5-1.7 3.5-4.1z" fill="#4285f4"/><path d="M66.4 1.1v19.8h-2.8V1.1z" fill="#34a853"/><path d="M77.7 16.3l2.2 1.6a6.54 6.54 0 0 1-5.5 3 6.47 6.47 0 0 1-6.5-6.7c0-4 2.8-6.7 6.2-6.7s5 2.8 5.6 4.3l.3.7-8.8 3.7a3.25 3.25 0 0 0 3.2 2 3.74 3.74 0 0 0 3.3-1.9zM70.8 14l5.8-2.5a2.74 2.74 0 0 0-2.4-1.5 3.61 3.61 0 0 0-3.4 4z" fill="#ea4335"/></svg>