<svg xmlns="http://www.w3.org/2000/svg" viewBox="0 0 385.51 215.43"><path d="M29.655 0v62.699c9.545-11.381 20.986-17.115 34.258-17.115 6.834 0 12.963 1.299 18.443 3.897 5.508 2.571 9.628 5.875 12.398 9.885 2.797 4.039 4.689 8.473 5.704 13.359 1.02 4.858 1.528 12.428 1.528 22.68v67.047h-29.656v-60.382c0-11.974-.538-19.573-1.666-22.791-1.131-3.248-3.108-5.791-5.96-7.683-2.854-1.92-6.412-2.881-10.704-2.881-4.915 0-9.322 1.242-13.162 3.672-3.897 2.456-6.721 6.128-8.5 11.042-1.809 4.915-2.714 12.173-2.684 21.775l-.031 57.248h-29.623v-162.452h29.655zm116.018 0v62.699c9.543-11.381 20.983-17.115 34.255-17.115 6.807 0 12.963 1.299 18.473 3.897 5.477 2.571 9.601 5.875 12.367 9.885 2.797 4.039 4.689 8.473 5.706 13.359 1.018 4.858 1.525 12.428 1.525 22.68v67.047h-29.627v-60.382c0-11.974-.563-19.573-1.693-22.791-1.131-3.248-3.106-5.791-5.96-7.683-2.824-1.92-6.412-2.881-10.704-2.881-4.915 0-9.319 1.242-13.162 3.672-3.867 2.456-6.691 6.128-8.5 11.042-1.779 4.915-2.681 12.173-2.681 21.775v57.248h-29.627v-162.452h29.628zm-145.588 212.808v-32.762h3.955v13.472h15.476l-.03-13.472h3.955v32.762h-3.955v-15.448h-15.446v15.448zm44.002-7.654l3.784.509c-.596 2.457-1.693 4.321-3.304 5.648-1.611 1.356-3.674 2.033-6.186 2.033-3.163 0-5.649-1.073-7.51-3.219-1.837-2.118-2.769-5.141-2.769-8.982 0-3.983.932-7.09 2.797-9.292 1.865-2.202 4.319-3.304 7.287-3.304 2.879 0 5.224 1.073 7.061 3.22 1.834 2.175 2.766 5.196 2.766 9.122l-.031 1.073h-16.096c.141 2.598.819 4.603 2.005 5.988 1.216 1.383 2.711 2.089 4.52 2.089 1.324 0 2.482-.396 3.442-1.186.933-.762 1.697-2.004 2.234-3.699m-12.003-6.495h12.058c-.171-1.978-.621-3.503-1.385-4.491-1.158-1.553-2.681-2.315-4.545-2.315-1.666 0-3.078.593-4.209 1.836-1.157 1.241-1.778 2.908-1.919 4.97zm34.228 11.211c-1.327 1.271-2.626 2.175-3.894 2.684-1.244.537-2.571.79-4.01.79-2.402 0-4.209-.65-5.483-1.92-1.269-1.271-1.892-2.91-1.92-4.886 0-1.159.254-2.231.734-3.164.48-.96 1.131-1.751 1.892-2.315.764-.594 1.669-1.045 2.629-1.328.706-.226 1.779-.396 3.246-.593 2.968-.396 5.114-.848 6.526-1.412.027-.536.027-.903.027-1.045 0-1.638-.367-2.768-1.042-3.445-.932-.905-2.344-1.356-4.154-1.356-1.721 0-2.995.31-3.812.987-.819.65-1.44 1.837-1.809 3.503l-3.585-.537c.309-1.667.847-3.023 1.611-4.067.734-1.045 1.807-1.837 3.219-2.401 1.412-.537 3.02-.819 4.885-.819 1.837 0 3.334.226 4.49.706 1.159.48 2.008 1.073 2.543 1.779.538.735.932 1.638 1.131 2.768.113.678.199 1.921.199 3.7v5.366c0 3.729.055 6.101.226 7.089.138.989.48 1.92.932 2.852h-3.814c-.398-.845-.624-1.806-.767-2.936m-.281-8.98c-1.327.593-3.332 1.1-5.957 1.525-1.528.225-2.598.508-3.221.818-.593.283-1.103.735-1.412 1.301-.339.564-.535 1.186-.535 1.892 0 1.073.394 1.976 1.128 2.682.737.735 1.807 1.074 3.219 1.074 1.44 0 2.686-.312 3.784-.989 1.076-.706 1.892-1.638 2.402-2.824.394-.905.593-2.231.593-4.01v-1.469zm23.129 11.918v-2.994c-1.354 2.344-3.359 3.53-6.013 3.53-1.724 0-3.304-.508-4.747-1.582-1.44-1.044-2.568-2.485-3.332-4.348-.819-1.864-1.186-4.012-1.186-6.468 0-2.344.339-4.519 1.045-6.44.734-1.92 1.807-3.388 3.249-4.434 1.412-1.016 3.02-1.525 4.827-1.525 1.271 0 2.43.283 3.448.904 1.015.593 1.834 1.384 2.482 2.373v-11.778h3.619v32.762h-3.392m-11.524-11.861c-.027 3.049.568 5.337 1.727 6.834 1.186 1.496 2.54 2.259 4.12 2.259 1.611 0 2.968-.734 4.068-2.146 1.128-1.469 1.696-3.643 1.696-6.61 0-3.248-.596-5.619-1.727-7.145-1.128-1.498-2.54-2.259-4.206-2.259-1.608 0-2.965.734-4.068 2.173-1.069 1.47-1.637 3.758-1.61 6.894zm21.072 11.861v-32.762h3.925v13.472h15.475v-13.472h3.955v32.762h-3.955v-15.448h-15.475v15.448zm43.379 0v-3.502c-1.666 2.711-3.952 4.038-6.862 4.038-1.269 0-2.458-.254-3.558-.819-1.103-.508-1.92-1.214-2.457-2.005-.538-.819-.902-1.806-1.128-2.994-.143-.79-.226-2.033-.226-3.755v-14.687h3.668v13.161c0 2.089.088 3.502.226 4.236.226 1.073.706 1.892 1.442 2.485.764.621 1.666.903 2.766.903 1.103 0 2.146-.31 3.106-.932.932-.593 1.638-1.469 2.035-2.513.397-1.074.593-2.598.593-4.632v-12.709h3.643v23.723h-3.248zm8.784 0v-23.723h3.276v3.361c1.58-2.598 3.897-3.897 6.893-3.897 1.269 0 2.482.254 3.558.763 1.101.507 1.92 1.186 2.455 2.005.538.847.932 1.836 1.131 2.994.143.733.226 2.033.226 3.897v14.601h-3.671v-14.432c0-1.638-.141-2.881-.422-3.671-.284-.819-.794-1.469-1.5-1.95-.734-.48-1.608-.734-2.571-.734-1.55 0-2.907.537-4.038 1.638-1.128 1.073-1.693 3.135-1.666 6.185l-.028 12.963h-3.643zm30.899-3.615l.535 3.558c-1.015.255-1.947.367-2.769.367-1.324 0-2.344-.225-3.078-.706-.734-.451-1.241-1.044-1.55-1.806-.284-.735-.425-2.344-.425-4.745v-13.669h-2.714v-3.107h2.714v-5.875l3.641-2.429-.028 8.303h3.674v3.107h-3.674v13.895c0 1.129.058 1.865.199 2.202.113.312.339.593.623.792.309.169.706.283 1.269.283.397 0 .932-.057 1.583-.17zm18.159-4.039l3.757.509c-.593 2.457-1.693 4.321-3.304 5.676-1.611 1.328-3.674 2.005-6.156 2.005-3.166 0-5.679-1.073-7.513-3.219-1.864-2.118-2.797-5.141-2.797-8.982 0-3.983.96-7.09 2.824-9.292 1.864-2.202 4.291-3.304 7.259-3.304 2.879 0 5.251 1.073 7.088 3.22 1.806 2.175 2.739 5.196 2.739 9.122 0 .225-.028.593-.028 1.073h-16.099c.141 2.598.819 4.603 2.005 5.988 1.216 1.383 2.711 2.089 4.52 2.089 1.324 0 2.482-.396 3.442-1.186.933-.762 1.697-2.004 2.263-3.699m-12.003-6.495h12.031c-.171-1.978-.621-3.503-1.385-4.491-1.158-1.553-2.681-2.315-4.518-2.315-1.693 0-3.106.593-4.236 1.836-1.159 1.241-1.779 2.908-1.892 4.97zm20.109 14.149v-23.723h3.304v3.587c.819-1.695 1.58-2.797 2.314-3.333.706-.536 1.5-.79 2.317-.79 1.271 0 2.515.423 3.784 1.299l-1.269 3.727c-.877-.593-1.782-.876-2.684-.876-.791 0-1.497.255-2.148.791-.618.537-1.101 1.243-1.354 2.202-.422 1.412-.593 2.994-.593 4.689v12.426h-3.671z"/><path fill="#D71920" d="M385 106.312c0 39.454-31.969 71.396-71.395 71.396s-71.398-31.942-71.398-71.396c0-39.428 31.971-71.398 71.398-71.398s71.395 31.97 71.395 71.398z"/><path fill="#fff" d="M284.259 133.735h-13.868v-52.334h12.853v7.427c2.231-3.501 4.181-5.817 5.957-6.919 1.754-1.129 3.757-1.695 5.991-1.695 3.133 0 6.183.876 9.121 2.627l-4.294 12.06c-2.344-1.525-4.518-2.26-6.523-2.26-1.922 0-3.558.537-4.912 1.582-1.357 1.073-2.433 3.021-3.194 5.791-.761 2.824-1.131 8.67-1.131 17.566v16.155zm59.961 0v-7.823c-1.92 2.768-4.408 4.999-7.513 6.608-3.106 1.609-6.382 2.401-9.857 2.401-3.503 0-6.664-.763-9.433-2.317-2.797-1.553-4.827-3.698-6.073-6.523-1.241-2.768-1.862-6.637-1.862-11.58v-33.1h13.837v24.035c0 7.371.254 11.89.764 13.528.51 1.666 1.44 2.993 2.766 3.954 1.357.96 3.078 1.44 5.141 1.44 2.372.029 4.49-.65 6.355-1.92 1.892-1.299 3.163-2.91 3.842-4.829.706-1.921 1.045-6.637 1.045-14.121v-22.087h13.868v52.334h-12.88z"/></svg>