<svg xmlns="http://www.w3.org/2000/svg" viewBox="0 0 385.51 215.43"><path d="M29.66 0v62.7C39.2 51.32 50.64 45.58 63.9 45.58c6.84 0 12.97 1.3 18.45 3.9 5.5 2.57 9.62 5.88 12.4 9.89a36.04 36.04 0 0 1 5.7 13.36c1.02 4.85 1.53 12.42 1.53 22.67v67.05H72.33v-60.38c0-11.97-.54-19.57-1.67-22.8a14.8 14.8 0 0 0-5.96-7.67c-2.85-1.92-6.4-2.88-10.7-2.88-4.91 0-9.32 1.24-13.16 3.67-3.9 2.45-6.72 6.13-8.5 11.04-1.81 4.91-2.72 12.17-2.69 21.77l-.03 57.25H0V0h29.66zm116.01 0v62.7c9.55-11.38 20.99-17.12 34.26-17.12 6.8 0 12.96 1.3 18.47 3.9 5.48 2.57 9.6 5.88 12.37 9.89a36.08 36.08 0 0 1 5.7 13.36C217.5 77.57 218 85.14 218 95.4v67.05h-29.63v-60.38c0-11.97-.56-19.57-1.7-22.8a14.79 14.79 0 0 0-5.95-7.67c-2.83-1.92-6.41-2.88-10.7-2.88a24.2 24.2 0 0 0-13.17 3.67c-3.86 2.45-6.69 6.13-8.5 11.04-1.78 4.91-2.68 12.17-2.68 21.77v57.25h-29.63V0h29.63zM.1 212.8v-32.75h3.95v13.47h15.48l-.03-13.47h3.95v32.76H19.5v-15.45H4.04v15.45zm44-7.65l3.78.51a10.2 10.2 0 0 1-3.3 5.65c-1.61 1.36-3.68 2.03-6.19 2.03-3.16 0-5.65-1.07-7.5-3.22-1.85-2.11-2.78-5.14-2.78-8.98 0-3.98.93-7.09 2.8-9.29a9.13 9.13 0 0 1 7.29-3.3 8.86 8.86 0 0 1 7.06 3.22c1.83 2.17 2.76 5.2 2.76 9.12l-.03 1.07h-16.1c.15 2.6.83 4.6 2.01 5.99a5.78 5.78 0 0 0 4.52 2.09c1.33 0 2.48-.4 3.44-1.19.94-.76 1.7-2 2.24-3.7m-12-6.5h12.05c-.17-1.97-.62-3.5-1.38-4.48a5.4 5.4 0 0 0-4.55-2.32c-1.66 0-3.08.6-4.2 1.84a7.82 7.82 0 0 0-1.93 4.97zm34.22 11.22a12.6 12.6 0 0 1-3.9 2.68 9.97 9.97 0 0 1-4 .8c-2.4 0-4.21-.66-5.48-1.93a6.76 6.76 0 0 1-1.92-4.88 6.87 6.87 0 0 1 2.62-5.48 7.97 7.97 0 0 1 2.63-1.33c.7-.23 1.78-.4 3.25-.6 2.96-.39 5.11-.84 6.52-1.4.03-.54.03-.9.03-1.05 0-1.64-.37-2.77-1.04-3.44-.93-.9-2.35-1.36-4.16-1.36-1.72 0-3 .31-3.8.99-.83.65-1.45 1.83-1.82 3.5l-3.58-.54c.3-1.66.84-3.02 1.6-4.06a6.93 6.93 0 0 1 3.23-2.4 13.6 13.6 0 0 1 4.88-.82c1.84 0 3.34.22 4.5.7 1.15.48 2 1.07 2.54 1.78a6.5 6.5 0 0 1 1.13 2.77c.1.68.2 1.92.2 3.7v5.36c0 3.73.05 6.1.22 7.1.14.98.48 1.91.93 2.85h-3.81a9.88 9.88 0 0 1-.77-2.94m-.28-8.98c-1.33.6-3.33 1.1-5.96 1.52-1.52.23-2.6.51-3.22.82a3.6 3.6 0 0 0-1.95 3.2c0 1.07.4 1.97 1.13 2.68.74.73 1.81 1.07 3.22 1.07a7 7 0 0 0 3.79-.99 6.31 6.31 0 0 0 2.4-2.82c.4-.9.6-2.23.6-4.01v-1.47zm23.13 11.92v-3a6.55 6.55 0 0 1-6.01 3.53c-1.73 0-3.3-.5-4.75-1.58a9.85 9.85 0 0 1-3.33-4.35 15.93 15.93 0 0 1-1.19-6.46c0-2.35.34-4.52 1.05-6.44a9.45 9.45 0 0 1 3.25-4.44 8.06 8.06 0 0 1 4.82-1.52 6.5 6.5 0 0 1 3.45.9 7.38 7.38 0 0 1 2.48 2.37v-11.77h3.62v32.76h-3.39m-11.52-11.86c-.03 3.05.56 5.33 1.72 6.83 1.19 1.5 2.54 2.26 4.12 2.26a5 5 0 0 0 4.07-2.15c1.13-1.47 1.7-3.64 1.7-6.6 0-3.25-.6-5.63-1.73-7.15a5.12 5.12 0 0 0-4.2-2.26c-1.61 0-2.97.73-4.07 2.17-1.07 1.47-1.64 3.76-1.61 6.9zM98.7 212.8v-32.76h3.92v13.47h15.48v-13.47h3.95v32.76h-3.95v-15.45h-15.48v15.45zm43.38 0v-3.5c-1.67 2.7-3.95 4.03-6.86 4.03a7.66 7.66 0 0 1-3.56-.82 5.9 5.9 0 0 1-2.46-2c-.54-.82-.9-1.8-1.13-3-.14-.78-.22-2.03-.22-3.75v-14.69h3.66v13.16a27 27 0 0 0 .23 4.24c.23 1.07.7 1.9 1.44 2.49.77.62 1.67.9 2.77.9s2.14-.31 3.1-.93a5.11 5.11 0 0 0 2.04-2.52c.4-1.07.6-2.6.6-4.63v-12.7h3.64v23.72h-3.25zm8.78 0v-23.73h3.28v3.37a7.62 7.62 0 0 1 6.89-3.9 8.3 8.3 0 0 1 3.56.76c1.1.5 1.92 1.19 2.45 2 .54.85.94 1.84 1.13 3 .15.73.23 2.03.23 3.9v14.6h-3.67v-14.43c0-1.64-.14-2.88-.42-3.67a3.83 3.83 0 0 0-1.5-1.95 4.64 4.64 0 0 0-2.57-.74 5.6 5.6 0 0 0-4.04 1.64c-1.13 1.07-1.7 3.13-1.67 6.18l-.03 12.97h-3.64zm30.9-3.62l.54 3.56c-1.02.26-1.95.37-2.77.37a5.58 5.58 0 0 1-3.08-.7 3.7 3.7 0 0 1-1.55-1.81c-.29-.74-.43-2.35-.43-4.75V192.2h-2.71v-3.1h2.71v-5.88l3.64-2.43-.02 8.3h3.67v3.11h-3.67v13.9c0 1.12.05 1.86.2 2.2.1.31.33.6.62.79.3.17.7.28 1.27.28.4 0 .93-.05 1.58-.17zm18.16-4.04l3.76.51c-.6 2.46-1.7 4.32-3.3 5.68a9.38 9.38 0 0 1-6.16 2c-3.17 0-5.68-1.07-7.52-3.22-1.86-2.11-2.8-5.14-2.8-8.98 0-3.98.97-7.09 2.83-9.29a9.07 9.07 0 0 1 7.26-3.3 8.92 8.92 0 0 1 7.09 3.22c1.8 2.17 2.74 5.2 2.74 9.12 0 .22-.03.6-.03 1.07h-16.1c.14 2.6.82 4.6 2 5.99a5.78 5.78 0 0 0 4.52 2.09c1.33 0 2.49-.4 3.45-1.19.93-.76 1.7-2 2.26-3.7m-12-6.5h12.03c-.17-1.97-.62-3.5-1.39-4.48a5.4 5.4 0 0 0-4.52-2.32c-1.69 0-3.1.6-4.23 1.84a7.64 7.64 0 0 0-1.9 4.97zm20.1 14.16v-23.73h3.3v3.6c.83-1.7 1.59-2.8 2.32-3.34.7-.54 1.5-.8 2.32-.8 1.27 0 2.52.43 3.78 1.3l-1.26 3.73a4.75 4.75 0 0 0-2.69-.87c-.79 0-1.5.25-2.15.79a4.28 4.28 0 0 0-1.35 2.2c-.42 1.41-.6 3-.6 4.7v12.42h-3.66z"/><path fill="#D71920" d="M385 106.31c0 39.46-31.97 71.4-71.4 71.4s-71.4-31.94-71.4-71.4a71.4 71.4 0 0 1 142.8 0z"/><path fill="#fff" d="M284.26 133.74h-13.87V81.4h12.85v7.43c2.24-3.5 4.19-5.82 5.96-6.92a10.84 10.84 0 0 1 6-1.7c3.13 0 6.18.88 9.11 2.63l-4.3 12.06c-2.33-1.52-4.5-2.26-6.51-2.26a7.8 7.8 0 0 0-4.92 1.58c-1.35 1.08-2.43 3.02-3.19 5.8-.76 2.82-1.13 8.66-1.13 17.56v16.16zm59.96 0v-7.83a21.1 21.1 0 0 1-17.37 9 18.9 18.9 0 0 1-9.43-2.3 13.6 13.6 0 0 1-6.08-6.53c-1.24-2.77-1.86-6.64-1.86-11.58V81.4h13.84v24.04c0 7.37.25 11.89.76 13.52.51 1.67 1.44 3 2.77 3.96a8.7 8.7 0 0 0 5.14 1.44c2.37.03 4.49-.65 6.36-1.92a9.75 9.75 0 0 0 3.84-4.83c.7-1.92 1.04-6.64 1.04-14.12V81.4h13.87v52.34h-12.88z"/></svg>