<svg xmlns="http://www.w3.org/2000/svg" viewBox="0 0 679.02 166.42"><radialGradient id="a" cx="490.62" cy="120.23" r="10.66" gradientUnits="userSpaceOnUse"><stop offset="0" stop-color="#EE3432"/><stop offset="1" stop-color="#9B2024"/></radialGradient><linearGradient id="b" gradientUnits="userSpaceOnUse" x1="61.09" y1="76.54" x2="61.09" y2="22.3"><stop offset="0" stop-color="#EE3432"/><stop offset="1" stop-color="#761113"/></linearGradient><path fill="url(#a)" d="M479.9 119.96c0-2.54.9-4.88 2.65-7.09 1.74-2.16 4.33-3.24 7.7-3.24 3.51 0 6.24 1.08 8.2 3.24 1.9 2.2 2.88 4.55 2.88 7.09 0 3.01-.97 5.59-2.89 7.74-1.95 2.08-4.68 3.14-8.18 3.14-3.38 0-5.97-1.02-7.7-3.08-1.76-2.06-2.65-4.66-2.65-7.8z"/><path d="M198.69 98.18c0 5.22-1 9.83-3 13.88a29.7 29.7 0 0 1-8.2 10.25 35.95 35.95 0 0 1-11.91 6.36 46.44 46.44 0 0 1-14.37 2.17 47.1 47.1 0 0 1-14.55-2.17 34.15 34.15 0 0 1-11.73-6.36 29.82 29.82 0 0 1-7.92-10.25 31.82 31.82 0 0 1-2.9-13.87V72.06c0-5.22 1-9.84 3-13.89a32.9 32.9 0 0 1 8-10.36 35.3 35.3 0 0 1 11.83-6.51 45.32 45.32 0 0 1 14.46-2.28c5.46 0 10.45.76 15.02 2.28a35.13 35.13 0 0 1 11.8 6.51 29.45 29.45 0 0 1 7.74 10.36 33.55 33.55 0 0 1 2.73 13.89v26.12zm-15.6-23.34c0-3.85-.67-7.13-2.01-9.83a18.82 18.82 0 0 0-12.16-10.2 27.84 27.84 0 0 0-7.42-1.08c-2.55 0-5.1.37-7.63 1.08A18.79 18.79 0 0 0 141.72 65c-1.33 2.7-2 5.98-2 9.84v20.19c0 3.85.57 7.13 1.7 9.84a17.8 17.8 0 0 0 4.64 6.57 17.05 17.05 0 0 0 6.9 3.63c2.66.72 5.5 1.07 8.54 1.07 2.4 0 4.88-.35 7.42-1.07a19.72 19.72 0 0 0 7-3.63 18.72 18.72 0 0 0 5.15-6.57c1.35-2.71 2.02-6 2.02-9.84v-20.2zm99.9 29.32c0 4.26-.9 7.99-2.68 11.27a26.53 26.53 0 0 1-7.36 8.42 33.24 33.24 0 0 1-11.2 5.37 53.67 53.67 0 0 1-14.32 1.81c-6.29 0-12.4-.82-18.33-2.46-5.94-1.62-11.92-4.73-17.97-9.34l8.53-11.44c4.47 3.77 9.07 6.33 13.79 7.72a54.54 54.54 0 0 0 15.42 2.08c2.2 0 4.39-.25 6.64-.81a20.3 20.3 0 0 0 5.97-2.45 12.9 12.9 0 0 0 4.27-4.25 11.81 11.81 0 0 0 1.65-6.27c0-3.87-1.4-6.64-4.19-8.36a30.66 30.66 0 0 0-10.52-3.63c-4.6-.7-9.16-1.55-13.7-2.44a50.17 50.17 0 0 1-12.26-4.07 25.35 25.35 0 0 1-8.89-7.27c-2.3-3.02-3.46-7.03-3.46-11.96 0-4.15.87-7.9 2.57-11.27a23.91 23.91 0 0 1 7.07-8.53c3.01-2.3 6.5-4.1 10.43-5.35 3.94-1.28 8.2-1.9 12.8-1.9 6.76 0 12.76.7 17.96 2.08a45.38 45.38 0 0 1 15.05 7.35l-7.79 11.62a45.68 45.68 0 0 0-12.33-5.63c-4-1.1-8.3-1.63-12.9-1.63-5.33 0-9.61 1.22-12.88 3.72-3.27 2.48-4.9 5.59-4.9 9.34a7.75 7.75 0 0 0 3.98 7.09 35.46 35.46 0 0 0 9.94 3.7c4 .9 8.27 1.75 12.85 2.55 4.58.8 8.87 2.08 12.83 3.9a27.33 27.33 0 0 1 9.95 7.62C281.67 94 283 98.5 283 104.16zm69.07 23.63a52.5 52.5 0 0 1-10.99 2.44c-3.8.42-6.6.6-8.44.6-9.58 0-16.5-2.16-20.79-6.54-4.27-4.33-6.43-11.6-6.43-21.75V53.9h-12.7V39.92h13.07l3.68-17.63h11.56v17.63h25.04V53.9h-25.04v44.05c0 3.65.32 6.64 1 9.01a14.98 14.98 0 0 0 2.73 5.64 8.42 8.42 0 0 0 4.26 2.83c1.69.49 3.62.72 5.8.72 2.05 0 4.33-.16 6.8-.45 2.48-.29 5.13-.62 7.9-1.01l2.55 13.1zm22.14-37.05v6c0 3.62.6 6.66 1.81 9.16a17.36 17.36 0 0 0 5 6.16 20.01 20.01 0 0 0 7.26 3.54c2.72.74 5.54 1.09 8.44 1.09 3.02 0 6.52-.6 10.52-1.81s7.85-3.57 11.61-7.1l9.81 10.71c-4.61 4.72-9.72 7.97-15.34 9.71a55.94 55.94 0 0 1-16.96 2.64c-5.1 0-9.93-.69-14.54-2.05a36.43 36.43 0 0 1-12.06-6.21 28.8 28.8 0 0 1-8.15-10.24c-2-4.1-3.01-8.88-3.01-14.34V74.23c0-5.33.9-10.18 2.73-14.5 1.8-4.4 4.3-8.06 7.5-11.1 3.2-3.02 7-5.35 11.4-6.97s9.26-2.46 14.57-2.46 10.2.78 14.67 2.36a33.4 33.4 0 0 1 11.5 6.72 29.66 29.66 0 0 1 7.4 10.6A35.98 35.98 0 0 1 431 72.97v17.77h-56.78zm41.2-16.15c0-3.73-.54-6.95-1.64-9.63a18.85 18.85 0 0 0-4.45-6.61 17.2 17.2 0 0 0-6.52-3.82c-2.49-.78-5.12-1.17-7.9-1.17s-5.39.43-7.8 1.28a20.08 20.08 0 0 0-6.55 3.82 16.84 16.84 0 0 0-4.53 6.42 23.67 23.67 0 0 0-1.62 9.16v4h41v-3.45zm75.78-19.25c-8.12.73-14.82 2.16-20.05 4.27-5.28 2.14-9.29 4.1-12.06 5.9v64.41h-15.63v-90h13.8l1.63 13.25h.2a44.57 44.57 0 0 1 5.96-4.89 60.36 60.36 0 0 1 7.8-4.6 48.95 48.95 0 0 1 8.9-3.46 33.7 33.7 0 0 1 9.45-1.37v16.5zm105.29 43.39c0 10.27-2.81 18.2-8.44 23.78-5.62 5.55-12.9 8.33-21.87 8.33-3.14 0-6.95-.53-11.42-1.6-4.49-1.1-10.1-3.66-16.88-7.73l-1.8 8.41h-13.81V0h15.6v49.37c7.52-4.22 13.43-7.02 17.8-8.35 4.36-1.33 8.1-2 11.24-2 9.8 0 17.18 2.79 22.15 8.36 4.96 5.57 7.43 13.48 7.43 23.77v27.58zM580.85 73.2c0-7.05-1.43-11.94-4.35-14.74-2.9-2.8-6.77-4.2-11.61-4.2-3.74 0-8.01 1.11-12.79 3.29-4.78 2.18-9.53 4.8-14.24 7.8v41.13a49.63 49.63 0 0 0 6.54 3.85 61.73 61.73 0 0 0 14.51 5.1c2.3.49 4.3.72 5.98.72 4.73 0 8.56-1.46 11.52-4.36 2.96-2.92 4.44-7.85 4.44-14.76V73.2zm35.54 93.22l13.27-38.12-7.63-6.34-24.32-82.04h16.88l10.9 39.57 9.97 35.94h.55l12.7-35.94 13.6-39.57H679l-45.91 126.5h-16.7zM38.3 50.1V0H22.7v129.92h15.6V64.26M83.99 59h15.6v70.92h-15.6z"/><path fill="url(#b)" d="M99.03 55.62L67.21 22.3H54.98L23.15 55.6 2.82 76.55l19.38-.07 38.9-36.55L100 76.47l19.35.07"/></svg>