<svg xmlns="http://www.w3.org/2000/svg" viewBox="0 0 679.019 166.416"><radialGradient id="a" cx="490.62" cy="120.234" r="10.659" gradientUnits="userSpaceOnUse"><stop offset="0" stop-color="#EE3432"/><stop offset="1" stop-color="#9B2024"/></radialGradient><linearGradient id="b" gradientUnits="userSpaceOnUse" x1="61.094" y1="76.543" x2="61.094" y2="22.295"><stop offset="0" stop-color="#EE3432"/><stop offset="1" stop-color="#761113"/></linearGradient><path fill="url(#a)" d="M479.907 119.96c0-2.538.89-4.882 2.646-7.09 1.738-2.157 4.326-3.24 7.705-3.24 3.506 0 6.23 1.083 8.184 3.24 1.914 2.208 2.89 4.552 2.89 7.09 0 3.01-.976 5.587-2.89 7.735-1.953 2.09-4.678 3.145-8.184 3.145-3.38 0-5.967-1.016-7.705-3.076-1.757-2.06-2.646-4.66-2.646-7.803z"/><path d="M198.69 98.184c0 5.215-.995 9.824-2.997 13.877-2.002 4.094-4.746 7.463-8.203 10.246-3.447 2.822-7.422 4.922-11.914 6.367-4.473 1.445-9.258 2.168-14.365 2.168-5.213 0-10.057-.722-14.55-2.167-4.482-1.445-8.39-3.545-11.73-6.367-3.34-2.783-5.965-6.152-7.92-10.244-1.932-4.052-2.9-8.66-2.9-13.876V72.06c0-5.224.998-9.843 2.99-13.886 2-4.033 4.688-7.49 8.008-10.36 3.34-2.833 7.285-5 11.836-6.515 4.54-1.516 9.355-2.277 14.453-2.277 5.46 0 10.45.762 15.02 2.275 4.54 1.513 8.477 3.68 11.807 6.513 3.34 2.87 5.918 6.33 7.734 10.36 1.816 4.045 2.734 8.664 2.734 13.89v26.123zm-15.594-23.34c0-3.857-.674-7.13-2.02-9.834-1.33-2.725-3.038-4.922-5.157-6.61-2.12-1.66-4.455-2.882-6.994-3.595-2.54-.703-5.02-1.074-7.422-1.074-2.55 0-5.107.373-7.637 1.076-2.55.713-4.873 1.933-6.992 3.594-2.12 1.688-3.828 3.886-5.156 6.61-1.33 2.705-2.003 5.977-2.003 9.834V95.04c0 3.847.576 7.128 1.71 9.843 1.16 2.686 2.694 4.902 4.638 6.562 1.934 1.7 4.238 2.91 6.904 3.633 2.655.723 5.497 1.074 8.534 1.074 2.402 0 4.883-.352 7.422-1.074 2.54-.723 4.873-1.934 6.992-3.633 2.118-1.66 3.827-3.877 5.155-6.562 1.348-2.715 2.02-5.996 2.02-9.844V74.842zm99.902 29.316c0 4.258-.908 7.988-2.686 11.27-1.807 3.262-4.248 6.074-7.363 8.418-3.107 2.363-6.848 4.14-11.193 5.37-4.346 1.202-9.13 1.817-14.326 1.817-6.29 0-12.4-.82-18.33-2.46-5.937-1.622-11.923-4.737-17.97-9.347l8.527-11.436c4.473 3.77 9.072 6.328 13.79 7.715 4.735 1.387 9.853 2.08 15.42 2.08 2.196 0 4.393-.244 6.64-.81 2.236-.548 4.23-1.35 5.977-2.442 1.758-1.094 3.193-2.5 4.268-4.258 1.084-1.777 1.65-3.867 1.65-6.27 0-3.867-1.406-6.64-4.19-8.36-2.782-1.66-6.288-2.9-10.526-3.632-4.6-.703-9.16-1.543-13.7-2.44-4.532-.92-8.614-2.267-12.257-4.063-3.624-1.826-6.583-4.258-8.888-7.275-2.295-3.018-3.457-7.022-3.457-11.953 0-4.15.87-7.9 2.568-11.27 1.68-3.39 4.043-6.24 7.07-8.535 3.008-2.297 6.494-4.094 10.43-5.354 3.936-1.28 8.193-1.904 12.793-1.904 6.768 0 12.764.703 17.97 2.09 5.194 1.387 10.224 3.828 15.048 7.344l-7.793 11.62c-4.23-2.655-8.35-4.56-12.333-5.624-3.994-1.094-8.29-1.63-12.89-1.63-5.333 0-9.62 1.22-12.882 3.72-3.27 2.48-4.902 5.586-4.902 9.336 0 3.163 1.328 5.487 3.975 7.09 2.645 1.552 5.966 2.792 9.94 3.71 3.994.898 8.27 1.738 12.852 2.54 4.58.8 8.867 2.08 12.832 3.895 3.975 1.826 7.295 4.365 9.95 7.627 2.658 3.274 3.988 7.756 3.988 13.42zm69.067 23.633c-3.516 1.2-7.183 1.992-10.99 2.44-3.81.42-6.603.606-8.44.606-9.58 0-16.503-2.17-20.79-6.545-4.277-4.336-6.436-11.602-6.436-21.758v-48.63h-12.697V39.92h13.066l3.68-17.627h11.563v17.627h25.04v13.984h-25.04V97.95c0 3.65.322 6.64 1.006 9.013.663 2.363 1.56 4.248 2.724 5.635 1.142 1.387 2.568 2.354 4.258 2.832 1.69.488 3.623.723 5.81.723 2.04 0 4.326-.166 6.787-.45 2.48-.292 5.13-.624 7.904-1.015l2.55 13.105zm22.14-37.05v5.995c0 3.623.604 6.66 1.806 9.16 1.213 2.48 2.883 4.512 5 6.162 2.11 1.64 4.524 2.822 7.258 3.545 2.725.732 5.537 1.084 8.438 1.084 3.027 0 6.523-.598 10.527-1.81 3.994-1.21 7.842-3.573 11.61-7.09l9.806 10.704c-4.61 4.717-9.718 7.97-15.343 9.707-5.635 1.778-11.27 2.638-16.953 2.638-5.098 0-9.932-.685-14.54-2.052-4.59-1.426-8.624-3.467-12.062-6.21-3.446-2.716-6.17-6.134-8.153-10.235-2.003-4.1-3.01-8.886-3.01-14.345v-23.77c0-5.322.898-10.176 2.734-14.502 1.797-4.385 4.297-8.057 7.5-11.094 3.203-3.018 7.002-5.35 11.406-6.973 4.394-1.62 9.247-2.46 14.56-2.46s10.204.78 14.667 2.362c4.473 1.58 8.3 3.81 11.504 6.72 3.195 2.91 5.656 6.443 7.404 10.604 1.758 4.18 2.627 8.867 2.627 14.082V90.74h-56.785zm41.19-16.153c0-3.73-.537-6.953-1.64-9.63-1.085-2.616-2.57-4.853-4.444-6.61-1.873-1.748-4.05-3.018-6.52-3.818-2.49-.78-5.118-1.172-7.9-1.172s-5.39.43-7.804 1.28c-2.422.85-4.59 2.128-6.543 3.817-1.943 1.68-3.457 3.828-4.53 6.426-1.085 2.607-1.622 5.645-1.622 9.16v3.994h41.007V74.59zm75.782-19.248c-8.115.732-14.815 2.158-20.05 4.268-5.272 2.14-9.286 4.102-12.06 5.898v64.414h-15.625v-90h13.8l1.63 13.252h.195c1.543-1.553 3.545-3.193 5.967-4.893 2.422-1.697 5.03-3.23 7.803-4.607 2.793-1.426 5.742-2.56 8.887-3.457 3.164-.918 6.3-1.367 9.453-1.367v16.493zM596.47 98.73c0 10.273-2.812 18.203-8.437 23.78-5.625 5.546-12.91 8.33-21.875 8.33-3.135 0-6.953-.528-11.416-1.603-4.492-1.094-10.107-3.652-16.885-7.725l-1.797 8.408h-13.81V0h15.607v49.365c7.51-4.22 13.428-7.012 17.793-8.35 4.355-1.328 8.096-1.992 11.24-1.992 9.805 0 17.178 2.783 22.148 8.36 4.96 5.565 7.432 13.476 7.432 23.77V98.73zm-15.616-25.527c0-7.05-1.435-11.943-4.356-14.746-2.9-2.793-6.767-4.2-11.61-4.2-3.74 0-8.01 1.114-12.784 3.292-4.785 2.176-9.53 4.793-14.248 7.81v41.123c1.933 1.357 4.11 2.646 6.543 3.848 2.41 1.19 4.86 2.247 7.35 3.087 2.47.86 4.874 1.514 7.16 2.012 2.294.487 4.296.722 5.976.722 4.736 0 8.565-1.465 11.523-4.365 2.96-2.92 4.442-7.842 4.442-14.756V73.2zm35.538 93.213l13.27-38.115-7.636-6.336-24.316-82.04h16.875l10.898 39.57 9.98 35.937h.547l12.695-35.937 13.604-39.57h16.707L633.1 166.416h-16.708zM38.29 50.098V0H22.687v129.922H38.29V64.258m45.694-5.254H99.59v70.918H83.983z"/><path fill="url(#b)" d="M99.033 55.615l-31.826-33.32H54.98l-31.826 33.32L2.822 76.543l19.375-.078 38.897-36.543 38.916 36.543 19.355.078"/></svg>