<svg xmlns="http://www.w3.org/2000/svg" viewBox="0 0 153.384 194.241"><path fill="#F05A28" d="M77.497.084L76.69 0 0 8.04v140.568l76.692 45.633 76.692-45.632V8.04L77.497.084zm65.855 142.82l-66.66 39.662-66.66-39.663V85.288l66.375 39.506.11 7.16-45.534-27.1-.066 6.95L76.63 139.28l.115 7.35-45.7-27.187-.066 6.95 45.713 27.475 46.152-27.615v-6.983l-.057.034V96.6l20.565-12.28v58.583zm-.053-66.06L125.06 87.59l-8.42 4.96-40.148-23.885-.066 6.95 34.318 20.407-.304.18-.74.436-4.875 2.872-28.333-16.854-.066 6.95 22.363 13.3-5.276 3.528-.128.077-16.892-9.95-.066 6.95 11.085 6.527-11.292 6.78-66.042-39.26 66.14-39.755v.007l66.98 39.035zm.052-6.99l-67.02-39.51v-.01l-.008.006-.008-.005v.01L10.032 69.807V17.075l66.66-6.988 66.66 6.988v52.778z"/></svg>