<svg xmlns="http://www.w3.org/2000/svg" viewBox="0 0 153.38 194.24"><path fill="#F05A28" d="M77.5.08L76.69 0 0 8.04v140.57l76.7 45.63 76.68-45.63V8.04L77.5.08zm65.85 142.82L76.7 182.57 10.03 142.9V85.3l66.38 39.5.1 7.16-45.53-27.1-.06 6.95 45.71 27.48.12 7.35-45.7-27.19-.07 6.95 45.71 27.48 46.15-27.62v-6.98l-.05.03V96.6l20.56-12.28v58.58zm-.05-66.06L125.06 87.6l-8.42 4.96-40.15-23.89-.06 6.95 34.31 20.41-.3.18-.74.44-4.88 2.87L76.5 82.66l-.06 6.95 22.36 13.3-5.28 3.52-.13.08-16.89-9.95-.06 6.95 11.08 6.53-11.29 6.78-66.04-39.26L76.32 37.8v.01l66.98 39.04zm.05-6.99l-67.02-39.5v-.02.01h-.01L10.03 69.81V17.08l66.66-7 66.66 7v52.77z"/></svg>