<svg xmlns="http://www.w3.org/2000/svg" viewBox="0 0 426 103"><path d="M32.58 12.48c.2-.15.54-.36.48-.48h-12.6c-1.31-4-2.52-8.13-4-12-1.27 4-2.55 8.06-3.91 12H0c3.2 2.51 6.95 4.94 10.21 7.56-1.36 3.89-2.56 8-3.91 11.85.25.08.42-.2.58-.32 3.2-2.37 6.52-4.72 9.73-7 3.15 2.31 6.5 4.69 9.63 7 .16.12.34.37.58.32-1.33-4-2.58-8-3.91-12 3.15-2.25 6.53-4.65 9.67-6.93zM21.48 34.53l-10.29 7.56v59.53h10.29V34.53zM89.84 63.55v38.08h10.29V63.55c0-20.21-10.42-30.26-28.77-30.26-9.18 0-16.62 4.12-22.45 9.2v-8l-10.29 7.6v59.53h10.29V51.55c5.71-5.09 12.65-9.08 20.84-9.08C82 42.47 89.84 50 89.84 63.55zM140.45 43.09l11.27-8.56H129V8.11l-10.42 7.56v18.86l-11.28 8.56h11.28v39.06c0 12.9 8.06 20.22 19.35 20.22a44.52 44.52 0 0 0 13.52-2v-7.8a54.66 54.66 0 0 1-9.55.87c-8.93 0-12.9-4.59-12.9-16.62V43.09zM399.43 94.06c-7.07 0-15.38-1.86-24.68-5.58l-3.84 7.69a69.67 69.67 0 0 0 28.28 6.2c17.49 0 26.66-8.19 26.66-20 0-10.91-8.68-16.25-25.55-19.59-13.39-2.6-18.85-5.46-18.85-11 0-6 6.33-10 15.38-10a54.46 54.46 0 0 1 22.08 4.46l3.47-7.69a66.94 66.94 0 0 0-25.3-5.21c-7.32 0-13.27 1.74-18 5.33a16.22 16.22 0 0 0-7 13.64c0 10.54 8.81 15.63 25.18 19.1 13.27 2.61 19 5.46 19 11.54.04 6.27-5.26 11.11-16.83 11.11zM338.42 42.47c7.44 0 13.52 3.1 18.35 9.18l6.82-6.2a30.84 30.84 0 0 0-25.18-12.15 36.35 36.35 0 0 0-25.91 10.16 32.51 32.51 0 0 0-10.67 24.43c0 9.55 3.6 17.61 10.67 24.43a36.78 36.78 0 0 0 25.92 10c10.17 0 18.48-4.09 25-12.4l-6.7-6.2c-4.83 6.32-10.91 9.42-18.35 9.42a26.13 26.13 0 0 1-18.73-7.44 24.73 24.73 0 0 1-.92-35q.43-.45.88-.88a26.12 26.12 0 0 1 18.82-7.35zM188.83 102.37c12.77 0 23.56-5.08 29.89-13.39l-6.82-5.46c-5.33 6.57-12.53 9.8-21.33 9.8a26.09 26.09 0 0 1-17-6.2 25 25 0 0 1-8.56-16h56.19l.12-2.73c0-10.42-3-18.85-8.8-25.3s-13.77-9.8-23.69-9.8-18.11 3.35-24.56 10a34.48 34.48 0 0 0-9.55 24.56 34.48 34.48 0 0 0 9.55 24.55c6.45 6.6 14.64 9.97 24.56 9.97zm-16-54.57a22.4 22.4 0 0 1 16-6.08c13.52 0 21.46 8.56 22.45 21.33h-46.14a25.1 25.1 0 0 1 7.69-15.25zM258.26 43.09l11.28-8.56h-22.7V8.11l-10.42 7.56v18.86l-11.28 8.56h11.3v39.06c0 12.9 8.06 20.22 19.35 20.22a44.54 44.54 0 0 0 13.52-2v-7.8a54.66 54.66 0 0 1-9.55.87c-8.93 0-12.9-4.59-12.9-16.62V43.09zM289.1 34.53l-10.29 7.56v59.53h10.29V34.53zM284 12.68a6.41 6.41 0 0 0-6.56 6.26V19a6.51 6.51 0 0 0 6.56 6.46 6.38 6.38 0 0 0 6.34-6.46 6.27 6.27 0 0 0-6.22-6.32H284z" fill="#f58220"/></svg>