<svg xmlns="http://www.w3.org/2000/svg" viewBox="0 0 425.85 141.73"><path d="M32.58 12.48c.2-.15.54-.36.48-.48h-12.6c-1.31-4-2.52-8.13-4-12-1.27 4-2.55 8.06-3.91 12H0c3.2 2.51 6.95 4.94 10.21 7.56-1.36 3.89-2.56 7.95-3.91 11.85.25.08.42-.2.58-.32 3.2-2.37 6.52-4.72 9.73-7 3.15 2.31 6.5 4.69 9.63 7 .16.12.34.37.58.32-1.33-4-2.58-8-3.91-12 3.15-2.25 6.53-4.65 9.67-6.93zm-11.1 22.05l-10.29 7.56v59.53h10.29V34.53zm68.36 29.02v38.08h10.29V63.55c0-20.21-10.42-30.26-28.77-30.26-9.18 0-16.62 4.12-22.45 9.2v-8l-10.29 7.6v59.53h10.29V51.55c5.71-5.09 12.65-9.08 20.84-9.08C82 42.47 89.84 50 89.84 63.55zm50.61-20.46l11.27-8.56H129V8.11l-10.42 7.56v18.86l-11.28 8.56h11.28v39.06c0 12.9 8.06 20.22 19.35 20.22a44.52 44.52 0 0 0 13.52-2v-7.8a54.66 54.66 0 0 1-9.55.87c-8.93 0-12.9-4.59-12.9-16.62V43.09zm258.98 50.97c-7.07 0-15.38-1.86-24.68-5.58l-3.84 7.69a69.67 69.67 0 0 0 28.28 6.2c17.49 0 26.66-8.19 26.66-20 0-10.91-8.68-16.25-25.55-19.59-13.39-2.6-18.85-5.46-18.85-11 0-6 6.33-10 15.38-10a54.46 54.46 0 0 1 22.08 4.46l3.47-7.69a66.94 66.94 0 0 0-25.3-5.21c-7.32 0-13.27 1.74-18 5.33s-6.95 8.06-6.95 13.64c0 10.54 8.81 15.63 25.18 19.1 13.27 2.61 19 5.46 19 11.54-.01 6.27-5.31 11.11-16.88 11.11zm-61.01-51.59c7.44 0 13.52 3.1 18.35 9.18l6.82-6.2a30.84 30.84 0 0 0-25.18-12.15 36.35 36.35 0 0 0-25.91 10.16 32.51 32.51 0 0 0-10.67 24.43c0 9.55 3.6 17.61 10.67 24.43a36.78 36.78 0 0 0 25.92 10c10.17 0 18.48-4.09 25.05-12.4l-6.7-6.2c-4.83 6.32-10.91 9.42-18.35 9.42a26.13 26.13 0 0 1-18.73-7.44 24.73 24.73 0 0 1 0-35.84 26.12 26.12 0 0 1 18.73-7.39zm-149.59 59.9c12.77 0 23.56-5.08 29.89-13.39l-6.82-5.46c-5.33 6.57-12.53 9.8-21.33 9.8a26.09 26.09 0 0 1-17-6.2 25 25 0 0 1-8.56-16h56.19l.12-2.73c0-10.42-3-18.85-8.8-25.3s-13.77-9.8-23.69-9.8-18.11 3.35-24.56 10a34.48 34.48 0 0 0-9.55 24.56 34.48 34.48 0 0 0 9.55 24.55c6.45 6.6 14.64 9.97 24.56 9.97zm-16-54.57a22.4 22.4 0 0 1 16-6.08c13.52 0 21.46 8.56 22.45 21.33h-46.14a25.1 25.1 0 0 1 7.69-15.25zm85.43-4.71l11.28-8.56h-22.7V8.11l-10.42 7.56v18.86l-11.28 8.56h11.3v39.06c0 12.9 8.06 20.22 19.35 20.22a44.54 44.54 0 0 0 13.52-2v-7.8a54.66 54.66 0 0 1-9.55.87c-8.93 0-12.9-4.59-12.9-16.62V43.09zm30.84-8.56l-10.29 7.56v59.53h10.29V34.53zM284 12.68a6.41 6.41 0 0 0-6.56 6.32 6.51 6.51 0 0 0 6.56 6.46 6.38 6.38 0 0 0 6.34-6.46 6.27 6.27 0 0 0-6.34-6.32zM23.18 125.87h-9.51v-7.51h-2.42v18.29h2.42v-8.62h9.51v8.62h2.42v-18.29h-2.42v7.51zm12.24-2.77a5.83 5.83 0 0 0-4.47 1.85 7.33 7.33 0 0 0-1.72 5.19 7 7 0 0 0 1.7 5 6.06 6.06 0 0 0 4.61 1.86 6.12 6.12 0 0 0 3.79-1.12 5.66 5.66 0 0 0 2-3.16l-2.33-.34a4.31 4.31 0 0 1-1.38 2.07 3.43 3.43 0 0 1-2.11.65 3.68 3.68 0 0 1-2.77-1.16 5.1 5.1 0 0 1-1.24-3.34h9.88v-.6a7.19 7.19 0 0 0-1.68-5.09 5.67 5.67 0 0 0-4.28-1.81zm-3.74 5.65a4.1 4.1 0 0 1 1.16-2.75 3.57 3.57 0 0 1 2.6-1 3.44 3.44 0 0 1 2.78 1.3 4.49 4.49 0 0 1 .85 2.51zm16.4-5.2a5.52 5.52 0 0 0-1.43 1.86v-2h-2v13.25h2.25v-6.94a8.74 8.74 0 0 1 .38-2.62 2.4 2.4 0 0 1 .84-1.23 2.14 2.14 0 0 1 1.32-.44 3.21 3.21 0 0 1 1.65.49l.77-2.08a4.38 4.38 0 0 0-2.31-.72 2.5 2.5 0 0 0-1.47.43zM59 123.1a5.83 5.83 0 0 0-4.47 1.85 7.32 7.32 0 0 0-1.72 5.19 7 7 0 0 0 1.7 5 6.89 6.89 0 0 0 8.41.67 5.67 5.67 0 0 0 2-3.16l-2.32-.29a4.32 4.32 0 0 1-1.38 2.07 3.43 3.43 0 0 1-2.11.65 3.68 3.68 0 0 1-2.77-1.16 5.09 5.09 0 0 1-1.24-3.34H65v-.6a7.19 7.19 0 0 0-1.68-5.09A5.67 5.67 0 0 0 59 123.1zm-3.74 5.65a4.1 4.1 0 0 1 1.2-2.75 3.57 3.57 0 0 1 2.6-1 3.44 3.44 0 0 1 2.78 1.3 4.49 4.49 0 0 1 .85 2.51zm29.17.91a27.69 27.69 0 0 0-3.33-1q-1.65-.45-2-.57a2 2 0 0 1-.86-.6 1.24 1.24 0 0 1-.28-.79 1.49 1.49 0 0 1 .66-1.2 3.68 3.68 0 0 1 2.21-.51 3.17 3.17 0 0 1 2 .57 2.41 2.41 0 0 1 .87 1.6l2.2-.3a4.75 4.75 0 0 0-.77-2.05 3.73 3.73 0 0 0-1.74-1.22 7.67 7.67 0 0 0-2.74-.45 6.8 6.8 0 0 0-1.94.27 4.64 4.64 0 0 0-1.43.65 3.64 3.64 0 0 0-1.1 1.25 3.41 3.41 0 0 0-.41 1.64 3.26 3.26 0 0 0 1.94 3 20.85 20.85 0 0 0 3.47 1.05 9.86 9.86 0 0 1 2.3.76 1.37 1.37 0 0 1 .66 1.2 1.88 1.88 0 0 1-.75 1.48 3.51 3.51 0 0 1-2.3.63 3.63 3.63 0 0 1-2.39-.71 3.1 3.1 0 0 1-1-2l-2.22.35a5 5 0 0 0 1.73 3.18 6.22 6.22 0 0 0 3.9 1.11 6.89 6.89 0 0 0 2.79-.54 4.24 4.24 0 0 0 1.89-1.53 3.78 3.78 0 0 0 .66-2.12 3.29 3.29 0 0 0-.54-1.92 3.38 3.38 0 0 0-1.48-1.23zM95 123.1a6.17 6.17 0 0 0-4.17 1.47q-2 1.77-2 5.45a7.13 7.13 0 0 0 1.72 5.14A6 6 0 0 0 95 137a6.49 6.49 0 0 0 3.2-.81 5.43 5.43 0 0 0 2.23-2.28 8.77 8.77 0 0 0 .77-4 6.82 6.82 0 0 0-1.73-4.95A6 6 0 0 0 95 123.1zm2.78 10.73a3.7 3.7 0 0 1-5.58 0 7.09 7.09 0 0 1 0-7.62 3.7 3.7 0 0 1 5.57 0 5.47 5.47 0 0 1 1.11 3.79 5.79 5.79 0 0 1-1.11 3.83zm8.22-15.24a2.87 2.87 0 0 0-1.14 1.42 6.2 6.2 0 0 0-.24 2v1.41h-2v1.75h2v11.5h2.23v-11.5h2.58v-1.77h-2.58v-1.22a2.37 2.37 0 0 1 .42-1.63 2 2 0 0 1 1.45-.44 7.47 7.47 0 0 1 1.32.13l.34-2a11 11 0 0 0-2.1-.22 4.11 4.11 0 0 0-2.28.57zm10.39 16.14a1.5 1.5 0 0 1-.77-.16.93.93 0 0 1-.39-.44 3.91 3.91 0 0 1-.12-1.24v-7.75h2.26v-1.74h-2.26v-4.63l-2.23 1.35v3.28h-1.65v1.75h1.65v7.62a8 8 0 0 0 .28 2.65 2.16 2.16 0 0 0 .95 1 3.84 3.84 0 0 0 1.9.39 8.36 8.36 0 0 0 1.7-.2l-.32-2a7.25 7.25 0 0 1-1 .12zm16.52-3.67l-.76 2.56-.66-2.53-2-7.69h-2.31l-2.11 7.76-.69 2.73-.79-2.84-2.11-7.65h-2.32l4.06 13.25h2.34l2.68-10.19.51 2.26 2.11 7.94h2.33l4.14-13.25h-2.18zm17.3.04v-3a12.62 12.62 0 0 0-.11-2.07 3.54 3.54 0 0 0-.7-1.53 3.63 3.63 0 0 0-1.56-1 8 8 0 0 0-2.76-.4 8.86 8.86 0 0 0-3 .47 4.32 4.32 0 0 0-2 1.34 5.43 5.43 0 0 0-1 2.28l2.2.3a3.39 3.39 0 0 1 1.12-2 4 4 0 0 1 2.34-.56 3.76 3.76 0 0 1 2.56.76 2.48 2.48 0 0 1 .64 1.93v.59a20.52 20.52 0 0 1-4 .77 16 16 0 0 0-2 .34 5.45 5.45 0 0 0-1.62.74 3.7 3.7 0 0 0-1.6 3.07 3.52 3.52 0 0 0 1.17 2.73 4.82 4.82 0 0 0 3.36 1.07 6.94 6.94 0 0 0 2.48-.44 8.37 8.37 0 0 0 2.4-1.5 4.74 4.74 0 0 0 .45 1.63h2.35a5 5 0 0 1-.57-1.59 31.77 31.77 0 0 1-.15-3.93zm-2.27-.27a5.42 5.42 0 0 1-.36 2.25 3.5 3.5 0 0 1-1.49 1.55 4.63 4.63 0 0 1-2.31.57 2.93 2.93 0 0 1-2-.6 2 2 0 0 1-.37-2.56 2 2 0 0 1 .89-.73 8.55 8.55 0 0 1 2-.45 16.43 16.43 0 0 0 3.67-.85zm9.59-7.28a5.49 5.49 0 0 0-1.43 1.86v-2h-2v13.25h2.25v-6.94a8.74 8.74 0 0 1 .37-2.62 2.39 2.39 0 0 1 .84-1.23 2.13 2.13 0 0 1 1.32-.44 3.21 3.21 0 0 1 1.65.49l.77-2.08a4.39 4.39 0 0 0-2.31-.72 2.49 2.49 0 0 0-1.46.43zm10.96-.45a5.83 5.83 0 0 0-4.47 1.85 7.32 7.32 0 0 0-1.72 5.19 7 7 0 0 0 1.7 5 6.06 6.06 0 0 0 4.61 1.79 6.12 6.12 0 0 0 3.79-1.12 5.66 5.66 0 0 0 2-3.16l-2.32-.29a4.32 4.32 0 0 1-1.38 2.07 3.43 3.43 0 0 1-2.11.65 3.68 3.68 0 0 1-2.77-1.16 5.09 5.09 0 0 1-1.24-3.34h9.88v-.6a7.19 7.19 0 0 0-1.68-5.09 5.67 5.67 0 0 0-4.29-1.79zm-3.74 5.65a4.1 4.1 0 0 1 1.17-2.77 3.57 3.57 0 0 1 2.6-1 3.44 3.44 0 0 1 2.78 1.3 4.49 4.49 0 0 1 .85 2.51zm28.57 5.54a3.15 3.15 0 0 1-2.21.81 3.33 3.33 0 0 1-2.67-1.21 6 6 0 0 1-1-3.88 5.78 5.78 0 0 1 1.06-3.85 3.49 3.49 0 0 1 2.76-1.22 2.86 2.86 0 0 1 1.92.67 3.63 3.63 0 0 1 1.1 2l2.18-.34a5 5 0 0 0-1.76-3.1 5.5 5.5 0 0 0-3.53-1.09 6.43 6.43 0 0 0-3.16.8 5 5 0 0 0-2.17 2.42 9.22 9.22 0 0 0-.71 3.76 7.21 7.21 0 0 0 1.65 5.1 5.69 5.69 0 0 0 4.37 1.78 5.4 5.4 0 0 0 3.66-1.29 5.73 5.73 0 0 0 1.85-3.58l-2.21-.29a4 4 0 0 1-1.13 2.51zm11.52-11.19a6.17 6.17 0 0 0-4.17 1.47q-2 1.77-2 5.45a7.13 7.13 0 0 0 1.71 5.14 6 6 0 0 0 4.5 1.78 6.49 6.49 0 0 0 3.2-.81 5.44 5.44 0 0 0 2.23-2.28 8.77 8.77 0 0 0 .77-4 6.82 6.82 0 0 0-1.73-4.95 6 6 0 0 0-4.51-1.8zm2.78 10.73a3.7 3.7 0 0 1-5.58 0 7.09 7.09 0 0 1 0-7.62 3.7 3.7 0 0 1 5.57 0 5.47 5.47 0 0 1 1.12 3.72 5.78 5.78 0 0 1-1.11 3.9zm16.52-9.17a3.49 3.49 0 0 0-1.5-1.13 5.55 5.55 0 0 0-2.2-.43 4.76 4.76 0 0 0-4.22 2.18v-1.88h-2v13.25h2.25v-7.24q0-2.55 1-3.46A3.63 3.63 0 0 1 220 125a3 3 0 0 1 1.57.41 2.15 2.15 0 0 1 .93 1.09 6 6 0 0 1 .26 2.05v8.06H225v-8.11a12.87 12.87 0 0 0-.12-2.18 4.37 4.37 0 0 0-.74-1.66zm12.19 9.63a3.15 3.15 0 0 1-2.21.81 3.33 3.33 0 0 1-2.67-1.21 6 6 0 0 1-1-3.88 5.78 5.78 0 0 1 1.06-3.85 3.49 3.49 0 0 1 2.76-1.22 2.86 2.86 0 0 1 1.91.67 3.63 3.63 0 0 1 1.1 2l2.18-.34a5 5 0 0 0-1.76-3.1 5.5 5.5 0 0 0-3.53-1.09 6.43 6.43 0 0 0-3.16.8 5 5 0 0 0-2.16 2.42 9.2 9.2 0 0 0-.71 3.76 7.22 7.22 0 0 0 1.65 5.1 5.69 5.69 0 0 0 4.37 1.78 5.39 5.39 0 0 0 3.66-1.29 5.73 5.73 0 0 0 1.85-3.58l-2.21-.29a4 4 0 0 1-1.13 2.51zm11.55-11.19a5.83 5.83 0 0 0-4.47 1.85 7.32 7.32 0 0 0-1.72 5.19 7 7 0 0 0 1.7 5 6.89 6.89 0 0 0 8.4.67 5.66 5.66 0 0 0 2-3.16l-2.32-.29a4.31 4.31 0 0 1-1.38 2.07 3.43 3.43 0 0 1-2.11.65 3.68 3.68 0 0 1-2.77-1.16 5.08 5.08 0 0 1-1.21-3.32h9.88v-.6a7.19 7.19 0 0 0-1.68-5.09 5.67 5.67 0 0 0-4.32-1.81zm-3.74 5.65a4.08 4.08 0 0 1 1.16-2.75 3.57 3.57 0 0 1 2.6-1 3.44 3.44 0 0 1 2.78 1.3 4.49 4.49 0 0 1 .85 2.51zM266 124a5.24 5.24 0 0 0-3-.87 4.49 4.49 0 0 0-2.21.51 5 5 0 0 0-1.64 1.52v-1.76h-2v18.33h2.25v-6.45a4.6 4.6 0 0 0 1.47 1.2 4.22 4.22 0 0 0 2 .47 5.45 5.45 0 0 0 2.93-.87 5.52 5.52 0 0 0 2.12-2.5 8.87 8.87 0 0 0 .73-3.66 9 9 0 0 0-.66-3.49A5.37 5.37 0 0 0 266 124zm-.74 9.86a3.25 3.25 0 0 1-2.56 1.27 3.18 3.18 0 0 1-2.51-1.22 5.77 5.77 0 0 1-1-3.78 6 6 0 0 1 1.11-3.9 3.23 3.23 0 0 1 2.54-1.34 3.14 3.14 0 0 1 2.49 1.26 5.86 5.86 0 0 1 1 3.79 6 6 0 0 1-1.09 3.9zm10.2.87a1.5 1.5 0 0 1-.77-.16.93.93 0 0 1-.39-.44 3.94 3.94 0 0 1-.12-1.24v-7.75h2.26v-1.74h-2.26v-4.63l-2.18 1.35v3.28h-1.7v1.75h1.7v7.62a8 8 0 0 0 .28 2.65 2.16 2.16 0 0 0 .95 1 3.84 3.84 0 0 0 1.9.39 8.37 8.37 0 0 0 1.7-.2l-.33-2a7.25 7.25 0 0 1-1.04.12zm11.88-5.07a27.72 27.72 0 0 0-3.33-1q-1.65-.45-2-.57a2 2 0 0 1-.86-.6 1.24 1.24 0 0 1-.27-.79 1.49 1.49 0 0 1 .66-1.2 3.68 3.68 0 0 1 2.21-.51 3.17 3.17 0 0 1 2 .57 2.41 2.41 0 0 1 .87 1.6l2.19-.3a4.73 4.73 0 0 0-.77-2.05 3.74 3.74 0 0 0-1.74-1.22 7.65 7.65 0 0 0-2.74-.45 6.8 6.8 0 0 0-1.94.27 4.65 4.65 0 0 0-1.43.65 3.63 3.63 0 0 0-1.1 1.25 3.4 3.4 0 0 0-.41 1.64 3.26 3.26 0 0 0 1.94 3 20.84 20.84 0 0 0 3.42 1.08 9.86 9.86 0 0 1 2.3.76A1.36 1.36 0 0 1 287 133a1.88 1.88 0 0 1-.75 1.48 3.51 3.51 0 0 1-2.3.63 3.63 3.63 0 0 1-2.39-.71 3.1 3.1 0 0 1-1-2l-2.22.35a5 5 0 0 0 1.73 3.18A6.22 6.22 0 0 0 284 137a6.9 6.9 0 0 0 2.8-.54 4.23 4.23 0 0 0 1.89-1.53 3.76 3.76 0 0 0 .66-2.12 3.3 3.3 0 0 0-.54-1.92 3.38 3.38 0 0 0-1.47-1.23zm20.74 4.63a3.15 3.15 0 0 1-2.21.81 3.33 3.33 0 0 1-2.67-1.21 6 6 0 0 1-1-3.88 5.77 5.77 0 0 1 1.06-3.85 3.48 3.48 0 0 1 2.76-1.22 2.86 2.86 0 0 1 1.92.67 3.62 3.62 0 0 1 1.1 2l2.18-.34a5 5 0 0 0-1.76-3.1 5.5 5.5 0 0 0-3.53-1.09 6.42 6.42 0 0 0-3.16.8 5 5 0 0 0-2.17 2.42 9.25 9.25 0 0 0-.71 3.76 7.22 7.22 0 0 0 1.65 5.1 5.69 5.69 0 0 0 4.37 1.78 5.4 5.4 0 0 0 3.66-1.29 5.72 5.72 0 0 0 1.85-3.58l-2.21-.29a4 4 0 0 1-1.13 2.51zm11.52-11.19a6.17 6.17 0 0 0-4.17 1.47q-2 1.77-2 5.45a7.13 7.13 0 0 0 1.71 5.14 6 6 0 0 0 4.5 1.78 6.49 6.49 0 0 0 3.2-.81 5.43 5.43 0 0 0 2.23-2.28 8.78 8.78 0 0 0 .77-4 6.81 6.81 0 0 0-1.74-4.95 6 6 0 0 0-4.5-1.8zm2.78 10.73a3.7 3.7 0 0 1-5.58 0 7.09 7.09 0 0 1 0-7.62 3.7 3.7 0 0 1 5.57 0 5.47 5.47 0 0 1 1.12 3.72 5.79 5.79 0 0 1-1.11 3.9zm20.44-10.73a4.75 4.75 0 0 0-4.09 2.32 3.28 3.28 0 0 0-1.33-1.71 4.36 4.36 0 0 0-2.41-.61 4.66 4.66 0 0 0-2.36.59 4.71 4.71 0 0 0-1.66 1.57v-1.86h-2v13.25h2.25v-6.87a8.25 8.25 0 0 1 .36-2.77 2.83 2.83 0 0 1 1.17-1.46 3.26 3.26 0 0 1 1.75-.5 2.08 2.08 0 0 1 1.8.75 3.79 3.79 0 0 1 .55 2.25v8.61h2.24V129a4.09 4.09 0 0 1 .92-3 3.14 3.14 0 0 1 2.32-.93 2.48 2.48 0 0 1 1.35.36 1.87 1.87 0 0 1 .79 1 6.11 6.11 0 0 1 .22 1.94v8.35h2.23v-9.1a4.66 4.66 0 0 0-1.06-3.36 4 4 0 0 0-3.04-1.16zm13.36 0a5.83 5.83 0 0 0-4.47 1.85 7.33 7.33 0 0 0-1.72 5.19 7 7 0 0 0 1.7 5 6.06 6.06 0 0 0 4.61 1.86 6.12 6.12 0 0 0 3.79-1.12 5.67 5.67 0 0 0 2-3.16l-2.32-.29a4.3 4.3 0 0 1-1.38 2.07 3.43 3.43 0 0 1-2.11.65 3.67 3.67 0 0 1-2.77-1.16 5.08 5.08 0 0 1-1.24-3.34h9.88v-.6a7.18 7.18 0 0 0-1.69-5.09 5.66 5.66 0 0 0-4.28-1.86zm-3.74 5.65a4.1 4.1 0 0 1 1.16-2.75 3.57 3.57 0 0 1 2.6-1 3.44 3.44 0 0 1 2.78 1.3 4.49 4.49 0 0 1 .85 2.51zm31.77 2.35v-3a12.77 12.77 0 0 0-.11-2.07 3.57 3.57 0 0 0-.7-1.53 3.63 3.63 0 0 0-1.56-1 8 8 0 0 0-2.76-.4 8.86 8.86 0 0 0-3 .47 4.32 4.32 0 0 0-2 1.34 5.44 5.44 0 0 0-1 2.28l2.2.3a3.4 3.4 0 0 1 1.12-2 4 4 0 0 1 2.34-.56 3.76 3.76 0 0 1 2.56.76 2.48 2.48 0 0 1 .64 1.93v.59a20.52 20.52 0 0 1-4 .77 16.07 16.07 0 0 0-2 .34 5.48 5.48 0 0 0-1.62.74 3.69 3.69 0 0 0-1.6 3.07 3.52 3.52 0 0 0 1.17 2.73 4.82 4.82 0 0 0 3.36 1.07 6.94 6.94 0 0 0 2.48-.44 8.37 8.37 0 0 0 2.4-1.5 4.72 4.72 0 0 0 .45 1.63h2.35a5 5 0 0 1-.57-1.59 31.48 31.48 0 0 1-.15-3.93zm-2.27-.27a5.42 5.42 0 0 1-.36 2.25 3.5 3.5 0 0 1-1.49 1.55 4.62 4.62 0 0 1-2.31.57 2.93 2.93 0 0 1-2-.6 2 2 0 0 1-.37-2.56 2 2 0 0 1 .89-.73 8.54 8.54 0 0 1 2-.45 16.43 16.43 0 0 0 3.67-.85zm6.12-12.47h2.25v18.29h-2.25zm6.09 0h2.25v2.58h-2.25zm0 5.04h2.25v13.25h-2.25zm11.67 8.09q-.53 1.51-.82 2.51-.39-1.38-.85-2.67l-2.84-7.94h-2.37l5 13.25h2.1l5-13.25h-2.31zm12.72-8.39a5.83 5.83 0 0 0-4.47 1.85 7.32 7.32 0 0 0-1.72 5.19 7 7 0 0 0 1.7 5 6.89 6.89 0 0 0 8.4.67 5.66 5.66 0 0 0 2-3.16l-2.32-.29a4.31 4.31 0 0 1-1.38 2.07 3.43 3.43 0 0 1-2.11.65 3.67 3.67 0 0 1-2.77-1.16 5.08 5.08 0 0 1-1.23-3.34h9.88v-.6a7.19 7.19 0 0 0-1.68-5.09 5.67 5.67 0 0 0-4.3-1.79zm-3.74 5.65A4.09 4.09 0 0 1 416 126a3.57 3.57 0 0 1 2.6-1 3.44 3.44 0 0 1 2.78 1.3 4.5 4.5 0 0 1 .85 2.51z" fill="#f58220"/></svg>