<svg xmlns="http://www.w3.org/2000/svg" viewBox="0 0 157.914 55.146"><path fill="#192C8F" d="M26.412 34.768l.02-8.605H1.283l.022 8.605L8.6 34.75l.02 8.787-.025 10.665h10.527l-.026-10.665.02-8.787 7.296.018M87.086 34.768l.02-8.605h-25.15l.02 8.605 7.297-.018.02 8.787-.025 10.665h10.528l-.025-10.665.02-8.787 7.296.018M95.188 50.27c0 2.687-2.178 4.865-4.863 4.865-2.688 0-4.864-2.18-4.864-4.864 0-2.687 2.178-4.864 4.865-4.864 2.686 0 4.863 2.178 4.863 4.865zM120.85 40.07s4.516-1.206 4.37-7.096c-.148-5.89-5.204-6.88-8.56-6.88l-15.946.068v28.04l19.234-.005s6.17-.123 6.324-7.116c.153-6.99-5.42-7.01-5.42-7.01zm-11.12-7.636l3.86.008c.37-.008 1.647.506 1.688 2.424.05 2.432-1.216 2.533-1.216 2.533l-4.334.03v-4.996zm4.505 15.504l-4.43-.05-.076-5.204 4.505.05s1.68.377 1.716 2.715c.037 2.334-1.715 2.488-1.715 2.488zM147.054 40.07l10.86-13.907H145.33l-3.255 6.635-3.255-6.635h-12.583l10.325 13.905.008 3.555-.024 10.58h10.526l-.025-10.58.007-3.552"/><g fill="#CD150D"><path d="M58.62 26.163H47.85l.002 8.48h5.18l-9.267 12.433-9.265-12.43h5.18v-8.482H29.444v17.242c.23 6.72 5.05 11.74 14.57 11.74 9.03 0 14.376-5.014 14.607-11.74V26.163z"/><path d="M0 0h156.59v21.476H0z"/></g><path fill="#FFF" d="M73.964 17.212v-2.45h-4.98v-2.04l5.28-7.73h1.958v7.72h1.51v2.05h-1.51v2.45h-2.258zm0-4.5V8.555l-2.797 4.16h2.797zM87.065 15.045v2.167H78.89c.088-.82.354-1.595.797-2.328.443-.733 1.316-1.706 2.623-2.918 1.05-.98 1.696-1.644 1.934-1.992.32-.48.48-.958.48-1.428 0-.52-.14-.92-.418-1.2-.28-.28-.665-.418-1.158-.418-.486 0-.874.146-1.162.44-.287.293-.453.78-.498 1.46l-2.324-.23c.138-1.285.573-2.206 1.303-2.765s1.644-.838 2.74-.838c1.2 0 2.144.324 2.83.97.686.648 1.028 1.454 1.028 2.417 0 .548-.098 1.07-.295 1.564-.196.496-.507 1.014-.934 1.557-.282.36-.79.877-1.527 1.552-.736.675-1.203 1.124-1.4 1.345s-.354.437-.477.647h4.632z"/></svg>