<svg xmlns="http://www.w3.org/2000/svg" viewBox="0 0 157.91 55.15"><path fill="#192C8F" d="M26.41 34.77l.02-8.6H1.28l.03 8.6 7.29-.02.02 8.79-.03 10.66h10.53l-.02-10.66.02-8.79 7.3.02m60.67 0l.02-8.6H61.96l.02 8.6 7.3-.02.01 8.79-.02 10.66H79.8l-.03-10.66.02-8.79 7.3.02m8.1 15.5a4.86 4.86 0 1 1-9.73 0 4.86 4.86 0 0 1 9.73 0zm25.66-10.2s4.52-1.2 4.37-7.1c-.15-5.89-5.2-6.88-8.56-6.88l-15.95.07V54.2h19.24s6.17-.13 6.32-7.12c.16-6.99-5.42-7-5.42-7zm-11.12-7.64l3.86.01c.37 0 1.65.5 1.69 2.43.05 2.43-1.22 2.53-1.22 2.53l-4.33.03v-5zm4.5 15.5l-4.43-.04-.07-5.2 4.5.04s1.68.38 1.72 2.72c.04 2.33-1.72 2.49-1.72 2.49zm32.82-7.86l10.86-13.9h-12.58l-3.25 6.63-3.26-6.64h-12.58l10.32 13.9.01 3.56-.02 10.58h10.52l-.02-10.58v-3.55"/><path d="M58.62 26.16H47.85v8.48h5.18l-9.26 12.44-9.27-12.43h5.18v-8.49H29.44v17.25c.23 6.72 5.05 11.74 14.57 11.74 9.03 0 14.38-5.02 14.61-11.74V26.16zM0 0h156.59v21.48H0z" fill="#CD150D"/><path fill="#FFF" d="M73.96 17.21v-2.45h-4.98v-2.04L74.26 5h1.96v7.72h1.51v2.05h-1.5v2.45h-2.27zm0-4.5V8.55l-2.8 4.16h2.8zm13.1 2.33v2.17H78.9c.09-.82.35-1.6.8-2.33.44-.73 1.31-1.7 2.62-2.91 1.05-.98 1.7-1.65 1.93-2 .32-.48.48-.95.48-1.42 0-.52-.14-.92-.41-1.2a1.56 1.56 0 0 0-1.16-.42c-.49 0-.88.14-1.16.44-.3.3-.46.78-.5 1.46l-2.33-.23c.14-1.29.58-2.2 1.3-2.77S82.12 5 83.22 5a4 4 0 0 1 2.83.97 3.19 3.19 0 0 1 1.02 2.42c0 .55-.1 1.07-.29 1.57-.2.5-.5 1.01-.93 1.55-.29.36-.8.88-1.53 1.55-.74.68-1.2 1.13-1.4 1.35s-.36.44-.48.65h4.63z"/></svg>