<svg xmlns="http://www.w3.org/2000/svg" viewBox="0 0 93.63 43.14"><path fill="#2551a3" d="M13.82 26.62a2.35 2.35 0 1 1-2.35-2.35 2.35 2.35 0 0 1 2.35 2.35zm79.81-20.2A1.37 1.37 0 1 1 92.26 5a1.37 1.37 0 0 1 1.37 1.37zm-10.1-5A1.37 1.37 0 1 1 82.16 0a1.37 1.37 0 0 1 1.37 1.37zm-30.3 5A1.37 1.37 0 1 1 51.86 5a1.37 1.37 0 0 1 1.37 1.37zm31.28 15.15a2.35 2.35 0 1 1-2.35-2.35 2.34 2.34 0 0 1 2.35 2.35zm-1 10.1a1.37 1.37 0 1 1-1.37-1.37 1.37 1.37 0 0 1 1.37 1.37zm-8-15.15A3.52 3.52 0 1 1 72.06 13a3.52 3.52 0 0 1 3.52 3.52zm10.1-5A3.52 3.52 0 1 1 82.16 8a3.52 3.52 0 0 1 3.52 3.52zm-12.18 25.2a1.37 1.37 0 1 1-1.37-1.37 1.37 1.37 0 0 1 1.37 1.37zm20.2-20.2a1.37 1.37 0 1 1-1.37-1.37 1.37 1.37 0 0 1 1.37 1.37zM33 6.42A1.37 1.37 0 1 1 31.67 5 1.37 1.37 0 0 1 33 6.42zm-20.2 0A1.37 1.37 0 1 1 11.47 5a1.37 1.37 0 0 1 1.37 1.37zm30.27 35.35a1.37 1.37 0 1 1-1.37-1.37 1.37 1.37 0 0 1 1.37 1.37zM22.94 1.37A1.37 1.37 0 1 1 21.57 0a1.37 1.37 0 0 1 1.37 1.37zm0 30.22a1.37 1.37 0 1 1-1.37-1.37 1.37 1.37 0 0 1 1.37 1.37zm-20.2-10a1.37 1.37 0 1 1-1.37-1.39 1.37 1.37 0 0 1 1.37 1.37zm0 10.1a1.37 1.37 0 1 1-1.37-1.39 1.37 1.37 0 0 1 1.37 1.37zm22.34-10.1A3.52 3.52 0 1 1 21.57 18a3.52 3.52 0 0 1 3.52 3.52zM34 36.72a2.35 2.35 0 1 1-2.35-2.35A2.35 2.35 0 0 1 34 36.72zm10.1-25.25a2.35 2.35 0 1 1-2.35-2.35 2.35 2.35 0 0 1 2.35 2.35zm30.3 15.15a2.35 2.35 0 1 1-2.35-2.35 2.35 2.35 0 0 1 2.35 2.35zm0-20.2a2.35 2.35 0 1 1-2.35-2.35 2.35 2.35 0 0 1 2.35 2.35zm-8.93 5A3.52 3.52 0 1 1 62 8a3.52 3.52 0 0 1 3.52 3.52zM44.11 31.67a2.35 2.35 0 1 1-2.35-2.35 2.35 2.35 0 0 1 2.35 2.35zm11.27-15.15A3.52 3.52 0 1 1 51.86 13a3.52 3.52 0 0 1 3.52 3.52zm10.1 5A3.52 3.52 0 1 1 62 18a3.52 3.52 0 0 1 3.52 3.52zm-1.17 10.1a2.35 2.35 0 1 1-2.31-2.3 2.35 2.35 0 0 1 2.35 2.35zm-10.1 5a2.35 2.35 0 1 1-2.35-2.35 2.35 2.35 0 0 1 2.35 2.35zm1.17-10.1A3.52 3.52 0 1 1 51.86 23a3.52 3.52 0 0 1 3.52 3.52zm-20.2 0A3.52 3.52 0 1 1 31.66 23a3.52 3.52 0 0 1 3.52 3.52zm10.1-5A3.52 3.52 0 1 1 41.77 18a3.52 3.52 0 0 1 3.52 3.52zm-10.1-5A3.52 3.52 0 1 1 31.67 13a3.52 3.52 0 0 1 3.52 3.52zm-10.1-5A3.52 3.52 0 1 1 21.57 8a3.52 3.52 0 0 1 3.52 3.52z"/><path fill="#ed1846" d="M15 16.52A3.52 3.52 0 1 1 11.47 13 3.52 3.52 0 0 1 15 16.52z"/></svg>