<svg xmlns="http://www.w3.org/2000/svg" viewBox="0 0 178.76 76.92"><path d="M56.38 26.62A2.35 2.35 0 1 1 54 24.27a2.35 2.35 0 0 1 2.35 2.35zm119.2 47.17a3.29 3.29 0 0 1-5 0 5.57 5.57 0 0 1 0-6 3.29 3.29 0 0 1 5 0 5.57 5.57 0 0 1 0 6zm1.69-7.42a6 6 0 0 0-8.41 0 7.32 7.32 0 0 0 0 8.82 6 6 0 0 0 8.41 0 7.29 7.29 0 0 0 0-8.82zm-13.51-1.56a1.26 1.26 0 0 0-1.07.68l-3.36 5.43-3.43-5.41a1.29 1.29 0 0 0-1.12-.7 1 1 0 0 0-.74.29 1.18 1.18 0 0 0-.29.86v9.68c0 .74.35 1.11 1 1.11s1-.37 1-1.11V69l2.4 3.77a1.18 1.18 0 0 0 1 .63 1.16 1.16 0 0 0 1-.65l2.37-3.83v6.72a1.12 1.12 0 0 0 .29.8 1.2 1.2 0 0 0 1.62 0 1.14 1.14 0 0 0 .28-.8v-9.7a1.22 1.22 0 0 0-.26-.82 1 1 0 0 0-.76-.31zm-12.84 0h-8.12a1.09 1.09 0 0 0-.76.26.92.92 0 0 0-.29.72 1 1 0 0 0 .29.72 1 1 0 0 0 .76.28h3v8.86a1.15 1.15 0 0 0 .28.8 1.21 1.21 0 0 0 1.63 0 1.14 1.14 0 0 0 .28-.8v-8.87h3a1.07 1.07 0 0 0 .78-.28 1 1 0 0 0 .29-.72.92.92 0 0 0-.29-.72 1.12 1.12 0 0 0-.77-.26zm-11.07 10.83v-9.7c0-.75-.35-1.13-1-1.13a1.29 1.29 0 0 0-1 .61l-5.4 7.47v-7a1.18 1.18 0 0 0-.28-.81 1.2 1.2 0 0 0-1.64 0 1.2 1.2 0 0 0-.27.81v9.7a1.15 1.15 0 0 0 .27.82 1 1 0 0 0 .77.3 1.33 1.33 0 0 0 1-.63l5.43-7.42v6.94a1.15 1.15 0 0 0 .28.79 1.05 1.05 0 0 0 .83.32 1 1 0 0 0 .81-.31 1.17 1.17 0 0 0 .27-.8zm-16.38-9.85a.92.92 0 0 0-.29-.72 1.11 1.11 0 0 0-.77-.26h-8.11a1.09 1.09 0 0 0-.76.26.92.92 0 0 0-.29.72 1 1 0 0 0 .29.72 1 1 0 0 0 .76.28h3v8.86a1.15 1.15 0 0 0 .28.8 1.21 1.21 0 0 0 1.63 0 1.15 1.15 0 0 0 .28-.8v-8.87h3a1.07 1.07 0 0 0 .77-.28 1 1 0 0 0 .29-.72zm-12.06 9h-4.87V71.6h3.74a1.07 1.07 0 0 0 .78-.28 1 1 0 0 0 .29-.72.92.92 0 0 0-.29-.72 1.12 1.12 0 0 0-.77-.26h-3.74v-2.84h4.7a1.07 1.07 0 0 0 .76-.27.93.93 0 0 0 .29-.71 1 1 0 0 0-.29-.73 1.07 1.07 0 0 0-.76-.27h-5.78a1.06 1.06 0 0 0-.82.32 1.16 1.16 0 0 0-.29.81v9.68a1.14 1.14 0 0 0 .3.81 1.09 1.09 0 0 0 .83.32h5.93a1.07 1.07 0 0 0 .76-.27.93.93 0 0 0 .29-.71 1 1 0 0 0-.29-.73 1.07 1.07 0 0 0-.76-.27zm-9-9a.92.92 0 0 0-.29-.72 1.12 1.12 0 0 0-.77-.26h-8.1a1.09 1.09 0 0 0-.76.26.92.92 0 0 0-.29.72 1 1 0 0 0 .29.72 1 1 0 0 0 .76.28h3v8.86a1.14 1.14 0 0 0 .28.8 1.21 1.21 0 0 0 1.62 0 1.14 1.14 0 0 0 .28-.8v-8.87h3a1.07 1.07 0 0 0 .78-.28 1 1 0 0 0 .29-.72zm-13.17-1a1.29 1.29 0 0 0-1 .61l-5.4 7.47v-7a1.18 1.18 0 0 0-.28-.81 1.2 1.2 0 0 0-1.64 0 1.2 1.2 0 0 0-.27.81v9.7a1.15 1.15 0 0 0 .28.82 1 1 0 0 0 .77.3 1.33 1.33 0 0 0 1-.63l5.43-7.42v6.94a1.15 1.15 0 0 0 .28.79 1.05 1.05 0 0 0 .83.32 1 1 0 0 0 .8-.31 1.17 1.17 0 0 0 .27-.8v-9.7c0-.75-.35-1.13-1-1.13zM76.7 74.23a4.72 4.72 0 0 1-2.4.77 3 3 0 0 1-2.4-1.11 4.62 4.62 0 0 1-.9-3.13 4.82 4.82 0 0 1 .88-3c1-1.22 2.52-1.46 4.63-.65.71.27 1.18.16 1.39-.31a1 1 0 0 0-.43-1.34 5.57 5.57 0 0 0-3.2-.8 5.19 5.19 0 0 0-4.09 1.67 6.55 6.55 0 0 0-1.47 4.47A6.79 6.79 0 0 0 70 75.26a5.08 5.08 0 0 0 4.11 1.66 5.82 5.82 0 0 0 3.53-1 1.37 1.37 0 0 0 .55-.78.87.87 0 0 0-.14-.76c-.3-.44-.78-.49-1.39-.14zM61 66.75a11 11 0 0 1 1.42-.09c1.58 0 2.34.64 2.34 2s-.81 2.1-2.46 2.1a11.17 11.17 0 0 1-1.3-.06v-3.95zm6.05 1.82a3.44 3.44 0 0 0-1.23-2.92 5.45 5.45 0 0 0-3.35-.93 13.83 13.83 0 0 0-2.65.22 1.16 1.16 0 0 0-1 1.27v9.42a1.15 1.15 0 0 0 .28.8 1.2 1.2 0 0 0 1.62 0 1.12 1.12 0 0 0 .29-.8v-3.06a10.5 10.5 0 0 0 1.42.07 5.23 5.23 0 0 0 3.34-1 3.68 3.68 0 0 0 1.29-3zm-10.7 7.91a.93.93 0 0 0 .29-.71 1 1 0 0 0-.29-.73 1.07 1.07 0 0 0-.76-.27h-4.87V71.6h3.74a1.07 1.07 0 0 0 .78-.28 1 1 0 0 0 .29-.72.92.92 0 0 0-.29-.72 1.11 1.11 0 0 0-.77-.26h-3.75v-2.84h4.7a1.07 1.07 0 0 0 .76-.27.93.93 0 0 0 .29-.71 1 1 0 0 0-.29-.73 1.07 1.07 0 0 0-.76-.27h-5.78a1.06 1.06 0 0 0-.82.32 1.16 1.16 0 0 0-.29.81v9.68a1.13 1.13 0 0 0 .3.81 1.09 1.09 0 0 0 .83.32h5.94a1.07 1.07 0 0 0 .76-.27zm-13.27-1.9a3.41 3.41 0 0 1-1.87.42 16.71 16.71 0 0 1-1.91-.09v-3.43h1.9c1.68 0 2.5.57 2.5 1.74a1.52 1.52 0 0 1-.61 1.36zM41 69.8h-1.71v-3.15c.52-.05 1-.08 1.5-.08 1.56 0 2.32.5 2.32 1.52s-.7 1.71-2.15 1.71zm3 .55a2.61 2.61 0 0 0 1-1 2.84 2.84 0 0 0 .43-1.51c0-2.1-1.47-3.17-4.38-3.17a16.76 16.76 0 0 0-2.77.21 1.12 1.12 0 0 0-1 1.21v9.34a1.06 1.06 0 0 0 1 1.16 19.49 19.49 0 0 0 2.92.19c3.19 0 4.81-1.24 4.81-3.7a2.83 2.83 0 0 0-.58-1.78 3.08 3.08 0 0 0-1.43-1zm-18.56 6.4a1.33 1.33 0 0 0 1-.63l5.43-7.42v6.94a1.15 1.15 0 0 0 .28.79 1.05 1.05 0 0 0 .83.32 1 1 0 0 0 .81-.31 1.17 1.17 0 0 0 .27-.8v-9.7c0-.75-.35-1.13-1-1.13a1.3 1.3 0 0 0-1 .61l-5.4 7.47v-7a1.18 1.18 0 0 0-.28-.81 1.2 1.2 0 0 0-1.64 0 1.2 1.2 0 0 0-.27.81v9.7a1.15 1.15 0 0 0 .28.82 1 1 0 0 0 .77.3zm-12.74 0a1.05 1.05 0 0 0 .8-.31 1.12 1.12 0 0 0 .29-.8v-4h5.3v4a1.15 1.15 0 0 0 .28.8 1.2 1.2 0 0 0 1.62 0 1.12 1.12 0 0 0 .29-.8v-9.7a1.16 1.16 0 0 0-.29-.81 1.18 1.18 0 0 0-1.62 0 1.18 1.18 0 0 0-.28.81v3.73h-5.3v-3.73a1.15 1.15 0 0 0-.29-.81 1.18 1.18 0 0 0-1.62 0 1.18 1.18 0 0 0-.28.81v9.7a1.14 1.14 0 0 0 .28.8 1 1 0 0 0 .81.31zM9.48 66.43a1.4 1.4 0 0 0 .1-1.07.88.88 0 0 0-.52-.46c-.63-.23-1.12.07-1.46.88l-2.34 5.67L2 65.66a1.55 1.55 0 0 0-.68-.72 1 1 0 0 0-.84.06.88.88 0 0 0-.47.75 1.61 1.61 0 0 0 .25 1l4 6.89a3.46 3.46 0 0 1-.56 1 .87.87 0 0 1-.68.33 1.65 1.65 0 0 1-.34 0 2.24 2.24 0 0 1-.36-.12l-.3-.1a.84.84 0 0 0-1.2.49 1.06 1.06 0 0 0 .63 1.4 3.46 3.46 0 0 0 1.68.35A2.42 2.42 0 0 0 5 76.05a11.07 11.07 0 0 0 1.54-2.75l2.94-6.88zm126.72-60A1.37 1.37 0 1 1 134.82 5a1.37 1.37 0 0 1 1.37 1.37zm-10.1-5A1.37 1.37 0 1 1 124.72 0a1.37 1.37 0 0 1 1.37 1.37zm-30.3 5A1.37 1.37 0 1 1 94.43 5a1.37 1.37 0 0 1 1.37 1.42zm31.27 15.15a2.35 2.35 0 1 1-2.35-2.35 2.34 2.34 0 0 1 2.35 2.35zm-1 10.1a1.37 1.37 0 1 1-1.37-1.37 1.37 1.37 0 0 1 1.37 1.37zm-8-15.15a3.52 3.52 0 1 1-3.45-3.53 3.52 3.52 0 0 1 3.52 3.52zm10.1-5A3.52 3.52 0 1 1 124.72 8a3.52 3.52 0 0 1 3.52 3.52zM116 36.72a1.37 1.37 0 1 1-1.37-1.37 1.37 1.37 0 0 1 1.37 1.37zm20.2-20.2a1.37 1.37 0 1 1-1.37-1.37 1.37 1.37 0 0 1 1.37 1.37zM75.6 6.42A1.37 1.37 0 1 1 74.23 5a1.37 1.37 0 0 1 1.37 1.42zm-20.2 0A1.37 1.37 0 1 1 54 5a1.37 1.37 0 0 1 1.4 1.42zm30.23 35.35a1.37 1.37 0 1 1-1.37-1.37 1.37 1.37 0 0 1 1.37 1.37zM65.5 1.37A1.37 1.37 0 1 1 64.13 0a1.37 1.37 0 0 1 1.37 1.37zm0 30.22a1.37 1.37 0 1 1-1.37-1.37 1.37 1.37 0 0 1 1.37 1.38zm-20.2-10a1.37 1.37 0 1 1-1.37-1.37 1.37 1.37 0 0 1 1.37 1.37zm0 10.1a1.37 1.37 0 1 1-1.37-1.37 1.37 1.37 0 0 1 1.37 1.37zm22.34-10.1A3.52 3.52 0 1 1 64.13 18a3.52 3.52 0 0 1 3.52 3.52zm8.93 15.15a2.35 2.35 0 1 1-2.35-2.35 2.35 2.35 0 0 1 2.35 2.35zm10.1-25.25a2.35 2.35 0 1 1-2.35-2.35 2.35 2.35 0 0 1 2.35 2.35zM117 26.62a2.35 2.35 0 1 1-2.35-2.35 2.35 2.35 0 0 1 2.35 2.35zm0-20.2a2.35 2.35 0 1 1-2.35-2.35A2.35 2.35 0 0 1 117 6.42zm-8.93 5A3.52 3.52 0 1 1 104.53 8a3.52 3.52 0 0 1 3.47 3.47zM86.68 31.67a2.35 2.35 0 1 1-2.35-2.35 2.35 2.35 0 0 1 2.35 2.35zm11.27-15.15A3.52 3.52 0 1 1 94.43 13a3.52 3.52 0 0 1 3.52 3.52zm10.1 5a3.52 3.52 0 1 1-3.52-3.52 3.52 3.52 0 0 1 3.47 3.57zm-1.17 10.1a2.35 2.35 0 1 1-2.35-2.35 2.35 2.35 0 0 1 2.35 2.35zm-10.1 5a2.35 2.35 0 1 1-2.35-2.35 2.35 2.35 0 0 1 2.35 2.35zm1.17-10.1A3.52 3.52 0 1 1 94.43 23a3.52 3.52 0 0 1 3.52 3.52zm-20.2 0A3.52 3.52 0 1 1 74.23 23a3.52 3.52 0 0 1 3.52 3.52zm10.1-5A3.52 3.52 0 1 1 84.33 18a3.52 3.52 0 0 1 3.52 3.52zm-10.1-5A3.52 3.52 0 1 1 74.23 13a3.52 3.52 0 0 1 3.52 3.52zm-10.1-5A3.52 3.52 0 1 1 64.13 8a3.52 3.52 0 0 1 3.52 3.52z" fill="#2551a3"/><path d="M57.55 16.52A3.52 3.52 0 1 1 54 13a3.52 3.52 0 0 1 3.52 3.52z" fill="#ed1846"/></svg>