<svg xmlns="http://www.w3.org/2000/svg" viewBox="0 0 809 134"><g fill="none"><path fill="#172031" d="M181.73 1.77h12.18v34.85l32.97-34.85h14.94l-28.8 29.8 30.09 39.5h-14.75L204.7 39.89l-10.79 11.08v20.1h-12.18V1.77M255.49 1.77h12.17v58.21h36.44v11.09h-48.61V1.77M321.44 71.07h12.18V1.77h-12.18zM353.11 1.77h12.18v34.85l32.96-34.85h14.95l-28.81 29.8 30.1 39.5h-14.75l-23.66-31.18-10.79 11.08v20.1h-12.18V1.77M471.45 43.55l-11.97-27.72-11.88 27.72h23.85zM454.03 1.28h11.29l30.49 69.8h-12.87l-7.03-16.74h-32.77l-7.13 16.73h-12.47l30.49-69.8zM558.37 13.06H536.4V1.77h56.23v11.29h-21.98v58.01h-12.28V13.06M672.72 36.42c0-19.7 14.75-35.84 35.74-35.84 12.77 0 20.49 4.46 27.12 10.8l-7.82 9c-5.54-5.14-11.48-8.61-19.4-8.61-13.27 0-22.87 10.9-22.87 24.65 0 13.56 9.6 24.65 22.87 24.65 8.51 0 13.96-3.46 19.9-9l7.82 7.91c-7.23 7.53-15.15 12.28-28.12 12.28-20.2 0-35.24-15.74-35.24-35.84M750.83 1.77h12.18v28.81h33.06V1.77h12.18v69.3h-12.18v-29.2h-33.06v29.2h-12.18V1.77M607.48 41.57h46.92V30.68h-46.92zM607.48 71.07h51.87V60.18h-51.87zM607.48 12.66h51.38V1.77h-51.38z"/><path d="M515.92 41.54a5.12 5.12 0 11.02-10.25 5.12 5.12 0 01-.02 10.25M59.18 33.46h11.53V1.25H59.18zM100.54 74.82h32.21V63.29h-32.21zM86.05 39.81l22.77-22.77 8.15 8.14-22.78 22.78-8.14-8.15M0 124.47l46.85-46.86H.55V64.12h69.33v69.33H56.39v-46.3L9.55 134 0 124.47M86.05 98.3l8.14-8.15 22.78 22.77-8.15 8.16L86.05 98.3M12.93 25.18l8.15-8.14 22.78 22.77-8.16 8.15-22.77-22.78M180.74 119.53c0-7.29 5.36-13.75 13.34-13.75 4.48 0 7.26 1.3 9.92 3.53l-1.94 2.28a11.32 11.32 0 00-8.1-3.04c-5.88 0-10.1 4.98-10.1 10.98 0 6.35 4.07 11.06 10.52 11.06 3.04 0 5.86-1.18 7.68-2.66v-6.61h-8.1v-2.7h10.99v10.6a16.12 16.12 0 01-10.68 4.07c-8.36 0-13.53-6.08-13.53-13.76M219.5 106.24h3.01v23.82h14.97v2.77H219.5v-26.59M272.13 119.53c0-6.04-4.4-10.98-10.49-10.98-6.07 0-10.4 4.87-10.4 10.99 0 6.04 4.4 10.97 10.48 10.97s10.41-4.86 10.41-10.98zm-24.01 0c0-7.33 5.5-13.75 13.6-13.75s13.53 6.34 13.53 13.75c0 7.34-5.51 13.76-13.6 13.76-8.1 0-13.53-6.35-13.53-13.76zM301.28 130.13c4.03 0 6.53-1.78 6.53-4.82 0-2.89-2.43-4.56-7.06-4.56h-8.4v9.38h8.93zm-1.06-12.04c3.6 0 6.11-1.63 6.11-4.83 0-2.62-2.09-4.33-5.89-4.33h-8.09v9.16h7.86zm-10.83-11.85h11.32c3.04 0 5.47.83 6.95 2.35a5.96 5.96 0 011.71 4.33c0 3.46-2.13 5.25-4.22 6.16 3.16.95 5.7 2.77 5.7 6.5 0 4.56-3.83 7.25-9.65 7.25H289.4v-26.6zM341.86 123.1l-6.04-13.56-6.08 13.57h12.12zm-7.4-17.05h2.8l12.12 26.78h-3.23l-3.11-7.03h-14.48l-3.15 7.03h-3.08l12.12-26.78zM362.42 106.24h3v23.82h14.97v2.77h-17.97v-26.59M413.19 132.83h3v-26.59h-3zM454.6 119.53c0-6.04-4.4-10.98-10.48-10.98s-10.41 4.87-10.41 10.99c0 6.04 4.4 10.97 10.48 10.97s10.41-4.86 10.41-10.98zm-24 0c0-7.33 5.5-13.75 13.6-13.75 8.09 0 13.52 6.34 13.52 13.75 0 7.34-5.5 13.76-13.6 13.76s-13.53-6.35-13.53-13.76zM477.06 109.01h-8.92v-2.77h20.89v2.77h-8.92v23.82h-3.05v-23.82M519.9 128.96l1.85-2.2c2.78 2.5 5.44 3.75 9.12 3.75 3.57 0 5.93-1.9 5.93-4.6 0-2.46-1.33-3.87-6.92-5.05-6.11-1.33-8.92-3.3-8.92-7.75 0-4.18 3.68-7.25 8.74-7.25 3.87 0 6.64 1.1 9.34 3.26l-1.75 2.32a11.68 11.68 0 00-7.67-2.89c-3.46 0-5.66 1.9-5.66 4.37 0 2.51 1.37 3.92 7.22 5.17 5.92 1.3 8.66 3.46 8.66 7.6 0 4.56-3.8 7.52-9.08 7.52-4.22 0-7.68-1.4-10.87-4.25M576.58 119.53c0-6.04-4.4-10.98-10.48-10.98s-10.41 4.87-10.41 10.99c0 6.04 4.4 10.97 10.48 10.97s10.41-4.86 10.41-10.98zm-24 0c0-7.33 5.5-13.75 13.6-13.75s13.52 6.34 13.52 13.75c0 7.34-5.5 13.76-13.6 13.76s-13.53-6.35-13.53-13.76zM593.84 106.24h3v23.82h14.97v2.77h-17.97v-26.59M623.97 121.7v-15.46h3v15.27c0 5.74 3.04 8.97 8.14 8.97 4.9 0 8.01-2.97 8.01-8.78v-15.46h3v15.23c0 7.75-4.44 11.78-11.1 11.78-6.56 0-11.05-4.03-11.05-11.55M668.05 109.01h-8.93v-2.77h20.9v2.77h-8.93v23.82h-3.04v-23.82M693.7 132.83h3.01v-26.59h-3.01zM735.12 119.53c0-6.04-4.4-10.98-10.49-10.98-6.08 0-10.4 4.87-10.4 10.99 0 6.04 4.4 10.97 10.48 10.97s10.4-4.86 10.4-10.98zm-24.01 0c0-7.33 5.5-13.75 13.6-13.75s13.53 6.34 13.53 13.75c0 7.34-5.51 13.76-13.6 13.76s-13.53-6.35-13.53-13.76zM752.38 106.24h2.81l16.75 21.31v-21.31h2.93v26.59h-2.4l-17.17-21.81v21.81h-2.92v-26.59M788.44 128.96l1.86-2.2c2.77 2.5 5.43 3.75 9.12 3.75 3.57 0 5.92-1.9 5.92-4.6 0-2.46-1.32-3.87-6.91-5.05-6.12-1.33-8.93-3.3-8.93-7.75 0-4.18 3.69-7.25 8.74-7.25 3.87 0 6.65 1.1 9.35 3.26l-1.75 2.32a11.68 11.68 0 00-7.68-2.89c-3.45 0-5.66 1.9-5.66 4.37 0 2.51 1.37 3.92 7.22 5.17 5.93 1.3 8.66 3.46 8.66 7.6 0 4.56-3.8 7.52-9.08 7.52-4.21 0-7.67-1.4-10.86-4.25" fill="#2E83B9"/></g></svg>