<svg xmlns="http://www.w3.org/2000/svg" viewBox="0 0 135 40"><path fill="#222" d="M14.783 11.332h-3.905l-7.823 8.525h-.07v-8.525H0V29.95h2.984V21h.07l8.22 8.95h4.186l-9.312-9.643 8.635-8.975zm58.883 7.627h-9.49V11.33H61.19V29.95h2.986v-8.46h9.49v8.46h2.985V11.33h-2.985v7.627zm6.54-5.088h5.606V29.95h2.977V13.87h5.587v-2.54h-14.17v2.54zm25.706 11.82c-.178.633-.302 1.09-.366 1.38h-.106c-.19-.762-.316-1.23-.385-1.418l-5.03-14.322h-3.31l7.272 18.578-1.488 3.53c-.757 1.795-1.88 2.687-3.386 2.687-.525 0-1.12.04-1.76-.178v2.524c.514.156 1.17.232 1.938.232 2.77 0 4.917-1.926 6.443-5.78l8.56-21.595h-3.09l-5.293 14.362zm26.702-12.298c-1.353-1.668-3.23-2.5-5.622-2.5-2.826 0-4.974 1.23-6.44 3.704h-.073v-3.266h-2.985V38.51h2.984V27.256h.073c1.31 2.087 3.17 3.127 5.58 3.127 2.63 0 4.703-.937 6.216-2.808 1.52-1.876 2.272-4.365 2.272-7.49 0-2.793-.667-5.023-2.008-6.69zm-2.58 12.41c-1.02 1.376-2.438 2.075-4.24 2.075-1.546 0-2.813-.54-3.812-1.616-1.004-1.07-1.504-2.377-1.504-3.916v-2.603c0-1.82.53-3.33 1.58-4.533 1.06-1.208 2.452-1.812 4.183-1.812 1.637 0 2.937.585 3.893 1.763.957 1.176 1.44 2.8 1.44 4.87 0 2.462-.512 4.387-1.54 5.77z"/><path fill="#D91F26" d="M35.322 5.122c3.223 0 6.178 1.45 8.11 3.986l.825 1.078 1.352.082c4.92.322 8.778 4.433 8.778 9.37 0 5.175-4.21 9.386-9.39 9.386H26.87c-4.445 0-8.058-3.612-8.058-8.062 0-3.326 2.1-6.35 5.222-7.535l1.25-.478.483-1.253c1.508-3.935 5.347-6.575 9.557-6.575m0-2.986c-5.627 0-10.44 3.534-12.343 8.505-4.176 1.572-7.154 5.612-7.154 10.323 0 6.09 4.953 11.037 11.04 11.037H45c6.815 0 12.366-5.54 12.366-12.36 0-6.548-5.12-11.922-11.565-12.342-2.433-3.2-6.255-5.162-10.478-5.162z"/></svg>