<svg xmlns="http://www.w3.org/2000/svg" viewBox="0 0 134.62 36.57"><path d="M14.78 9.2h-3.9l-7.83 8.52H3V9.2H0v18.61h3v-8.95h.07l8.22 9h4.19l-9.33-9.69zm58.89 7.62h-9.49V9.2h-3v18.61h3v-8.45h9.49v8.45h3V9.2h-3v7.62zm6.54-5.08h5.6v16.07h3V11.74h5.59V9.2H80.21zm25.7 11.82q-.27.95-.36 1.38h-.11c-.19-.77-.32-1.24-.39-1.42L100 9.2h-3.3l7.3 18.57-1.5 3.53c-.76 1.8-1.88 2.69-3.39 2.69a5.07 5.07 0 0 1-1.76-.18v2.53a7.11 7.11 0 0 0 1.94.23q4.15 0 6.45-5.78l8.56-21.6h-3.1zm26.7-12.3a6.83 6.83 0 0 0-5.61-2.5 7.06 7.06 0 0 0-6.44 3.7h-.07V9.2h-3v27.17h3V25.12h.07a6.22 6.22 0 0 0 5.58 3.13 7.57 7.57 0 0 0 6.22-2.81 11.54 11.54 0 0 0 2.26-7.44 10.38 10.38 0 0 0-2.01-6.74zM130 23.67a5.35 5.35 0 0 1-8 .46 5.53 5.53 0 0 1-1.5-3.92v-2.6a6.63 6.63 0 0 1 1.58-4.53 5.29 5.29 0 0 1 4.18-1.82 4.73 4.73 0 0 1 3.87 1.74 7.48 7.48 0 0 1 1.44 4.87 9.51 9.51 0 0 1-1.57 5.8z"/><path d="M35.32 3a10.08 10.08 0 0 1 8.11 4l.83 1.08 1.35.08A9.39 9.39 0 0 1 45 26.89H26.87A8.06 8.06 0 0 1 24 11.29l1.25-.48.49-1.25A10.28 10.28 0 0 1 35.32 3m0-3A13.22 13.22 0 0 0 23 8.51a11 11 0 0 0 3.89 21.35H45a12.36 12.36 0 0 0 .8-24.7A13.09 13.09 0 0 0 35.32 0z" fill="#d91f26"/></svg>