<svg xmlns="http://www.w3.org/2000/svg" viewBox="0 0 249.93 155.34"><path d="M99.08 0h71.4v71.4A19.69 19.69 0 0 1 150.85 91h-37.06a34.21 34.21 0 0 1-5.31-.41l46.36-58.77-16.15-16.24h-14.91l15.52 15.87-48.58 50.61a34.74 34.74 0 0 1-2.51-2.53l47.57-48-17.69-18.16h39v39.1l-8.65-8.8-7.1 9.14 22.64 22.64V6.5H95.12l25.25 25.34-40.7 28.64a34.19 34.19 0 0 1-.21-3.78V19.63A19.69 19.69 0 0 1 99.08 0z" fill="#d71f27"/><path d="M34 109h-6.6v35.09H34v-15.9h1.73l10 15.95H54l-12.76-18.72L53.41 109h-7.76L35.4 123.5H34V109zm110.25 21.3c0-3.9-.88-7.5-2.84-10.13s-5.06-4.31-9.55-4.31a11.76 11.76 0 0 0-10.07 5.14 16.26 16.26 0 0 0-2.62 9.3 17.42 17.42 0 0 0 2.62 9.82c2 2.82 5.11 4.61 9.77 4.61a11.76 11.76 0 0 0 10.36-5.52 16.46 16.46 0 0 0 2.36-8.92zm-18.74 0a13.69 13.69 0 0 1 1.36-6.17 5.3 5.3 0 0 1 9.63-.06 13.62 13.62 0 0 1 1.39 6.23 14.08 14.08 0 0 1-1.17 5.8 5.41 5.41 0 0 1-5 3.49 5.21 5.21 0 0 1-4.66-2.81 13.34 13.34 0 0 1-1.53-6.47zm-62.83-15.81h6.79a43.72 43.72 0 0 1 8.41.83V109H56v35.09c2.13 0 4.26.09 6.37.17 1.91.07 3.82.14 5.71.14a13.28 13.28 0 0 0 8.07-2.38c2.53-1.9 4-4.89 4.1-8.88 0-3.59-1.22-6.1-3.3-7.73-2.24-1.76-5.41-2.52-8.88-2.53a48.14 48.14 0 0 0-5.45.36v-8.78zm0 24.28v-10.06a47.41 47.41 0 0 1 5.45-.24 6.51 6.51 0 0 1 4.41 1.32 4.35 4.35 0 0 1 1.22 3.36c0 2.08-.48 3.57-1.49 4.52a5.76 5.76 0 0 1-4.15 1.25c-1.77 0-3.32 0-5.44-.15zM23.88 110a19.54 19.54 0 0 0-7.76-1.59 15.2 15.2 0 0 0-10.34 3.72C2.11 115.44 0 120.65 0 127.05c0 6 1.67 10.58 4.52 13.56a13.9 13.9 0 0 0 10.6 4.09A19.82 19.82 0 0 0 24 143v-6a16 16 0 0 1-7.64 2.13 8.83 8.83 0 0 1-7-3.25 14.13 14.13 0 0 1-2.75-8.69c-.06-3.95.88-8 3.35-10.55a8.61 8.61 0 0 1 6.4-2.53 8.91 8.91 0 0 1 6.12 2.38l1.4-6.49zm214.84 11.41a4 4 0 0 1 3.66 2.35 11.68 11.68 0 0 1 1.14 5.25c0 2.65-.15 5.66-1.47 7.7a5.32 5.32 0 0 1-4.72 2.4 8.17 8.17 0 0 1-4.63-1v-13.44a7.09 7.09 0 0 1 6-3.21zm-12.48-4.9v38.18h6.46v-10.57a12.38 12.38 0 0 0 4.13.65c4.16 0 7.22-1.34 9.33-3.56 2.7-2.84 3.85-7.16 3.78-12.16 0-3.53-.67-6.94-2.35-9.4-1.56-2.29-4-3.76-7.79-3.76a10.09 10.09 0 0 0-8.16 3.79l-.64-3.13h-4.74zm-18.3 29.32a5 5 0 0 1-4.87 3.84 5.58 5.58 0 0 1-2.52-.63l-1.12 5.31a8.59 8.59 0 0 0 3.85.95 9.46 9.46 0 0 0 7.07-3.34 26.13 26.13 0 0 0 4.57-7.88c3.17-7.83 6.35-17.67 9.21-27.57h-6.8l-5.88 20.81-6.24-20.79H198l9.9 29.29zm-34.67-29.32v5.83a33.73 33.73 0 0 1 7.12-.7h1.35v22.43h6.21v-22.39h1.35a33.71 33.71 0 0 1 7.12.7v-5.83h-23.16zm-2.79 27.57v-27.53H164v10.62h-10.57v-10.62H147v27.57h6.46v-11.67H164v11.67h6.46zM101 109v14.46h1.36L112.67 109h7.76l-12.17 16.39L121 144.12h-8.2l-10-15.95H101v15.95h-6.59V109H101z"/></svg>