<svg xmlns="http://www.w3.org/2000/svg" viewBox="0 0 180.48 35.77"><path d="M7.72 0h28.05v28a7.74 7.74 0 0 1-7.71 7.72H13.49a14.24 14.24 0 0 1-2.08-.16l18.21-23.1-6.34-6.33h-5.86l6.1 6.23L4.43 32.25a13.33 13.33 0 0 1-1-1l18.7-18.87-7-7.13H30.5v15.37l-3.4-3.46-2.79 3.59 8.89 8.9V2.56h-27l9.92 10-16 11.26A12.29 12.29 0 0 1 0 22.28V7.71A7.74 7.74 0 0 1 7.72 0" fill="#d70c17"/><path d="M110.66 8.91h-4.18l-5.53 7.79h-.74V8.92h-3.58v18.92h3.58v-8.6h.94l5.38 8.6h4.42l-6.85-10.09zM87.25 17.76a7.72 7.72 0 0 0-4.79-1.36 28.63 28.63 0 0 0-2.93.19v-4.73h3.66a23.19 23.19 0 0 1 4.53.45V8.92H75.95v18.92c1.15 0 2.29 0 3.43.09s2.06.07 3.08.07a7.22 7.22 0 0 0 4.36-1.28A5.81 5.81 0 0 0 89 21.93a5 5 0 0 0-1.78-4.17m-2.56 6.6a3.08 3.08 0 0 1-2.23.68c-.95 0-1.79 0-2.93-.09v-5.42a24.3 24.3 0 0 1 2.93-.13 3.49 3.49 0 0 1 2.38.71 2.36 2.36 0 0 1 .66 1.81 3.16 3.16 0 0 1-.81 2.44M74.53 8.92h-4.18l-5.53 7.8h-.73v-7.8h-3.58v18.92h3.58v-8.6H65l5.39 8.6h4.41L68 17.75zM50.8 23.42a7.57 7.57 0 0 1-1.48-4.69 8 8 0 0 1 1.8-5.73 4.67 4.67 0 0 1 3.45-1.37 4.84 4.84 0 0 1 3.3 1.37l.74-3.5a10.57 10.57 0 0 0-4.18-.86 8.23 8.23 0 0 0-5.58 2c-2 1.76-3.11 4.57-3.11 8 0 3.25.9 5.71 2.43 7.31a7.51 7.51 0 0 0 5.72 2.21 10.8 10.8 0 0 0 4.8-.93V24a8.74 8.74 0 0 1-4.12 1.15 4.77 4.77 0 0 1-3.77-1.75M134.16 18.7h-5.71V13H125v14.84h3.48v-6.3h5.71v6.3h3.48V13h-3.48v5.7z"/><path d="M116.85 12.62a6.34 6.34 0 0 0-5.45 2.77 8.77 8.77 0 0 0-1.41 5 9.41 9.41 0 0 0 1.41 5.3 6 6 0 0 0 5.26 2.49 6.34 6.34 0 0 0 5.59-3 8.8 8.8 0 0 0 1.27-4.81 9.18 9.18 0 0 0-1.52-5.43 6 6 0 0 0-5.14-2.32m2.61 10.91a2.92 2.92 0 0 1-2.7 1.88 2.8 2.8 0 0 1-2.51-1.52 7.1 7.1 0 0 1-.83-3.49 7.39 7.39 0 0 1 .73-3.32 2.87 2.87 0 0 1 2.61-1.68 2.82 2.82 0 0 1 2.57 1.6 7.25 7.25 0 0 1 .75 3.35 7.58 7.58 0 0 1-.63 3.13M159.73 24.19L156.36 13h-3.86l5.34 15.79a2.67 2.67 0 0 1-2.63 2.07 3 3 0 0 1-1.35-.34l-.61 2.86a4.57 4.57 0 0 0 2.08.51 5.06 5.06 0 0 0 3.81-1.79 14 14 0 0 0 2.46-4.25c1.71-4.22 3.42-9.53 5-14.87h-3.7zM179.21 14.65a4.74 4.74 0 0 0-4.2-2 5.46 5.46 0 0 0-4.4 2l-.35-1.65h-2.56v20.56h3.49v-5.72a7 7 0 0 0 2.22.35 6.65 6.65 0 0 0 5-1.92c1.46-1.53 2.08-3.86 2-6.56a9.28 9.28 0 0 0-1.27-5.06m-3 9.22a2.87 2.87 0 0 1-2.55 1.29 4.3 4.3 0 0 1-2.49-.56v-7.25a3.83 3.83 0 0 1 3.24-1.74 2.2 2.2 0 0 1 2 1.27 6.37 6.37 0 0 1 .61 2.83 8 8 0 0 1-.79 4.16M139.15 16.12a18.12 18.12 0 0 1 3.84-.38h.72v12.1h3.35v-12.1h.73a18.16 18.16 0 0 1 3.84.37V13h-12.48v3.15z"/></svg>