<svg viewBox="0 0 139.83 69" xmlns="http://www.w3.org/2000/svg"><g fill="#222220"><path d="m47.08 28.66c2.46 1.9 2.27 5.7 1.7 8.74h-1.51c.85-3.61.57-6.46-1.05-7.6-3.32-2.47-10.82 2.37-17.65 11a4.86 4.86 0 0 0 -2.47.85 49.61 49.61 0 0 1 10.82-11c2.56-1.9 7-4.28 10.16-2zm-6.55 25.83a48.17 48.17 0 0 1 -11.2 11.58c-2.66 1.9-7.12 4.28-10.16 2s-2.17-7.31-1.33-10.35a19.3 19.3 0 0 1 1.16-3.23h1.5c-2.37 5.89-2.75 10.73-.47 12.44 3.51 2.56 11.67-2.93 18.69-12.44z" fill-rule="evenodd"/><path d="m0 52.88v-13.87h1.14 1.23v11.4h5.32v1.23 1.24z"/><path d="m12.53 53.16a3.67 3.67 0 0 1 -3-1.33 7.47 7.47 0 0 1 -1-4.27 6.46 6.46 0 0 1 1-3.8 3.21 3.21 0 0 1 2.75-1.42 3.43 3.43 0 0 1 2.85 1.32 7 7 0 0 1 .87 4.09v.76h-5.5a6.75 6.75 0 0 0 .47 1.8 1.54 1.54 0 0 0 1.42.76 1.15 1.15 0 0 0 .86-.38 1.46 1.46 0 0 0 .47-.76h2.28a5.06 5.06 0 0 1 -1.23 2.38 3.42 3.42 0 0 1 -2.28.85zm1.33-6.36a3.68 3.68 0 0 0 -.38-1.62 1.4 1.4 0 0 0 -1.24-.66 1.51 1.51 0 0 0 -1.33.76 5.58 5.58 0 0 0 -.28 1.52z"/><path d="m16.7 42.62h1.14 1.14l1.71 7.5 1.71-7.5h1.14 1.14l-2.85 10.26h-1.14-1.14z"/><path d="m29.33 53.16a3.66 3.66 0 0 1 -3-1.33 7.47 7.47 0 0 1 -1-4.27 6.46 6.46 0 0 1 1-3.8 3.2 3.2 0 0 1 2.67-1.42 3.43 3.43 0 0 1 2.85 1.32 7.07 7.07 0 0 1 1 4.09v.76h-5.52a4.49 4.49 0 0 0 .48 1.8 1.54 1.54 0 0 0 1.42.76 1.15 1.15 0 0 0 .86-.38 1.46 1.46 0 0 0 .47-.76h2.18a4.36 4.36 0 0 1 -1.13 2.38 3.42 3.42 0 0 1 -2.28.85zm1.33-6.36a3.68 3.68 0 0 0 -.38-1.62 1.4 1.4 0 0 0 -1.28-.66 1.51 1.51 0 0 0 -1.33.76 5.58 5.58 0 0 0 -.28 1.52h3.23z"/><path d="m34.26 52.88v-10.26h2v1.8l.28-.66a2.17 2.17 0 0 1 1.9-1.42h.47v2.75h-.57a2 2 0 0 0 -1.51.57 3.42 3.42 0 0 0 -.48 1.9v5.32z"/><path d="m39.39 52.88 3.51-7.03-3.32-6.84h1.33 1.32l2 4.47 1.9-4.47h1.33 1.32l-3.32 6.65 3.51 7.22h-1.32-1.43l-1.99-4.66-2.18 4.66h-1.33z"/><path d="m122.6 39.87c.22 0 .42-.27.45-.5l.27-2.3c0-.22-.13-.53-.35-.53h-1.66c-.22 0-.42.26-.45.49l-.27 2.3c0 .23.13.54.35.54z"/><path d="m87.12 45.5a2.63 2.63 0 0 1 -.23 1.09 2.13 2.13 0 0 1 -.78.87 5 5 0 0 1 -1.51.65 14.19 14.19 0 0 1 -2.38.42 2 2 0 0 0 .38 1.31 1.34 1.34 0 0 0 1.06.41 2.37 2.37 0 0 0 .57-.06 2.05 2.05 0 0 0 .42-.15 2.63 2.63 0 0 0 .33-.2l.27-.19a1.51 1.51 0 0 1 .28-.15.88.88 0 0 1 .33-.06.46.46 0 0 1 .23.06.87.87 0 0 1 .21.17l.4.49.24.29-.22.22a6.48 6.48 0 0 1 -.65.56 4.52 4.52 0 0 1 -.87.55 3.71 3.71 0 0 1 -.94.31 5.49 5.49 0 0 1 -1.1.1 3.33 3.33 0 0 1 -1.36-.26 3.14 3.14 0 0 1 -1.07-.75 3.28 3.28 0 0 1 -.73-1.18 4.51 4.51 0 0 1 -.25-1.51 6.1 6.1 0 0 1 .15-1.36 5.76 5.76 0 0 1 .43-1.25 5 5 0 0 1 .68-1.07 4.19 4.19 0 0 1 2-1.4 4.07 4.07 0 0 1 1.27-.19 3.16 3.16 0 0 1 1.19.2 2.76 2.76 0 0 1 .87.52 2.2 2.2 0 0 1 .54.73 2 2 0 0 1 .24.83zm-2.93-.5a1.41 1.41 0 0 0 -1.09.52 3.33 3.33 0 0 0 -.7 1.41 10.86 10.86 0 0 0 1.26-.26 3.31 3.31 0 0 0 .75-.3.88.88 0 0 0 .36-.36.9.9 0 0 0 .09-.4.63.63 0 0 0 -.16-.42.66.66 0 0 0 -.51-.19z"/><path d="m87.53 52 1-8.75h1.29a.83.83 0 0 1 .82.95v.51a4.73 4.73 0 0 1 1.12-1.09 2.31 2.31 0 0 1 1.24-.4 1.56 1.56 0 0 1 1.17.48 2.45 2.45 0 0 1 .6 1.39 4.36 4.36 0 0 1 1.23-1.42 2.59 2.59 0 0 1 1.49-.45 2.15 2.15 0 0 1 .85.17 1.89 1.89 0 0 1 .65.51 2.44 2.44 0 0 1 .42.82 3.87 3.87 0 0 1 .15 1.13v.33s0 .18 0 .3l-.68 5.52h-2.46l.63-5.48c0-.09 0-.16 0-.24s0-.14 0-.21a1 1 0 0 0 -.13-.59.48.48 0 0 0 -.39-.17 1 1 0 0 0 -.48.14 1.82 1.82 0 0 0 -.43.41 2.76 2.76 0 0 0 -.37.64 4.22 4.22 0 0 0 -.3.78l-.51 4.72h-2.44l.62-5.48v-.24c0-.07 0-.14 0-.21a1 1 0 0 0 -.13-.59.48.48 0 0 0 -.39-.17.85.85 0 0 0 -.48.15 1.53 1.53 0 0 0 -.44.41 3.08 3.08 0 0 0 -.37.65 4.27 4.27 0 0 0 -.3.81l-.51 4.67z"/><path d="m107.73 45.5a2.62 2.62 0 0 1 -.22 1.09 2.16 2.16 0 0 1 -.79.87 4.78 4.78 0 0 1 -1.5.65 14.39 14.39 0 0 1 -2.38.42 2 2 0 0 0 .37 1.31 1.34 1.34 0 0 0 1.06.41 2.37 2.37 0 0 0 .57-.06 2.06 2.06 0 0 0 .75-.35l.28-.19a1.51 1.51 0 0 1 .28-.15.81.81 0 0 1 .33-.06.49.49 0 0 1 .23.06 1.06 1.06 0 0 1 .2.17l.64.78a8.55 8.55 0 0 1 -.86.78 4.52 4.52 0 0 1 -.87.55 3.78 3.78 0 0 1 -.95.31 5.35 5.35 0 0 1 -1.1.1 3.4 3.4 0 0 1 -1.36-.26 3.1 3.1 0 0 1 -1.06-.75 3.46 3.46 0 0 1 -.7-1.16 4.51 4.51 0 0 1 -.24-1.51 6.1 6.1 0 0 1 .15-1.36 6.33 6.33 0 0 1 .44-1.25 5.89 5.89 0 0 1 .68-1.07 4.32 4.32 0 0 1 2-1.4 4.13 4.13 0 0 1 1.28-.19 3.11 3.11 0 0 1 1.18.2 2.81 2.81 0 0 1 .86.56 2.52 2.52 0 0 1 .54.73 2 2 0 0 1 .19.77zm-2.93-.5a1.4 1.4 0 0 0 -1.08.52 3.12 3.12 0 0 0 -.7 1.41 10.86 10.86 0 0 0 1.26-.26 3.51 3.51 0 0 0 .75-.3 1 1 0 0 0 .36-.36.9.9 0 0 0 .09-.4.69.69 0 0 0 -.16-.42.67.67 0 0 0 -.52-.19z"/><path d="m108.15 52 1-8.75h1.29a1.2 1.2 0 0 1 .69.26 1 1 0 0 1 .31.69v1c0-.59.58-1 1-1.37a1.71 1.71 0 0 1 1.13-.48 1.51 1.51 0 0 1 .64.16l-.29 2.43a2.84 2.84 0 0 0 -.95-.2 1.37 1.37 0 0 0 -1.1.58 4.44 4.44 0 0 0 -.78 1.83l-.49 3.85z"/><path d="m128.48 52 .63-5.48c0-.09 0-.15 0-.22v-.21a1 1 0 0 0 -.14-.61.58.58 0 0 0 -.45-.17 1.11 1.11 0 0 0 -.57.18 2.38 2.38 0 0 0 -.57.5 3.78 3.78 0 0 0 -.49.77 4.64 4.64 0 0 0 -.36 1l-.43 4.24h-2.49l1-8.75h1.28a.87.87 0 0 1 .57.26 1 1 0 0 1 .17.69v.7a4.35 4.35 0 0 1 1.37-1.28 3 3 0 0 1 1.5-.4 2.05 2.05 0 0 1 .87.18 1.88 1.88 0 0 1 .68.51 2.4 2.4 0 0 1 .44.84 3.6 3.6 0 0 1 .17 1.14v.31a2.64 2.64 0 0 1 0 .28l-.66 5.52z"/><path d="m139.83 45.5a2.63 2.63 0 0 1 -.23 1.09 2.13 2.13 0 0 1 -.78.87 4.78 4.78 0 0 1 -1.5.65 14.39 14.39 0 0 1 -2.38.42 2 2 0 0 0 .37 1.31 1.34 1.34 0 0 0 1.06.41 2.37 2.37 0 0 0 .57-.06 2.05 2.05 0 0 0 .42-.15 2.63 2.63 0 0 0 .33-.2l.28-.19.27-.15a.88.88 0 0 1 .33-.06.5.5 0 0 1 .24.06 1.06 1.06 0 0 1 .2.17l.64.78a8.55 8.55 0 0 1 -.86.78 4.52 4.52 0 0 1 -.87.55 3.92 3.92 0 0 1 -.95.31 5.42 5.42 0 0 1 -1.1.1 3.37 3.37 0 0 1 -1.36-.26 3.23 3.23 0 0 1 -1.07-.75 3.61 3.61 0 0 1 -.69-1.16 4.51 4.51 0 0 1 -.24-1.51 6.1 6.1 0 0 1 .15-1.36 6.33 6.33 0 0 1 .42-1.25 5.39 5.39 0 0 1 .68-1.07 4.32 4.32 0 0 1 2-1.4 4.13 4.13 0 0 1 1.28-.19 3.11 3.11 0 0 1 1.18.2 2.81 2.81 0 0 1 .88.52 2.31 2.31 0 0 1 .53.73 1.85 1.85 0 0 1 .2.81zm-2.93-.5a1.44 1.44 0 0 0 -1.09.52 3.33 3.33 0 0 0 -.7 1.41 11.09 11.09 0 0 0 1.27-.26 3.51 3.51 0 0 0 .75-.3.92.92 0 0 0 .35-.36.79.79 0 0 0 .1-.4.69.69 0 0 0 -.16-.42.67.67 0 0 0 -.52-.19z"/><path d="m120.34 41.13-1.81 15.42h2.46l1.81-15.42z"/><path d="m114.25 56.55 2.36-20h2.46l-2.36 20z"/><path d="m1.41 8.78h4.59v1.05h-5.88v-9.7h1.29z"/><path d="m17 5.35h-4.2v3.43h4.88v1.05h-6.13v-9.7h6.09v1h-4.81v3.17h4.17z"/><path d="m26.6 8.13 2.77-8h1.4l-3.6 9.7h-1.17l-3.55-9.7h1.39z"/><path d="m41.64 5.35h-4.2v3.43h4.88v1.05h-6.16v-9.7h6.09v1h-4.81v3.17h4.2z"/><path d="m51.55 5.91h-2.27v3.92h-1.28v-9.7h3.2a3.79 3.79 0 0 1 2.52.75 2.68 2.68 0 0 1 .88 2.17 2.6 2.6 0 0 1 -.49 1.58 2.86 2.86 0 0 1 -1.36 1l2.25 4.12v.08h-1.34zm-2.27-1h2a2.22 2.22 0 0 0 1.52-.49 1.69 1.69 0 0 0 .56-1.32 1.75 1.75 0 0 0 -.54-1.38 2.23 2.23 0 0 0 -1.55-.49h-1.99z"/><path d="m63.65 3.85 2.35-3.72h1.51l-3.1 4.81 3.14 4.89h-1.55l-2.35-3.78-2.4 3.78h-1.51l3.14-4.89-3.07-4.81h1.5z"/><path d="m87.75 8.56a3 3 0 0 1 -1.37 1 5.66 5.66 0 0 1 -2.06.35 4 4 0 0 1 -2.1-.55 3.66 3.66 0 0 1 -1.42-1.54 5.37 5.37 0 0 1 -.52-2.37v-.85a5.08 5.08 0 0 1 1-3.39 3.54 3.54 0 0 1 2.89-1.21 3.67 3.67 0 0 1 2.45.78 3.36 3.36 0 0 1 1.13 2.22h-1.28a2.11 2.11 0 0 0 -2.29-1.93 2.29 2.29 0 0 0 -2 .9 4.44 4.44 0 0 0 -.67 2.61v.8a4.09 4.09 0 0 0 .8 2.62 2.43 2.43 0 0 0 2 1 4.71 4.71 0 0 0 1.26-.16 2 2 0 0 0 .89-.54v-2.25h-2.22v-1.05h3.51z"/><path d="m97.53 5.91h-2.28v3.92h-1.25v-9.7h3.2a3.8 3.8 0 0 1 2.5.75 2.71 2.71 0 0 1 .88 2.17 2.67 2.67 0 0 1 -.49 1.58 2.91 2.91 0 0 1 -1.36 1l2.27 4.12v.08h-1.37zm-2.28-1h2a2.22 2.22 0 0 0 1.52-.49 1.69 1.69 0 0 0 .56-1.32 1.78 1.78 0 0 0 -.53-1.38 2.27 2.27 0 0 0 -1.55-.49h-2z"/><path d="m113.92 5.29a6 6 0 0 1 -.48 2.49 3.64 3.64 0 0 1 -1.36 1.62 3.77 3.77 0 0 1 -2 .56 3.73 3.73 0 0 1 -2-.56 3.77 3.77 0 0 1 -1.38-1.61 5.85 5.85 0 0 1 -.5-2.41v-.7a5.86 5.86 0 0 1 .49-2.47 3.59 3.59 0 0 1 3.31-2.21 3.81 3.81 0 0 1 2.06.56 3.68 3.68 0 0 1 1.37 1.63 6.08 6.08 0 0 1 .48 2.49zm-1.27-.62a4.38 4.38 0 0 0 -.65-2.67 2.3 2.3 0 0 0 -2-.9 2.26 2.26 0 0 0 -1.9.92 4.21 4.21 0 0 0 -.72 2.56v.71a4.42 4.42 0 0 0 .7 2.63 2.46 2.46 0 0 0 3.92.08 4.38 4.38 0 0 0 .7-2.58z"/><path d="m126.75.13v6.59a3.08 3.08 0 0 1 -.86 2.28 3.49 3.49 0 0 1 -2.32 1h-.34a3.65 3.65 0 0 1 -2.54-.86 3.07 3.07 0 0 1 -1-2.36v-6.65h1.31v6.57a2.2 2.2 0 0 0 .58 1.63 2.2 2.2 0 0 0 1.65.59 2.26 2.26 0 0 0 1.66-.58 2.24 2.24 0 0 0 .57-1.64v-6.57z"/><path d="m134.14 6v3.8h-1.28v-9.67h3.57a3.55 3.55 0 0 1 2.5.82 2.74 2.74 0 0 1 .9 2.15 2.71 2.71 0 0 1 -.83 2.17 3.75 3.75 0 0 1 -2.53.76zm0-1h2.29a2.28 2.28 0 0 0 1.57-.5 1.76 1.76 0 0 0 .54-1.39 1.85 1.85 0 0 0 -.54-1.39 2.15 2.15 0 0 0 -1.5-.54h-2.37z"/></g></svg>