<svg xmlns="http://www.w3.org/2000/svg" viewBox="0 0 228.17 164.48"><path d="M10.22 130.36H9a10.21 10.21 0 0 1-3.79-.66 8.17 8.17 0 0 1-2.81-1.82 7.55 7.55 0 0 1-1.8-2.74 9.67 9.67 0 0 1-.6-3.46 9.56 9.56 0 0 1 .62-3.45 7.79 7.79 0 0 1 1.77-2.76 8.4 8.4 0 0 1 2.81-1.81A10 10 0 0 1 9 113h1.23v-2.72h1.85V113h1.22a10 10 0 0 1 3.79.67 8.34 8.34 0 0 1 2.82 1.81 7.79 7.79 0 0 1 1.77 2.76 9.56 9.56 0 0 1 .61 3.45 9.46 9.46 0 0 1-.61 3.46 7.71 7.71 0 0 1-1.77 2.74 8.22 8.22 0 0 1-2.82 1.82 10.21 10.21 0 0 1-3.79.66h-1.23v2.73h-1.85zm0-1.54v-14.31H9a7.88 7.88 0 0 0-2.92.51 6.69 6.69 0 0 0-2.21 1.38 6.14 6.14 0 0 0-1.4 2 5.83 5.83 0 0 0-.47 2.34v1.88a5.73 5.73 0 0 0 .46 2.38 6.29 6.29 0 0 0 1.39 2A6.55 6.55 0 0 0 6 128.31a7.88 7.88 0 0 0 2.92.51zm3.05 0a7.94 7.94 0 0 0 2.91-.51 6.9 6.9 0 0 0 2.22-1.38 6.32 6.32 0 0 0 1.4-2 5.73 5.73 0 0 0 .49-2.33v-1.88a5.83 5.83 0 0 0-.49-2.35 6.14 6.14 0 0 0-1.4-2 6.74 6.74 0 0 0-2.19-1.37 7.94 7.94 0 0 0-2.91-.51H12v14.31zm15.27 3.39v-21.12H37a5.55 5.55 0 0 1 4.28 1.59 6 6 0 0 1 1.46 4.32 6.11 6.11 0 0 1-1.48 4.34 5.55 5.55 0 0 1-4.26 1.58h-6.61v9.29zm1.85-10.89H37a3.72 3.72 0 0 0 2.82-1 3.57 3.57 0 0 0 1-2.59v-1.45a3.55 3.55 0 0 0-1-2.56 3.75 3.75 0 0 0-2.82-1h-6.61zm25.9 11.26a8 8 0 0 1-6.47-2.77q-2.34-2.78-2.34-8.16t2.34-8.16a8 8 0 0 1 6.47-2.77 7.94 7.94 0 0 1 6.43 2.79c1.56 1.85 2.34 4.57 2.34 8.14s-.78 6.28-2.34 8.14a7.94 7.94 0 0 1-6.43 2.79zm0-1.61a7.19 7.19 0 0 0 2.79-.53 6 6 0 0 0 2.14-1.56 7.45 7.45 0 0 0 1.38-2.52 10.73 10.73 0 0 0 .49-3.38v-2.67a10.67 10.67 0 0 0-.49-3.37 7.26 7.26 0 0 0-1.38-2.5 6.16 6.16 0 0 0-2.14-1.57 7.5 7.5 0 0 0-5.59 0 6.05 6.05 0 0 0-2.16 1.57 7.12 7.12 0 0 0-1.39 2.5 11 11 0 0 0-.49 3.37V123a11 11 0 0 0 .49 3.38 7.3 7.3 0 0 0 1.39 2.52 5.91 5.91 0 0 0 2.16 1.56 7.2 7.2 0 0 0 2.8.54zm28.94-8.69H73.44v9.93h-1.85v-21.12h1.85v9.59h11.79v-9.59h1.85v21.12h-1.85zm16.11-9.59v19.52h-1.85v-19.52h-7.21v-1.6h16.26v1.6zm12.41 19.52v-21.12h12.56v1.6h-10.72v8h10.2v1.6h-10.2v8.33h10.72v1.6zm32.85-9.93h-11.79v9.93H133v-21.12h1.85v9.59h11.75v-9.59h1.85v21.12h-1.85zm6.75 8.33h2.21a14.74 14.74 0 0 0 2.17-5.28 37.24 37.24 0 0 0 .76-8.25v-6h12.1v19.52h2.89v6.14h-1.72v-4.54h-16.69v4.54h-1.72zm15.39 0v-17.92h-8.46v4.48a40.75 40.75 0 0 1-.7 8.25 15.84 15.84 0 0 1-1.83 5.07v.12zm-152.3 33.51l-2.34-6.57H5l-2.34 6.57H.77L8.37 143h2.37l7.64 21.13zm-6.87-19.4h-.12L5.42 156h8.19zm14.66 17.79h3l1.23-3L20.38 143h2l5.45 11.14 1.42 3.12h.12l1.2-3.18 4.5-11.08H37l-7.85 19.25a3.06 3.06 0 0 1-1.08 1.5 3.55 3.55 0 0 1-1.82.38h-2zm24.94-17.91v19.52h-1.84V144.6h-7.21V143h16.26v1.61zm19.12 19.88a7.47 7.47 0 0 1-6.19-2.74q-2.18-2.73-2.18-8.12c0-3.58.73-6.3 2.18-8.18a7.41 7.41 0 0 1 6.19-2.81 7.58 7.58 0 0 1 4.36 1.2 8 8 0 0 1 2.76 3.28l-1.51.89a6.1 6.1 0 0 0-2.14-2.74 5.83 5.83 0 0 0-3.47-1 5.68 5.68 0 0 0-4.71 2.13 9.54 9.54 0 0 0-1.69 6.07v2.4a9.21 9.21 0 0 0 1.69 6 5.75 5.75 0 0 0 4.71 2.07 5.88 5.88 0 0 0 3.61-1.08 6.38 6.38 0 0 0 2.15-2.89l1.51.88a7.5 7.5 0 0 1-7.27 4.69zm20.54 0a8 8 0 0 1-6.46-2.77c-1.57-1.84-2.34-4.56-2.34-8.15s.77-6.31 2.34-8.16a8.88 8.88 0 0 1 12.9 0c1.56 1.86 2.34 4.57 2.34 8.15s-.78 6.28-2.34 8.14a8 8 0 0 1-6.44 2.79zm0-1.6a7.12 7.12 0 0 0 2.79-.53 5.91 5.91 0 0 0 2.14-1.57 7.13 7.13 0 0 0 1.38-2.52 10.61 10.61 0 0 0 .5-3.37v-2.67a10.61 10.61 0 0 0-.5-3.37 6.86 6.86 0 0 0-1.38-2.5 6.16 6.16 0 0 0-2.14-1.57 6.94 6.94 0 0 0-2.79-.55 7.06 7.06 0 0 0-2.8.55 6.14 6.14 0 0 0-2.16 1.57 7.17 7.17 0 0 0-1.38 2.5 10.62 10.62 0 0 0-.49 3.37v2.67a10.62 10.62 0 0 0 .49 3.37 7.45 7.45 0 0 0 1.38 2.52 5.9 5.9 0 0 0 2.13 1.57 7.24 7.24 0 0 0 2.83.53zm15.31 1.24V143h8.43a5.55 5.55 0 0 1 4.28 1.59 7.07 7.07 0 0 1 0 8.66 5.55 5.55 0 0 1-4.28 1.59H106v9.29zm1.84-10.9h6.59a3.7 3.7 0 0 0 2.82-1 3.59 3.59 0 0 0 1-2.59v-1.45a3.55 3.55 0 0 0-1-2.56 3.7 3.7 0 0 0-2.82-1H106zm25.47 11.26a7.46 7.46 0 0 1-6.19-2.74c-1.46-1.82-2.18-4.53-2.18-8.12s.72-6.3 2.18-8.18a7.4 7.4 0 0 1 6.19-2.81 7.61 7.61 0 0 1 4.36 1.2 7.86 7.86 0 0 1 2.75 3.28l-1.51.88a6 6 0 0 0-2.14-2.74 5.8 5.8 0 0 0-3.46-1 5.68 5.68 0 0 0-4.71 2.13 9.54 9.54 0 0 0-1.7 6.07v2.4a9.21 9.21 0 0 0 1.7 6 5.75 5.75 0 0 0 4.71 2.07 5.83 5.83 0 0 0 3.6-1.08 6.33 6.33 0 0 0 2.16-2.89l1.51.88a7.94 7.94 0 0 1-2.8 3.44 7.85 7.85 0 0 1-4.47 1.21zm1.07-109.82V43.47h-31.55v48.6h11.19V54.66h20.36zm31.12 37.44h11.7l-16.79-48.55h-10.78L131 92.1h11.2l2.85-9.19h15.76zm-15.76-18.32L153 57.4l5 16.38zM22.66 43.55l-5.4.01L.51 92.1h11.18l10.76-34.7 10.68 34.7h11.7L28.04 43.55h-5.38zm56.12-.05L64.22 68.25 62 72.92l.48-4.22-.03-25.19-11.11.01v48.55h.05v.03h10.15l14.55-25.2 2.02-4.35-.36 3.9.03 25.65h11.11l-.05-48.61-10.06.01zM198 30.4c0 2.1 2 3.46 4.52 3.49a9.84 9.84 0 0 0 6.57-2.23v-4.38a23.67 23.67 0 0 0-5-.68c-3.09-.03-6.09.94-6.09 3.8z"/><path d="M182.81 0v43.47l22.68 14.8 22.68-14.8V0zM220 37.87a13.34 13.34 0 0 1-4.26.71c-2.7 0-4.73-1-5.82-2.92a15.08 15.08 0 0 1-9.57 3.05c-5 0-9.25-2.84-9.2-7.88.06-6.48 6.42-8.44 11.72-8.4a29.43 29.43 0 0 1 6.28.75v-.91c0-2.55-2-4.32-6.19-4.35a26.17 26.17 0 0 0-9.4 1.83l.06-6.37a35.69 35.69 0 0 1 10.28-1.62c7.94.07 13 3.25 12.91 11.64l-.07 8.13c0 1.32.86 1.7 1.86 1.71A4.36 4.36 0 0 0 220 33z"/></svg>