<svg xmlns="http://www.w3.org/2000/svg" viewBox="0 0 819 150"><path d="M676.18 5.86H560.73v40.86h35.37v97.42h44.72V46.72h35.36M44.72 103.28V5.86H0v138.28h80.08v-40.86m41.56-27.25l.02-1.03-.02-1.03v2.06zm65.21-73.89c-45 0-64.89 26.49-65.19 72.86.3 46.37 20.2 72.86 65.19 72.86 44.99 0 64.88-26.49 65.18-72.86-.3-46.38-20.2-72.87-65.18-72.87zm0 106.98c-15.86 0-20.95-11.45-20.95-34.12s5.1-34.12 20.95-34.12S207.79 52.33 207.79 75s-5.09 34.12-20.94 34.12zM252.03 75c0 .35.03.68.03 1.03v-2.06c0 .35-.03.68-.03 1.03zM366.28 5.86L347 50.26l-19.28-44.4h-43.67L346.99 150 409.95 5.86m132.8 138.28L479.78 0l-21.84 49.99 15.4 35.24h-30.8l-17.96 41.12h66.75l7.73 17.79m319.93 0L756.05 0 734.2 49.99l15.4 35.24h-30.8l-17.96 41.12h66.76l7.73 17.79"/></svg>