<svg xmlns="http://www.w3.org/2000/svg" viewBox="0 0 819 150"><path d="M676.176 5.86H560.734v40.863h35.364v97.416h44.718V46.722h35.36M44.718 103.277V5.86H0v138.28h80.078v-40.863M121.635 76.026c0-.352.02-.675.028-1.026-.007-.35-.028-.675-.028-1.03v2.056z"/><path d="M186.847 2.136c-44.993 0-64.887 26.49-65.185 72.863.297 46.374 20.192 72.862 65.185 72.862 44.99 0 64.885-26.488 65.182-72.863-.298-46.373-20.193-72.864-65.183-72.864zm0 106.986c-15.855 0-20.947-11.456-20.947-34.122s5.092-34.122 20.947-34.122c15.853 0 20.94 11.456 20.94 34.122s-5.087 34.122-20.94 34.122zM252.03 75c.002.35.03.675.03 1.026V73.97c0 .355-.028.68-.03 1.03zM366.283 5.86l-19.29 44.396L327.707 5.86H284.04L346.995 150 409.947 5.86M542.742 144.14L479.785 0l-21.832 49.99 15.393 35.24h-30.8l-17.956 41.115h66.754l7.73 17.794M819 144.14L756.046 0l-21.832 49.99 15.397 35.24h-30.8l-17.96 41.115h66.756l7.728 17.794"/></svg>