<svg xmlns="http://www.w3.org/2000/svg" viewBox="0 0 351.33 108.52"><path fill="#FFA930" d="M36.73 15.16c5.81 0 11.28 2.57 15.3 6.6 0-1.93 1.3-3.38 3.1-3.38h.46c2.82 0 3.4 2.67 3.4 3.52l.02 30.04c-.2 1.97 2.03 2.98 3.26 1.72 4.83-4.96 10.6-25.49-3-37.38-12.67-11.1-29.67-9.26-38.7-3.03-9.62 6.63-15.77 21.3-9.8 35.07C17.3 63.35 35.93 67.84 47 63.38c5.6-2.27 8.2 5.31 2.37 7.8-8.8 3.74-33.3 3.37-44.73-16.46C-3.1 41.33-2.68 17.78 17.82 5.58c15.68-9.34 36.36-6.75 48.83 6.27 13.04 13.61 12.28 39.1-.44 49.02-5.76 4.5-14.31.12-14.26-6.44l-.06-2.15a21.4 21.4 0 0 1-15.16 6.3c-11.5 0-21.6-10.1-21.6-21.6 0-11.6 10.1-21.82 21.6-21.82zm14.46 21c-.44-8.42-6.68-13.48-14.22-13.48h-.29c-8.7 0-13.53 6.85-13.53 14.62 0 8.7 5.84 14.2 13.5 14.2 8.54 0 14.15-6.25 14.56-13.64l-.02-1.7zM261.4 58.94c-.03 1.86-1.97 3.76-4.8 3.76-2.84 0-4.61-2.08-4.61-3.92v-3.17c.03-1.92 1.8-3.9 4.69-3.9 3.16 0 4.73 2.13 4.73 4.13l-.01 3.1zm30.81-44.95c-13.13.05-24.34 11.63-24.27 24.37v19.86a4.45 4.45 0 0 0 4.35 4.48c2.65 0 4.71-1.96 4.71-4.34V38.2c0-7.23 6.3-15.2 15.16-15.15a4.58 4.58 0 0 0 4.76-4.6 4.46 4.46 0 0 0-4.7-4.46zm54.56 0a4.53 4.53 0 0 0-4.6 4.4v19.98c0 7.71-6.49 15.25-15.52 15.25-7.39 0-15.21-6.41-15.21-15.1V18.48a4.5 4.5 0 0 0-4.7-4.5 4.52 4.52 0 0 0-4.47 4.41v19.96c0 12.92 11.55 24.3 24.35 24.3 13.98 0 24.7-11.99 24.7-24.24V18.4a4.48 4.48 0 0 0-4.55-4.41z"/><path d="M284 79.7c-5.58.02-10.35 4.94-10.32 10.35v8.45c0 1.1.9 1.9 1.85 1.9 1.13 0 2-.83 2-1.84v-8.58c0-3.07 2.69-6.45 6.44-6.43 1.23 0 2.03-.93 2.03-1.96 0-.82-.6-1.9-2-1.9zm43.1 0c-1.2 0-1.96.97-1.96 1.86v8.5a6.61 6.61 0 0 1-6.6 6.48c-3.14 0-6.47-2.73-6.47-6.42V81.6c0-.9-.66-1.92-2-1.92-.93 0-1.9.79-1.9 1.88v8.48c0 5.5 4.92 10.33 10.36 10.33 5.94 0 10.5-5.1 10.5-10.3v-8.52a1.9 1.9 0 0 0-1.94-1.87zm13.92 0c-2.48 0-4.78.94-6.55 2.46v-.69c0-.88-.8-1.77-1.93-1.77-1.18 0-2.05 1.09-2.03 1.87v25a1.92 1.92 0 0 0 1.97 1.95 2 2 0 0 0 2.03-2.03v-8.47a10.43 10.43 0 0 0 6.51 2.37c5.7 0 10.31-5.05 10.31-10.33 0-5.76-4.83-10.36-10.3-10.36zm-.05 16.85a6.51 6.51 0 0 1-6.45-5.62v-1.8a6.5 6.5 0 1 1 6.45 7.42zM270.09 79.7c-1.12 0-1.92.9-1.92 1.78v.69a10.16 10.16 0 0 0-6.56-2.46c-5.47 0-10.31 4.6-10.31 10.36 0 5.28 4.61 10.33 10.31 10.33 2.3 0 4.78-.89 6.54-2.4 0 0 .04.8.07.94-.3 2.4-2.04 4.58-5 5.53-2 .63-7.75-.72-8.22-.81-1.35-.24-2.03.93-2.02 1.95 0 .82.66 1.48 2 1.9 1.7.55 4.68.88 7.3.91 1.95.03 9.58-1.51 9.85-9.87V81.57c.02-.78-.85-1.87-2.03-1.88zm-8.42 16.86a6.52 6.52 0 1 1-.01-13.04 6.52 6.52 0 0 1 0 13.04zM213.87 6.8c0 1.96-1.96 3.56-4.79 3.56-2.84 0-4.61-1.94-4.61-3.78V4.06c.03-1.92 1.7-4.06 4.59-4.06 3.16 0 4.8 2.05 4.8 4.06V6.8zm-85.03 7.22c-5.77-.08-10.2 3.27-12.92 5.5-3.03-3.24-6.91-5.22-10.9-5.47a15.79 15.79 0 0 0-10.64 3.19C93.5 15.2 92.34 14 90.36 14c-2.17 0-4.48 1.85-4.48 4.88l.03 39.25a4.66 4.66 0 0 0 4.67 4.54c3.03 0 4.7-2.32 4.7-4.56v-29.1c0-2.84 4.85-6.19 8.94-6.13 2.62.03 5.73 2.61 5.73 6.68l.02 28.63c0 2.53 2.55 4.47 4.86 4.47 2.75 0 4.83-2.07 4.83-4.44V29.29c0-3.55 5.39-6.52 9.07-6.33 2.9.15 5.45 3.3 5.45 6.32v28.9c0 2.5 2.35 4.48 4.88 4.48 2.23 0 4.8-1.47 4.8-4.52V29.37c.03-10.56-10.4-15.49-15.02-15.35zm80.28-.03a4.65 4.65 0 0 0-4.64 4.67l.01 39.43a4.51 4.51 0 0 0 4.61 4.57 4.7 4.7 0 0 0 4.8-4.77l.01-39.16c0-2.32-2.34-4.75-4.79-4.74zm-16.37.01c-2.65 0-4.52 2.12-4.52 4.18v1.61a23.88 23.88 0 0 0-15.43-5.77c-12.86-.02-24.25 10.81-24.25 24.37 0 12.42 10.85 24.29 24.25 24.29 5.42 0 11.25-2.09 15.39-5.62v1.15a4.5 4.5 0 0 0 4.63 4.47c3.26 0 4.72-2.6 4.72-4.66V18.44c.03-1.86-2-4.43-4.79-4.43zm-19.82 39.67a15.34 15.34 0 1 1-.01-30.68 15.34 15.34 0 0 1 0 30.68zm68.48-.41a11.2 11.2 0 0 1-11.3-11.37l.02-37.49c-.01-2.59-2.12-4.4-4.7-4.4-3.01.01-4.74 2.22-4.74 4.4v37.52a20.79 20.79 0 0 0 20.56 20.78c3.25 0 4.82-2.64 4.82-4.88a4.6 4.6 0 0 0-4.66-4.56zm65.29 36.76c0-5.28-4.61-10.32-10.3-10.32h-.2A10.44 10.44 0 0 0 286 90.07c0 5.28 4.6 10.33 10.3 10.33l.2-.02a10.45 10.45 0 0 0 10.2-10.35zm-10.34 6.53a6.52 6.52 0 0 1-6.52-6.44v-.16a6.51 6.51 0 0 1 13.02.02v.16a6.52 6.52 0 0 1-6.5 6.42z" fill="#168DE2"/></svg>