<svg xmlns="http://www.w3.org/2000/svg" viewBox="0 0 351.331 108.519"><path fill="#FFA930" d="M36.727 15.157c5.816 0 11.283 2.57 15.298 6.594v.017c0-1.933 1.3-3.39 3.106-3.39l.457-.002c2.824 0 3.403 2.673 3.403 3.52l.015 30.043c-.2 1.966 2.03 2.98 3.266 1.72 4.825-4.957 10.596-25.485-2.998-37.38-12.67-11.09-29.67-9.262-38.71-3.03-9.61 6.63-15.76 21.298-9.787 35.076 6.512 15.03 25.146 19.512 36.222 15.043 5.608-2.265 8.2 5.317 2.374 7.794-8.8 3.752-33.295 3.374-44.738-16.448-7.73-13.386-7.32-36.937 13.185-49.138C33.503-3.76 54.183-1.174 66.652 11.85c13.035 13.613 12.275 39.107-.44 49.024-5.76 4.5-14.315.118-14.26-6.444l-.06-2.146c-4.012 3.98-9.35 6.303-15.165 6.303-11.49 0-21.6-10.11-21.6-21.598 0-11.607 10.11-21.833 21.6-21.833zm14.46 21c-.432-8.414-6.677-13.474-14.218-13.474h-.285c-8.703 0-13.53 6.845-13.53 14.618 0 8.707 5.84 14.205 13.496 14.205 8.538 0 14.152-6.253 14.558-13.65l-.02-1.698zM261.407 58.936c-.023 1.86-1.97 3.767-4.79 3.767-2.848 0-4.62-2.083-4.62-3.922l.002-3.174c.032-1.914 1.802-3.902 4.69-3.902 3.158 0 4.727 2.132 4.727 4.136l-.01 3.096zM292.222 13.988c-13.134.055-24.337 11.632-24.274 24.373v19.86c0 2.587 2.117 4.482 4.35 4.482 2.652 0 4.714-1.962 4.714-4.345V38.195c-.008-7.22 6.302-15.19 15.153-15.146 2.883.012 4.775-2.175 4.762-4.593-.01-1.935-1.4-4.484-4.705-4.47zM346.777 13.988c-2.792 0-4.59 2.286-4.59 4.396V38.37c0 7.715-6.495 15.247-15.53 15.247-7.384 0-15.207-6.408-15.207-15.104V18.495c0-2.102-1.574-4.507-4.702-4.507-2.21 0-4.465 1.852-4.465 4.416v19.954c0 12.918 11.547 24.297 24.347 24.297 13.976 0 24.7-11.983 24.7-24.237V18.396c-.002-2.244-1.853-4.408-4.553-4.408z"/><g fill="#168DE2"><path d="M284 79.695c-5.582.022-10.345 4.942-10.32 10.36V98.5c0 1.1.905 1.902 1.853 1.902 1.124 0 2.003-.83 2.003-1.846V89.98c-.006-3.066 2.682-6.45 6.438-6.433 1.23.005 2.027-.928 2.023-1.956-.004-.817-.59-1.9-1.997-1.895z"/><path d="M327.094 79.695c-1.186 0-1.95.974-1.95 1.87v8.49c0 3.284-2.764 6.483-6.605 6.483-3.142 0-6.467-2.724-6.467-6.42v-8.51c0-.892-.664-1.914-1.996-1.914-.936 0-1.897.784-1.897 1.878v8.482c0 5.487 4.91 10.326 10.35 10.326 5.94 0 10.5-5.092 10.5-10.305v-8.51c-.002-.948-.788-1.87-1.936-1.87z"/></g><g fill="#168DE2"><path d="M341.024 79.703c-2.483.004-4.785.94-6.558 2.454v-.684c0-.88-.8-1.778-1.923-1.778-1.184.004-2.05 1.094-2.036 1.88l.003 25.003c-.01 1.113.875 1.94 1.967 1.94 1.24 0 2.03-.97 2.03-2.027l.004-8.468c1.762 1.487 4.22 2.363 6.514 2.363 5.695 0 10.308-5.047 10.308-10.33 0-5.755-4.837-10.36-10.308-10.352zm-.057 16.85c-3.293 0-6.014-2.444-6.45-5.62v-1.806c.436-3.17 3.16-5.608 6.45-5.608 3.603 0 6.523 2.913 6.523 6.514 0 3.6-2.92 6.52-6.523 6.52zM270.093 79.695c-1.126 0-1.92.9-1.92 1.778v.684c-1.78-1.513-4.076-2.45-6.56-2.454-5.472-.008-10.313 4.597-10.313 10.353 0 5.282 4.614 10.33 10.312 10.33 2.302 0 4.774-.886 6.54-2.392 0 0 .034.793.066.94-.303 2.392-2.036 4.578-5.007 5.522-1.996.636-7.74-.72-8.21-.806-1.35-.238-2.032.928-2.02 1.953 0 .82.657 1.475 1.998 1.9 1.704.542 4.686.874 7.293.907 1.96.028 9.59-1.513 9.853-9.866.002-.046 0-16.97 0-16.97.02-.785-.85-1.875-2.03-1.88zm-8.427 16.858c-3.607 0-6.527-2.918-6.527-6.52 0-3.6 2.92-6.515 6.526-6.515 3.598 0 6.523 2.914 6.523 6.515 0 3.602-2.926 6.52-6.524 6.52z"/><path d="M213.868 6.795c0 1.96-1.96 3.57-4.785 3.57-2.845 0-4.617-1.948-4.617-3.784V4.056c.035-1.913 1.707-4.054 4.59-4.054 3.16 0 4.812 2.048 4.812 4.055v2.74zM128.84 14.024c-5.772-.087-10.196 3.265-12.924 5.497-3.03-3.246-6.907-5.226-10.89-5.474-4.203-.26-8.144 1.156-10.65 3.19-.876-2.034-2.033-3.232-4.014-3.232-2.172 0-4.48 1.855-4.48 4.884 0 3.023.024 39.25.024 39.25 0 2.252 1.926 4.537 4.674 4.537 3.03 0 4.706-2.312 4.706-4.553V29.006c0-2.833 4.844-6.185 8.938-6.13 2.616.034 5.725 2.614 5.725 6.683l.023 28.63c0 2.532 2.547 4.473 4.858 4.473 2.747 0 4.828-2.076 4.828-4.442V29.285c0-3.545 5.387-6.517 9.074-6.326 2.892.15 5.446 3.302 5.446 6.326V58.18c0 2.503 2.35 4.483 4.883 4.483 2.225 0 4.8-1.473 4.8-4.525v-28.77c.032-10.56-10.398-15.488-15.02-15.344zM209.122 13.992c-2.817.013-4.638 2.322-4.642 4.67l.01 39.432c-.02 2.615 2.053 4.566 4.613 4.566 2.922 0 4.79-2.283 4.79-4.77l.02-39.164c0-2.315-2.34-4.742-4.79-4.734zM192.752 14.004c-2.648-.005-4.52 2.115-4.52 4.18v1.61c-4.178-3.558-9.592-5.764-15.435-5.77-12.86-.024-24.247 10.81-24.247 24.362 0 12.424 10.85 24.29 24.247 24.29 5.42 0 11.248-2.085 15.39-5.618l.012 1.153c0 2.207 1.747 4.465 4.618 4.465 3.26 0 4.72-2.604 4.72-4.66v-39.58c.034-1.855-2.006-4.43-4.786-4.43zm-19.825 39.663c-8.475 0-15.344-6.866-15.344-15.335 0-8.473 6.87-15.337 15.344-15.337 8.476 0 15.346 6.864 15.346 15.337 0 8.468-6.87 15.335-15.346 15.335zM241.412 53.256c-5.97-.004-11.295-4.596-11.295-11.368l.008-37.487c-.008-2.59-2.12-4.4-4.703-4.4-3.002.01-4.732 2.22-4.732 4.4v37.524c-.034 11.65 9.595 20.778 20.555 20.778 3.255 0 4.824-2.643 4.824-4.88-.002-2.133-1.685-4.564-4.658-4.566z"/><path d="M306.7 90.02c0-5.282-4.614-10.325-10.303-10.325-.067 0-.128.008-.194.012-5.422.044-10.205 4.626-10.205 10.35 0 5.282 4.61 10.33 10.31 10.33.06 0 .127-.014.188-.014 5.428-.053 10.205-4.63 10.205-10.352zm-10.34 6.533c-3.578 0-6.474-2.878-6.517-6.445v-.154c.034-2.882 1.933-5.316 4.554-6.14.61-.19 1.263-.29 1.942-.29 3.573 0 6.478 2.877 6.516 6.442v.16c-.036 2.88-1.935 5.31-4.56 6.138-.61.19-1.26.29-1.935.29z"/></g></svg>