<svg xmlns="http://www.w3.org/2000/svg" viewBox="0 0 1033.7455 220.69501"><path fill="#706d6e" d="M1033.745 99.838V81.66h-22.576V53.395l-.76.233-21.206 6.488-.417.128v21.414h-33.47V69.73c0-5.555 1.243-9.807 3.69-12.642 2.432-2.8 5.91-4.225 10.344-4.225 3.19 0 6.49.752 9.812 2.233l.832.37V36.322l-.39-.143c-3.1-1.113-7.316-1.675-12.54-1.675-6.585 0-12.57 1.433-17.786 4.273-5.22 2.844-9.33 6.904-12.205 12.066-2.868 5.157-4.323 11.112-4.323 17.702V81.66h-15.72v18.18h15.72v76.587h22.568V99.84h33.47v48.67c0 20.045 9.454 30.204 28.1 30.204 3.065 0 6.29-.36 9.582-1.064 3.352-.72 5.634-1.443 6.978-2.213l.297-.175v-18.35l-.917.61c-1.225.816-2.75 1.483-4.54 1.978-1.795.505-3.295.758-4.456.758-4.37 0-7.6-1.177-9.607-3.5-2.027-2.343-3.056-6.443-3.056-12.177V99.84h22.575zm-167.11 60.422c-8.193 0-14.65-2.716-19.2-8.066-4.58-5.378-6.9-13.044-6.9-22.784 0-10.05 2.32-17.914 6.9-23.386 4.555-5.436 10.95-8.195 19.015-8.195 7.825 0 14.054 2.634 18.515 7.835 4.485 5.228 6.76 13.03 6.76 23.196 0 10.293-2.14 18.198-6.36 23.485-4.19 5.25-10.49 7.915-18.73 7.915m1.004-80.885c-15.63 0-28.04 4.58-36.89 13.61-8.844 9.033-13.33 21.53-13.33 37.154 0 14.836 4.38 26.77 13.012 35.466 8.634 8.7 20.384 13.105 34.92 13.105 15.15 0 27.314-4.64 36.16-13.797 8.845-9.148 13.327-21.528 13.327-36.785 0-15.07-4.206-27.094-12.504-35.732-8.3-8.64-19.977-13.02-34.697-13.02m-86.604 0c-10.63 0-19.423 2.717-26.14 8.08-6.758 5.39-10.185 12.465-10.185 21.024 0 4.448.74 8.4 2.197 11.752 1.465 3.364 3.732 6.324 6.744 8.81 2.99 2.464 7.603 5.046 13.718 7.673 5.14 2.115 8.973 3.905 11.408 5.315 2.38 1.38 4.07 2.77 5.023 4.123.926 1.324 1.397 3.135 1.397 5.373 0 6.366-4.768 9.464-14.58 9.464-3.638 0-7.79-.76-12.336-2.258-4.55-1.496-8.8-3.647-12.633-6.406l-.936-.67v21.725l.344.16c3.194 1.475 7.22 2.717 11.964 3.696 4.736.98 9.04 1.477 12.778 1.477 11.535 0 20.823-2.732 27.6-8.125 6.822-5.43 10.28-12.67 10.28-21.526 0-6.387-1.862-11.866-5.53-16.284-3.643-4.382-9.965-8.405-18.785-11.96-7.026-2.82-11.527-5.162-13.383-6.958-1.79-1.737-2.7-4.192-2.7-7.3 0-2.757 1.122-4.964 3.426-6.753 2.32-1.797 5.55-2.71 9.604-2.71 3.76 0 7.607.593 11.432 1.756 3.823 1.164 7.18 2.723 9.984 4.63l.922.63v-20.61l-.354-.152c-2.586-1.108-5.996-2.057-10.138-2.827-4.125-.762-7.866-1.148-11.118-1.148m-95.158 80.885c-8.19 0-14.65-2.716-19.2-8.066-4.58-5.378-6.895-13.04-6.895-22.784 0-10.05 2.32-17.914 6.9-23.386 4.55-5.436 10.946-8.195 19.014-8.195 7.822 0 14.05 2.634 18.514 7.835 4.486 5.228 6.76 13.03 6.76 23.196 0 10.293-2.14 18.198-6.36 23.485-4.19 5.25-10.49 7.915-18.732 7.915m1.008-80.885c-15.632 0-28.044 4.58-36.89 13.61-8.843 9.033-13.33 21.53-13.33 37.154 0 14.843 4.38 26.77 13.013 35.466 8.633 8.7 20.382 13.105 34.92 13.105 15.144 0 27.313-4.64 36.16-13.797 8.842-9.148 13.326-21.528 13.326-36.785 0-15.07-4.207-27.094-12.505-35.732-8.303-8.64-19.977-13.02-34.694-13.02M602.41 98.07V81.658h-22.294v94.767h22.293v-48.477c0-8.243 1.868-15.015 5.555-20.13 3.64-5.053 8.494-7.615 14.418-7.615 2.007 0 4.26.332 6.702.987 2.416.65 4.166 1.357 5.2 2.1l.935.68V81.496l-.36-.155c-2.077-.882-5.014-1.327-8.73-1.327-5.6 0-10.615 1.8-14.91 5.344-3.767 3.115-6.492 7.386-8.575 12.713h-.236zm-62.214-18.695c-10.227 0-19.35 2.193-27.11 6.516-7.774 4.333-13.787 10.52-17.878 18.386-4.072 7.847-6.14 17.014-6.14 27.235 0 8.955 2.005 17.172 5.968 24.413 3.965 7.254 9.577 12.93 16.68 16.865 7.095 3.932 15.293 5.925 24.37 5.925 10.595 0 19.64-2.118 26.892-6.295l.293-.168v-20.423l-.936.684c-3.285 2.393-6.956 4.303-10.906 5.68-3.94 1.375-7.532 2.07-10.68 2.07-8.75 0-15.77-2.738-20.867-8.133-5.108-5.404-7.698-12.99-7.698-22.537 0-9.608 2.7-17.39 8.025-23.132 5.306-5.725 12.34-8.628 20.907-8.628 7.328 0 14.468 2.48 21.223 7.38l.934.68V84.37l-.3-.17c-2.543-1.422-6.01-2.597-10.314-3.488-4.285-.89-8.477-1.337-12.46-1.337m-66.48 2.284H451.42v94.765h22.293V81.66zm-10.92-40.372c-3.67 0-6.87 1.248-9.497 3.723-2.64 2.484-3.98 5.61-3.98 9.296 0 3.63 1.322 6.698 3.936 9.114 2.598 2.41 5.808 3.63 9.54 3.63 3.73 0 6.954-1.22 9.583-3.626 2.645-2.42 3.986-5.488 3.986-9.118 0-3.558-1.305-6.652-3.88-9.195-2.57-2.536-5.83-3.823-9.69-3.823m-55.62 33.38v101.757h22.75V44.19H398.44l-40.022 98.22-38.84-98.22H286.81v132.234h21.38V74.657h.734l41.012 101.767h16.134l40.373-101.757h.733z"/><path fill="#f1511b" d="M104.868 104.868H0V0h104.868v104.868z"/><path fill="#80cc28" d="M220.654 104.868H115.788V0h104.866v104.868z"/><path fill="#00adef" d="M104.865 220.695H0V115.827h104.865v104.868z"/><path fill="#fbbc09" d="M220.654 220.695H115.788V115.827h104.866v104.868z"/></svg>