<svg xmlns="http://www.w3.org/2000/svg" viewBox="0 0 754.327 185.375"><g fill="#58595B"><path d="M27.64 171.47c0 7.632-6.188 13.82-13.82 13.82S0 179.1 0 171.47V14.17C0 6.538 6.188.35 13.82.35h30.905c5.304 0 9.91 2.99 12.227 7.374l45.018 71.248 45.584-72.145C150.17 2.67 154.642.393 159.214.39V.35h30.906c7.633 0 13.82 6.187 13.82 13.82v157.3c0 7.63-6.188 13.82-13.82 13.82h-10.3l-.026.084h-6.673l-.017-.086h-13.768l-.354-.008c-.116-.005-.233-.01-.35-.018-7.235-.44-12.967-6.45-12.967-13.794-.017-1.61-.188-4.835-.185-6.552V102.9c0-7.634 6.19-13.82 13.82-13.82h16.97l.03-.086V27.99h-9.517l-53.04 83.94c-1.07 1.77-2.56 3.322-4.43 4.5-6.44 4.055-14.95 2.12-19.003-4.32L37.155 27.99H27.64v143.48zm290.955-6.552V102.9c0-7.632 6.188-13.82 13.82-13.82h16.967l.032-.084V28.2h-.2l-6.868-.102-73.686 148.667c-2.06 5.05-7.015 8.61-12.8 8.61h-29.742c-7.633 0-13.82-6.196-13.82-13.838V14.187c0-7.643 6.188-13.837 13.82-13.837s13.82 6.195 13.82 13.836v143.516h7.39l74.16-149.624c2.162-4.386 6.34-7.112 10.86-7.613l-.02-.077v-.04h30.905c7.632 0 13.82 6.188 13.82 13.82v157.3c0 7.632-6.188 13.82-13.82 13.82H352.93l-.024.085h-6.672l-.018-.086H332.45c-7.564-.078-13.596-6.252-13.672-13.82-.016-1.61-.187-4.832-.183-6.55z"/><path d="M695.87 164.918V102.9c0-7.632 6.187-13.82 13.82-13.82h16.967l.032-.084V27.99h-9.52l-53.038 83.94c-1.074 1.77-2.563 3.323-4.433 4.5-6.44 4.056-14.95 2.12-19.003-4.32l-53.152-84.12h-9.518v143.48c0 7.63-6.188 13.82-13.82 13.82-7.632 0-13.82-6.19-13.82-13.82V14.17c0-7.63 6.19-13.82 13.82-13.82h30.905c5.305 0 9.91 2.99 12.227 7.374l45.02 71.25 45.582-72.15c2.616-4.155 7.088-6.433 11.66-6.437v-.04h30.905c7.633 0 13.82 6.188 13.82 13.82v157.3c0 7.632-6.188 13.82-13.82 13.82h-10.302l-.024.085-6.672-.002-.02-.085H709.72c-7.562-.078-13.594-6.252-13.67-13.82-.015-1.61-.186-4.833-.183-6.55l.003.003z"/></g><path fill="#FFCB05" d="M432.714 185.025c-7.633 0-13.82-6.21-13.82-13.867 0-7.66 6.188-13.867 13.82-13.867h49.393V91.276h-49.393c-7.633 0-13.82-6.188-13.82-13.82s6.188-13.82 13.82-13.82h80.828v-35.9h-80.828c-7.633 0-13.82-6.21-13.82-13.868 0-7.66 6.188-13.867 13.82-13.867h94.648c7.632 0 13.82 6.208 13.82 13.867v157.29c0 7.658-6.188 13.867-13.82 13.867h-94.648zm-32.794-93.75c7.63 0 13.82-6.188 13.82-13.82s-6.19-13.82-13.82-13.82c-7.633 0-13.82 6.188-13.82 13.82s6.187 13.82 13.82 13.82zm0 93.75c7.63 0 13.82-6.19 13.82-13.82 0-7.632-6.19-13.82-13.82-13.82-7.633 0-13.82 6.188-13.82 13.82 0 7.63 6.187 13.82 13.82 13.82zm0-157.385c7.63 0 13.82-6.188 13.82-13.82S407.55 0 399.92 0c-7.633 0-13.82 6.19-13.82 13.82s6.187 13.82 13.82 13.82z"/></svg>