<svg xmlns="http://www.w3.org/2000/svg" viewBox="0 0 754.33 185.38"><path d="M27.64 171.47a13.82 13.82 0 0 1-27.64 0V14.17C0 6.54 6.19.35 13.82.35h30.9c5.3 0 9.92 2.99 12.23 7.37l45.02 71.25 45.58-72.14A13.76 13.76 0 0 1 159.21.39V.35h30.91c7.63 0 13.82 6.19 13.82 13.82v157.3c0 7.63-6.19 13.82-13.82 13.82h-10.3l-.03.08h-6.67l-.02-.08h-13.76l-.36-.01-.35-.02a13.82 13.82 0 0 1-12.97-13.8c-.01-1.6-.18-4.83-.18-6.54V102.9c0-7.63 6.19-13.82 13.82-13.82h16.97l.03-.09V28h-9.52l-53.04 83.94a13.78 13.78 0 0 1-23.43.18L37.15 27.99h-9.51v143.48zm290.95-6.55V102.9c0-7.63 6.2-13.82 13.82-13.82h16.97l.03-.08V28.2h-.2l-6.86-.1-73.69 148.66a13.83 13.83 0 0 1-12.8 8.62h-29.74c-7.64 0-13.82-6.2-13.82-13.84V14.19a13.83 13.83 0 1 1 27.64 0V157.7h7.39L321.49 8.08A13.78 13.78 0 0 1 332.35.47l-.02-.08V.35h30.9c7.63 0 13.82 6.19 13.82 13.82v157.3c0 7.63-6.19 13.82-13.82 13.82h-10.3l-.02.08h-6.68l-.01-.08h-13.77a13.88 13.88 0 0 1-13.67-13.82c-.02-1.61-.19-4.83-.19-6.55zm377.28 0V102.9c0-7.63 6.19-13.82 13.82-13.82h16.97l.03-.08V27.99h-9.52l-53.04 83.94a13.78 13.78 0 0 1-23.44.18l-53.15-84.12h-9.51v143.48a13.82 13.82 0 0 1-27.65 0V14.17c0-7.63 6.2-13.82 13.82-13.82h30.91c5.3 0 9.91 2.99 12.23 7.37l45.02 71.25 45.58-72.15A13.77 13.77 0 0 1 709.6.4V.35h30.9c7.64 0 13.82 6.18 13.82 13.82v157.3c0 7.63-6.18 13.82-13.82 13.82h-10.3l-.02.08h-6.67l-.02-.09h-13.77a13.88 13.88 0 0 1-13.67-13.82c-.01-1.6-.19-4.83-.18-6.55z" fill="#58595B"/><path fill="#FFCB05" d="M432.71 185.03a13.84 13.84 0 0 1-13.82-13.87c0-7.66 6.2-13.87 13.82-13.87h49.4V91.28h-49.4a13.82 13.82 0 0 1 0-27.64h80.83v-35.9h-80.83a13.84 13.84 0 0 1-13.82-13.87A13.86 13.86 0 0 1 432.71 0h94.65c7.63 0 13.82 6.2 13.82 13.87v157.29c0 7.66-6.19 13.86-13.82 13.86h-94.65zm-32.79-93.75a13.82 13.82 0 1 0 0-27.65 13.82 13.82 0 0 0 0 27.65zm0 93.75a13.82 13.82 0 1 0 0-27.65 13.82 13.82 0 0 0 0 27.65zm0-157.39a13.82 13.82 0 1 0 0-27.64 13.82 13.82 0 0 0 0 27.64z"/></svg>