<svg xmlns="http://www.w3.org/2000/svg" viewBox="0 0 38.759 16.567"><path d="M0 0v16.567h4.073v-1.84H2.3V1.84h1.773V0H0zm6.475 2.534v11.5h1.608V4.208l2.683 9.823h1.375l2.733-9.805v9.805h1.81v-11.5H13.95l-2.347 8.297-2.297-8.296h-2.83zm12.668 0v11.5h1.91v-.94l3.2-6.235c.338-.64.17-.37.538-1.176-.082 1.023-.133 1.192-.133 1.49v6.86h1.91v-11.5h-1.91v.804l-3.285 6.337c-.034.067-.102.202-.453 1.072.05-.57.134-.888.134-1.392v-6.82h-1.91zM34.5 5.182h.12c1.137 0 1.656.503 1.79.635.587.603.637 1.71.637 2.247 0 1.14-.2 2.062-.972 2.548-.52.318-1.273.35-1.575.336V5.182zm-1.74 5.767c-.304.014-1.06-.02-1.58-.337-.77-.485-.97-1.408-.97-2.548 0-.536.05-1.644.636-2.247.386-.4 1.074-.635 1.795-.635h.12v5.766zm-.052-8.752v1.475h-.086c-.553 0-1.74.034-2.73.87-.622.52-1.394 1.594-1.394 3.506 0 1.505.453 2.63 1.074 3.284.837.888 1.96 1.09 3.135 1.122v1.693h1.843v-1.694c1.173-.032 2.296-.234 3.135-1.122.618-.653 1.073-1.78 1.073-3.285 0-1.913-.774-2.986-1.393-3.506-.988-.837-2.178-.87-2.732-.87h-.083V2.197h-1.842z"/></svg>