<svg xmlns="http://www.w3.org/2000/svg" viewBox="0 0 38.76 16.57"><path d="M0 0v16.57h4.07v-1.84H2.3V1.84h1.77V0H0zm6.47 2.53v11.5h1.61V4.21l2.69 9.82h1.37l2.73-9.8v9.8h1.81V2.53h-2.73l-2.35 8.3-2.3-8.3H6.49zm12.67 0v11.5h1.91v-.94l3.2-6.23c.34-.64.17-.37.54-1.18-.08 1.03-.13 1.2-.13 1.5v6.85h1.9V2.53h-1.9v.8l-3.29 6.34c-.03.07-.1.2-.45 1.08.05-.57.13-.9.13-1.4V2.53h-1.9zM34.5 5.18h.12c1.14 0 1.66.5 1.79.64.59.6.64 1.7.64 2.24 0 1.14-.2 2.07-.98 2.55a3.1 3.1 0 0 1-1.57.34V5.18zm-1.74 5.77c-.3.01-1.06-.02-1.58-.34-.77-.48-.97-1.4-.97-2.55 0-.53.05-1.64.64-2.24.38-.4 1.07-.64 1.8-.64h.11v5.77zm-.05-8.75v1.47h-.09c-.55 0-1.74.04-2.73.87-.62.52-1.4 1.6-1.4 3.5 0 1.51.46 2.64 1.08 3.3.84.88 1.96 1.08 3.14 1.11v1.7h1.84v-1.7c1.17-.03 2.3-.23 3.13-1.12a4.75 4.75 0 0 0 1.08-3.28c0-1.92-.78-2.99-1.4-3.51a4.12 4.12 0 0 0-2.73-.87h-.08V2.2h-1.84z"/></svg>