<svg xmlns="http://www.w3.org/2000/svg" viewBox="0 0 80.139 61.535"><g fill="#231F20"><path d="M15.65 6.098v3.54c0 .384-.012.384-.035.813.186-.417.37-.66.555-.915l2.21-2.925v-.512h.88v5.9h-.88V8.517c0-.207.013-.563.047-.843-.048.105-.13.302-.532.824l-2.244 2.935V12h-.877V6.097M20.336 7.604c.175-.75.647-1.144 1.087-1.353.21-.103.647-.266 1.378-.266.498 0 1.088.068 1.504.323.555.336.73.846.73 1.263 0 .52-.268.82-.383.937-.184.185-.484.335-.833.37v.022c.35.02.753.184 1.008.45.22.23.37.577.37.993 0 .683-.394 1.135-.74 1.366-.544.368-1.25.403-1.734.403-.475 0-1.296-.024-1.886-.546-.336-.3-.554-.727-.636-1.153l.856-.175c.068.357.24.588.336.68.22.234.614.474 1.283.474.347 0 .798-.067 1.074-.252.232-.15.43-.394.43-.787 0-.37-.14-.603-.28-.73-.322-.3-.785-.333-1.166-.333h-.66v-.716h.66c.244 0 .602-.045.82-.15.43-.196.512-.532.512-.833 0-.334-.188-.533-.325-.635-.23-.185-.636-.256-1.03-.256-.335 0-.75.07-1.098.357-.187.152-.383.405-.452.765M30.56 6.098v5.185h.602v2.3h-.81V12h-3.92v1.583h-.81v-2.3h.44c.195-.29.392-.638.554-1.052.43-1.088.475-2.245.51-3.598l.01-.534m.73 1.034c-.036.865-.14 2.3-.52 3.32-.118.298-.302.69-.37.83h2.704V6.82h-1.805l-.01.312zM31.838 7.594c.255-1.26 1.214-1.608 2.497-1.608.395 0 1.158.012 1.678.43.637.508.647 1.316.647 2.082v2.264c0 .325.035.72.15 1.24h-.925c-.07-.432-.093-.813-.105-1.1-.16.334-.67 1.214-2.057 1.214-.753 0-1.228-.253-1.517-.52-.253-.233-.53-.636-.53-1.25 0-.797.452-1.26.797-1.49.717-.487 1.643-.5 2.545-.5h.762v-.24c0-.316-.02-.708-.23-.985-.3-.403-.81-.428-1.226-.428-.486 0-1.503.07-1.643 1.03m2.35 1.342c-.927 0-1.458.116-1.782.288-.483.254-.602.682-.602.982 0 .232.094.567.43.786.162.117.44.22.844.22.578 0 1.087-.277 1.4-.66.3-.368.46-.91.46-1.328v-.288h-.75zM41.783 6.098v.72h-1.85V12h-.88V6.82h-1.85v-.722M47.114 10.39c-.162.51-.46.94-.96 1.284-.462.312-.947.44-1.515.44-.833 0-1.493-.277-2-.857-.522-.59-.718-1.34-.718-2.162 0-1.57.88-3.11 2.74-3.11 2.198 0 2.556 2.035 2.556 2.985v.207h-4.28c-.01.393.06.81.198 1.145.29.705.82 1.03 1.538 1.03.636 0 1.018-.28 1.226-.51.163-.175.29-.416.36-.625M46.2 8.46c-.01-.358-.103-.787-.276-1.075-.186-.3-.556-.683-1.25-.683-.576 0-1.018.277-1.282.602-.244.314-.395.738-.405 1.157H46.2zM52.353 6.098v5.9h-.878V6.82h-1.897c-.092 2.637-.195 3.423-.37 3.942-.393 1.147-1.307 1.24-1.712 1.24h-.046v-.766h.092c.268-.012.672-.208.893-.61.173-.314.3-.89.358-3.864l.012-.662M54.668 6.098v2.326h1.644c.46 0 1.04.048 1.456.452.197.197.474.59.474 1.295 0 .57-.16 1.053-.59 1.425-.405.357-.844.404-1.19.404H53.79V6.097m.878 5.185h1.377c.255 0 .578 0 .867-.245.21-.184.358-.486.358-.877 0-.462-.208-.705-.392-.833-.222-.137-.567-.185-.8-.185h-1.41v2.14zM62.827 8.16c-.047-.325-.173-.67-.323-.893-.16-.23-.497-.52-1.075-.52-.51 0-.88.243-1.135.66-.322.52-.382 1.19-.382 1.666 0 1.11.312 1.594.382 1.687.196.29.543.59 1.12.59.44 0 .767-.15 1.03-.483.21-.268.335-.624.382-.96l.833.15c-.082.567-.334 1.086-.672 1.433-.416.43-.96.625-1.596.625-.74 0-1.27-.267-1.618-.578-.578-.533-.88-1.48-.88-2.476 0-.784.175-1.502.615-2.115.402-.554.99-.96 1.94-.96.647 0 1.19.195 1.608.67.334.384.53.927.6 1.354M68.46 6.098v.72h-1.852V12h-.878V6.82h-1.85v-.722M71.762 6.098c.474 0 .982.026 1.376.256.22.128.625.45.625 1.135 0 .392-.116.728-.395.982-.093.08-.346.3-.762.37v.022c.427.034.854.22 1.098.462.115.115.394.44.394 1.008 0 .54-.23 1.004-.613 1.306-.45.347-.96.36-1.434.36h-2.9V6.097m.876 2.465h1.642c.278 0 .637-.02.893-.3.15-.16.23-.406.23-.67 0-.186-.046-.394-.255-.565-.242-.21-.52-.21-.787-.21h-1.722v1.745zm0 2.72h1.853c.425 0 .738-.117.923-.29.184-.172.276-.45.276-.715 0-.418-.22-.65-.357-.754-.29-.22-.707-.243-.926-.243h-1.77v2.003zM77.48 5.985c1.526 0 2.66 1.134 2.66 3.066s-1.134 3.064-2.66 3.064c-1.527 0-2.66-1.133-2.66-3.063 0-1.93 1.133-3.065 2.66-3.065m1.643 3.067c0-1.933-.937-2.304-1.644-2.304-.706 0-1.643.37-1.643 2.304 0 1.93.937 2.298 1.642 2.298.707 0 1.643-.368 1.643-2.298"/><path d="M17.297 20.95l2.046 7.392 2.092-7.39h2.434v10.247h-1.614v-8.74L19.82 31.2H18.6l-2.392-8.756V31.2H14.77V20.95M29.702 20.95l2.75 10.247h-1.733l-.644-2.57h-2.988l-.625 2.57h-1.63L27.79 20.95m.792 1.658l-1.148 4.675h2.313l-1.165-4.675zM35.17 20.95v4.255h3.018V20.95h1.703V31.2H38.19v-4.59H35.17v4.59h-1.702V20.95M43.356 20.95v4.255h3.016V20.95h1.704V31.2h-1.704v-4.59h-3.016v4.59h-1.702V20.95M51.56 29.27v1.84l-1.135 2.253h-.733l.942-2.166h-.79V29.27"/><path d="M16.475 36.114v6.077c0 .45-.075.734-.12 1.24.314-.774.375-.895.403-.954l2.93-5.647v-.716h1.702v10.248h-1.703v-6.114c0-.266.044-.417.12-1.328-.33.717-.18.48-.48 1.048l-2.853 5.557v.838H14.77v-10.25M26.29 36.114c.79 0 1.582 0 2.18.373.583.373 1.046 1.136 1.046 2.194 0 .867-.27 1.345-.48 1.6-.254.3-.642.536-1.044.673.48.118.852.372 1.12.643.584.582.716 1.27.716 1.882 0 1.39-.672 2.076-1.165 2.39-.715.463-1.538.493-2.33.493h-3.18V36.115m2.778 4.226c.404 0 1.03-.046 1.33-.257.357-.253.523-.85.523-1.238 0-.417-.166-.896-.478-1.134-.328-.255-.883-.255-1.21-.255h-1.24v2.885h1.076zm.284 4.676c.284 0 .808-.03 1.225-.3.582-.372.656-.927.656-1.36 0-.254-.045-.954-.598-1.36-.402-.296-.926-.31-1.402-.31h-1.24v3.33h1.358zM35.25 36.114L38 46.36h-1.733l-.643-2.57h-2.987l-.626 2.57h-1.63l2.96-10.246m.79 1.657l-1.148 4.676h2.313L34.13 37.77zM40.72 36.114v4.254h3.015v-4.254h1.706v10.248h-1.705v-4.59H40.72v4.59h-1.704V36.114M52.963 36.904c1.15 1.224 1.24 3.45 1.24 4.332 0 .852-.09 3.137-1.24 4.333-.447.463-1.256.98-2.436.98-1.03 0-1.88-.4-2.434-.968-.374-.388-1.255-1.51-1.255-4.33 0-.988.118-3.214 1.255-4.377.433-.45 1.24-.956 2.434-.956 1.198 0 1.972.492 2.436.984m-4.123 2.032c-.118.522-.21 1.67-.21 2.3 0 .626.092 1.778.21 2.3.21.883.7 1.612 1.688 1.612.554 0 1.316-.207 1.66-1.61.147-.613.223-1.347.223-2.302 0-1.107-.103-1.794-.223-2.3-.15-.583-.524-1.613-1.66-1.613-.296 0-1.33.09-1.687 1.613M58.762 36.114c.792 0 1.584 0 2.182.373.582.373 1.045 1.136 1.045 2.194 0 .867-.27 1.345-.48 1.6-.254.3-.642.536-1.045.673.48.118.852.372 1.12.643.584.582.718 1.27.718 1.882 0 1.39-.674 2.076-1.165 2.39-.718.463-1.54.493-2.332.493h-3.18V36.115M58.4 40.34c.403 0 1.03-.046 1.33-.257.36-.253.523-.85.523-1.238 0-.417-.164-.896-.478-1.134-.33-.255-.882-.255-1.21-.255h-1.24v2.885h1.075zm.285 4.676c.285 0 .81-.03 1.225-.3.583-.372.657-.927.657-1.36 0-.254-.045-.954-.598-1.36-.403-.296-.925-.31-1.403-.31h-1.24v3.33h1.357z"/><path d="M16.475 51.186v6.077c0 .448-.075.733-.12 1.24.313-.775.376-.896.404-.955l2.927-5.647v-.714h1.702v10.248h-1.703V55.32c0-.266.044-.417.12-1.328-.33.717-.18.48-.48 1.048l-2.853 5.557v.838H14.77v-10.25M30.404 50.886V52.2h.074c.495 0 1.555.03 2.437.775.553.463 1.24 1.418 1.24 3.123 0 1.344-.405 2.346-.957 2.927-.747.793-1.75.974-2.794 1v1.51h-1.64v-1.51c-1.05-.026-2.05-.207-2.795-1-.556-.58-.958-1.583-.958-2.927 0-1.705.687-2.66 1.24-3.123.88-.745 1.94-.776 2.435-.776h.077v-1.314m.044 2.658h-.105c-.64 0-1.255.21-1.598.565-.523.54-.568 1.526-.568 2.003 0 1.017.178 1.84.866 2.27.463.284 1.136.314 1.405.3v-5.14zm1.55 5.14c.27.015.943-.016 1.406-.3.687-.432.866-1.254.866-2.27 0-.477-.044-1.463-.567-2.004-.12-.118-.583-.565-1.6-.565h-.104v5.14zM41.317 51.186v1.402H37.15v2.852h3.27v1.405h-3.27v3.183h4.24v1.406h-5.945V51.186M45.013 51.186c1.075 0 2.15.057 2.94.85.48.478.823 1.27.823 2.315 0 .733-.21 1.553-.673 2.092-.79.942-2.062.985-3.046.985h-.896v4.005h-1.703V51.186m1.705 4.9h.85c.688 0 1.33-.017 1.703-.6.09-.15.27-.495.27-1.166 0-.36-.046-.882-.344-1.27-.387-.52-.927-.52-1.627-.52h-.85v3.555zM55.812 52.528H51.63v2.84h1.747c.462 0 1.448.045 2.194.67.39.346.913 1.017.913 2.27 0 .824-.24 1.72-.732 2.288-.67.775-1.552.836-2.104.836h-3.72V51.186h5.886m-4.183 8.902h1.537c.45 0 .91-.18 1.165-.45.254-.267.418-.716.418-1.3 0-.252-.03-.82-.418-1.193-.27-.254-.776-.434-1.255-.434H51.63v3.378zM63.734 51.186v1.402h-4.167v2.852h3.27v1.405h-3.27v3.183h4.244v1.406h-5.946V51.186M67.43 51.186c1.076 0 2.152.057 2.943.85.48.478.823 1.27.823 2.315 0 .733-.21 1.553-.672 2.092-.793.942-2.062.985-3.047.985h-.898v4.005h-1.702V51.186m1.7 4.9h.853c.69 0 1.332-.017 1.704-.6.09-.15.27-.495.27-1.166 0-.36-.046-.882-.343-1.27-.39-.52-.926-.52-1.63-.52h-.85v3.555z"/><path d="M4.82 30.84V3.853h3.71V0H0v34.694h8.53V30.84"/></g></svg>