<svg xmlns="http://www.w3.org/2000/svg" viewBox="0 0 97.92 118.25"><path fill="#EF3C51" d="M27.2 12.87h43.76v40.6H27.2z"/><path fill="#E29FC7" d="M4.16 24.55l22.13-12.47L29.33.35"/><path fill="#F57F20" d="M66.6 88.41H31.79L27.2 54.65h43.76"/><path fill="#D16AA9" d="M70.96 12.08H27.2L30.57 0h37.22"/><path fill="#F27070" d="M1.85 60.79l24.56-7.33V12.87L4.23 25.55"/><path fill="#D32589" d="M94.08 24.55L71.95 12.08 68.91.35"/><path fill="#E21D3F" d="M96.5 60.79l-24.55-7.33V12.87l22.18 12.67"/><path fill="#F05223" d="M71.95 54.65l23.91 7.25-28.14 26.51"/><path fill="#FCB017" d="M26.19 54.65L2.28 61.9l28.14 26.51"/><path d="M0 100.22h2.03l6.47 9.7 6.48-9.7H17V118h-2v-14.4l-6.48 9.53h-.1l-6.48-9.5V118H0v-17.77zm21.74-.38h2.24V102h-2.24v-2.16zm.13 5.03h1.96v13.12h-1.96v-13.12zm6.5 0h1.95v2.28a4.97 4.97 0 0 1 4.5-2.56c3.17 0 5.02 2.13 5.02 5.25V118H37.9v-7.66c0-2.44-1.32-3.96-3.63-3.96-2.26 0-3.94 1.65-3.94 4.1V118h-1.95v-13.12zm14.54 11.45l.99-1.4a7.67 7.67 0 0 0 4.54 1.68c1.57 0 2.72-.82 2.72-2.14 0-1.31-1.55-1.82-3.28-2.3-2.06-.6-4.34-1.3-4.34-3.76 0-2.26 1.88-3.76 4.47-3.76 1.6 0 3.37.56 4.72 1.45l-.89 1.47a7.42 7.42 0 0 0-3.88-1.27c-1.55 0-2.54.81-2.54 1.95 0 1.25 1.62 1.73 3.37 2.26 2.03.61 4.22 1.4 4.22 3.81 0 2.49-2.06 3.94-4.67 3.94a9.03 9.03 0 0 1-5.44-1.93zm13.72-16.86h1.96v12.8l7.08-7.4h2.44l-5.51 5.64 5.68 7.5h-2.33l-4.7-6.13-2.66 2.7v3.42h-1.96V99.46z"/><path fill="#E21D3F" d="M69.42 115.38l2.06-2.1c1.04 1.31 2.08 2.07 3.57 2.07 1.68 0 2.82-1.11 2.82-3.48v-11.65h3.2v11.73c0 2.1-.61 3.68-1.65 4.72s-2.54 1.58-4.31 1.58a6.7 6.7 0 0 1-5.69-2.87zm14.74.02l1.88-2.23c1.7 1.47 3.4 2.31 5.61 2.31 1.93 0 3.15-.89 3.15-2.29 0-1.27-.71-1.95-4.01-2.74-3.79-.89-5.92-2-5.92-5.33 0-3.04 2.54-5.15 6.07-5.15a9.9 9.9 0 0 1 6.45 2.23l-1.68 2.36a8.06 8.06 0 0 0-4.82-1.82c-1.83 0-2.9.94-2.9 2.15 0 1.37.82 1.98 4.22 2.8 3.75.91 5.71 2.26 5.71 5.25 0 3.32-2.61 5.3-6.35 5.3-2.71 0-5.28-.93-7.4-2.84z"/></svg>