<svg xmlns="http://www.w3.org/2000/svg" viewBox="0 0 97.92 118.245"><path fill="#EF3C51" d="M27.202 12.87h43.76v40.593H27.2z"/><path fill="#E29FC7" d="M4.158 24.554L26.286 12.08 29.33.346"/><path fill="#F57F20" d="M66.605 88.41H31.78l-4.578-33.76h43.76"/><path fill="#D16AA9" d="M70.96 12.08H27.203L30.567 0h37.226"/><path fill="#F27070" d="M1.854 60.79l24.553-7.327V12.87L4.23 25.545"/><path fill="#D32589" d="M94.08 24.554L71.95 12.08 68.906.346"/><path fill="#E21D3F" d="M96.503 60.79l-24.55-7.327V12.87l22.174 12.674"/><path fill="#F05223" d="M71.952 54.65l23.908 7.253L67.718 88.41"/><path fill="#FCB017" d="M26.186 54.65l-23.91 7.253L30.418 88.41"/><g><path d="M0 100.223h2.03l6.474 9.695 6.473-9.695h2.03v17.77h-2.005v-14.394l-6.473 9.518h-.102l-6.474-9.494v14.368H0v-17.77zM21.744 99.842h2.234V102h-2.234v-2.158zm.128 5.027h1.955v13.122h-1.955V104.87zM28.367 104.87h1.955v2.282c.863-1.42 2.234-2.563 4.493-2.563 3.172 0 5.026 2.132 5.026 5.253v8.15h-1.953v-7.666c0-2.438-1.32-3.96-3.63-3.96-2.26 0-3.935 1.65-3.935 4.11v7.515h-1.955V104.87zM42.905 116.317l.99-1.397c1.422 1.066 2.995 1.677 4.543 1.677 1.574 0 2.717-.812 2.717-2.134 0-1.318-1.55-1.827-3.275-2.308-2.056-.586-4.34-1.296-4.34-3.758 0-2.26 1.877-3.757 4.467-3.757 1.6 0 3.376.558 4.72 1.446l-.887 1.472c-1.218-.787-2.614-1.27-3.884-1.27-1.548 0-2.54.812-2.54 1.955 0 1.244 1.626 1.727 3.377 2.26 2.03.608 4.214 1.395 4.214 3.808 0 2.487-2.056 3.935-4.67 3.935-1.878 0-3.96-.736-5.432-1.928zM56.632 99.46h1.955v12.794l7.083-7.386h2.437l-5.508 5.634 5.685 7.49H65.95l-4.696-6.12-2.666 2.692v3.427h-1.955V99.46z"/><path fill="#E21D3F" d="M69.42 115.378l2.056-2.106c1.04 1.32 2.08 2.08 3.578 2.08 1.676 0 2.818-1.117 2.818-3.478v-11.65h3.198v11.727c0 2.107-.61 3.683-1.65 4.723s-2.538 1.573-4.314 1.573c-2.742 0-4.52-1.27-5.686-2.868zM84.162 115.404l1.88-2.236c1.7 1.475 3.4 2.312 5.61 2.312 1.928 0 3.145-.89 3.145-2.285 0-1.27-.71-1.955-4.01-2.742-3.782-.888-5.914-2.006-5.914-5.33 0-3.046 2.54-5.153 6.066-5.153 2.588 0 4.645.787 6.447 2.234l-1.676 2.36c-1.598-1.193-3.197-1.828-4.82-1.828-1.828 0-2.896.94-2.896 2.157 0 1.37.813 1.98 4.214 2.793 3.757.914 5.712 2.26 5.712 5.252 0 3.326-2.614 5.307-6.346 5.307-2.716 0-5.28-.938-7.412-2.84z"/></g></svg>