<svg xmlns="http://www.w3.org/2000/svg" viewBox="0 0 893.043 232.475"><path fill="#56575C" d="M36.773 66.498c2.706 4.176 3.898 7.9 5.41 15.76 10.58-10.326 23.624-15.76 37.86-15.76 12.86 0 23.414 4.176 31.58 12.698 2.2 2.137 4.322 4.892 6.152 7.597 14.21-14.555 26.937-20.295 43.985-20.295 12.143 0 23.65 3.63 30.677 9.677 8.776 7.584 11.56 16.702 11.56 37.93v110.443h-39.453v-102.53c0-18.586-2.2-22.18-12.78-22.18-7.583 0-18.24 5.172-26.99 13.06v111.65h-38.5V123.475c0-19.38-2.808-23.93-14.103-23.93-7.503 0-17.897 3.887-26.646 11.813v113.19H5.806V116.21c0-22.432-1.538-32.122-5.806-39.742l36.773-9.97zM349.24 89.54c12.41 14.555 17.95 31.535 17.95 56.713 0 26.698-6.124 44.938-19.515 60.08-11.77 13.336-27.282 21.556-51.198 21.556-42.236 0-69.784-31.567-69.784-80.392 0-48.868 27.84-81.347 69.784-81.347 22.14 0 39.428 7.612 52.763 23.39zm-73.097 22.428c-2.784 8.22-4.268 19.13-4.268 34.615 0 17.855 1.83 31.273 5.143 39.134 3.66 8.5 12.808 12.74 20.627 12.74 17.607 0 25.137-15.762 25.137-52.47 0-20.948-2.732-34.63-8.166-41.627-3.9-5.118-10.235-8.166-17.553-8.166-9.732 0-17.633 6.043-20.92 15.774zM497.956 69.203V97.12L429.34 196.32h71.295l-9.73 28.226H376.578v-25.175l73.046-101.64h-66.95v-28.53h115.282zM566.71 26.434c0 13.975-11.11 25.135-25.162 25.135-13.602 0-24.79-11.16-24.79-25.136 0-13.946 11.56-25.2 25.477-25.2 13.63 0 24.474 11.254 24.474 25.2zm-4.772 39.11v159.004H521.29V71.932l40.648-6.39zM635.963 40.41v121.034c0 26.738.32 30.332 2.76 34.574 1.536 2.756 4.823 4.243 8.22 4.243 1.456 0 2.33 0 4.53-.558l6.948 24.245c-6.946 2.72-15.456 4.233-24.257 4.233-17.342 0-31.288-8.17-36.116-21.188-3.048-7.9-3.71-12.778-3.71-34.918V56.13c0-20.31-.53-32.718-2.044-46.73L633.87 0c1.457 8.485 2.093 18.507 2.093 40.41zM720.276 40.41v121.034c0 26.738.347 30.332 2.84 34.574 1.43 2.756 4.717 4.243 8.112 4.243 1.537 0 2.466 0 4.612-.558l6.922 24.245c-6.922 2.72-15.434 4.233-24.263 4.233-17.313 0-31.285-8.17-36.137-21.188-3.103-7.9-3.607-12.778-3.607-34.918V56.13c0-20.31-.608-32.718-2.174-46.73l41.52-9.4c1.673 8.485 2.174 18.507 2.174 40.41zM784.07 74.98c15.113-6.39 28.107-9.095 42.424-9.095 26.143 0 44.013 9.68 50.136 26.99 2.016 6.366 2.944 11.22 2.76 27.92l-.984 52.155v2.756c0 16.678 2.76 23.067 14.637 31.846l-21.58 24.922c-9.496-3.977-17.95-10.976-21.904-18.84-2.996 3.063-6.363 6.034-9.44 8.18-7.528 5.465-18.53 8.514-31.26 8.514-34.598 0-53.395-17.634-53.395-48.52 0-36.47 25.24-53.48 74.66-53.48 2.97 0 5.78 0 9.148.346v-6.336c0-17.327-3.367-23.095-18.32-23.095-12.887 0-28.185 6.336-44.837 17.59l-17.313-29.137c8.245-5.172 14.318-8.18 25.266-12.716zm52.683 81.613c-28.105 0-37.967 5.117-37.967 23.703 0 12.09 7.688 20.282 18 20.282 7.558 0 15.195-3.95 21.215-10.605l.664-33.38h-1.91z"/></svg>