<svg xmlns="http://www.w3.org/2000/svg" viewBox="0 0 893.04 232.47"><path fill="#56575C" d="M36.77 66.5c2.7 4.17 3.9 7.9 5.41 15.76C52.76 71.93 65.81 66.5 80.04 66.5c12.86 0 23.42 4.17 31.58 12.7a49.5 49.5 0 0 1 6.16 7.6c14.2-14.56 26.93-20.3 43.98-20.3 12.14 0 23.65 3.63 30.68 9.67C201.2 83.76 204 92.87 204 114.1v110.45h-39.46V122.02c0-18.59-2.2-22.18-12.78-22.18-7.58 0-18.24 5.17-26.99 13.06v111.65h-38.5V123.47c0-19.38-2.8-23.93-14.1-23.93-7.5 0-17.9 3.9-26.65 11.82v113.19H5.81V116.2C5.8 93.78 4.27 84.09 0 76.47l36.77-9.97zm312.47 23.04c12.41 14.55 17.95 31.54 17.95 56.71 0 26.7-6.12 44.94-19.52 60.08-11.77 13.34-27.28 21.56-51.2 21.56-42.23 0-69.78-31.57-69.78-80.4 0-48.86 27.84-81.34 69.79-81.34 22.14 0 39.43 7.61 52.76 23.39zm-73.1 22.43c-2.78 8.22-4.26 19.13-4.26 34.61 0 17.86 1.83 31.28 5.14 39.14 3.66 8.5 12.8 12.74 20.63 12.74 17.6 0 25.13-15.77 25.13-52.47 0-20.95-2.73-34.63-8.16-41.63-3.9-5.12-10.24-8.17-17.56-8.17-9.73 0-17.63 6.05-20.92 15.78zM497.96 69.2v27.92l-68.62 99.2h71.3l-9.73 28.23H376.57v-25.18l73.04-101.64h-66.95V69.2h115.29zm68.75-42.77a25 25 0 0 1-25.16 25.14c-13.6 0-24.8-11.16-24.8-25.14 0-13.94 11.57-25.2 25.49-25.2 13.63 0 24.47 11.26 24.47 25.2zm-4.77 39.11v159h-40.65V71.95l40.65-6.4zm74.02-25.13v121.03c0 26.74.32 30.34 2.76 34.58 1.54 2.75 4.83 4.24 8.22 4.24 1.46 0 2.33 0 4.53-.56l6.95 24.25c-6.95 2.72-15.46 4.23-24.26 4.23-17.34 0-31.28-8.17-36.11-21.19-3.05-7.9-3.71-12.77-3.71-34.91V56.13c0-20.31-.53-32.72-2.05-46.73L633.87 0c1.46 8.48 2.1 18.5 2.1 40.41zm84.32 0v121.03c0 26.74.34 30.34 2.84 34.58 1.43 2.75 4.71 4.24 8.1 4.24 1.54 0 2.47 0 4.62-.56l6.92 24.25c-6.92 2.72-15.43 4.23-24.26 4.23-17.31 0-31.29-8.17-36.14-21.19-3.1-7.9-3.6-12.77-3.6-34.91V56.13c0-20.31-.61-32.72-2.18-46.73L718.1 0c1.67 8.48 2.17 18.5 2.17 40.41zm63.79 34.57c15.11-6.39 28.1-9.1 42.42-9.1 26.15 0 44.02 9.69 50.14 27 2.02 6.36 2.94 11.22 2.76 27.92l-.98 52.15v2.76c0 16.67 2.76 23.06 14.63 31.84l-21.58 24.92c-9.5-3.97-17.95-10.97-21.9-18.84-3 3.07-6.36 6.04-9.44 8.18-7.53 5.47-18.53 8.52-31.26 8.52-34.6 0-53.4-17.64-53.4-48.52 0-36.47 25.24-53.48 74.66-53.48 2.97 0 5.78 0 9.15.34v-6.33c0-17.33-3.37-23.1-18.32-23.1-12.89 0-28.18 6.34-44.84 17.6l-17.3-29.14c8.24-5.18 14.31-8.18 25.26-12.72zm52.68 81.61c-28.1 0-37.96 5.12-37.96 23.7 0 12.1 7.68 20.29 18 20.29 7.55 0 15.2-3.95 21.21-10.6l.67-33.39h-1.91z"/></svg>