<svg xmlns="http://www.w3.org/2000/svg" viewBox="0 0 134.57 91.7"><path fill="#4d75a0" d="M3.64 86.67h-.95v2.11H.46v-5.73h2.23V85h.95v-1.94h2.22v5.73H3.64zm4.79-3.62h4.27v1.5h-2.14v.6h1.98v1.5h-1.98v.64h2.21v1.5H8.43zm7.93 0h2.89l1.8 5.73h-2.3l-.22-.92H16.9l-.22.92h-2.13l1.8-5.73zm1.84 3.41l-.44-2.15-.51 2.15h.95zm7.24-1.02c.23 0 .4-.05.54-.13.13-.1.2-.24.2-.45 0-.2-.06-.33-.18-.4a1.1 1.1 0 0 0-.55-.1h-.2v1.08h.18zm-2.37-2.39h3.33c.63 0 1.1.11 1.43.33.32.23.48.6.48 1.12 0 .35-.09.64-.26.87-.17.23-.46.4-.86.5.53.06.82.23.9.5.06.26.13.64.19 1.15.06.5.14.92.23 1.26h-2.18a5.7 5.7 0 0 1-.14-.73l-.14-.9c-.04-.27-.22-.41-.54-.41h-.26v2.04h-2.19v-5.73zm10.58 1.63c0-.18-.05-.3-.13-.37a.56.56 0 0 0-.36-.1c-.18 0-.3.02-.39.09a.28.28 0 0 0-.13.24c0 .1.03.17.1.22.05.06.2.12.43.18l.8.21c.3.08.6.18.9.31a1.53 1.53 0 0 1 .94 1.48c0 .68-.24 1.18-.72 1.5-.48.33-1.15.5-1.99.5a3.6 3.6 0 0 1-1.88-.45c-.48-.3-.72-.78-.72-1.48h2.14a.72.72 0 0 0 .13.45c.09.1.23.17.43.17a.56.56 0 0 0 .39-.14.44.44 0 0 0 .14-.33.31.31 0 0 0-.1-.24.64.64 0 0 0-.27-.15l-1.59-.48a1.65 1.65 0 0 1-.89-.57 1.58 1.58 0 0 1-.28-.95c0-.6.23-1.06.68-1.39a3.24 3.24 0 0 1 1.9-.48c.77 0 1.36.14 1.8.42.44.27.66.73.66 1.36h-1.99zm5.5-.09h-1.39v-1.54h5v1.54h-1.39v4.2h-2.23zm11.44.09c0-.18-.04-.3-.13-.37a.56.56 0 0 0-.36-.1c-.17 0-.3.02-.38.09a.28.28 0 0 0-.13.24c0 .1.03.17.09.22.06.06.2.12.44.18l.8.21c.29.08.59.18.89.31.3.13.53.32.7.58a1.6 1.6 0 0 1 .25.9c0 .68-.25 1.18-.73 1.5-.48.33-1.14.5-1.99.5a3.6 3.6 0 0 1-1.87-.45c-.48-.3-.73-.78-.73-1.48h2.15a.72.72 0 0 0 .12.45c.09.1.23.17.43.17a.56.56 0 0 0 .39-.14.44.44 0 0 0 .15-.33.32.32 0 0 0-.1-.24.64.64 0 0 0-.28-.15l-1.58-.48a1.66 1.66 0 0 1-.9-.57 1.58 1.58 0 0 1-.27-.95c0-.6.22-1.06.67-1.39a3.26 3.26 0 0 1 1.91-.48c.76 0 1.36.14 1.8.42.43.27.65.73.65 1.36H50.6zm7.67 1.99h-.95v2.11h-2.23v-5.73h2.23V85h.95v-1.94h2.23v5.73h-2.23zm4.79-3.62h2.18v2.46l1.16-2.46h2.35l-1.5 2.7 1.71 3.03h-2.41l-1.3-2.57-.01 2.57h-2.18zm13.27 3.81c0 .69-.23 1.2-.68 1.55-.46.35-1.12.52-1.99.52-.86 0-1.52-.17-1.98-.52-.46-.35-.7-.87-.7-1.55v-3.8h2.24v3.7c0 .22.04.38.12.48.08.1.19.15.32.15s.24-.05.32-.15c.08-.1.12-.26.12-.47v-3.72h2.23v3.81zm2.52-3.8h2.23v4.18h2.05v1.54h-4.28zm6.52 0h4.28v1.48H87.5v.62h1.97v1.49H87.5v.64h2.2v1.5h-4.34zm6.22 0h2.27l.8 4.47.83-4.48h2.14l-1.57 5.73h-2.89z"/><path d="M132.29 81.07l-2.45 6.5c-.05.14-.09.23-.09.35 0 .1.05.2.17.2.4 0 1.1-.99 1.31-.99.1 0 .12.03.12.1 0 .18-1.55 1.84-2.2 1.84-.32 0-.38-.14-.38-.4 0-.22.02-.4.56-1.86l1.68-4.54c.25-.67.35-.96.35-1.15 0-.2-.14-.28-.31-.34-.13-.04-.28-.08-.28-.2 0-.07.05-.1.1-.1.5 0 .98-.08 1.48-.08.11 0 .14.06.14.14 0 .07-.12.33-.2.52zm-3.55 3.25L127.06 88c-.03.07-.07.14-.07.21 0 .08.05.1.14.1.45 0 1.29-1.2 1.43-1.2.1 0 .12.03.12.12 0 .2-1.6 1.83-2.26 1.83-.22 0-.31-.07-.31-.23 0-.44.64-1.65.81-2l-.02-.02-.57.62c-.65.7-1.73 1.63-2.49 1.63-.48 0-.57-.45-.57-.73 0-1.56 2.35-3.86 3.85-3.86.2 0 .41.06.51.06.13 0 .25-.07.34-.25.14-.28.22-.37.55-.37.22 0 .3.05.3.18a.76.76 0 0 1-.08.23zm-1.65.46c-1.14 0-3.05 2.04-3.05 3.13 0 .2.13.38.43.38.88 0 3.1-2.28 3.1-3.13 0-.22-.12-.38-.48-.38zm-3.47-.38h-1l-1.2 3.16c-.03.11-.12.3-.12.38 0 .08.02.12.11.12.57 0 1.24-1.14 1.38-1.14.07 0 .1.04.1.1 0 .43-1.67 2.02-2.29 2.02-.14 0-.27-.08-.27-.22 0-.2.1-.37.15-.53l1.4-3.9h-.69c-.15 0-.2-.03-.2-.2s.07-.2.22-.2h.81l.45-1.2c.03-.07.12-.12.34-.12.24 0 .32.06.32.14a.84.84 0 0 1-.05.24l-.35.93h.93c.14 0 .16.08.16.2 0 .18-.03.21-.2.21zm-4.01.37l-1.42 2.94c-.08.17-.18.32-.18.44 0 .08 0 .15.14.15.1 0 .26-.1.6-.32.38-.26.52-.41.6-.41.07 0 .09.05.09.13 0 .15-1.34 1.35-2.1 1.35-.23 0-.38-.08-.38-.28a.72.72 0 0 1 .1-.31l1.48-3c.14-.3.25-.54.25-.7 0-.1-.06-.13-.11-.13-.2 0-.88.68-1.06.68-.08 0-.1-.04-.1-.12 0-.1.11-.15.21-.26.16-.15 1.21-1.13 1.78-1.13.2 0 .27.22.27.35a2 2 0 0 1-.17.62zm-.07-2.75a.55.55 0 0 1-.51-.52c0-.25.24-.51.51-.51s.52.26.52.51a.55.55 0 0 1-.52.52zm-2.27 2.6h-.97c.03.16.06.34.06.63 0 .46-.13.83-.4 1.21-.8 1.17-2.18.87-2.18 1.28 0 .38.22.4.93.8.62.34 1.54.76 1.54 1.83 0 .74-.86 1.32-2.17 1.32-1.5 0-2.21-.68-2.21-1.39 0-.6.74-1.23 1.88-1.53-.24-.13-.75-.48-.75-.86 0-.22.6-.37.74-.51-.34-.4-.59-.84-.59-1.4 0-1.15 1-2.23 1.94-2.23.36 0 .58.13.79.24.22.13.4.26.7.26h.7c.08 0 .1.03.1.18s-.03.16-.1.16zm-3.33 4.33c-.11 0-1.35.5-1.35 1.33 0 1.03 1.08 1.13 1.5 1.13 1.3 0 1.6-.57 1.6-.96 0-.7-1.68-1.5-1.75-1.5zm1.24-4.94c-.93 0-1.38 1.92-1.38 2.46 0 .43.14.76.45.76.69 0 1.54-1 1.54-2.3 0-.38-.07-.92-.6-.92zm-3 .76l-1.42 2.94c-.08.16-.18.32-.18.44 0 .07 0 .15.14.15.1 0 .25-.1.59-.32.39-.26.53-.41.6-.41.08 0 .1.05.1.13 0 .15-1.34 1.35-2.1 1.35-.24 0-.38-.08-.38-.28 0-.1.04-.21.09-.32l1.48-3c.15-.3.26-.53.26-.7 0-.1-.06-.13-.11-.13-.2 0-.88.69-1.06.69-.08 0-.1-.04-.1-.12 0-.1.11-.16.22-.26.15-.15 1.2-1.13 1.77-1.13.2 0 .27.21.27.34 0 .17-.1.48-.18.62zm-.07-2.75a.55.55 0 0 1-.51-.52c0-.26.24-.51.51-.51s.52.25.52.51a.55.55 0 0 1-.52.52zm-8.33 6.91c-.5 0-1-.07-1.51-.07-.56 0-.87.07-1.06.07-.32 0-.4-.02-.4-.18 0-.23.3-.17.53-.23.33-.09.44-.2.47-.49a33.5 33.5 0 0 1 1.35-6.18 1 1 0 0 0 .05-.28c0-.17-.27-.2-.53-.22-.24-.03-.48-.06-.48-.21 0-.13.1-.2.18-.2.21 0 .37.07 1.15.07.8 0 1.59-.07 2.4-.07 2.73 0 3.8 1.57 3.8 3.14 0 2.95-2.83 4.85-5.95 4.85zm1.1-7.58c-.56 0-.63.07-.8.76-.47 1.93-1 4.02-1.15 5.68l-.03.42c0 .25.22.31.76.31 3.76 0 4.88-2.91 4.88-4.3 0-2.07-1.38-2.87-3.67-2.87zM14.32 18.14c-1.45 0-.63-2.22-1.35-2.22-1.98 0-9.22 14.67-9.99 16.16-.14.3-.38.44-.82.44-.34 0-1.06-.1-1.06-.77 0-.2.1-.53.2-.92l3.42-12.35c.1-.34.24-.72.24-1.01 0-.39-.1-.73-.58-.73-1.1 0-3.37 4.3-4 4.3-.3 0-.39-.3-.39-.53 0-.68 4.83-7.48 6.8-7.48 1.02 0 1.21.63 1.16 1.54-.04 2.08-1.01 5.75-1.54 7.53-.29 1.01-.77 2.17-.77 2.32s0 .19.05.19c.1 0 .2-.2.24-.29 1.4-2.32 5.54-11.29 8.39-11.29 1.64 0 1.83.72 1.83 2.31 0 1.11-.2 2.8-1.83 2.8zm48.16 14.67c-3.18 0-3.86-3.77-3.86-6.52 0-7.67 5.8-13.26 9.66-13.26 2.8 0 4.05 2.9 4.05 6.9 0 6.03-4.83 12.88-9.85 12.88zm5.94-18.82c-4.34 0-7.77 12.2-7.77 15.54 0 .91.3 2.31 2.03 2.31 3.77 0 7.62-11.96 7.62-14.95 0-1.26-.43-2.9-1.88-2.9zm-49.3 10.23a6.58 6.58 0 0 0-.4 2.27c0 2.7 1.02 3.42 2.85 3.42 2.75 0 5.07-3.86 5.45-3.86.3 0 .4.15.4.44 0 .43-3.53 6.32-7.34 6.32-2.9 0-4.06-2.51-4.06-5.6 0-6.42 5.7-14.19 10.08-14.19 2.08 0 2.9 1.98 2.9 3.62 0 1.74-1.78 6.23-9.89 7.58zm6.75-10.32c-1.2 0-4.73 2.55-6.47 9.26 6.04-1.79 7.96-5.5 7.96-7.48 0-.87-.29-1.78-1.5-1.78zm11.93-.36c-3.49 0-5.19 7.23-5.19 9.26 0 1.6.53 2.86 1.7 2.86 2.57 0 5.77-3.78 5.77-8.63 0-1.45-.24-3.49-2.28-3.49zM33.15 32.1c-.43 0-5.09 1.9-5.09 5 0 3.88 4.08 4.27 5.63 4.27 4.9 0 6-2.13 6-3.63 0-2.62-6.29-5.63-6.53-5.63zm12.52-16.28h-3.64c.1.63.2 1.31.2 2.37 0 1.75-.5 3.16-1.46 4.56-3.05 4.41-8.24 3.3-8.24 4.8 0 1.45.82 1.5 3.49 3 2.32 1.31 5.81 2.87 5.81 6.9 0 2.8-3.25 4.98-8.14 4.98-5.63 0-8.34-2.56-8.34-5.23 0-2.23 2.8-4.6 7.08-5.77-.88-.48-2.8-1.8-2.8-3.2 0-.82 2.27-1.4 2.76-1.94-1.26-1.5-2.19-3.15-2.19-5.23 0-4.31 3.73-8.39 7.27-8.39 1.36 0 2.18.49 2.96.92.83.49 1.55.97 2.67.97h2.57c.34 0 .43.1.43.69 0 .53-.14.57-.43.57zM56 6.08a2.05 2.05 0 0 1-1.94-1.94c0-.97.92-1.94 1.94-1.94 1.01 0 1.94.97 1.94 1.94S57 6.08 56 6.08zm.24 10.32L50.9 27.46c-.28.63-.67 1.2-.67 1.64 0 .3.04.58.53.58.39 0 .97-.38 2.23-1.2 1.45-.98 1.98-1.55 2.28-1.55.29 0 .34.19.34.48 0 .58-5.04 5.09-7.9 5.09-.88 0-1.41-.3-1.41-1.07 0-.39.14-.78.34-1.16l5.58-11.3c.53-1.11.97-1.99.97-2.61 0-.4-.24-.49-.44-.49-.73 0-3.3 2.57-3.98 2.57-.28 0-.38-.14-.38-.44 0-.39.44-.58.82-.97.58-.58 4.56-4.26 6.69-4.26.73 0 1.02.82 1.02 1.3 0 .64-.44 1.8-.68 2.33zm35.97 3.1l-4.3 8.87c-.18.38-.43.72-.43.96 0 .39.24.58.53.58 1.21 0 3.77-3.14 4.1-3.14.3 0 .44.2.44.4 0 1-4.15 5.35-7.43 5.35-.87 0-1.2-.3-1.2-.83 0-.48.33-1.3.67-2.07l5.5-11.72a4.4 4.4 0 0 0 .48-1.93c0-.77-.43-1.3-1.1-1.3-1.74 0-3.43 1.97-8.98 10.94a40.46 40.46 0 0 0-2.8 5.21c-.48 1.07-.82 1.7-1.59 1.7-.82 0-1.15-.3-1.15-.88 0-.43.34-1.2.48-1.59L80 17.8c.24-.68.48-1.3.48-1.64 0-.39-.29-.63-.72-.63-1.25 0-3.52 3.57-4 3.57a.38.38 0 0 1-.39-.38c0-.54.58-1.11.87-1.55.67-.96 3.52-4.15 5.4-4.15 1.16 0 1.5.72 1.5 2.03 0 1.88-2.9 8-2.9 8.54 0 .1.05.24.1.24.14 0 .34-.29.58-.68.87-1.4 5.11-10.13 9.6-10.13 1.83 0 2.94.97 2.94 2.66 0 1.2-.72 2.7-1.25 3.8zm36.3-16.97L119.26 27c-.2.53-.34.87-.34 1.3 0 .4.2.73.63.73 1.51 0 4.13-3.69 4.96-3.69.34 0 .43.1.43.34 0 .73-5.82 6.94-8.3 6.94-1.17 0-1.41-.53-1.41-1.5 0-.82.1-1.46 2.14-7l6.31-17.09c.92-2.52 1.31-3.6 1.31-4.32 0-.73-.53-1.07-1.17-1.27-.47-.14-1.06-.34-1.06-.78 0-.24.2-.38.4-.38 1.83 0 3.68-.3 5.53-.3.43 0 .53.25.53.54 0 .3-.44 1.26-.72 2zm-15.85 12.24l-4.39 13.84c-.1.29-.22.53-.18.82.04.3.24.35.58.35 1.7 0 4.24-4.47 4.77-4.47.35 0 .46.1.5.44.1.73-5.02 6.89-7.54 6.89-.83 0-1.21-.3-1.3-.87-.22-1.65 1.58-6.22 2.03-7.53l-.11-.1-1.81 2.33c-2.06 2.67-5.66 6.17-8.53 6.17-1.8 0-2.37-1.7-2.52-2.77-.81-5.88 6.83-14.53 12.46-14.53.78 0 1.58.2 1.97.2.5 0 .9-.24 1.14-.92.38-1.07.63-1.41 1.89-1.41.82 0 1.15.2 1.21.68.02.15-.03.48-.17.88zm-5.97 1.74c-4.28 0-10.4 7.68-9.84 11.76.1.78.7 1.46 1.8 1.46 3.31 0 10.47-8.6 10.03-11.8-.11-.83-.63-1.42-2-1.42zm20.07 43.58c-1.16.15-2.22.2-3 .15-.24 0-.33.2-.33.33 0 .25.14.49.38.83.82 1.1 3.19 6.7 5.8 6.7 1.3 0 2.4-.43 2.4-1.59 0-.82-.62-.97-1.2-.97-.63 0-1.26-.05-1.26-.62 0-.44.58-.73 1.3-.73 1.26 0 2.32 1.21 2.32 2.18 0 1.59-1.69 2.8-3.76 2.8-4.78 0-6.27-4.4-8.35-7.82-.14-.24-.29-.53-.48-.53s-.24.2-.34.43l-2.74 6.7c-.4.92-1.07.92-1.45.92-.53 0-.97-.14-.97-.58 0-.48.34-1.2.53-1.73l9.17-25.28c.34-.92.48-1.5.48-1.98 0-1.25-2.08-1.4-2.08-2.07 0-.39.3-.58 1.02-.58 1.16 0 3.47-.3 4.34-.3.72 0 .82.2.82.4-.1.48-4.58 11-5.84 15.53-.24.87-.58 1.2-.58 1.54 0 .2 0 .44.2.44.14 0 2.7-4.88 7-4.88 2.6 0 4.43 1.6 4.43 4 0 2.22-2.07 5.99-7.81 6.7zm4.96-8.78c-3.47 0-10.22 4.83-10.22 6.8 0 .83.82 1.36 1.45 1.36 2.9 0 10.66-3.96 10.66-6.8 0-1.07-.97-1.36-1.89-1.36zm-16.3 3.19c-1.45 0-.63-2.22-1.35-2.22-1.98 0-9.22 14.66-9.99 16.16-.14.29-.38.43-.82.43-.34 0-1.06-.1-1.06-.77 0-.2.1-.53.2-.92l3.42-12.35c.1-.33.24-.72.24-1 0-.4-.1-.73-.58-.73-1.1 0-3.37 4.29-4 4.29-.3 0-.39-.29-.39-.53 0-.67 4.82-7.48 6.8-7.48 1.01 0 1.2.63 1.16 1.55-.05 2.07-1.02 5.74-1.55 7.52-.28 1.02-.77 2.17-.77 2.32 0 .14 0 .2.05.2.1 0 .2-.2.24-.3 1.4-2.32 5.55-11.29 8.4-11.29 1.64 0 1.83.73 1.83 2.32 0 1.1-.2 2.8-1.83 2.8zM89.07 69.17c-3.18 0-3.85-3.77-3.85-6.52 0-7.67 5.79-13.26 9.65-13.26 2.8 0 4.05 2.9 4.05 6.9 0 6.03-4.83 12.88-9.85 12.88zm5.94-18.82c-4.34 0-7.77 12.2-7.77 15.53 0 .92.29 2.32 2.03 2.32 3.76 0 7.62-11.97 7.62-14.96 0-1.25-.43-2.9-1.88-2.9zM70.74 69.17c-2.08 0-2.7-1.74-2.7-3.14 0-1.84.77-3.57.96-4.24l-.1-.1c-2.02 2.84-6.07 7.48-9.16 7.48-.87 0-2.36-1.45-2.36-3.82a9 9 0 0 1 .72-2.94l2.9-7c.33-.82.57-1.5.57-2.12 0-.39-.14-.82-.58-.82-2.4 0-4.77 4.92-5.45 4.92-.34 0-.43-.1-.43-.38 0-.87 5.74-7.63 8.3-7.63 1.3 0 1.73.73 1.73 1.6 0 .91-.43 1.88-.72 2.6l-3.67 9.84a3.92 3.92 0 0 0-.29 1.5c0 1.16.92 1.35 1.5 1.35 2.65 0 6.03-4.4 8-8.15a62.28 62.28 0 0 0 3.24-7.53c.29-.82.48-1.01 1.6-1.01.81 0 1.05.24 1.05.53 0 1.3-4.72 10.18-4.72 14.38 0 1.73.67 2.07 1.64 2.07 2.8 0 9.36-8.1 9.36-11.77 0-1.6-.34-2.6-.34-3.57 0-1.25.53-2.12 1.2-2.12.87 0 1.26.91 1.26 2.5 0 7-9.89 17.56-13.5 17.56zM54.72 51.7h-3.76l-4.44 11.82c-.15.43-.48 1.1-.48 1.44 0 .3.1.44.43.44 2.12 0 4.63-4.25 5.16-4.25.24 0 .39.15.39.39 0 1.59-6.27 7.53-8.59 7.53-.53 0-1.01-.3-1.01-.82 0-.73.38-1.4.58-1.98l5.2-14.57h-2.55c-.58 0-.77-.15-.77-.77 0-.63.29-.78.82-.78h3.03l1.7-4.43c.09-.3.43-.49 1.25-.49.91 0 1.2.25 1.2.53s-.1.63-.19.92l-1.3 3.47h3.47c.53 0 .63.3.63.77 0 .63-.14.77-.77.77zm-22.91 8.87a6.58 6.58 0 0 0-.4 2.28c0 2.7 1.02 3.42 2.85 3.42 2.75 0 5.07-3.86 5.46-3.86.29 0 .38.14.38.43 0 .44-3.52 6.32-7.33 6.32-2.9 0-4.05-2.5-4.05-5.6 0-6.41 5.69-14.18 10.08-14.18 2.07 0 2.9 1.98 2.9 3.62 0 1.74-1.79 6.22-9.9 7.57zm6.75-10.32c-1.2 0-4.73 2.56-6.47 9.26 6.04-1.78 7.96-5.5 7.96-7.47 0-.87-.28-1.79-1.5-1.79zm-12.8 5.6l-4.28 8.87c-.2.4-.44.73-.44.97 0 .39.24.58.53.58 1.2 0 3.77-3.14 4.1-3.14.3 0 .44.2.44.4 0 1-4.15 5.35-7.43 5.35-.87 0-1.21-.3-1.21-.83 0-.48.34-1.3.68-2.07l5.5-11.72c.38-.82.48-1.45.48-1.93 0-.77-.44-1.3-1.11-1.3-1.74 0-3.43 1.97-8.97 10.95a39.61 39.61 0 0 0-2.8 5.2c-.49 1.07-.83 1.7-1.6 1.7-.82 0-1.15-.3-1.15-.87 0-.44.33-1.2.48-1.6l4.58-12.25c.24-.67.48-1.3.48-1.64 0-.39-.29-.63-.72-.63-1.26 0-3.52 3.57-4 3.57a.38.38 0 0 1-.39-.38c0-.53.58-1.11.87-1.55.67-.96 3.52-4.15 5.4-4.15 1.16 0 1.5.73 1.5 2.03 0 1.88-2.9 8-2.9 8.54 0 .1.05.24.1.24.14 0 .34-.29.58-.67.87-1.4 5.11-10.13 9.6-10.13 1.83 0 2.94.96 2.94 2.65 0 1.2-.72 2.7-1.25 3.81z" fill="#455560"/></svg>