<svg xmlns="http://www.w3.org/2000/svg" viewBox="0 0 134.568 91.697"><path fill="#4d75a0" d="M3.636 86.67h-.95v2.11H.46v-5.728h2.226v1.936h.95v-1.936h2.227v5.73H3.636zm4.79-3.618H12.7v1.492h-2.14v.612h1.976v1.49H10.56v.64h2.213v1.495H8.425zm7.93 0h2.89l1.807 5.73h-2.307l-.217-.923h-1.615l-.225.92h-2.134l1.8-5.73zm1.846 3.412l-.443-2.158-.51 2.158h.95zm7.234-1.024c.23 0 .41-.046.543-.134.13-.092.196-.238.196-.445 0-.197-.06-.334-.18-.4-.12-.07-.3-.105-.545-.105h-.2v1.086h.185zm-2.366-2.39h3.325c.634 0 1.11.11 1.434.332.32.225.48.598.48 1.12 0 .35-.085.64-.257.868-.17.23-.457.396-.857.496.525.062.82.23.89.496.066.266.13.652.19 1.158.06.504.14.924.236 1.258h-2.18a5.702 5.702 0 0 1-.145-.723l-.137-.904c-.04-.274-.222-.413-.544-.413h-.257v2.04h-2.184V83.05h.002zm10.577 1.63c0-.177-.043-.298-.13-.37a.558.558 0 0 0-.36-.107c-.172 0-.302.03-.386.092a.28.28 0 0 0-.127.24c0 .096.03.172.09.227.06.057.206.117.44.18.233.064.498.133.793.21.297.077.595.18.896.31.302.13.536.32.702.576.165.252.25.555.25.902 0 .678-.242 1.178-.725 1.504-.484.326-1.147.488-1.988.488-.768 0-1.394-.148-1.877-.44-.483-.294-.725-.786-.725-1.48h2.143a.72.72 0 0 0 .13.447c.084.11.226.17.424.17a.56.56 0 0 0 .39-.135.44.44 0 0 0 .148-.336.312.312 0 0 0-.106-.24.643.643 0 0 0-.27-.15l-1.586-.474c-.41-.127-.71-.318-.892-.574-.187-.256-.278-.576-.278-.955 0-.6.225-1.06.674-1.383.448-.322 1.086-.482 1.912-.482.76 0 1.356.14 1.795.416.44.278.66.73.66 1.36h-1.993zm5.498-.09H37.76v-1.538h5v1.54h-1.387v4.19h-2.228zm11.45.09c0-.177-.043-.298-.13-.37a.556.556 0 0 0-.36-.107c-.172 0-.3.03-.386.092a.28.28 0 0 0-.13.24c0 .096.03.172.09.227.06.057.205.117.437.18.235.064.5.133.795.21.297.077.595.18.896.31.3.13.533.32.7.576a1.6 1.6 0 0 1 .25.902c0 .678-.242 1.178-.725 1.504-.483.326-1.146.488-1.987.488-.768 0-1.394-.148-1.877-.44-.48-.294-.724-.786-.724-1.48h2.142a.72.72 0 0 0 .128.447c.085.11.227.17.425.17a.56.56 0 0 0 .39-.135.438.438 0 0 0 .148-.336.315.315 0 0 0-.105-.24.64.64 0 0 0-.27-.15l-1.586-.474c-.412-.127-.71-.318-.894-.574-.187-.256-.277-.576-.277-.955 0-.6.223-1.06.67-1.383.45-.322 1.09-.482 1.915-.482.76 0 1.356.14 1.795.416.438.278.658.73.658 1.36H50.59zm7.665 1.99h-.95v2.11h-2.23v-5.728h2.23v1.936h.95v-1.936h2.227v5.73H58.26zm4.79-3.618h2.18v2.46l1.16-2.46h2.352l-1.502 2.696 1.713 3.033h-2.415l-1.293-2.57-.015 2.57h-2.18zm13.27 3.808c0 .687-.228 1.204-.684 1.552-.456.346-1.12.52-1.986.52-.863 0-1.522-.176-1.983-.525-.458-.348-.688-.863-.688-1.545v-3.81h2.227v3.714c0 .21.04.37.124.473.085.1.19.152.32.152s.236-.05.32-.152c.083-.1.124-.257.124-.474v-3.713h2.227v3.808zm2.524-3.808h2.23v4.188h2.048v1.54h-4.278zm6.52 0h4.275v1.492h-2.143v.612h1.978v1.49h-1.978v.64h2.212v1.495h-4.346zm6.216 0h2.266l.795 4.475.843-4.475h2.134l-1.572 5.73H93.16z"/><g fill="#455560"><path d="M132.29 81.066l-2.45 6.502c-.053.143-.09.234-.09.348 0 .104.05.195.166.195.4 0 1.098-.98 1.317-.98.09 0 .114.027.114.094 0 .19-1.547 1.842-2.205 1.842-.31 0-.375-.14-.375-.398 0-.22.027-.39.568-1.86l1.678-4.54c.244-.67.347-.955.347-1.148 0-.194-.14-.282-.31-.337-.127-.04-.283-.088-.283-.205 0-.064.05-.104.104-.104.49 0 .98-.078 1.474-.078.115 0 .142.064.142.143 0 .072-.117.33-.194.525zm-3.548 3.252l-1.677 3.678c-.038.074-.077.14-.077.217 0 .078.053.092.142.092.45 0 1.29-1.188 1.432-1.188.09 0 .117.025.117.115 0 .193-1.59 1.832-2.26 1.832-.22 0-.31-.078-.31-.23 0-.44.645-1.654.812-2l-.025-.027-.566.62c-.645.71-1.73 1.638-2.49 1.638-.48 0-.57-.45-.57-.734 0-1.56 2.35-3.857 3.847-3.857.206 0 .413.053.518.053.13 0 .244-.064.335-.246.142-.282.22-.374.555-.374.22 0 .298.05.298.18a.76.76 0 0 1-.08.232zm-1.652.463c-1.136 0-3.045 2.04-3.045 3.125 0 .207.13.387.427.387.878 0 3.096-2.282 3.096-3.134.002-.22-.116-.375-.478-.375zm-3.47-.385h-1.007l-1.187 3.16c-.04.117-.13.297-.13.387 0 .08.025.12.117.12.566 0 1.237-1.14 1.38-1.14.064 0 .103.042.103.106 0 .424-1.678 2.012-2.296 2.012-.143 0-.27-.076-.27-.22 0-.192.103-.372.154-.528l1.394-3.896h-.685c-.153 0-.206-.04-.206-.207s.077-.206.22-.206h.813l.45-1.188c.027-.078.116-.13.336-.13.245 0 .322.065.322.144a.838.838 0 0 1-.05.242l-.35.932h.93c.143 0 .166.078.166.205.002.167-.037.206-.204.206zm-4.012.375l-1.42 2.94c-.078.166-.18.322-.18.438 0 .078.01.156.142.156.103 0 .258-.104.593-.324.387-.256.53-.412.607-.412.075 0 .09.05.09.13 0 .153-1.342 1.354-2.104 1.354-.23 0-.373-.078-.373-.283a.72.72 0 0 1 .09-.313l1.483-3.006c.14-.296.256-.53.256-.696.002-.104-.062-.127-.115-.127-.192 0-.876.682-1.058.682-.078 0-.105-.038-.105-.118 0-.102.117-.154.218-.258.155-.154 1.213-1.133 1.782-1.133.193 0 .27.218.27.347 0 .17-.114.48-.178.62zm-.065-2.75a.545.545 0 0 1-.516-.517c0-.258.244-.516.516-.516.27 0 .516.258.516.516a.545.545 0 0 1-.518.516zm-2.27 2.593h-.97c.026.168.052.35.052.633 0 .465-.13.838-.387 1.213-.812 1.172-2.193.875-2.193 1.277 0 .385.22.398.93.797.62.35 1.548.762 1.548 1.834 0 .745-.864 1.327-2.17 1.327-1.495 0-2.217-.684-2.217-1.395 0-.592.747-1.225 1.883-1.533-.235-.13-.75-.48-.75-.855 0-.22.607-.373.736-.516-.336-.4-.582-.84-.582-1.394 0-1.148.995-2.232 1.936-2.232.363 0 .583.13.79.244.218.13.41.258.708.258h.685c.09 0 .114.027.114.182 0 .143-.037.155-.115.155zm-3.33 4.336c-.117 0-1.356.5-1.356 1.326 0 1.033 1.084 1.137 1.497 1.137 1.305 0 1.6-.568 1.6-.967 0-.7-1.677-1.498-1.742-1.498zm1.238-4.944c-.927 0-1.38 1.924-1.38 2.465 0 .427.143.76.453.76.683 0 1.535-1.005 1.535-2.296 0-.387-.064-.928-.606-.928zm-3.005.762l-1.418 2.94c-.077.166-.182.322-.182.438 0 .078.013.156.142.156.104 0 .257-.104.592-.324.39-.256.53-.412.607-.412.078 0 .09.05.09.13 0 .153-1.34 1.354-2.103 1.354-.23 0-.374-.078-.374-.283 0-.105.037-.208.09-.312l1.483-3.006c.142-.298.258-.53.258-.698 0-.104-.062-.127-.114-.127-.193 0-.876.682-1.058.682-.078 0-.104-.037-.104-.117 0-.102.117-.154.222-.258.153-.154 1.212-1.133 1.778-1.133.193 0 .27.216.27.345.002.17-.114.48-.18.62zm-.064-2.75a.545.545 0 0 1-.515-.517c0-.257.245-.515.516-.515.27 0 .517.258.517.516a.545.545 0 0 1-.516.517zm-8.334 6.915c-.503 0-1.007-.076-1.51-.076-.557 0-.864.075-1.06.075-.32 0-.397-.025-.397-.18 0-.232.295-.168.527-.232.336-.09.438-.205.477-.49.335-2.48.773-4.488 1.342-6.18a1 1 0 0 0 .052-.285c0-.166-.27-.193-.527-.217-.244-.026-.48-.054-.48-.208 0-.127.095-.205.18-.205.21 0 .366.078 1.15.078.8 0 1.587-.078 2.39-.078 2.733 0 3.806 1.574 3.806 3.146-.002 2.945-2.828 4.853-5.95 4.853zm1.095-7.584c-.553 0-.62.074-.786.76-.476 1.936-1.006 4.025-1.16 5.68-.012.14-.026.293-.026.422 0 .246.22.31.76.31 3.756 0 4.878-2.913 4.878-4.296 0-2.077-1.38-2.876-3.665-2.876zM14.33 18.14c-1.447 0-.628-2.22-1.35-2.22-1.977 0-9.215 14.666-9.986 16.162-.146.29-.386.435-.82.435-.34 0-1.06-.098-1.06-.77 0-.196.095-.532.19-.92l3.43-12.347c.095-.34.24-.723.24-1.014 0-.386-.097-.725-.58-.725-1.11 0-3.378 4.296-4.005 4.296-.29 0-.388-.288-.388-.53 0-.675 4.828-7.478 6.804-7.478 1.014 0 1.205.627 1.157 1.544-.046 2.076-1.013 5.743-1.543 7.526-.288 1.014-.77 2.173-.77 2.317s0 .194.05.194c.096 0 .192-.195.24-.29 1.396-2.32 5.544-11.29 8.39-11.29 1.64 0 1.835.722 1.835 2.314 0 1.108-.196 2.796-1.836 2.796zm48.165 14.668c-3.18 0-3.86-3.763-3.86-6.513 0-7.672 5.793-13.267 9.652-13.267 2.798 0 4.053 2.896 4.053 6.9-.002 6.03-4.826 12.88-9.845 12.88zM68.43 13.99c-4.343 0-7.767 12.207-7.767 15.536 0 .917.29 2.317 2.027 2.317 3.765 0 7.622-11.966 7.622-14.956.002-1.256-.433-2.896-1.88-2.896zM19.126 24.218c-.29.723-.387 1.64-.387 2.27 0 2.7 1.012 3.424 2.844 3.424 2.75 0 5.065-3.862 5.45-3.862.292 0 .388.147.388.437 0 .434-3.52 6.32-7.333 6.32-2.897 0-4.054-2.51-4.054-5.598 0-6.418 5.693-14.185 10.08-14.185 2.076 0 2.898 1.978 2.898 3.62.002 1.736-1.784 6.223-9.89 7.572zm6.752-10.323c-1.205 0-4.725 2.558-6.465 9.262 6.032-1.784 7.96-5.5 7.96-7.477 0-.868-.29-1.785-1.495-1.785zm11.932-.35c-3.488 0-5.188 7.22-5.188 9.257 0 1.6.53 2.858 1.7 2.858 2.563 0 5.77-3.784 5.77-8.63-.002-1.45-.244-3.486-2.283-3.486zm-4.657 18.56c-.434 0-5.092 1.89-5.092 4.996.003 3.88 4.077 4.27 5.627 4.27 4.896 0 6.01-2.134 6.01-3.635 0-2.62-6.297-5.628-6.543-5.628zM45.667 15.82h-3.64c.096.63.194 1.31.194 2.374 0 1.746-.486 3.152-1.455 4.56-3.05 4.408-8.24 3.295-8.24 4.8 0 1.45.828 1.503 3.492 3.004 2.324 1.307 5.816 2.86 5.816 6.884 0 2.81-3.25 4.993-8.146 4.993-5.624 0-8.336-2.566-8.336-5.24 0-2.226 2.807-4.6 7.074-5.764-.872-.483-2.804-1.792-2.804-3.2 0-.825 2.278-1.405 2.763-1.938-1.26-1.5-2.185-3.15-2.185-5.232 0-4.314 3.733-8.387 7.273-8.387 1.36 0 2.18.486 2.96.92.825.485 1.546.97 2.663.97h2.576c.337 0 .427.097.427.682-.002.533-.14.577-.43.577zm10.33-9.742c-1.02 0-1.94-.97-1.94-1.94 0-.968.92-1.94 1.94-1.94 1.016 0 1.94.972 1.94 1.94.002.97-.926 1.94-1.94 1.94zm.243 10.325l-5.337 11.054c-.288.63-.677 1.212-.677 1.647 0 .29.045.58.533.58.387 0 .967-.382 2.23-1.21 1.452-.97 1.985-1.548 2.277-1.548.293 0 .34.19.34.48 0 .58-5.04 5.092-7.9 5.092-.872 0-1.406-.29-1.406-1.065 0-.39.144-.78.34-1.163l5.575-11.297c.53-1.115.97-1.988.97-2.615 0-.39-.24-.485-.44-.485-.722 0-3.29 2.566-3.972 2.566-.287 0-.384-.143-.384-.44 0-.386.436-.578.82-.97.583-.58 4.556-4.262 6.69-4.262.727 0 1.02.82 1.02 1.306-.004.633-.44 1.795-.68 2.327zm35.973 3.09l-4.294 8.874c-.194.387-.436.723-.436.966 0 .387.242.58.53.58 1.207 0 3.764-3.138 4.102-3.138.288 0 .434.195.434.39 0 1.01-4.15 5.354-7.43 5.354-.868 0-1.205-.293-1.205-.824 0-.48.338-1.3.675-2.072l5.5-11.725c.387-.82.483-1.447.483-1.93 0-.77-.437-1.3-1.11-1.3-1.736 0-3.424 1.976-8.972 10.947-1.012 1.643-1.88 3.137-2.796 5.21-.482 1.063-.82 1.69-1.592 1.69-.82 0-1.157-.29-1.157-.87 0-.434.34-1.205.482-1.59l4.584-12.255c.243-.675.483-1.302.483-1.64 0-.387-.29-.627-.725-.627-1.254 0-3.52 3.57-4.005 3.57a.38.38 0 0 1-.384-.387c0-.532.577-1.11.866-1.545.675-.965 3.52-4.15 5.405-4.15 1.16 0 1.497.724 1.497 2.028 0 1.88-2.894 8.007-2.894 8.538 0 .098.047.243.093.243.147 0 .34-.29.58-.676.87-1.398 5.116-10.13 9.6-10.13 1.833 0 2.945.966 2.945 2.655-.002 1.206-.725 2.7-1.256 3.81zm36.29-16.966l-9.23 24.482c-.195.53-.34.873-.34 1.305 0 .39.194.73.625.73 1.512 0 4.134-3.692 4.962-3.692.342 0 .432.098.432.342 0 .726-5.825 6.94-8.302 6.94-1.167 0-1.41-.53-1.41-1.5 0-.826.1-1.463 2.138-6.998l6.317-17.096c.92-2.524 1.31-3.594 1.31-4.323 0-.728-.534-1.067-1.17-1.262-.476-.147-1.064-.34-1.064-.78 0-.242.194-.388.394-.388 1.84.003 3.684-.288 5.532-.288.435 0 .536.244.536.533 0 .29-.442 1.262-.728 1.993zm-15.84 12.243l-4.393 13.843c-.107.284-.22.53-.182.818.04.298.245.346.582.346 1.697 0 4.24-4.467 4.774-4.467.344 0 .455.097.5.436.102.73-5.022 6.894-7.545 6.894-.83 0-1.213-.292-1.29-.87-.23-1.65 1.567-6.222 2.02-7.533l-.11-.098-1.813 2.33c-2.06 2.67-5.657 6.166-8.522 6.166-1.8 0-2.375-1.698-2.524-2.767-.814-5.878 6.83-14.524 12.463-14.524.78 0 1.58.195 1.972.195.486 0 .89-.24 1.137-.922.383-1.066.624-1.41 1.886-1.41.826 0 1.148.194 1.214.682.02.146-.033.484-.172.877zm-5.974 1.744c-4.278 0-10.406 7.675-9.84 11.754.11.78.695 1.46 1.81 1.46 3.305 0 10.466-8.597 10.022-11.804-.114-.828-.635-1.41-1.994-1.41zM126.757 60.093c-1.157.144-2.22.194-2.993.144-.24 0-.338.194-.338.338 0 .24.147.483.387.82.82 1.11 3.184 6.708 5.79 6.708 1.303 0 2.41-.435 2.41-1.593 0-.82-.627-.966-1.205-.966-.627 0-1.256-.05-1.256-.627 0-.434.58-.723 1.302-.723 1.254 0 2.317 1.208 2.317 2.173 0 1.592-1.687 2.798-3.763 2.798-4.776 0-6.27-4.39-8.345-7.817-.143-.242-.29-.53-.48-.53-.193 0-.242.193-.34.436l-2.747 6.705c-.387.915-1.062.915-1.45.915-.53 0-.964-.144-.964-.58 0-.482.338-1.207.53-1.736l9.167-25.28c.338-.914.48-1.496.48-1.976 0-1.254-2.074-1.4-2.074-2.075 0-.385.29-.58 1.014-.58 1.157 0 3.472-.29 4.34-.29.724 0 .822.195.822.388-.097.48-4.583 11-5.84 15.534-.24.87-.577 1.205-.577 1.542 0 .194 0 .434.194.434.144 0 2.7-4.872 6.993-4.872 2.605 0 4.437 1.592 4.437 4.003.004 2.217-2.068 5.98-7.81 6.702zm4.968-8.78c-3.47 0-10.227 4.824-10.227 6.8 0 .822.822 1.353 1.45 1.353 2.893 0 10.66-3.957 10.66-6.803-.002-1.06-.965-1.35-1.883-1.35zm-16.307 3.184c-1.448 0-.627-2.22-1.35-2.22-1.976 0-9.214 14.666-9.987 16.162-.142.29-.384.433-.817.433-.34 0-1.06-.098-1.06-.77 0-.196.095-.532.19-.92l3.427-12.347c.095-.34.24-.723.24-1.014 0-.386-.097-.725-.582-.725-1.107 0-3.374 4.294-4.002 4.294-.29 0-.387-.287-.387-.53 0-.674 4.823-7.477 6.8-7.477 1.013 0 1.205.627 1.157 1.544-.048 2.075-1.016 5.742-1.545 7.525-.287 1.014-.77 2.173-.77 2.317 0 .143 0 .193.05.193.095 0 .193-.194.24-.29 1.397-2.317 5.546-11.288 8.394-11.288 1.64 0 1.834.723 1.834 2.315.002 1.11-.192 2.797-1.832 2.797zM89.074 69.165c-3.18 0-3.858-3.763-3.858-6.513 0-7.672 5.79-13.267 9.65-13.267 2.796 0 4.052 2.896 4.052 6.9 0 6.03-4.825 12.88-9.844 12.88zm5.934-18.817c-4.342 0-7.768 12.206-7.768 15.535 0 .917.29 2.317 2.027 2.317 3.765 0 7.624-11.966 7.624-14.956 0-1.256-.432-2.896-1.88-2.896zm-24.27 18.817c-2.074 0-2.703-1.737-2.703-3.137 0-1.834.774-3.57.966-4.243l-.093-.096c-2.03 2.843-6.08 7.476-9.168 7.476-.868 0-2.364-1.45-2.364-3.814 0-.77.29-1.832.723-2.944l2.895-6.994c.338-.82.58-1.496.58-2.123 0-.385-.146-.82-.58-.82-2.41 0-4.777 4.92-5.453 4.92-.337 0-.433-.094-.433-.384 0-.87 5.74-7.622 8.296-7.622 1.302 0 1.736.723 1.736 1.592 0 .917-.434 1.882-.723 2.605l-3.667 9.844a3.92 3.92 0 0 0-.29 1.494c0 1.158.92 1.352 1.497 1.352 2.654 0 6.032-4.393 8.008-8.155 1.208-2.266 2.606-5.693 3.233-7.525.29-.82.483-1.014 1.594-1.014.82 0 1.062.242 1.062.53 0 1.305-4.728 10.18-4.728 14.378 0 1.736.677 2.074 1.64 2.074 2.798 0 9.36-8.105 9.36-11.77 0-1.593-.34-2.604-.34-3.57 0-1.253.53-2.122 1.208-2.122.867 0 1.254.915 1.254 2.507 0 6.994-9.888 17.56-13.507 17.56zM54.72 51.698h-3.763l-4.44 11.82c-.144.434-.48 1.107-.48 1.445 0 .29.096.437.434.437 2.123 0 4.63-4.246 5.16-4.246.243 0 .387.144.387.384 0 1.592-6.272 7.528-8.588 7.528-.53 0-1.014-.29-1.014-.82 0-.726.387-1.4.58-1.977l5.21-14.573H45.65c-.58 0-.774-.144-.774-.77 0-.628.29-.772.822-.772h3.037l1.69-4.438c.095-.29.433-.482 1.253-.482.917 0 1.206.242 1.206.53s-.096.628-.194.918l-1.303 3.473h3.473c.53 0 .627.29.627.77.005.627-.14.77-.77.77zm-22.915 8.877c-.29.723-.387 1.64-.387 2.27 0 2.7 1.016 3.424 2.846 3.424 2.75 0 5.064-3.864 5.453-3.864.29 0 .387.147.387.437 0 .434-3.523 6.32-7.334 6.32-2.894 0-4.053-2.51-4.053-5.598 0-6.416 5.69-14.183 10.08-14.183 2.078 0 2.898 1.978 2.898 3.62 0 1.735-1.785 6.223-9.89 7.572zm6.753-10.323c-1.205 0-4.726 2.558-6.465 9.262 6.033-1.784 7.962-5.5 7.962-7.477 0-.868-.29-1.785-1.496-1.785zm-12.79 5.598l-4.29 8.874c-.195.387-.436.723-.436.966 0 .387.242.58.53.58 1.206 0 3.763-3.138 4.1-3.138.29 0 .434.195.434.39 0 1.01-4.15 5.354-7.43 5.354-.87 0-1.206-.29-1.206-.822 0-.48.338-1.3.675-2.072l5.5-11.724c.388-.82.484-1.446.484-1.93 0-.77-.44-1.3-1.114-1.3-1.734 0-3.424 1.977-8.97 10.948-1.017 1.643-1.884 3.137-2.798 5.21-.484 1.063-.823 1.69-1.594 1.69-.82 0-1.157-.29-1.157-.87 0-.434.337-1.205.48-1.59L13.56 54.16c.243-.673.483-1.3.483-1.64 0-.385-.29-.625-.723-.625-1.256 0-3.523 3.57-4.006 3.57a.38.38 0 0 1-.384-.387c0-.53.578-1.11.867-1.544.674-.965 3.523-4.15 5.405-4.15 1.158 0 1.496.724 1.496 2.028 0 1.88-2.893 8.007-2.893 8.538 0 .098.047.243.093.243.147 0 .34-.29.58-.676.868-1.398 5.114-10.13 9.6-10.13 1.835 0 2.945.966 2.945 2.655 0 1.204-.724 2.698-1.257 3.81z"/></g></svg>