<svg xmlns="http://www.w3.org/2000/svg" viewBox="0 0 116.087 115.542"><path fill="#F4731C" d="M0 115.542h116.087V0H0v115.542z"/><path fill="#FFF" d="M58.044 29.54c4.77 0 8.65 3.88 8.65 8.65 0 4.766-3.88 8.646-8.65 8.646-4.765 0-8.65-3.88-8.65-8.646 0-4.77 3.885-8.65 8.65-8.65zm0 29.535c11.524 0 20.892-9.368 20.892-20.885 0-11.522-9.368-20.894-20.892-20.894-11.52 0-20.89 9.372-20.89 20.894 0 11.517 9.37 20.885 20.89 20.885M66.497 76.117c4.252-.97 8.354-2.65 12.13-5.025 2.86-1.8 3.722-5.58 1.92-8.44-1.8-2.864-5.576-3.726-8.44-1.924-8.557 5.38-19.575 5.38-28.128 0-2.864-1.802-6.64-.94-8.438 1.925-1.802 2.86-.942 6.638 1.916 8.44 3.777 2.37 7.88 4.055 12.132 5.024l-11.68 11.68c-2.388 2.39-2.388 6.264.003 8.654 1.196 1.195 2.76 1.793 4.326 1.793 1.566 0 3.133-.598 4.33-1.792l11.472-11.476L69.524 96.45c2.388 2.39 6.262 2.39 8.652 0 2.393-2.39 2.393-6.265 0-8.654l-11.68-11.68"/></svg>