<svg xmlns="http://www.w3.org/2000/svg" viewBox="0 0 116.09 115.54"><path fill="#F4731C" d="M0 115.54h116.09V0H0v115.54z"/><path fill="#FFF" d="M58.04 29.54a8.66 8.66 0 0 1 0 17.3 8.66 8.66 0 0 1-8.65-8.65 8.66 8.66 0 0 1 8.65-8.65zm0 29.54a20.9 20.9 0 0 0 20.9-20.89c0-11.52-9.37-20.9-20.9-20.9a20.91 20.91 0 0 0-20.89 20.9 20.91 20.91 0 0 0 20.9 20.89m8.45 17.04a39.1 39.1 0 0 0 12.13-5.03 6.12 6.12 0 0 0-6.52-10.36 26.53 26.53 0 0 1-28.13 0 6.11 6.11 0 1 0-6.52 10.36 39.21 39.21 0 0 0 12.13 5.03L37.9 87.8a6.12 6.12 0 0 0 8.66 8.65l11.47-11.47 11.48 11.47a6.12 6.12 0 1 0 8.66-8.65L66.5 76.12"/></svg>