<svg xmlns="http://www.w3.org/2000/svg" viewBox="0 0 80.4 80.4"><linearGradient id="a" gradientUnits="userSpaceOnUse" x1="33.5" y1="1.31" x2="33.5" y2="79.23"><stop offset=".3" stop-color="#FF1B2D"/><stop offset=".44" stop-color="#FA1A2C"/><stop offset=".59" stop-color="#ED1528"/><stop offset=".76" stop-color="#D60E21"/><stop offset=".93" stop-color="#B70519"/><stop offset="1" stop-color="#A70014"/></linearGradient><linearGradient id="b" gradientUnits="userSpaceOnUse" x1="53.68" y1="5.9" x2="53.68" y2="74.82"><stop offset="0" stop-color="#9C0000"/><stop offset=".7" stop-color="#FF4B4B"/></linearGradient><path fill="url(#a)" d="M26.97 62.85c-4.45-5.24-7.33-13-7.52-21.7v-1.9c.2-8.7 3.07-16.46 7.52-21.7C32.73 10.05 41.3 5.3 50.87 5.3A29 29 0 0 1 67 10.23 40.04 40.04 0 0 0 40.35 0h-.15a40.2 40.2 0 1 0 26.79 70.17 29 29 0 0 1-16.11 4.92c-9.57 0-18.15-4.75-23.91-12.24z"/><path fill="url(#b)" d="M26.97 17.55c3.69-4.36 8.45-6.98 13.66-6.98 11.7 0 21.18 13.26 21.18 29.63s-9.48 29.63-21.19 29.63c-5.2 0-9.96-2.62-13.65-6.98 5.77 7.5 14.34 12.24 23.91 12.24A29 29 0 0 0 67 70.17 40.1 40.1 0 0 0 80.4 40.2 40.1 40.1 0 0 0 67 10.23a29 29 0 0 0-16.12-4.92c-9.57 0-18.15 4.75-23.91 12.24z"/></svg>