<svg xmlns="http://www.w3.org/2000/svg" viewBox="0 0 157.91 55.15"><path fill="#192C8F" d="M26.41 34.77l.02-8.6H1.28l.03 8.6 7.29-.02.02 8.79-.03 10.66h10.53l-.02-10.66.02-8.79 7.3.02m60.67 0l.02-8.6H61.96l.02 8.6 7.3-.02.01 8.79-.02 10.66H79.8l-.03-10.66.02-8.79 7.3.02m8.1 15.5a4.86 4.86 0 1 1-9.73 0 4.86 4.86 0 0 1 9.73 0zm25.66-10.2s4.52-1.2 4.37-7.1c-.15-5.89-5.2-6.88-8.56-6.88l-15.95.07V54.2h19.24s6.17-.13 6.32-7.12c.16-6.99-5.42-7-5.42-7zm-11.12-7.64l3.86.01c.37 0 1.65.5 1.69 2.43.05 2.43-1.22 2.53-1.22 2.53l-4.33.03v-5zm4.5 15.5l-4.43-.04-.07-5.2 4.5.04s1.68.38 1.72 2.72c.04 2.33-1.72 2.49-1.72 2.49zm32.82-7.86l10.86-13.9h-12.58l-3.25 6.63-3.26-6.64h-12.58l10.32 13.9.01 3.56-.02 10.58h10.52l-.02-10.58v-3.55"/><path d="M58.62 26.16H47.85v8.48h5.18l-9.26 12.44-9.27-12.43h5.18v-8.49H29.44v17.25c.23 6.72 5.05 11.74 14.57 11.74 9.03 0 14.38-5.02 14.61-11.74V26.16zM0 0h156.59v21.48H0z" fill="#CD150D"/><path fill="#FFF" d="M44.04 17.21V5.04h3.94c1.5 0 2.47.06 2.92.19.7.18 1.28.58 1.75 1.19.47.6.71 1.4.71 2.37 0 .74-.13 1.37-.4 1.88s-.62.91-1.04 1.2c-.42.3-.84.48-1.27.58-.59.11-1.44.17-2.55.17h-1.6v4.6h-2.46zm2.46-10.1v3.44h1.34c.97 0 1.62-.06 1.94-.19a1.6 1.6 0 0 0 1.05-1.54c0-.44-.13-.8-.39-1.1a1.7 1.7 0 0 0-.99-.54c-.29-.05-.88-.08-1.77-.08H46.5zm19.17 10.1h-2.68l-1.06-2.76h-4.86l-1 2.76h-2.61L58.2 5.04h2.6l4.87 12.17zm-4.53-4.81l-1.67-4.52-1.65 4.52h3.32zm6.32-7.36h9.1v2.04h-6.64v2.83h3.28c.9 0 1.66.1 2.26.33s1.1.63 1.53 1.23c.42.6.64 1.3.64 2.1 0 .82-.22 1.53-.64 2.11s-.91 1-1.46 1.2c-.55.22-1.32.33-2.33.33h-5.74V5.04zm2.46 10.13h2.38c.77 0 1.3-.04 1.61-.11a1.53 1.53 0 0 0 1.16-1.5c0-.55-.2-.97-.6-1.22-.4-.26-1.09-.39-2.06-.39h-2.5v3.22zm9.5-3.97c0-1.24.18-2.28.55-3.12.28-.62.66-1.17 1.13-1.67.48-.49 1-.85 1.58-1.1a6.7 6.7 0 0 1 2.62-.47c1.8 0 3.23.55 4.3 1.66 1.08 1.12 1.62 2.66 1.62 4.64 0 1.97-.54 3.5-1.6 4.61a5.67 5.67 0 0 1-4.29 1.67 5.73 5.73 0 0 1-4.31-1.66c-1.07-1.1-1.6-2.62-1.6-4.56zm2.53-.08c0 1.38.32 2.42.95 3.13.64.71 1.45 1.07 2.43 1.07s1.78-.36 2.4-1.06c.64-.7.95-1.77.95-3.18 0-1.4-.3-2.43-.92-3.12-.61-.68-1.42-1.03-2.44-1.03s-1.83.35-2.45 1.04c-.61.7-.92 1.75-.92 3.15zm14.03 6.1V7.1h-3.6V5.04h9.66V7.1h-3.6v10.11h-2.46zm17.74 0h-2.67l-1.06-2.77h-4.87l-1 2.76h-2.6l4.73-12.17h2.6l4.87 12.17zm-4.52-4.82l-1.68-4.52-1.64 4.52h3.32z"/></svg>