<svg xmlns="http://www.w3.org/2000/svg" viewBox="0 0 157.914 55.146"><path fill="#192C8F" d="M26.412 34.768l.02-8.605H1.283l.022 8.605L8.6 34.75l.02 8.787-.025 10.665h10.527l-.026-10.665.02-8.787 7.296.018M87.086 34.768l.02-8.605h-25.15l.02 8.605 7.297-.018.02 8.787-.025 10.665h10.528l-.025-10.665.02-8.787 7.296.018M95.188 50.27c0 2.687-2.178 4.865-4.863 4.865-2.688 0-4.864-2.18-4.864-4.864 0-2.687 2.178-4.864 4.865-4.864 2.686 0 4.863 2.178 4.863 4.865zM120.85 40.07s4.516-1.206 4.37-7.096c-.148-5.89-5.204-6.88-8.56-6.88l-15.946.068v28.04l19.234-.005s6.17-.123 6.324-7.116c.153-6.99-5.42-7.01-5.42-7.01zm-11.12-7.636l3.86.008c.37-.008 1.647.506 1.688 2.424.05 2.432-1.216 2.533-1.216 2.533l-4.334.03v-4.996zm4.505 15.504l-4.43-.05-.076-5.204 4.505.05s1.68.377 1.716 2.715c.037 2.334-1.715 2.488-1.715 2.488zM147.054 40.07l10.86-13.907H145.33l-3.255 6.635-3.255-6.635h-12.583l10.325 13.905.008 3.555-.024 10.58h10.526l-.025-10.58.007-3.552"/><g fill="#CD150D"><path d="M58.62 26.163H47.85l.002 8.48h5.18l-9.267 12.433-9.265-12.43h5.18v-8.482H29.444v17.242c.23 6.72 5.05 11.74 14.57 11.74 9.03 0 14.376-5.014 14.607-11.74V26.163z"/><path d="M0 0h156.59v21.476H0z"/></g><path fill="#FFF" d="M44.04 17.212V5.042h3.942c1.494 0 2.468.062 2.922.184.697.183 1.28.58 1.75 1.19.47.612.707 1.402.707 2.37 0 .748-.135 1.376-.406 1.885s-.616.91-1.034 1.2c-.417.29-.842.483-1.274.577-.586.116-1.436.174-2.548.174h-1.602v4.59H44.04zm2.456-10.11v3.453h1.345c.97 0 1.617-.063 1.943-.19s.583-.328.768-.6c.186-.27.28-.585.28-.945 0-.443-.13-.808-.39-1.096-.26-.288-.59-.468-.99-.54-.292-.055-.882-.083-1.767-.083h-1.187zM65.667 17.212h-2.673l-1.062-2.764h-4.864l-1.004 2.764h-2.606l4.74-12.17h2.598l4.87 12.17zm-4.523-4.815L59.467 7.88l-1.644 4.517h3.32zM67.458 5.043h9.098v2.042h-6.64v2.822H73.2c.908 0 1.66.11 2.258.332s1.108.63 1.532 1.228c.423.598.635 1.298.635 2.1 0 .825-.213 1.53-.64 2.117s-.91.988-1.456 1.204c-.544.215-1.32.323-2.328.323h-5.744V5.043zm2.457 10.127h2.39c.765 0 1.3-.037 1.61-.112.31-.074.58-.245.81-.51.23-.266.345-.592.345-.98 0-.563-.2-.974-.602-1.232-.4-.257-1.086-.386-2.055-.386h-2.5v3.22zM79.416 11.202c0-1.24.186-2.28.556-3.12.277-.62.654-1.177 1.132-1.67.48-.492 1.004-.857 1.573-1.095.76-.32 1.633-.48 2.623-.48 1.793 0 3.228.555 4.304 1.667 1.077 1.112 1.615 2.66 1.615 4.64 0 1.964-.535 3.5-1.604 4.61-1.067 1.11-2.495 1.666-4.283 1.666-1.81 0-3.248-.552-4.316-1.656-1.067-1.105-1.6-2.625-1.6-4.562zm2.53-.083c0 1.377.32 2.42.956 3.133.636.71 1.444 1.066 2.424 1.066s1.783-.354 2.41-1.06c.63-.705.943-1.764.943-3.175 0-1.395-.307-2.435-.92-3.12-.61-.687-1.422-1.03-2.435-1.03s-1.83.347-2.45 1.042c-.617.695-.928 1.742-.928 3.142zM95.983 17.212V7.102h-3.61v-2.06h9.67v2.06H98.44v10.11h-2.457zM113.72 17.212h-2.672l-1.062-2.764h-4.864l-1.004 2.764h-2.606l4.74-12.17h2.598l4.87 12.17zm-4.523-4.815L107.52 7.88l-1.644 4.517h3.32z"/></svg>