<svg xmlns="http://www.w3.org/2000/svg" viewBox="0 0 117.94 41.35"><path fill="#DE4C2F" d="M98.78 25.3l13.13-16.75h5l-9.99 12.81L117.94 41h-4.86l-8.95-16.06L98.47 32v9h-4.14V8.55h4.14v16.76h.31zm-17.72-6.53c0-1.83-.25-3.4-.77-4.74a8.68 8.68 0 0 0-2.18-3.3 9.03 9.03 0 0 0-3.38-1.93c-1.32-.42-2.8-.63-4.45-.63-1.68 0-3.25.23-4.7.7a11.4 11.4 0 0 0-3.94 2.22l2.07 3.4a8.73 8.73 0 0 1 2.92-1.7 10.2 10.2 0 0 1 3.46-.62c2.07 0 3.71.58 4.93 1.73 1.21 1.15 1.82 3.09 1.82 5.8v3.16h-9.75v3.81h9.75v3.16c0 2.71-.6 4.65-1.82 5.8a6.91 6.91 0 0 1-4.92 1.73 10.4 10.4 0 0 1-3.46-.62 8.81 8.81 0 0 1-2.92-1.7l-2.08 3.4a11.4 11.4 0 0 0 3.94 2.21c1.45.47 3.02.7 4.7.7 1.64 0 3.13-.2 4.45-.63a8.92 8.92 0 0 0 3.38-1.93 8.63 8.63 0 0 0 2.18-3.3 13 13 0 0 0 .77-4.73v-12zm-69.8 5.16H4.13V12.5h7.12a5.6 5.6 0 0 1 5.45 5.72 5.6 5.6 0 0 1-5.46 5.72m-.02-15.4H0v32.45h4.14V27.94h7.1c5.1 0 9.25-4.35 9.25-9.7 0-5.37-4.15-9.7-9.26-9.7m28.95 5.92l-4.82 15.27h9.67l-4.86-15.27zm8.58 26.52l-2.43-7.3H34l-2.37 7.3h-4.32l10.8-32.45h4.18l10.83 32.45h-4.36z"/><path fill="#777" d="M85.68 4.11V0h-2.14v4.11h-3.9v2.24h3.9v4.16h2.14V6.35h3.88V4.11"/></svg>