<svg xmlns="http://www.w3.org/2000/svg" viewBox="0 0 117.936 41.355"><path fill="#DE4C2F" d="M98.78 25.306L111.91 8.55h4.992l-9.98 12.81L117.935 41h-4.857l-8.946-16.06L98.467 32V41H94.33V8.55h4.137v16.756h.313zm-17.718-6.54c0-1.822-.256-3.4-.772-4.733-.516-1.336-1.243-2.433-2.178-3.3-.938-.86-2.066-1.505-3.385-1.93-1.32-.424-2.803-.635-4.45-.635-1.68 0-3.246.234-4.698.705-1.455.474-2.767 1.21-3.937 2.215l2.072 3.393c.806-.723 1.78-1.286 2.92-1.695 1.14-.41 2.292-.614 3.46-.614 2.07 0 3.708.578 4.923 1.73 1.213 1.15 1.823 3.086 1.823 5.797v3.157h-9.747v3.814h9.748v3.16c0 2.71-.61 4.646-1.822 5.797-1.215 1.148-2.852 1.73-4.923 1.73-1.168 0-2.32-.213-3.46-.613-1.14-.41-2.114-.977-2.92-1.696l-2.072 3.387c1.17 1.004 2.482 1.743 3.936 2.216 1.45.47 3.017.705 4.697.705 1.647 0 3.13-.213 4.45-.638 1.32-.422 2.447-1.065 3.385-1.93.935-.862 1.662-1.96 2.178-3.295.516-1.336.772-2.914.772-4.736v-11.99zm-69.81 5.167H4.14V12.488h7.115c3.018 0 5.46 2.562 5.46 5.724 0 3.16-2.442 5.72-5.46 5.72m-.02-15.4H0v32.452h4.138V27.94h7.094c5.112 0 9.26-4.348 9.26-9.706 0-5.36-4.148-9.7-9.26-9.7m28.943 5.93l-4.81 15.262h9.662l-4.852-15.262zm8.584 26.52l-2.43-7.297H34.014l-2.378 7.297H27.32l10.785-32.45h4.182l10.834 32.45h-4.36z"/><path fill="#777" d="M85.677 4.11V0h-2.14v4.11h-3.903v2.24h3.903v4.155h2.14V6.35h3.88V4.11"/></svg>