<svg xmlns="http://www.w3.org/2000/svg" fill="url(#a)" viewBox="0 0 120 32"><defs><linearGradient id="a" x1="-54.91%" x2="173.16%" y1="-49.09%" y2="132.94%"><stop offset="0%" stop-color="#0cecfc"/><stop offset="100%" stop-color="#0d6fcd"/></linearGradient></defs><path fill="none" d="M114.1 20.73l.34-2.17a7.31 7.31 0 0 0 3.3-.92 4.6 4.6 0 0 0 2.26-4.17c0-1.25-.31-2.48-.91-3.58a3.56 3.56 0 0 0-3.3-1.82 3.55 3.55 0 0 0-3.55-3.4c-1.77 0-3.52.12-5.27.4-1.5.23-2.7 1.64-2.95 3.14-.02.09-4.03 0-6.72 0-2.08 0-3.18 1.03-3.18 1.03S93.1 7.9 90.42 8.2c-1.31.07-2.62.24-3.9.5.28-1.62.44-3.26.48-4.91v-.18A3.61 3.61 0 0 0 83.45 0c-2.6 0-5.57.35-7.06.72A3.59 3.59 0 0 0 73.7 4.4c.09 1.53-.6 6.07-.6 6.07a9.86 9.86 0 0 0-6.4-2.18c-2.3 0-4.56.54-6.6 1.6a3.58 3.58 0 0 0-2.73-1.23c-2 0-3.54-.03-5.02.1a3.51 3.51 0 0 0-2.75 1.68l-.11-.22a3.58 3.58 0 0 0-3.1-1.83c-2.67 0-7.28.79-7.47.88a11.6 11.6 0 0 0-5.03-1 13.8 13.8 0 0 0-7.29 1.95c-.36-5.37-5.02-9.03-11.58-9.03 0 0-8.03.3-9.48.61a3.52 3.52 0 0 0-2.78 3.7c.1 1.3.01 2.6-.24 3.89L.16 24.48c-.15.91-.59 3.63 1.13 5.64a5.23 5.23 0 0 0 4.17 1.78c1.04 0 3.7-.11 5.9-1.13.59-.28 1.1-.7 1.45-1.23a7.09 7.09 0 0 0 5.55 2.42c2.26-.02 4.48-.55 6.5-1.57a11.31 11.31 0 0 0 6.03 1.6c3.85 0 7.45-1.55 9.73-4.11 1.28 3.26 3.6 4.02 5.47 4.02 1.6 0 3.48-.17 5.37-1.11 1.55-.78 2.28-3.37 2.6-3.94C55.65 30.02 58.8 32 62.8 32c3.18.03 6.28-1.04 8.76-3.02.17.3.37.57.59.83.81.95 2.37 2.09 5.14 2.09a9.69 9.69 0 0 0 5.51-1.6c.9.85 2.35 1.7 4.57 1.7 1.66-.03 3.29-.45 4.75-1.23a7.06 7.06 0 0 0 4.1 1.13c2.6 0 4.93-.9 6.48-2.45 1.27 1.25 3.5 2.55 7.25 2.55 3.49 0 6.93-2.22 8.7-5.2 1.35-2.3-.19-6.23-4.55-6.07z"/><path d="M12.31 4.72zm78.09 19.1zm.2 1.24zM13.84 8.26h-1.38a14.5 14.5 0 0 0-.27 1.68l-1.01 6.18h1.68c2.19 0 3.84-1.85 3.84-4.6 0-2.02-1.11-3.26-2.86-3.26zm18.83 6.65c-1.01 0-1.72 2-2.09 3.57h.54c1.28 0 2.26-.83 2.43-1.84.02-.13.02-.27.02-.4a1.6 1.6 0 0 0-.22-.91.82.82 0 0 0-.68-.42zm33.01.24a.68.68 0 0 0-.11-.08.52.52 0 0 0-.26-.06.82.82 0 0 0-.5.2 1.55 1.55 0 0 0-.29.29 4.96 4.96 0 0 0-.8 1.65 12.01 12.01 0 0 0-.46 1.9 16.81 16.81 0 0 0-.16 4.17 7.23 7.23 0 0 0 .21 1.1l.16.4c.18.36.4.55.67.55.1 0 .2-.03.3-.08.12-.06.24-.15.34-.26.4-.42.77-1.2 1.06-2.19a12.45 12.45 0 0 0 .38-1.7 16.22 16.22 0 0 0 .2-2.58 8.01 8.01 0 0 0-.36-2.7 1.5 1.5 0 0 0-.38-.6zm48.4 5.58l.35-2.17a7.31 7.31 0 0 0 3.3-.92 4.6 4.6 0 0 0 2.26-4.17c0-1.25-.31-2.48-.91-3.58a3.56 3.56 0 0 0-3.3-1.82 3.55 3.55 0 0 0-3.55-3.4c-1.77 0-3.52.12-5.27.4-1.5.23-2.7 1.64-2.95 3.14-.02.09-4.03 0-6.72 0-2.08 0-3.18 1.03-3.18 1.03S93.1 7.9 90.42 8.2c-1.31.07-2.62.24-3.9.5.28-1.62.44-3.26.48-4.91v-.18A3.61 3.61 0 0 0 83.45 0c-2.6 0-5.57.35-7.06.72A3.59 3.59 0 0 0 73.7 4.4c.09 1.53-.6 6.07-.6 6.07a9.86 9.86 0 0 0-6.4-2.18c-2.3 0-4.56.54-6.6 1.6a3.58 3.58 0 0 0-2.73-1.23c-2 0-3.54-.03-5.02.1a3.51 3.51 0 0 0-2.75 1.68l-.11-.22a3.58 3.58 0 0 0-3.1-1.83c-2.67 0-7.28.79-7.47.88a11.6 11.6 0 0 0-5.03-1 13.8 13.8 0 0 0-7.29 1.95c-.36-5.37-5.02-9.03-11.58-9.03 0 0-8.03.3-9.48.61a3.52 3.52 0 0 0-2.78 3.7c.1 1.3.01 2.6-.24 3.89L.16 24.48c-.15.91-.59 3.63 1.13 5.64a5.23 5.23 0 0 0 4.17 1.78c1.04 0 3.7-.11 5.9-1.13.59-.28 1.1-.7 1.45-1.23a7.09 7.09 0 0 0 5.55 2.42c2.26-.02 4.48-.55 6.5-1.57a11.31 11.31 0 0 0 6.03 1.6c3.85 0 7.45-1.55 9.73-4.11 1.28 3.26 3.6 4.02 5.47 4.02 1.6 0 3.48-.17 5.37-1.11 1.55-.78 2.28-3.37 2.6-3.94C55.65 30.02 58.8 32 62.8 32c3.18.03 6.28-1.04 8.76-3.02.17.3.37.57.59.83.81.95 2.37 2.09 5.14 2.09a9.69 9.69 0 0 0 5.51-1.6c.9.85 2.35 1.7 4.57 1.7 1.66-.03 3.29-.45 4.75-1.23a7.06 7.06 0 0 0 4.1 1.13c2.6 0 4.93-.9 6.48-2.45 1.27 1.25 3.5 2.55 7.25 2.55 3.49 0 6.93-2.22 8.7-5.2 1.35-2.3-.19-6.23-4.55-6.07zm-91.03-9.28c-.21 2.8-1.95 5.1-4.66 6.52l2.42 6.5c.7 1.79 1.11 2.5 1.92 3.07-.19.1-.39.2-.6.27-1.21.4-2.5.6-3.78.6-1.24 0-3-.3-4.04-3.45l-1.85-5.3h-1.82l-.81 5.07c-.1.56-.16 1.14-.19 1.71v.16c0 .32.07.65.22.94v.01c-1.38.64-3.3.8-4.41.8-.96 0-1.85-.3-1.9-1.96 0-.45.03-.9.11-1.35l2.36-15.1a19.61 19.61 0 0 0 .32-3.49c0-.4.02-.56-.02-1.34h.04v.13a33.81 33.81 0 0 1 6.37-.53h2.29c1.62-.04 3.23.3 4.7.98a6.87 6.87 0 0 1 2.1 1.62 5.31 5.31 0 0 1 1.25 3.57l-.02.56v.01zm13.86.81l-.01-.02a7.76 7.76 0 0 0 0 .02h.01zm-2.94-.47c-6.9 0-9.85 5.25-9.85 9.98 0-4.73 2.94-9.98 9.85-9.98zm-1.89 9.76h-.05l-.67.05h-.14l-.8.02h-.07l.01.37c.12 1.8.87 3.3 2.55 3.3.12 0 .25 0 .37-.02 1.59-.17 2.52-1.34 3.33-1.34.38.04.75.17 1.08.37l.8.54a7.6 7.6 0 0 1-2.12 2.05 9.93 9.93 0 0 1-5.49 1.57c-4.16 0-6.67-2.33-6.91-6.08 0-.06.08-.12.08-.19 0-.13.07-.26.07-.4v-.01c0-4.73 2.95-9.95 9.85-9.95a8.59 8.59 0 0 1 2.93.47c1.66.6 2.62 1.76 2.62 3.36 0 1.9-1.22 5.37-7.44 5.9zm19.15 3.09c-.59.95-1.07 1.96-1.45 3.02a7.8 7.8 0 0 1-3.7.7c-1.08 0-2.06-.54-2.6-3.32l-1.58-7.92c-.32-1.6-.82-3.17-1.48-4.66.57-.14 1.14-.24 1.72-.3l.42-.05h.04l.42-.04h.04l1-.08h.05l.44-.03h.15l.38-.02h.18l.39-.01h.73a10.41 10.41 0 0 1 1.15 3.21l1.04 7.22a94.36 94.36 0 0 0 2.5-5.27 27.48 27.48 0 0 0 1.58-4.9l1.15-.08.64-.03.49-.02.91-.02h.2l1.08-.02h.24a9.4 9.4 0 0 1-.84 3.1 82.91 82.91 0 0 1-5.29 9.52zm19.61.03a9.66 9.66 0 0 1-2.45 2.22l-.06.04-.4.24-.08.04-.42.21-.07.04a9.64 9.64 0 0 1-1.56.59l-.14.03a10.55 10.55 0 0 1-1.5.3l-.21.02a2.7 2.7 0 0 1-.4.03l-.18.02a11.88 11.88 0 0 1-1.27-.02l-.23-.02-.43-.06-.25-.05-.37-.09-.25-.08-.33-.1-.25-.11-.3-.14-.24-.13a6.02 6.02 0 0 1-.73-.5l-.2-.17a5.4 5.4 0 0 1-.93-1.1 1.43 1.43 0 0 1-.16-.24l-.14-.25-.13-.27-.11-.27-.11-.3-.09-.27-.1-.32-.05-.28a8.02 8.02 0 0 1-.17-1.72 9.75 9.75 0 0 1 6.9-9.64l.07-.02.71-.2.1-.01c.22-.05.44-.1.67-.13l.08-.02.73-.08.15-.01a11.66 11.66 0 0 1 1.39 0l.17.02c.17.01.33.03.49.06l.12.02c.19.03.37.08.55.13l.16.05a6.25 6.25 0 0 1 1 .4l.18.1a5.88 5.88 0 0 1 1.02.74l.17.16.2.22.12.14a5.41 5.41 0 0 1 .67 1c.54 1.07.8 2.25.78 3.44.03 2.3-.71 4.52-2.11 6.34zM83.3 6.11c-.1.88-.24 1.8-.39 2.7l-.71 4.53-1.78 11.3a3.1 3.1 0 0 0-.04.38v.1c0 .1 0 .2.02.31l.01.06.06.23.03.07c.03.08.07.14.11.2l.06.08.11.11.06.06c.25.17.55.26.86.24-.26.36-.57.67-.94.91l-.14.1a5.54 5.54 0 0 1-.47.26l-.28.13-.48.17-.22.06-.37.1-.23.04-.42.06-.2.02a6.68 6.68 0 0 1-.94.02h-.1l-.18-.01-.13-.02-.15-.02-.14-.02-.13-.03-.15-.04c-.04 0-.07-.02-.11-.03a3.7 3.7 0 0 1-.15-.05l-.1-.04a2.9 2.9 0 0 1-.15-.06l-.06-.04a2 2 0 0 1-.7-.58l-.03-.04a2.03 2.03 0 0 1-.1-.18l-.04-.06a2.36 2.36 0 0 1-.18-.5l-.02-.08a2.97 2.97 0 0 1-.04-.26l-.01-.07-.02-.3c0-.3.02-.59.06-.88L76.95 8.9l.09-.6a20.08 20.08 0 0 0 .2-4.06 5.85 5.85 0 0 1 .71-.14 20.87 20.87 0 0 1 2.27-.27 36.3 36.3 0 0 1 3.23-.13 20.01 20.01 0 0 1-.16 2.41zm17.27 20.37c-.77 1.14-2.4 1.88-4.34 1.88a6.5 6.5 0 0 1-1.21-.13 2.9 2.9 0 0 1-.55-.18c-.86-.4-1.41-1.27-1.14-3l.03-.31a7.01 7.01 0 0 1-1.7 2.11 6.39 6.39 0 0 1-1.22.8 7.38 7.38 0 0 1-3.07.81c-.15 0-.29 0-.42-.02l-.15-.02a3.75 3.75 0 0 1-.76-.19l-.08-.04c-1.45-.64-1.9-2.36-1.52-4.62l1-6.45.1-.53.02-.2a29.92 29.92 0 0 0 .17-1.83l.01-.1a16.63 16.63 0 0 0-.02-2l.24-.05.22-.05.1-.02.18-.03.12-.02.18-.02.14-.02.18-.03.16-.02.2-.02.16-.02.2-.02.18-.02.2-.02.2-.02.21-.02.2-.01.22-.02.2-.01.24-.02.2-.01.24-.01.2-.01.26-.01.19-.01.28-.01H91l.3-.01h.62c.03 1.4-.24 3.31-.5 5.1l-.88 5.43-.05.3c-.02.1 0 .2-.02.3a9.65 9.65 0 0 0 .01 1.59c.02.14.06.28.13.41.04.1.12.16.21.2l.09.02c.2 0 .5-.2.87-.58.54-.6 1-1.27 1.36-2a11.55 11.55 0 0 0 .93-2.5l.48-3.08a46.3 46.3 0 0 0 .5-4.86 9.5 9.5 0 0 1 .28-.04l.16-.02.1-.01.15-.02.12-.01.16-.02.14-.01.15-.02.17-.01.14-.01.2-.02c.03 0 .07.09.1.08.3-.02.6.03.93.03.1 0 .2-.1.31-.1.03 0 .05-.05.08-.05l.3-.03.09-.02.31-.01.1-.01.31-.01h.1l.33-.01c.02 0 .05-.07.07-.07.12 0 .24-.08.36-.08.28 0 .57.06.87.06a44.96 44.96 0 0 1-.54 5.14l-1.21 7.63c-.2 1.24.3 1.86 1.24 1.86zm3.52-2.05c-.02-.37 0-.74.06-1.1l1.28-7.95a22.14 22.14 0 0 0-1.68.3c-.17-1.14-.16-2.3.01-3.45l.89-.04.42-.02h.37l.41.02.33-.03c.44-1.2 1.15-2.19 1.39-3.6a26.57 26.57 0 0 1 4.67-.35c-.03 1.08-.17 2.4-.37 3.98h1.1c1.76 0 2.45-.22 3.03-.62.31.56.48 1.19.49 1.83 0 .86-.27 1.46-3 1.53h-2.09l-1.25 7.93-.03.24-.01.24c-.02 1.09.5 1.94 1.35 1.94 1.32 0 1.62-1.05 2.13-1.05.4.03.78.17 1.1.4l.81.5a6.62 6.62 0 0 1-5.55 3.33c-3.63 0-5.73-1.59-5.86-4.03z"/></svg>