<svg xmlns="http://www.w3.org/2000/svg" viewBox="0 0 156.01 66.4"><path d="M49.04 23.79a23.78 23.78 0 1 1-47.56 0 23.78 23.78 0 0 1 47.56 0zm18.94 6.53a13.98 13.98 0 0 1-7.4 2.13c-1.54 0-3.67-.23-5.23-1.83a6.42 6.42 0 0 1-1.74-4.64c0-2.53.8-6.77 4.27-9.13 2.2-1.5 4.47-1.67 6.07-1.67 1.73 0 3.23.06 4.66 1.3.8.7 1.2 1.43 1.2 2.43 0 .8-.26 1.77-.7 2.5l-4.67.34c.3-.6.4-1.07.4-1.47 0-.53-.16-.9-.36-1.1-.47-.53-1.3-.53-1.67-.53a3.3 3.3 0 0 0-2.1.7c-1 .76-1.23 1.7-1.43 2.73l-.5 2.6a9.7 9.7 0 0 0-.2 1.67c0 .77.2 1.5.83 2 .7.57 1.67.63 2.37.63.83 0 1.43-.13 2.2-.36 1.03-.3 1.86-.64 2.8-1.17l1.2 2.87zm18.5.13a17.2 17.2 0 0 1-3.1 1.37c-1.27.4-2.63.63-4.3.63-2.03 0-4.26-.4-5.8-2.33a6.41 6.41 0 0 1-1.4-4.17c0-2.9 1.06-6.1 3.27-8.2a9.4 9.4 0 0 1 6.73-2.57c1.54 0 2.97.23 4.17 1.07a4.03 4.03 0 0 1 1.84 3.53c0 1.23-.54 2.77-2.37 4.1-2.3 1.64-5.74 2.07-8.1 2.07h-.54v.17c0 .9.23 1.63.83 2.13.67.53 1.8.7 2.57.7.97 0 1.7-.1 2.67-.4.9-.27 1.63-.57 2.4-.97l1.13 2.87zm-5.8-7.9c.94-.27 2.47-.8 2.47-2.47 0-.73-.3-1.14-.57-1.37a2.27 2.27 0 0 0-1.36-.46c-.73 0-1.57.3-2.27.96-.9.87-1.6 2.3-1.77 3.77.64 0 2-.03 3.5-.43zm16.47-6.97L96.9 17a8.1 8.1 0 0 1 5.13-1.83c1.27 0 3.13.13 4.4 1.56.77.87 1 1.94 1 2.94 0 .7-.13 1.4-.23 2l-2 10.37h-4.87l2.1-10.77c.07-.3.1-.57.1-.87 0-.4-.06-.8-.36-1.13-.2-.23-.67-.64-1.74-.64-.73 0-1.33.24-1.96.54-.4.2-.94.53-1.34.8L94.8 32.05h-4.87l2.53-13h-1.9l.67-3.48h5.93zm17.15 0l1.06-5.44h4.87l-1.07 5.44h3.2l-.63 3.33h-3.2l-2.57 13.14h-4.87l2.57-13.14h-2.8l.63-3.33h2.8zm23 14.87c-1 .57-2.06 1.03-3.1 1.37-1.27.4-2.63.63-4.3.63-2.04 0-4.27-.4-5.8-2.33a6.42 6.42 0 0 1-1.4-4.17c0-2.9 1.06-6.1 3.26-8.2a9.4 9.4 0 0 1 6.74-2.57c1.53 0 2.97.23 4.17 1.07a4.03 4.03 0 0 1 1.83 3.53c0 1.23-.53 2.77-2.37 4.1-2.3 1.64-5.73 2.07-8.1 2.07h-.53v.17c0 .9.23 1.63.83 2.13.67.53 1.8.7 2.57.7.97 0 1.7-.1 2.67-.4.9-.27 1.63-.57 2.4-.97l1.13 2.87zm-5.8-7.9c.93-.27 2.47-.8 2.47-2.47 0-.73-.3-1.14-.57-1.37a2.27 2.27 0 0 0-1.36-.46c-.74 0-1.57.3-2.27.96-.9.87-1.6 2.3-1.77 3.77.63 0 2-.03 3.5-.43zm16.44-6.97l-.4 2.03.46-.5a5.95 5.95 0 0 1 4.37-1.93c1.27 0 2.2.26 2.8.76.54.47.84 1.17.84 1.94 0 .27-.03.53-.1.8l-4 1.7c-.14-.77-.8-1.24-1.64-1.24-.73 0-1.37.3-1.8.74-.7.7-.97 1.66-1.14 2.5l-1.86 9.67h-4.87l3.2-16.48h4.14z" fill="#2C77BC"/><path fill="#FFF" d="M39.46 9.96l-3.37 17.28-.08.4c-.24 1.26-.5 2.67-1.64 3.92a5.39 5.39 0 0 1-4.16 1.67c-.63 0-2.55 0-3.42-1.64a4.11 4.11 0 0 1-.42-1.88c0-.77.15-1.56.31-2.4l3.39-17.35h-7.19l-.04.24c-1.2-.18-2.4-.2-3.41-.2H9.27l-5.5 28.32h8.07l2.13-10.89h1.32c.57 0 1.03.13 1.24.36.19.2.31.78.39 1.16l.09.38 2.06 8.99h8.27l-.04-.17a13.82 13.82 0 0 0 10.72-2.84 14.42 14.42 0 0 0 4.58-8.16l3.35-17.19h-6.49zM17.67 20.75h-2.42l.8-4.05h2.85c1.22 0 1.63.45 1.69.52.15.2.23.5.23.87 0 .55-.27 1.36-.86 1.92-.7.68-1.48.74-2.29.74z"/><path d="M96.42 46.36c20.85 0 40.62 2.37 58.38 6.62-18.65-8.22-41.37-13.05-65.89-13.05C53.08 39.93 21.08 50.24 0 66.4 25.05 54 59.01 46.36 96.42 46.36zM21.31 25.29l.04-.19a9.1 9.1 0 0 0 4.17-2.12 7.9 7.9 0 0 0 2.43-5.78c0-2.53-1.3-3.84-1.68-4.21-1.83-1.72-4.51-1.8-7.01-1.8h-9.24L4.94 37.3h5.82l2.12-10.88h2.24c.37 0 1.42.03 2.05.7.49.53.6 1.46.75 2.06l1.86 8.12h6l-2.09-9.02c-.22-1-.7-2.46-2.38-2.98zm-3.8-3.14h-3.77l-.21-.26 1.22-6.26.22-.18h3.77c1.75 0 2.5.74 2.74 1.06.23.3.5.83.5 1.66 0 1.02-.5 2.15-1.27 2.88-1.05 1.02-2.2 1.1-3.2 1.1z" fill="#F7941D"/></svg>