<svg xmlns="http://www.w3.org/2000/svg" viewBox="0 0 156.008 66.404"><g fill="#2C77BC"><path d="M49.036 23.785c0 13.138-10.647 23.78-23.78 23.78-13.136 0-23.785-10.643-23.785-23.78C1.47 10.65 12.12 0 25.257 0c13.133 0 23.78 10.65 23.78 23.785z"/><path d="M67.98 30.317c-.9.565-1.932 1.065-3.168 1.465-1.067.335-2.534.666-4.233.666-1.535 0-3.673-.23-5.234-1.83-.904-.937-1.736-2.405-1.736-4.636 0-2.535.8-6.77 4.267-9.137 2.204-1.5 4.47-1.668 6.07-1.668 1.732 0 3.235.067 4.668 1.3.8.702 1.2 1.433 1.2 2.434 0 .803-.267 1.768-.7 2.504l-4.67.334c.303-.604.402-1.07.402-1.47 0-.532-.17-.9-.365-1.1-.47-.534-1.303-.534-1.67-.534-.632 0-1.366.135-2.1.703-1.003.766-1.232 1.7-1.433 2.732l-.5 2.6c-.102.566-.204 1.136-.204 1.67 0 .765.203 1.497.836 1.997.7.568 1.667.635 2.37.635.826 0 1.43-.134 2.196-.367 1.033-.303 1.867-.635 2.803-1.168l1.2 2.87zM86.484 30.448c-.997.567-2.066 1.03-3.102 1.37-1.267.398-2.632.63-4.3.63-2.032 0-4.266-.4-5.802-2.33-.666-.836-1.4-2.138-1.4-4.17 0-2.903 1.065-6.103 3.267-8.204 2.202-2.098 4.702-2.566 6.737-2.566 1.533 0 2.97.234 4.165 1.07 1.368.932 1.837 2.196 1.837 3.53 0 1.233-.537 2.768-2.368 4.103-2.305 1.636-5.738 2.067-8.105 2.067h-.532v.167c0 .902.233 1.633.83 2.132.67.535 1.804.702 2.57.702.968 0 1.703-.1 2.67-.4.895-.266 1.632-.567 2.4-.966l1.13 2.866zm-5.8-7.902c.934-.267 2.47-.798 2.47-2.466 0-.732-.302-1.135-.57-1.367-.496-.436-1.232-.467-1.366-.467-.732 0-1.566.3-2.268.967-.898.867-1.6 2.302-1.77 3.768.636 0 2.004-.033 3.503-.434zM97.153 15.576l-.267 1.437c.67-.534 1.266-.9 2.07-1.234 1.1-.467 1.902-.602 3.066-.602 1.267 0 3.132.135 4.398 1.566.768.87 1.004 1.936 1.004 2.936 0 .7-.135 1.4-.236 2l-2 10.37h-4.868l2.102-10.77c.07-.302.1-.565.1-.87 0-.396-.063-.796-.366-1.133-.2-.23-.667-.633-1.732-.633-.735 0-1.335.234-1.968.535-.4.198-.933.532-1.334.798l-2.335 12.07H89.92l2.533-13.002h-1.898l.666-3.47h5.933zM114.297 15.576l1.063-5.436h4.868l-1.066 5.436h3.204l-.634 3.335h-3.204l-2.568 13.14h-4.867l2.567-13.14h-2.8l.634-3.334h2.803zM137.3 30.448c-1 .567-2.064 1.03-3.102 1.37-1.265.398-2.63.63-4.3.63-2.034 0-4.267-.4-5.803-2.33-.665-.836-1.398-2.138-1.398-4.17 0-2.903 1.064-6.103 3.267-8.204 2.2-2.098 4.704-2.566 6.734-2.566 1.535 0 2.968.234 4.17 1.07 1.365.932 1.834 2.196 1.834 3.53 0 1.233-.534 2.768-2.372 4.103-2.297 1.636-5.73 2.067-8.1 2.067h-.533v.167c0 .902.23 1.633.836 2.132.665.535 1.798.702 2.563.702.97 0 1.705-.1 2.673-.4.893-.266 1.633-.567 2.396-.966l1.135 2.866zm-5.802-7.902c.936-.267 2.47-.798 2.47-2.466 0-.732-.3-1.135-.57-1.367-.5-.436-1.23-.467-1.363-.467-.735 0-1.567.3-2.27.967-.9.867-1.6 2.302-1.767 3.768.63 0 2-.033 3.5-.434zM147.937 15.576l-.4 2.037.467-.504c.635-.667 2.067-1.933 4.366-1.933 1.268 0 2.205.266 2.804.766.533.47.834 1.166.834 1.936 0 .27-.033.53-.1.8l-4.003 1.7c-.135-.766-.8-1.235-1.635-1.235-.73 0-1.366.303-1.798.734-.702.7-.972 1.665-1.138 2.5l-1.864 9.67h-4.87l3.2-16.474h4.137z"/></g><path fill="#FFF" d="M39.46 9.958l-3.37 17.28-.078.41c-.24 1.25-.51 2.667-1.644 3.908-1.055 1.126-2.415 1.674-4.16 1.674-.63 0-2.545 0-3.423-1.637-.34-.64-.412-1.377-.412-1.884 0-.772.15-1.564.31-2.406l3.383-17.347h-7.184l-.047.24c-1.2-.176-2.388-.187-3.41-.187H9.267L3.77 38.317h8.07l2.127-10.887h1.323c.574 0 1.028.134 1.24.356.186.202.31.78.39 1.16.032.144.06.28.087.386l2.063 8.986h8.274l-.04-.168c.657.088 1.325.147 2 .147 3.254 0 6.433-1.09 8.722-2.99 2.246-1.88 3.914-4.853 4.578-8.157l3.344-17.19H39.46zm-21.786 10.79h-2.42l.796-4.05h2.855c1.217 0 1.626.45 1.685.524.148.2.227.5.227.87 0 .553-.262 1.36-.853 1.92-.706.68-1.486.737-2.29.737z"/><g fill="#F7941D"><path d="M96.42 46.36c20.847 0 40.62 2.372 58.384 6.622-18.655-8.227-41.374-13.056-65.892-13.056C53.076 39.926 21.075 50.24 0 66.404 25.048 53.99 59.012 46.36 96.42 46.36z"/><path d="M21.31 25.288l.035-.187c1.382-.298 2.984-1.006 4.177-2.124 1.716-1.604 2.426-3.802 2.426-5.778 0-2.534-1.306-3.84-1.68-4.21-1.826-1.715-4.51-1.793-7.01-1.793h-9.242L4.943 37.29h5.82l2.12-10.884h2.236c.375 0 1.418.037 2.05.71.487.52.598 1.45.748 2.05l1.862 8.123h6.005l-2.09-9.02c-.223-1.007-.705-2.46-2.386-2.982zm-3.803-3.135h-3.763l-.217-.264 1.228-6.262.217-.18h3.767c1.75 0 2.503.74 2.745 1.06.226.3.493.83.493 1.662 0 1.02-.496 2.15-1.263 2.88-1.053 1.018-2.208 1.103-3.208 1.103z"/></g></svg>