<svg xmlns="http://www.w3.org/2000/svg" viewBox="0 0 174.95 26.79"><path fill="#1428a0" d="M6.65 7.24a3.11 3.11 0 0 1 0-1.31 2.06 2.06 0 0 1 2.26-1.68 2.14 2.14 0 0 1 2.32 2.27v1.54h6.24V6.31C17.47.87 12.57 0 9 0 4.59 0 1 1.47.3 5.56a8.64 8.64 0 0 0 0 3.37c1.08 5.11 10 6.59 11.26 9.83a3.23 3.23 0 0 1 0 1.85 2.16 2.16 0 0 1-2.44 1.69 2.23 2.23 0 0 1-2.4-2.3v-2.39H0v1.91c0 5.59 4.39 7.27 9.09 7.27 4.52 0 8.23-1.54 8.83-5.73a12.43 12.43 0 0 0 0-4.09c-1.08-5.24-10.56-6.8-11.27-9.73zM88 7.31A3.35 3.35 0 0 1 88 6a2.05 2.05 0 0 1 2.27-1.67 2.11 2.11 0 0 1 2.29 2.25v1.54h6.17V6.38C98.69 1 93.86.14 90.36.14c-4.41 0-8 1.45-8.66 5.51A8.35 8.35 0 0 0 81.76 9c1.07 5 9.87 6.5 11.15 9.7a3.38 3.38 0 0 1 0 1.83c-.19.83-.75 1.67-2.41 1.67A2.21 2.21 0 0 1 88 20v-2.4h-6.59v1.91c0 5.53 4.33 7.2 9 7.2 4.47 0 8.16-1.53 8.75-5.66a12.19 12.19 0 0 0 0-4.05C98.08 11.76 88.69 10.2 88 7.31zm56.79 13.63L138.88.8h-9.28v24.75h6.14l-.36-20.78 6.33 20.78h8.9V.8h-6.18zM26.78.8l-4.63 25h6.75l3.49-23.15 3.41 23.16h6.71L37.89.8zm37.77 0L61.4 20.35 58.24.8H48l-.54 25h6.25l.17-23.15 4.3 23.15h6.34l4.3-23.15.18 23.16h6.3L74.74.8zm58.12 0h-6.33v18.5a4.4 4.4 0 0 1-.06 1 2.49 2.49 0 0 1-4.79 0 4 4 0 0 1-.06-1V.8h-6.32v17.92c0 .46 0 1.41.06 1.65.44 4.67 4.12 6.19 8.72 6.19s8.29-1.52 8.73-6.19a13 13 0 0 0 .05-1.65zm43.43 11v3.65h2.56V19a4.57 4.57 0 0 1-.07 1 2.7 2.7 0 0 1-5.11 0 6.21 6.21 0 0 1-.07-1V7.6a5.11 5.11 0 0 1 .11-1.18 2.62 2.62 0 0 1 5 0 6.59 6.59 0 0 1 .08 1v1.36h6.3V8a15 15 0 0 0 0-1.66c-.47-4.69-4.34-6.18-8.77-6.18s-8.23 1.5-8.78 6.18c0 .43-.13 1.2-.13 1.66v10.47a14.25 14.25 0 0 0 .1 1.65c.41 4.56 4.37 6.18 8.79 6.18s8.38-1.62 8.79-6.18c.07-.84.08-1.19.09-1.65v-6.7z"/></svg>