<svg xmlns="http://www.w3.org/2000/svg" viewBox="0 0 359.6 394.5"><path fill="#30333b" d="M98.5 39c.8 0 1.6-.3 2.2-.9 1.2-1.2 1.2-3.2 0-4.5-.6-.6-1.4-.9-2.2-.9-.8 0-1.6.3-2.2.9a3.26 3.26 0 0 0 0 4.5c.6.6 1.3.9 2.2.9zm9.7 10.3c1 0 2-.4 2.7-1.1 1.5-1.5 1.5-3.9 0-5.3a3.86 3.86 0 0 0-5.4 0 3.86 3.86 0 0 0 0 5.4c.7.6 1.7 1 2.7 1zm9.6 10.4c1.2 0 2.4-.5 3.2-1.3 1.8-1.8 1.8-4.6 0-6.4a4.63 4.63 0 0 0-6.4 0 4.47 4.47 0 0 0 0 6.4c.9.8 2 1.3 3.2 1.3zm9.7 10.7c1.5 0 2.9-.6 3.9-1.6 2.1-2.1 2.1-5.6 0-7.8a5.52 5.52 0 0 0-7.8 0 5.62 5.62 0 0 0 0 7.8c1.1 1 2.4 1.6 3.9 1.6zM89.3 185.2c.4 0 .7-.1 1.1-.2a2.37 2.37 0 0 0-1.1-4.5c-.4 0-.7.1-1.1.2-1.2.6-1.7 2-1.1 3.2.4.8 1.3 1.3 2.2 1.3zm14.8-9.7c-.5-1-1.5-1.6-2.6-1.6a2.84 2.84 0 0 0 0 5.7 2.84 2.84 0 0 0 2.6-4.1zm9.7-8.2c-.5 0-1 .1-1.5.3-1.7.8-2.4 2.9-1.5 4.5.6 1.2 1.7 1.9 3 1.9.5 0 1-.1 1.5-.3 1.7-.8 2.4-2.9 1.5-4.5-.5-1.1-1.7-1.9-3-1.9zm12.3 1.4a3.92 3.92 0 0 0 3.8-2.7 4.08 4.08 0 0 0-5.6-5c-1 .5-1.7 1.3-2 2.3-.3 1-.3 2.1.2 3.1.6 1.5 2 2.3 3.6 2.3zM100.9 221h.2c.9-.1 1.5-1 1.4-1.9-.1-.8-.8-1.4-1.7-1.4h-.2c-.4.1-.8.3-1.1.7-.3.4-.4.8-.3 1.2.2.8.9 1.4 1.7 1.4zm13.5-5.6h-.3c-.5.1-1 .3-1.3.8-.3.4-.4.9-.4 1.4.1.9 1 1.6 1.9 1.6h.3c1-.2 1.8-1.1 1.6-2.2 0-.9-.8-1.6-1.8-1.6zm13.6 2.2h.3c.6-.1 1.1-.4 1.5-.9.4-.5.5-1.1.4-1.7-.2-1.1-1.1-1.9-2.2-1.9h-.3c-.6.1-1.1.4-1.5.9-.4.5-.5 1.1-.4 1.7.1 1.1 1.1 1.9 2.2 1.9zm13.5-1.6h.4c.7-.1 1.3-.5 1.7-1 .4-.6.6-1.2.5-1.9-.2-1.3-1.3-2.2-2.6-2.2h-.4c-1.4.2-2.4 1.5-2.2 3a2.7 2.7 0 0 0 2.6 2.1zm-75.7-98.1c1.7 0 3.2-1.4 3.2-3.1 0-1.7-1.4-3.2-3.2-3.2-1.7 0-3.2 1.4-3.2 3.2 0 1.7 1.5 3.1 3.2 3.1zm13.7.6a3.8 3.8 0 1 0 0-7.6 3.8 3.8 0 0 0 0 7.6zm13.6.8c2.5 0 4.5-2 4.5-4.5s-2-4.5-4.5-4.5-4.5 2-4.5 4.5 2 4.5 4.5 4.5zm8.2-4.5c0 3 2.5 5.5 5.5 5.5s5.5-2.5 5.5-5.5-2.5-5.5-5.5-5.5-5.5 2.4-5.5 5.5zm-31.7 25.7c-.3 0-.5 0-.8.1-1.7.5-2.7 2.2-2.2 3.9a3.1 3.1 0 0 0 3 2.3c.3 0 .5 0 .8-.1 1.7-.5 2.7-2.2 2.2-3.9-.3-1.3-1.6-2.3-3-2.3zm14.2 3.2c1-.3 1.8-.9 2.3-1.8.5-.9.6-1.9.4-2.9-.4-1.6-1.9-2.8-3.6-2.8-.3 0-.7 0-1 .1-1 .3-1.8.9-2.3 1.8-.5.9-.6 1.9-.4 2.9.4 1.6 1.9 2.8 3.6 2.8.3.1.7 0 1-.1zm11-11.5a4.52 4.52 0 0 0-3.3 5.5c.5 2 2.3 3.4 4.4 3.4.4 0 .8-.1 1.2-.2a4.5 4.5 0 0 0 3.2-5.6c-.5-2-2.3-3.4-4.4-3.4-.3.1-.7.2-1.1.3zm19.7-.6a5.46 5.46 0 0 0-6.7-3.9 5.5 5.5 0 0 0 1.4 10.8c.5 0 1-.1 1.4-.2 3-.7 4.7-3.8 3.9-6.7zm34-121.5c.3 0 .5 0 .8-.1a3.1 3.1 0 0 0 2.2-3.9 3.1 3.1 0 0 0-3-2.3c-.3 0-.5 0-.8.1a3.1 3.1 0 0 0-2.2 3.9c.3 1.3 1.6 2.3 3 2.3zm.3 8.2c-.5.9-.6 1.9-.4 2.9.4 1.6 1.9 2.8 3.6 2.8.3 0 .7 0 1-.1 1-.3 1.8-.9 2.3-1.8.5-.9.6-1.9.4-2.9-.4-1.6-1.9-2.8-3.6-2.8-.3 0-.7 0-1 .1-1 .3-1.8.9-2.3 1.8zm5.6 10.7a4.5 4.5 0 0 0-3.2 5.6c.5 2 2.3 3.4 4.4 3.4.4 0 .8-.1 1.2-.2a4.5 4.5 0 0 0 3.2-5.6c-.5-2-2.3-3.4-4.4-3.4-.4 0-.8.1-1.2.2zm3.3 12.3a5.5 5.5 0 0 0 1.4 10.8 5.37 5.37 0 0 0 4.7-2.8c.7-1.3.9-2.8.5-4.2-.6-2.4-2.8-4.1-5.3-4.1-.3.1-.8.1-1.3.3zM79.2 61.7c.5.3 1 .4 1.6.4 1.1 0 2.2-.6 2.7-1.6.9-1.5.4-3.4-1.2-4.3-.5-.3-1-.4-1.6-.4-1.1 0-2.2.6-2.7 1.6-.4.7-.5 1.6-.3 2.4.2.8.7 1.5 1.5 1.9zm11.5 7.4c.6.3 1.2.5 1.9.5a3.75 3.75 0 1 0 0-7.5c-1.3 0-2.6.7-3.3 1.9-.5.9-.6 1.9-.4 2.9.3.8.9 1.7 1.8 2.2zm16-.4a4.54 4.54 0 0 0-6.2 1.7c-1.3 2.2-.5 4.9 1.7 6.2a4.54 4.54 0 0 0 6.2-1.7c1.2-2.2.5-5-1.7-6.2zm4.3 12.2c.4 1.4 1.3 2.6 2.6 3.3a5.59 5.59 0 0 0 7.5-2.1c1.5-2.6.6-6-2-7.5a5.59 5.59 0 0 0-7.5 2.1c-.8 1.3-1 2.8-.6 4.2zM93.2 197.7c.3.8 1.1 1.3 2 1.3.3 0 .6-.1.8-.2.5-.2.9-.6 1.2-1.2.2-.5.2-1.1 0-1.7-.3-.8-1.1-1.3-2-1.3-.3 0-.6.1-.8.2-1.2.6-1.7 1.8-1.2 2.9zm14.6-3.6c.3 0 .7-.1 1-.2.6-.3 1.1-.8 1.4-1.4.3-.6.3-1.3 0-1.9-.4-.9-1.3-1.6-2.3-1.6a2.54 2.54 0 0 0-2.4 3.5c.3 1 1.2 1.6 2.3 1.6zm13.8-5c1.5-.6 2.2-2.4 1.6-3.9-.5-1.1-1.6-1.8-2.8-1.8-.4 0-.8.1-1.2.2-.7.3-1.3.9-1.6 1.6-.3.7-.3 1.6 0 2.3.5 1.1 1.6 1.8 2.8 1.8.4 0 .8-.1 1.2-.2zm11.4-4.5c.5 0 .9-.1 1.4-.3.9-.4 1.6-1.1 1.9-1.9.4-.9.4-1.9 0-2.7-.6-1.3-1.9-2.2-3.3-2.2a3.6 3.6 0 0 0-3.3 5 3.8 3.8 0 0 0 3.3 2.1zM68.8 88.9c.2.1.5.1.8.1 1.4 0 2.7-1 3-2.3a3.17 3.17 0 0 0-2.2-3.9c-.3-.1-.5-.1-.8-.1-1.4 0-2.7 1-3 2.3-.5 1.7.5 3.5 2.2 3.9zm14-3.3c-1.7 0-3.2 1.1-3.6 2.8-.3 1-.1 2 .4 2.9.5.9 1.3 1.5 2.3 1.8.3.1.6.1 1 .1 1.7 0 3.2-1.1 3.6-2.8.5-2-.7-4.1-2.7-4.6-.3-.1-.7-.2-1-.2zm14.4 3c-.4-.1-.8-.2-1.2-.2-2 0-3.9 1.4-4.4 3.4-.6 2.4.8 4.9 3.2 5.6.4.1.8.2 1.2.2 2 0 3.9-1.4 4.4-3.4.7-2.5-.8-5-3.2-5.6zm17.3 9.3c.8-2.9-1-6-3.9-6.7-.5-.1-.9-.2-1.4-.2-2.5 0-4.7 1.7-5.3 4.1-.8 2.9 1 6 3.9 6.7.5.1.9.2 1.4.2 2.5 0 4.7-1.7 5.3-4.1zM99 210.5c.2 0 .4 0 .5-.1 1-.3 1.6-1.4 1.3-2.4-.2-.8-1-1.4-1.8-1.4-.2 0-.4 0-.5.1-.5.1-.9.5-1.1.9-.2.4-.3 1-.2 1.5.2.8.9 1.4 1.8 1.4zm13.1-3.5c.2 0 .4 0 .6-.1.6-.2 1-.5 1.3-1.1.3-.5.4-1.1.2-1.7-.3-.9-1.2-1.6-2.1-1.6-.2 0-.4 0-.6.1-.6.2-1 .5-1.3 1.1-.3.5-.4 1.1-.2 1.7.3.9 1.1 1.6 2.1 1.6zm10.7-5.3c.3 1.1 1.4 1.9 2.5 1.9.2 0 .5 0 .7-.1.7-.2 1.2-.6 1.6-1.2.3-.6.4-1.3.2-2-.3-1.1-1.4-1.9-2.5-1.9-.2 0-.5 0-.7.1-1.4.3-2.2 1.8-1.8 3.2zm15.6-1.4c.3 0 .6 0 .9-.1a3.1 3.1 0 0 0 2.1-3.8c-.4-1.3-1.6-2.2-3-2.2-.3 0-.6 0-.9.1a3.17 3.17 0 0 0-2.2 3.9c.5 1.1 1.7 2.1 3.1 2.1zm-16.8-179a3.17 3.17 0 0 0 3.1-2.3 3.15 3.15 0 0 0-3-4 3.17 3.17 0 0 0-3.1 2.3c-.2.8-.1 1.7.3 2.4.5.9 1.6 1.6 2.7 1.6zm3.6 10.5c.7 1.2 1.9 1.9 3.3 1.9a3.79 3.79 0 0 0 3.7-2.8c.3-1 .1-2-.4-2.9-.7-1.2-1.9-1.9-3.3-1.9a3.8 3.8 0 0 0-3.3 5.7zm6.2 12.3a4.54 4.54 0 1 0 7.9-4.5 4.54 4.54 0 0 0-6.2-1.7c-1 .6-1.8 1.6-2.1 2.8-.4 1.1-.3 2.3.4 3.4zm6 12.3c1 1.7 2.8 2.8 4.8 2.8a6 6 0 0 0 2.7-.7 5.53 5.53 0 0 0-5.5-9.6 5.36 5.36 0 0 0-2 7.5zm-59 107.3c-.4 0-.7.1-1.1.2-1.3.6-1.9 2.2-1.3 3.5.4 1 1.4 1.6 2.4 1.6.4 0 .7-.1 1.1-.2 1.3-.6 1.9-2.2 1.3-3.5-.4-1-1.4-1.6-2.4-1.6zm12.5.2c.4 0 .9-.1 1.3-.3 1.6-.7 2.3-2.6 1.6-4.2a3.2 3.2 0 0 0-2.9-1.9c-.4 0-.9.1-1.3.3-1.6.7-2.3 2.6-1.6 4.2.5 1.2 1.6 1.9 2.9 1.9zm15.9-10.3c-.6-1.4-2-2.2-3.4-2.2-.5 0-1.1.1-1.5.3-.9.4-1.6 1.2-2 2.1-.4.9-.3 2 .1 2.9.6 1.4 2 2.2 3.4 2.2.5 0 1.1-.1 1.5-.3 1.9-.9 2.7-3.1 1.9-5zm9 .5zM256.5 39c.8 0 1.6-.3 2.2-.9 1.2-1.2 1.2-3.2 0-4.5-.6-.6-1.4-.9-2.2-.9-.8 0-1.6.3-2.2.9-.6.6-.9 1.4-.9 2.2 0 .8.3 1.6.9 2.2.6.7 1.4 1 2.2 1zm-9.7 10.3c1 0 2-.4 2.7-1.1a3.86 3.86 0 0 0 0-5.4 3.86 3.86 0 0 0-5.4 0 3.86 3.86 0 0 0 0 5.4c.8.7 1.7 1.1 2.7 1.1zm-12.9 9.1a4.63 4.63 0 0 0 6.4 0 4.63 4.63 0 0 0 0-6.4 4.63 4.63 0 0 0-6.4 0 4.65 4.65 0 0 0 0 6.4zm-2.5 2.6a5.52 5.52 0 0 0-7.8 0 5.62 5.62 0 0 0 0 7.8 5.52 5.52 0 0 0 7.8-7.8zm34.3 119.4c-.9 0-1.8.5-2.2 1.3-.6 1.2-.1 2.6 1.1 3.2.3.2.7.2 1.1.2.9 0 1.8-.5 2.2-1.3.6-1.2.1-2.6-1.1-3.2-.4-.1-.7-.2-1.1-.2zm-13.5-1.1c.4.2.8.3 1.3.3a2.84 2.84 0 1 0 0-5.7 2.84 2.84 0 0 0-1.3 5.4zm-12.5-5.6c.5.2 1 .3 1.5.3 1.3 0 2.5-.7 3-1.9.8-1.7.1-3.7-1.5-4.5-.5-.2-1-.3-1.5-.3-1.3 0-2.5.7-3 1.9-.9 1.7-.2 3.7 1.5 4.5zm-12.6-5.4c.6.3 1.2.4 1.8.4 1.6 0 3-.9 3.6-2.3a4 4 0 1 0-7.2-3.5 4 4 0 0 0 1.8 5.4zm26.7 52.7h.2c.8 0 1.5-.6 1.7-1.4.1-.4 0-.9-.3-1.2-.3-.4-.7-.6-1.1-.7h-.2c-.8 0-1.5.6-1.7 1.4-.1.9.5 1.7 1.4 1.9zm-13.5-1.8h.3c.9 0 1.8-.7 1.9-1.6.1-.5-.1-1-.4-1.4-.3-.4-.8-.7-1.3-.8h-.3c-.9 0-1.8.7-1.9 1.6-.1 1.1.6 2.1 1.7 2.2zm-13-6h-.3c-1.1 0-2 .8-2.2 1.9-.1.6.1 1.2.4 1.7.4.5.9.8 1.5.9h.3c1.1 0 2-.8 2.2-1.9.1-.6-.1-1.2-.4-1.7-.4-.5-.9-.9-1.5-.9zm-14.2 2.8h.4c1.3 0 2.4-1 2.6-2.2.2-1.4-.8-2.8-2.2-3h-.4c-1.3 0-2.4 1-2.6 2.2-.1.7.1 1.4.5 1.9.4.6 1 1 1.7 1.1zM177.6 6.3c1.7 0 3.2-1.4 3.2-3.2 0-1.7-1.4-3.2-3.2-3.2-1.7 0-3.2 1.4-3.2 3.2 0 1.8 1.4 3.2 3.2 3.2zm0 14.3a3.8 3.8 0 1 0 0-7.6 3.8 3.8 0 0 0 0 7.6zm0 14.4c2.5 0 4.5-2 4.5-4.5s-2-4.5-4.5-4.5-4.5 2-4.5 4.5c-.1 2.5 2 4.5 4.5 4.5zm0 14.7c3 0 5.5-2.5 5.5-5.5s-2.5-5.5-5.5-5.5-5.5 2.5-5.5 5.5 2.4 5.5 5.5 5.5zM286 114.8c0 1.7 1.4 3.1 3.2 3.1 1.7 0 3.2-1.4 3.2-3.1 0-1.7-1.4-3.2-3.2-3.2-1.8 0-3.2 1.4-3.2 3.2zm-14.3 0a3.8 3.8 0 1 0 7.6 0 3.8 3.8 0 0 0-7.6 0zm-9.9-4.6c-2.5 0-4.5 2-4.5 4.5s2 4.5 4.5 4.5 4.5-2 4.5-4.5c.1-2.4-2-4.5-4.5-4.5zm-8.1 4.6c0-3-2.5-5.5-5.5-5.5s-5.5 2.5-5.5 5.5 2.5 5.5 5.5 5.5 5.5-2.5 5.5-5.5zm31.7 25.7c-1.4 0-2.7 1-3 2.3-.4 1.7.6 3.4 2.2 3.9.3.1.5.1.8.1 1.4 0 2.7-1 3-2.3.4-1.7-.6-3.4-2.2-3.9-.3-.1-.5-.1-.8-.1zm-9.6.6c.3-1 .1-2-.4-2.9-.5-.9-1.3-1.5-2.3-1.8-.3-.1-.6-.1-1-.1-1.7 0-3.2 1.1-3.6 2.8-.3 1-.1 2 .4 2.9.5.9 1.3 1.5 2.3 1.8.3.1.6.1 1 .1 1.7 0 3.2-1.2 3.6-2.8zm-18-.1c.4.1.8.2 1.2.2 2.1 0 3.9-1.4 4.4-3.4.3-1.2.2-2.4-.5-3.4-.6-1-1.6-1.8-2.8-2.1-.4-.1-.8-.2-1.2-.2-2 0-3.9 1.4-4.4 3.4-.6 2.3.9 4.8 3.3 5.5zm-12.1-13.5c-2.5 0-4.7 1.7-5.3 4.1-.4 1.4-.2 2.9.6 4.2.7 1.3 1.9 2.2 3.3 2.6.5.1.9.2 1.4.2 2.5 0 4.7-1.7 5.3-4.1.8-2.9-1-6-3.9-6.7-.4-.2-.9-.3-1.4-.3zM205.6 10c.3.1.5.1.8.1 1.4 0 2.7-1 3-2.3.2-.8.1-1.7-.3-2.4s-1.1-1.2-1.9-1.5c-.3-.1-.5-.1-.8-.1-1.4 0-2.7 1-3 2.3-.4 1.7.6 3.4 2.2 3.9zm-3.7 13.8c.3.1.6.1 1 .1 1.7 0 3.2-1.1 3.6-2.8.3-1 .1-2-.4-2.9-.5-.9-1.3-1.5-2.3-1.8-.3-.1-.6-.1-1-.1-1.7 0-3.2 1.1-3.6 2.8-.5 2.1.7 4.2 2.7 4.7zm-3.7 14c.4.1.8.2 1.2.2 2 0 3.9-1.4 4.4-3.4.6-2.4-.8-4.9-3.2-5.6-.4-.1-.8-.2-1.2-.2a4.59 4.59 0 0 0-1.2 9zm-3.8 14.1c.5.1.9.2 1.4.2 2.5 0 4.7-1.7 5.3-4.1.8-2.9-1-6-3.9-6.7-.5-.1-.9-.2-1.4-.2-2.5 0-4.7 1.7-5.3 4.1-.4 1.4-.2 2.9.6 4.2.7 1.2 1.9 2.1 3.3 2.5zm79.8 10.2c.6 0 1.1-.1 1.6-.4 1.5-.9 2-2.8 1.2-4.3-.6-1-1.6-1.6-2.7-1.6-.6 0-1.1.1-1.6.4-1.5.9-2 2.8-1.2 4.3.6 1 1.6 1.6 2.7 1.6zm-15.1 5.6c.7 1.2 1.9 1.9 3.3 1.9a3.75 3.75 0 0 0 0-7.5 3.75 3.75 0 0 0-3.3 5.6zm-8.6.4c-.8 0-1.6.2-2.3.6-1 .6-1.8 1.6-2.1 2.8-.3 1.2-.2 2.4.5 3.4a4.54 4.54 0 0 0 6.2 1.7c1-.6 1.8-1.6 2.1-2.8.3-1.2.2-2.4-.5-3.4a4.3 4.3 0 0 0-3.9-2.3zm-14.6 6.6A5.53 5.53 0 1 0 244 81c.4-1.4.2-2.9-.6-4.2a5.59 5.59 0 0 0-7.5-2.1zM259 198.9c.3.1.5.2.8.2.9 0 1.7-.5 2-1.3.5-1.1-.1-2.4-1.2-2.8-.3-.1-.6-.2-.8-.2-.9 0-1.7.5-2 1.3-.5 1.1.1 2.3 1.2 2.8zm-12.8-5a2.47 2.47 0 0 0 3.3-1.4 2.54 2.54 0 0 0-2.4-3.5c-1 0-1.9.6-2.3 1.6-.3.6-.3 1.3 0 1.9.3.7.8 1.2 1.4 1.4zm-8.8-6.4c.3-.7.3-1.6 0-2.3-.3-.7-.9-1.3-1.6-1.6-.4-.2-.8-.2-1.2-.2-1.2 0-2.3.7-2.8 1.8-.6 1.5.1 3.3 1.6 3.9.4.2.8.2 1.2.2 1.2 0 2.3-.7 2.8-1.8zm-15.4-2.9c1.4 0 2.7-.9 3.3-2.2.4-.9.4-1.9 0-2.7-.4-.9-1-1.6-1.9-1.9-.4-.2-.9-.3-1.4-.3-1.4 0-2.7.9-3.3 2.2-.4.9-.4 1.9 0 2.7.4.9 1 1.6 1.9 1.9.4.2.9.3 1.4.3zM285.4 89c.3 0 .5 0 .8-.1.8-.2 1.5-.7 1.9-1.5.4-.7.5-1.6.3-2.4a3.1 3.1 0 0 0-3-2.3c-.3 0-.5 0-.8.1a3.1 3.1 0 0 0-2.2 3.9 3 3 0 0 0 3 2.3zm-13.2 4.2c.3 0 .7 0 1-.1a3.75 3.75 0 1 0-.9-7.4c-.3 0-.7 0-1 .1-1 .3-1.8.9-2.3 1.8-.5.9-.6 1.9-.4 2.9.4 1.5 1.9 2.7 3.6 2.7zm-12.1 4.1a4.5 4.5 0 0 0 3.2-5.6c-.5-2-2.3-3.4-4.4-3.4-.4 0-.8.1-1.2.2a4.58 4.58 0 0 0-3.3 5.5c.5 2 2.3 3.4 4.4 3.4.6.1 1 0 1.3-.1zm-15.8-6.1c-1.4.4-2.6 1.3-3.3 2.6-.7 1.3-.9 2.8-.6 4.2a5.46 5.46 0 0 0 6.7 3.9c1.4-.4 2.6-1.3 3.3-2.6.7-1.3.9-2.8.6-4.2a5.46 5.46 0 0 0-6.7-3.9zm13.5 117.9a2 2 0 0 0-1.3-2.4c-.2 0-.4-.1-.5-.1-.8 0-1.6.6-1.8 1.4-.3 1 .3 2.1 1.3 2.4.2 0 .4.1.5.1.8 0 1.6-.6 1.8-1.4zm-12.8-3.7c.2-.6.1-1.2-.2-1.7-.3-.5-.8-.9-1.3-1.1-.2-.1-.4-.1-.6-.1-1 0-1.9.7-2.1 1.6-.2.6-.1 1.2.2 1.7.3.5.8.9 1.3 1.1.2.1.4.1.6.1.9 0 1.8-.7 2.1-1.6zm-14.6-7c-.2-.1-.5-.1-.7-.1-1.2 0-2.2.8-2.5 1.9-.2.7-.1 1.4.2 2 .3.6.9 1.1 1.6 1.2.2.1.5.1.7.1 1.2 0 2.2-.8 2.5-1.9.4-1.3-.4-2.8-1.8-3.2zm-10.9-.4c.2-.8.1-1.6-.3-2.4-.4-.7-1.1-1.2-1.9-1.5-.3-.1-.6-.1-.9-.1-1.4 0-2.6.9-3 2.2-.2.8-.1 1.6.3 2.4.4.7 1.1 1.2 1.9 1.5.3.1.6.1.9.1 1.4.1 2.7-.9 3-2.2zm12.3-177.2c.5.3 1 .4 1.6.4 1.1 0 2.2-.6 2.7-1.6.9-1.5.4-3.4-1.2-4.3-.5-.3-1-.4-1.6-.4-1.1 0-2.2.6-2.7 1.6-.4.7-.5 1.6-.3 2.4.3.8.8 1.5 1.5 1.9zm-7.1 12.4c.6.3 1.2.5 1.9.5a3.75 3.75 0 1 0 0-7.5c-1.3 0-2.6.7-3.3 1.9-.5.9-.6 1.9-.4 2.9.3.9.9 1.7 1.8 2.2zm-7.3 12.5a4.54 4.54 0 0 0 6.2-1.7c.6-1 .8-2.3.5-3.4a4.9 4.9 0 0 0-2.1-2.8 4.54 4.54 0 0 0-6.2 1.7 4.52 4.52 0 0 0 1.6 6.2zm-9.3 5.2c-.7 1.3-.9 2.8-.6 4.2.4 1.4 1.3 2.6 2.6 3.3a5.59 5.59 0 0 0 7.5-2.1c1.5-2.6.6-6-2-7.5a5.59 5.59 0 0 0-7.5 2.1zm67.4 117.9c.3.2.7.2 1.1.2 1 0 2-.6 2.4-1.6.6-1.3 0-2.9-1.3-3.5-.3-.2-.7-.2-1.1-.2-1 0-2 .6-2.4 1.6-.3.6-.3 1.4-.1 2 .3.7.8 1.2 1.4 1.5zm-11.4-11.2a3.19 3.19 0 0 0-1.3 6.1 3.15 3.15 0 0 0 4.2-1.6c.7-1.6 0-3.5-1.6-4.2-.4-.2-.8-.3-1.3-.3zm-12.5 1.3a3.76 3.76 0 0 0 0-7.5c-1.5 0-2.8.9-3.4 2.2-.8 1.9 0 4.1 1.9 5 .5.2 1 .3 1.5.3zM235 147.7a4.55 4.55 0 1 0 8.3 3.7 4.55 4.55 0 0 0-8.3-3.7zm-97.5-15s-.1 0 0 0zm21.2-59c-.4 3.8 1 8.7 6.2 9.7h.1c.5 0 .6-.2.8-1.1.2-.7.5-1.9 1.8-1.9.3 0 .5 0 .8.1l.7.2-.4.6c-1.1 1.5-.7 3.3-.3 4.9.3 1.4.7 2.8-.2 3.7l-.2.2-.3-.1c-1.1-.5-1.7-1.4-1.8-2.9-7.3-1-11-5.8-11-14.3-5.3.4-8.7 3-10.5 8.3l-.1.3h-.3c-5.5.7-8 6-7.7 10.9.3 4.2 3 9.1 9.4 9.1.9 0 1.8-.1 2.7-.3.2-3.1-1-8.4-2.5-10.9l.7-.6c1.5 1.1 3.5 1.1 5.5 1.2.8 0 1.5.1 2.2.1l.4.1v.4c.1 1.6-1.2 2-2.1 2.3-.7.2-1.2.4-1.4.8-.8 5.8 2.4 7.6 5.9 9.6 1 .6 2 1.2 3 1.9l.4.3-.3.4c-.7.9-1.5 1.4-2.6 1.4-1.7 0-3.6-1.2-5.3-2.3-.8-.5-1.5-1-2.1-1.2-1.5.4-3 .5-4.4.5-5.4 0-10.1-2.7-12.2-6.9-2.2 2.5-3.3 7.9-1.4 11.4l.2.3-.2.2c-3.2 3.3-4 7.8-2.1 11.9 1.8 4 5.6 6.6 9.5 6.6 2.5 0 5-1.1 7.2-3.2 0-.6-.1-1-.1-1.4-.2-.9-.3-1.6.8-2.6l.1-.2h.3c1.1 0 4.4 6.6 4.4 8.1 0 .8-.5 1-.9 1h-.2l-.1-.1c-.6-.4-1.4-.6-2.3-.6-1.6 0-3.4.6-5.4 1.3-4.8 1.6-5.7 1.9-5.9 1.9l-.1.5c-1.3 5.8.1 12.8 3.2 16.6 1.4 1.7 3.2 2.7 5.1 2.9-2-6.3-.8-13.3 3-18.4 3.1-4.2 7.7-6.6 12.5-6.6.6 0 1.1 0 1.7.1 1.6.2 4.7 1 5.8 2.7.5.8.5 1.7.1 2.7l-.2.5-.5-.3a14.7 14.7 0 0 0-7.1-2.1c-7.2 0-11.7 7.1-12.4 14.1-.7 6.6 2 13.9 9.4 15.3 1.3.3 2.6.4 3.8.4 3.2 0 5.7-1 7.7-2.9 6-6 5.2-20.4 4.4-34.2-.4-7-.8-13.7-.2-19.1-4.3 6.2-11.5 13.5-25.7 13.5-1.5 0-3-.1-4.5-.2-.2 0-.4 0-.6-.1-2.6-.2-8-.7-7.8-4.8v-.6l.6.2c4.3 1.1 8.4 1.7 12.2 1.7 14.8 0 24.6-8.5 26.1-22.8.9-8.1.6-21.7-2.8-25.4-1.6-.9-3.2-1.4-4.7-1.4-4.6-.1-7.4 4.3-7.8 8.6zm21.8-.8c-2.3 15.7 1.1 34.1 12 39.2 5.8-.8 8.2-4.1 7.4-10.3-.2-.2-.7-.3-1.1-.4-.7-.2-1.5-.3-1.9-1-.3-.5-.3-1.1-.1-1.9l.1-.5.5.2c.9.3 1.8.4 2.6.4 1.6 0 2.9-.5 4.4-1.8l.4-.3.3.4c1.4 1.7.1 2.7-.8 3.4-.5.4-.9.7-1.1 1.1.7 1.4.5 2.6.2 4-.1.8-.3 1.6-.3 2.4.9.2 1.8.3 2.7.3 6.4 0 10.3-6.3 10.9-12.6.5-5.9-1.8-12.3-8.3-13.5l-.3-.1-.1-.3c-1.6-4.8-3.7-7.8-9.4-8.4.3 4-.8 7.6-3 10.1-1.9 2.2-4.6 3.4-7.9 3.6-.3.2-.5.6-.8 1.1-.6 1-1.3 2.2-2.9 2.2-.2 0-.4 0-.6-.1l-.7-.1.3-.6c.9-1.7 1.2-4 1.5-6.1.2-1.2.3-2.3.5-3.2l.1-.4.4.1c1.4.2 1.7 1.4 1.9 2.3.1.4.2.7.3 1 4.6-.4 7.3-3.4 7.2-8.2-.1-4.9-3.4-10.3-7.5-10.3-1.7 0-3.3.9-4.9 2.5-.7 1.3-1.8 4.1-2 5.8zm36.4 60.2v-.6s4.1-.1-2.3-.1c-3.2 0-6.5-1-8.6-2.5-1.6 2-5.1 3.4-8.4 3.4-3.6 0-6-1.6-6.6-4.4l-.2-.8.8.2c1.5.4 3.3.7 4.9.7 4.2 0 7.7-1.4 9.5-3.9l.4-.5.4.5c2 2.3 4.4 3.5 6.9 3.5 3.9 0 7.7-2.8 9.6-6.9 1.9-4.2 1.2-8.6-1.9-11.9l-.2-.2.1-.3c1.3-3.3 1.2-8.3-.8-10.8-2.4 8.4-8.1 13.2-15.7 13.3-1.1 0-2.2-.1-3.3-.3-.3.3-.7.5-1 .8-.7.5-1.5 1.1-1.9 1.8.4.1.9.2 1.4.2 1.1.1 2.3.2 2.9 1.1.4.6.4 1.4.1 2.5l-.1.3h-.6c-11.3 0-16.2-6.2-20.9-12.2l-1-1.3c.9 6.8.3 14.8-.3 22.7-1 13.7-2 26.7 4.9 31.7 2.2 1.6 4.6 2.4 7.1 2.4 4.5 0 8.9-2.8 11.6-7.2 2.9-4.9 3-10.6.2-15.3-.5.3-.8.7-1.1 1.3-.6.9-1.3 2-3.1 2h-.6l-.8-.1.4-.6c1.5-2.3 2.6-4.9 3.4-8l.1-.5.5.2c5.8 2.4 7.5 12.2 5.5 19.9 7.6-2 8.6-11.7 8.7-20.1zm-64.5 101.2c16-4 32.8-4 48.8 0 3.7.9 7.6-1 8.9-4.6 1.2-3.6-1.2-7.6-5.5-8.7-18.2-4.5-37.2-4.5-55.4 0-4.3 1.1-6.8 5.1-5.5 8.7 1.1 3.6 5 5.5 8.7 4.6zm53.4 10.4c1.1-3.1-1.1-6.7-4.8-7.6-15.9-4-32.4-4-48.3 0-3.8.9-5.9 4.5-4.8 7.6a6.5 6.5 0 0 0 7.7 4c14-3.5 28.6-3.5 42.5 0 3.2.8 6.6-.8 7.7-4zm-10.9 8.5c-.2-2.6-8.3-3.9-18-4-9.7 0-17.7 1.4-18 4-.2 2.5 7.8 5.4 18 5.4s18.2-2.8 18-5.4zM33 313c-1.8-1-4.9-2.6-9.3-4.7-3.7-1.8-6.5-3.2-8.4-4.4-1.9-1.2-3.2-2.3-4-3.4a8.26 8.26 0 0 1-1.6-5.2c0-1.4.3-2.6 1-3.6 1-1.7 2.2-2.7 3.5-3.1 1.4-.4 3.3-.5 5.8-.5h21.3v-8.7H20.7c-3.5 0-6.5.4-9 1.2-3.7 1.2-6.5 3.3-8.6 6.3-1.8 2.6-2.7 5.8-2.7 9.5 0 3.6 1.1 7 3.3 10 1.6 2.2 4.1 4.3 7.4 6.3 1.8 1.1 4.8 2.6 9 4.5 6.6 3.2 10.8 5.7 12.5 7.5 1.7 1.9 2.5 4.1 2.5 6.6 0 3.3-1.5 5.6-4.6 7-2 .9-4.6 1.3-8 1.3H0v8.7h23.4c4.2 0 7.5-.4 9.9-1.3 3.5-1.2 6.4-3.6 8.5-7.1 1.7-2.8 2.6-5.9 2.6-9.5 0-3.9-1.2-7.5-3.6-10.8-1.7-2.4-4.3-4.5-7.8-6.6zm111.2-13.1c-7.1 0-13.1 2.3-18 7s-7.3 10.8-7.3 18.3c0 7.2 2.3 12.9 6.9 17.3 4.6 4.4 10.3 6.6 17 6.6 5.3 0 9.9-1.5 13.7-4.5v-9.1c-1.9 1.8-3.9 3.1-5.9 4-2 .9-4.2 1.3-6.5 1.3-4.2 0-7.8-1.2-10.8-3.6-3.7-3-5.5-7.2-5.5-12.6 0-5.1 1.5-9.1 4.6-12 3.1-3 6.9-4.4 11.5-4.4 4.3 0 7.8 1.1 10.5 3.4 3.7 3.2 5.6 8.3 5.6 15.4v21.2h8.7v-20.9c0-9.3-2.6-16.3-7.7-21.2-4.3-4.2-9.9-6.2-16.8-6.2zM350.9 326c0 2.7-.7 5.2-2 7.4-1.3 2.3-3 4-5.1 5.3-1.4.8-2.8 1.3-4.2 1.6-1.4.3-3 .4-4.8.4a16.11 16.11 0 0 1-8.3-2.3 14.6 14.6 0 0 1-5.1-5.6c-1.3-2.4-2-5.3-2-8.5 0-4.8 1.4-8.7 4.3-11.8 2.9-3.1 6.6-4.6 11.2-4.6 1.9 0 3.8.3 5.7 1 1.9.7 3.6 1.8 5.2 3.5l-23.3 13 3.5 6.9 31.9-17.7c-2.2-5-5.4-8.7-9.5-11.2s-8.5-3.7-13.4-3.7c-7 0-12.8 2.3-17.5 7-4.7 4.7-7 10.6-7 17.6 0 5 1.2 9.4 3.6 13.2 2.4 3.8 5.7 6.8 9.8 8.8 3.5 1.7 7.2 2.6 11 2.6 2.2 0 4.5-.3 6.7-.8s4.2-1.3 6-2.4c2.8-1.6 5.2-3.5 7-5.9 2.8-3.6 4.5-7.9 4.9-12.9l-8.6-.9zm-159.4-26.2c-2.7 1-4.9 2.8-6.7 5.4v-5.4h-8.3v48.3h8.7v-22.5c0-5.8 1.2-10.2 3.5-13.3 2.2-2.8 5.4-4.2 9.8-4.2h1.2v-9.3h-1.5c-2.6 0-4.9.4-6.7 1zm-87.1 2.5a17.5 17.5 0 0 0-9.1-2.5c-1.8 0-3.6.3-5.4.8-3.4 1.1-6.2 3-8.3 5.9-2.1-2.9-4.9-4.9-8.3-5.9-1.3-.5-2.4-.7-3.2-.7h-2.3c-3.2 0-6.2.9-9.1 2.6-3.3 2-5.6 4.8-6.7 8.2-.8 2.3-1.2 5.7-1.2 10.1v27.4h8.7V320c0-2.6.2-4.6.6-5.9a8.35 8.35 0 0 1 8.3-6c1.6 0 3 .4 4.3 1.2 1.9 1.1 3.2 2.7 3.8 4.8.4 1.3.6 3.3.6 6v28H86v-28c0-2.6.3-4.7.8-6.5a7.9 7.9 0 0 1 3.6-4.3c1.4-.8 2.9-1.2 4.5-1.2s3.1.4 4.2 1.1c2 1.1 3.3 2.8 3.9 4.9.4 1.3.6 3.3.6 5.9v28.1h8.7v-27.5c0-4.6-.4-8-1.2-10.3-1-3.3-3.3-5.9-6.7-8zm107.8-16.2h-9.1v46.1c0 6.8 2 11.4 6.1 13.9 2.2 1.3 4.1 2 7.8 2h12.1v-4.5h-.8c-10.2 0-18.4-8.2-18.4-18.4s8.2-18.4 18.4-18.4h.8v-7.2h-16.9v-13.5zm85.8-4.5c-1.4-2.3-3.5-3.4-6.4-3.4-2 0-3.6.6-4.9 1.9-1.3 1.2-2.6 3.8-3.7 7.7l-13.7 45.6-13.9-45.6c-.9-3.1-1.8-5.3-2.8-6.5-1.4-2-3.4-3.1-5.9-3.1-2.9 0-5 1.2-6.4 3.5-.9 1.4-1.4 3.4-1.8 6.2l-3.8 20c3.4 1.2 6.3 3.5 8.5 6.3l4.2-22.1 14.8 48.8c.9 2.8 1.6 4.8 2.4 5.8 1 1.5 2.6 2.3 4.6 2.3 1.7 0 3.1-.5 4.1-1.4 1-1 2.1-3.2 3.1-6.6l14.8-48.8 6.8 55.9h9.7l-7.8-60.2c-.5-2.8-1.1-4.9-1.9-6.3z"/><path fill-rule="evenodd" clip-rule="evenodd" fill="#2D9BCA" d="M228.7 336a10.5 10.5 0 1 1 0-21 10.5 10.5 0 0 1 0 21z"/><path d="M42.7 394.5c-1.2 0-2.2-.2-3.1-.5-.9-.3-1.6-.8-2.1-1.4-.6-.6-1-1.3-1.3-2.1-.3-.8-.4-1.7-.4-2.7v-10.6h3.8v10.2c0 .7.1 1.3.2 1.8.2.5.4.9.6 1.2.3.3.6.5 1 .6.4.1.8.2 1.3.2.9 0 1.7-.3 2.3-.9.6-.6.9-1.5.9-2.9v-10.2h3.8v10.6c0 1-.1 1.9-.4 2.7a5.71 5.71 0 0 1-3.5 3.5c-.8.3-1.9.5-3.1.5zm37.6-.3c-1.1-1.9-2.3-3.9-3.6-5.8-1.3-1.9-2.6-3.7-4.1-5.4v11.1h-3.8v-17H72c.5.5 1.1 1.2 1.8 2s1.3 1.6 2 2.5c.7.9 1.4 1.8 2 2.8.7 1 1.3 1.9 1.9 2.8v-10h3.8v17h-3.2zm22.5-17h3.8v17h-3.8v-17zm28.3 17c-.7-1.4-1.3-2.9-2-4.4-.7-1.5-1.3-3.1-1.9-4.6-.6-1.5-1.1-2.9-1.6-4.3s-.9-2.6-1.3-3.7h4.2c.3 1 .7 2 1.1 3.2.4 1.1.8 2.3 1.2 3.4.4 1.1.8 2.2 1.2 3.2.4 1 .7 1.9 1.1 2.7.3-.7.7-1.6 1-2.7.4-1 .8-2.1 1.2-3.2.4-1.1.8-2.3 1.2-3.4.4-1.1.7-2.2 1.1-3.2h4.1c-.4 1.1-.8 2.3-1.3 3.7-.5 1.4-1 2.8-1.6 4.3-.6 1.5-1.2 3-1.9 4.6-.7 1.5-1.3 3-2 4.4h-3.8zm28.1 0v-17h11.5v3.2H163v3.3h6.8v3.1H163v4.1h8.2v3.2h-12zm35.3-17.2c2.6 0 4.5.5 5.9 1.4s2 2.3 2 4.2c0 1.2-.3 2.2-.8 2.9-.5.7-1.3 1.3-2.4 1.8.3.4.7.9 1.1 1.5.4.5.7 1.1 1.1 1.7.4.6.7 1.2 1.1 1.9.3.6.7 1.3 1 1.9h-4.3c-.3-.6-.6-1.1-.9-1.7-.3-.6-.6-1.1-1-1.7-.3-.5-.7-1-1-1.5-.3-.5-.7-.9-1-1.3h-1.9v6.2h-3.8v-16.7c.8-.2 1.7-.3 2.6-.3s1.6-.3 2.3-.3zm.2 3.2h-1.3v4.6h1.1c1.4 0 2.5-.2 3.1-.5.6-.4.9-1 .9-1.8s-.3-1.4-.9-1.8c-.7-.3-1.7-.5-2.9-.5zm31.2 11c.5 0 1 0 1.3-.1.3-.1.6-.2.8-.4.2-.2.4-.3.4-.6.1-.2.1-.5.1-.7 0-.6-.3-1-.8-1.4-.5-.4-1.4-.8-2.7-1.2-.6-.2-1.1-.4-1.7-.7a5.6 5.6 0 0 1-2.6-2.4c-.3-.5-.4-1.2-.4-2s.1-1.5.4-2.1c.3-.6.7-1.2 1.3-1.6.5-.4 1.2-.8 2-1 .8-.2 1.6-.4 2.6-.4 1.1 0 2.1.1 3 .4.8.2 1.5.5 2.1.8l-1.1 3c-.5-.2-1-.5-1.6-.6-.6-.2-1.3-.3-2.1-.3-.9 0-1.6.1-2 .4-.4.3-.6.6-.6 1.2 0 .3.1.6.2.8.1.2.4.4.6.6.3.2.6.3.9.5.3.1.7.3 1.2.4.9.3 1.7.6 2.3 1a5 5 0 0 1 2.6 2.6c.2.6.3 1.3.3 2.1 0 1.6-.6 2.8-1.7 3.7-1.1.9-2.8 1.3-5 1.3-.8 0-1.4 0-2-.1-.6-.1-1.1-.2-1.6-.3-.5-.1-.9-.3-1.2-.4-.3-.1-.6-.3-.8-.4l1.1-3c.5.3 1.1.5 1.9.7.9.1 1.8.2 2.8.2zm25.1-14h3.8v17H251v-17zm35.8 0v3.3h-5.1v13.7h-3.8v-13.7h-5.1v-3.3h14zm25 6.9c.7-1.2 1.3-2.3 2-3.5.6-1.2 1.2-2.3 1.7-3.5h4.2c-.9 1.8-1.9 3.6-2.9 5.3-1 1.7-2.1 3.4-3.2 5.2v6.5h-3.8v-6.4c-1.1-1.7-2.2-3.5-3.2-5.2-1-1.7-2-3.5-2.9-5.3h4.4c.5 1.2 1.1 2.3 1.7 3.5.7 1.1 1.3 2.3 2 3.4z" fill="#30333b"/></svg>