<svg xmlns="http://www.w3.org/2000/svg" viewBox="0 0 566.929 566.918"><g fill="#346094"><path d="M283.465 0C126.915.004.01 126.91 0 283.463.01 440.02 126.914 566.918 283.465 566.918c156.537 0 283.456-126.905 283.464-283.452C566.92 126.91 440.01.002 283.464 0zm0 549.333c-146.838 0-265.867-119.035-265.875-265.87.008-146.842 119.037-265.876 265.875-265.878 146.847 0 265.87 119.036 265.88 265.878-.01 146.835-119.042 265.87-265.88 265.87z"/><path d="M316.254 350.044c-25.77 12.89-56.317 8.853-77.828-10.25-4.672-4.156-11.834-3.735-15.99.945-4.154 4.675-3.73 11.833.946 15.99 17.395 15.45 39.248 23.453 61.4 23.453 14.107 0 28.34-3.25 41.61-9.878 45.644-22.87 64.172-78.618 41.303-124.27-11.07-22.108-30.09-38.588-53.554-46.397-23.47-7.81-48.573-6.013-70.688 5.064-7.613 3.817-14.648 8.637-20.917 14.323-4.633 4.2-4.984 11.365-.78 16 4.198 4.63 11.364 4.986 15.997.78 4.75-4.307 10.08-7.957 15.854-10.853 16.692-8.365 35.656-9.72 53.377-3.82 17.724 5.898 32.09 18.346 40.454 35.048 17.28 34.488 3.285 76.595-31.183 93.864z"/><path d="M394.073 377.42c8.068-9.972 14.753-20.956 19.87-32.646 3.88-8.857-.155-19.182-9.013-23.06-8.854-3.874-19.182.15-23.06 9.014-3.865 8.827-8.918 17.127-15.022 24.666-37.388 46.22-105.403 53.402-151.627 16.006-46.218-37.393-53.396-105.413-16.01-151.632 28.785-35.58 77.07-49.14 120.148-33.74 9.1 3.254 19.125-1.482 22.383-10.59 3.255-9.105-1.486-19.125-10.592-22.38-57.067-20.396-121.023-2.442-159.16 44.685-49.534 61.234-40.017 151.35 21.206 200.882 26.395 21.35 58.143 31.726 89.705 31.726 41.66 0 82.99-18.097 111.173-52.93z"/><path d="M283.47 79.373c-114.093 0-206.913 92.82-206.913 206.91 0 18.592 2.477 37.05 7.36 54.86 3.714 13.508 17.656 21.46 31.172 17.75 13.507-3.71 21.453-17.664 17.75-31.172-3.688-13.437-5.558-27.38-5.558-41.437 0-86.12 70.063-156.184 156.185-156.184 86.118 0 156.182 70.063 156.182 156.183 0 68.806-44.1 128.755-109.733 149.166-13.378 4.163-20.848 18.373-16.688 31.75 3.378 10.872 13.394 17.838 24.208 17.838 2.494 0 5.032-.373 7.54-1.153 86.967-27.042 145.396-106.456 145.396-197.602.002-114.09-92.817-206.91-206.905-206.91z"/></g></svg>