<svg xmlns="http://www.w3.org/2000/svg" viewBox="0 0 566.93 566.92"><g fill="#346094"><path d="M283.46 0C126.92 0 .01 126.91 0 283.46c.01 156.56 126.91 283.46 283.46 283.46 156.54 0 283.46-126.9 283.47-283.45C566.92 126.9 440 0 283.46 0zm0 549.33C136.63 549.33 17.6 430.3 17.6 283.46S136.64 17.59 283.48 17.58c146.84 0 265.86 119.04 265.87 265.88 0 146.84-119.04 265.87-265.88 265.87z"/><path d="M316.25 350.04a69.7 69.7 0 0 1-77.82-10.25 11.32 11.32 0 1 0-15.05 16.94A92.28 92.28 0 0 0 326.4 370.3c45.65-22.87 64.17-78.61 41.3-124.27a91.99 91.99 0 0 0-53.55-46.4 91.96 91.96 0 0 0-70.69 5.07 93.51 93.51 0 0 0-20.91 14.32 11.33 11.33 0 0 0 15.21 16.78 70.93 70.93 0 0 1 15.86-10.85 69.42 69.42 0 0 1 53.37-3.82 69.49 69.49 0 0 1 40.46 35.05c17.28 34.49 3.28 76.6-31.19 93.86z"/><path d="M394.07 377.42a143.25 143.25 0 0 0 19.87-32.65 17.5 17.5 0 1 0-32.07-14.04 108.15 108.15 0 0 1-15.02 24.66c-37.39 46.22-105.4 53.4-151.63 16.01-46.22-37.4-53.4-105.41-16-151.63a107.98 107.98 0 0 1 120.14-33.74 17.51 17.51 0 0 0 11.79-32.97 143.05 143.05 0 0 0-159.16 44.68c-49.53 61.24-40.02 151.35 21.2 200.88a142.17 142.17 0 0 0 89.71 31.73c41.66 0 83-18.1 111.17-52.93z"/><path d="M283.47 79.37c-114.1 0-206.91 92.82-206.91 206.91 0 18.6 2.47 37.05 7.36 54.86a25.36 25.36 0 1 0 48.92-13.42 156.58 156.58 0 0 1-5.56-41.44c0-86.12 70.06-156.18 156.19-156.18 86.11 0 156.18 70.06 156.18 156.18 0 68.8-44.1 128.76-109.73 149.17a25.36 25.36 0 1 0 15.06 48.43c86.96-27.04 145.4-106.45 145.4-197.6 0-114.09-92.83-206.9-206.91-206.9z"/></g></svg>