<svg xmlns="http://www.w3.org/2000/svg" viewBox="0 0 129.666 115.459"><path fill="#04529C" d="M55.32.857c6.8-2.33 14.78.23 19.05 5.98 6.18 8.41 12.13 16.99 18.28 25.43 6.76-6.78 13.37-13.72 20.37-20.24 5.71 7.13 10.73 14.79 16.03 22.22 1.55 1.45-.19 2.93-1.23 3.98-11.35 11.32-22.67 22.69-34.01 34.02-2.61 3.16-8.23 3.35-10.61-.18-9.93-13.77-19.71-27.64-29.57-41.46-2.18-3.15-5.19-5.79-8.79-7.16-3.76-1.7-7.97-.77-11.94-1.3 1.39-4.14 5.35-6.52 8.13-9.65 4.5-4.14 8.24-9.66 14.29-11.64z"/><path fill="#EE4035" d="M22.67 34.097c7.14-2.45 15.22 1.18 19.35 7.22 9.96 14.02 19.82 28.1 29.79 42.11 2.46 3.52 5.48 6.93 9.65 8.38 3.82 1.64 8.03.87 12.05 1.34-1.16 3.46-4.19 5.66-6.62 8.19-3.63 3.37-6.82 7.2-10.65 10.37-5.25 4.34-13.22 5.01-19.08 1.51-2.97-1.63-5.23-4.23-7.14-6.98-9.93-14.09-19.93-28.13-29.84-42.23-2.2-3.14-5.29-5.69-8.88-7.06-3.59-1.34-7.48-.97-11.23-1.06-.02-.55-.05-1.65-.07-2.2 4.46-4.61 9.1-9.05 13.56-13.67 2.53-2.63 5.52-4.97 9.11-5.92z"/></svg>