<svg xmlns="http://www.w3.org/2000/svg" viewBox="0 0 129.67 115.46"><path fill="#04529C" d="M55.32.86c6.8-2.33 14.78.23 19.05 5.98 6.18 8.4 12.13 16.99 18.28 25.43 6.76-6.78 13.37-13.72 20.37-20.24 5.71 7.13 10.73 14.79 16.03 22.22 1.55 1.45-.19 2.93-1.23 3.98-11.35 11.32-22.67 22.69-34.01 34.02-2.61 3.16-8.23 3.35-10.61-.18C73.27 58.3 63.49 44.43 53.63 30.6a19.24 19.24 0 0 0-8.79-7.16c-3.76-1.7-7.97-.77-11.94-1.3 1.39-4.14 5.35-6.52 8.13-9.65 4.5-4.14 8.24-9.66 14.29-11.64z"/><path fill="#EE4035" d="M22.67 34.1c7.14-2.45 15.22 1.18 19.35 7.22 9.96 14.02 19.82 28.1 29.79 42.1 2.46 3.53 5.48 6.94 9.65 8.39 3.82 1.64 8.03.87 12.05 1.34-1.16 3.46-4.19 5.66-6.62 8.19-3.63 3.37-6.82 7.2-10.65 10.37a17 17 0 0 1-19.08 1.5c-2.97-1.62-5.23-4.22-7.14-6.97C40.09 92.14 30.09 78.1 20.18 64a19.48 19.48 0 0 0-8.88-7.06C7.71 55.6 3.82 55.98.07 55.89L0 53.69c4.46-4.61 9.1-9.05 13.56-13.67 2.53-2.63 5.52-4.97 9.11-5.92z"/></svg>