<svg xmlns="http://www.w3.org/2000/svg" viewBox="0 0 148.5 44.33"><path fill="#ffe600" d="M0 0h148.5v44.33H0z"/><path d="M14.64 15.03h5.66v17.33h4.04V15.03h5.47v-3.38H14.64v3.38zm55.13 2.87h-4.43l-5.21 6.17V12.09l-3.85 1.4v18.87h3.85v-7.07l5.09 7.07h4.58l-5.72-7.78 5.69-6.68zm12.68 1.69a6.31 6.31 0 0 0-2.24-1.5 8.18 8.18 0 0 0-5.74 0A6.28 6.28 0 0 0 70.75 22a9.08 9.08 0 0 0-.52 3.19 9.28 9.28 0 0 0 .5 3.12 7 7 0 0 0 1.42 2.38 6.3 6.3 0 0 0 2.22 1.51 7.47 7.47 0 0 0 2.91.54 7.87 7.87 0 0 0 2.87-.52 6.39 6.39 0 0 0 2.26-1.5 7.05 7.05 0 0 0 1.48-2.39 9.14 9.14 0 0 0 .53-3.2A8.75 8.75 0 0 0 83.9 22a6.8 6.8 0 0 0-1.45-2.38m-2.13 7.27a5 5 0 0 1-.61 1.42 3 3 0 0 1-1 .95 3 3 0 0 1-3.77-.83 5.73 5.73 0 0 1-.83-3.32 5.74 5.74 0 0 1 .8-3.14 2.6 2.6 0 0 1 2.34-1.25 2.78 2.78 0 0 1 2.46 1.23 5.7 5.7 0 0 1 .83 3.22 6.28 6.28 0 0 1-.22 1.72M33.69 11.65a2.27 2.27 0 0 0-1.69.65 2.18 2.18 0 0 0-.67 1.59 2.14 2.14 0 0 0 .67 1.55 2.37 2.37 0 0 0 3.26 0 2.11 2.11 0 0 0 .74-1.55 2.15 2.15 0 0 0-.68-1.59 2.26 2.26 0 0 0-1.61-.65m-1.98 6.21h3.88v14.5h-3.88zm15.9-.13a6 6 0 0 0-4.42 1.33v-1.19h-3.88v14.49h3.88v-8.64a2.74 2.74 0 0 1 5.48 0v8.64h3.88v-8.58c0-4.54-2.64-5.88-4.94-6.05m40.49-.16v.27h-2.33v3h2.33v11.52H92V20.81h2.32v-3H92v-.31c0-2 .93-3 2.77-2.69l.6-3c-5.91-.71-7.26 2.44-7.26 5.73m10.03.03v.27h-2.33v3h2.33v11.52H102V20.81h2.32v-3H102v-.31c0-2 .94-3 2.77-2.69l.6-3c-5.9-.71-7.26 2.44-7.26 5.73M20.3 15.03v17.33m86.7.25a1.66 1.66 0 0 1-1.22-.49 1.81 1.81 0 0 1 0-2.53 1.74 1.74 0 0 1 1.22-.49 1.61 1.61 0 0 1 1.2.51 1.83 1.83 0 0 1 0 2.49 1.61 1.61 0 0 1-1.2.51zm12.94-12.16l-1-.15a7.22 7.22 0 0 0-.92-.06q-3.54 0-3.54 3.87v8.23h-2.61V17.83h2.61v2h.06a3.94 3.94 0 0 1 1.68-1.7 5 5 0 0 1 2.25-.53 6.46 6.46 0 0 1 2 .35zm2.23-2.62h2.62v8.63a4.82 4.82 0 0 0 .71 2.86 2.72 2.72 0 0 0 2.35 1 3.08 3.08 0 0 0 2.07-.71 3.83 3.83 0 0 0 1.14-1.88 4.86 4.86 0 0 0 .18-1.36v-8.54h2.62v14.51h-2.62v-1.87h-.09a4.87 4.87 0 0 1-1.93 1.66 5.11 5.11 0 0 1-2.14.51q-4.9 0-4.91-5.53z"/></svg>