<svg xmlns="http://www.w3.org/2000/svg" viewBox="0 0 156.63 29.05"><path fill="#CD150D" d="M57.34.07H46.57v8.48h5.18l-9.27 12.43-9.26-12.43h5.18V.07H28.16v17.24c.23 6.72 5.05 11.74 14.57 11.74 9.03 0 14.38-5.01 14.6-11.74V.07z"/><path fill="#192C8F" d="M25.13 8.67l.02-8.6H0l.02 8.6 7.3-.02.02 8.8L7.3 28.1h10.53l-.03-10.67.02-8.78 7.3.01m60.67 0l.03-8.6H60.68l.02 8.6 7.29-.02.02 8.8L68 28.1h10.5l-.02-10.67.02-8.78 7.3.01m8.1 15.5a4.86 4.86 0 1 1-9.73 0 4.86 4.86 0 0 1 9.72 0zm25.66-10.2s4.51-1.2 4.37-7.1C123.79 1 118.74 0 115.38 0L99.43.07V28.1h19.23s6.17-.13 6.33-7.12c.15-7-5.42-7.01-5.42-7.01zm-11.12-7.63h3.86c.37 0 1.64.51 1.69 2.43.05 2.43-1.22 2.53-1.22 2.53l-4.34.03v-5zm4.5 15.5l-4.43-.05-.07-5.2 4.5.05s1.68.37 1.72 2.71c.03 2.34-1.72 2.5-1.72 2.5zm32.82-7.86L156.63.07h-12.58l-3.26 6.63-3.25-6.63h-12.58l10.32 13.9.01 3.56-.02 10.58h10.52l-.02-10.58v-3.55"/></svg>