<svg xmlns="http://www.w3.org/2000/svg" viewBox="0 0 156.631 29.05"><path fill="#CD150D" d="M57.34.067H46.57v8.48h5.18L42.482 20.98 33.217 8.55h5.18V.07H28.16l.002 17.242c.23 6.72 5.05 11.74 14.57 11.74 9.03 0 14.376-5.014 14.607-11.74V.067z"/><path fill="#192C8F" d="M25.13 8.672l.02-8.605H0l.02 8.605 7.297-.018.02 8.787-.025 10.666H17.84l-.027-10.665.02-8.786 7.296.018M85.803 8.672l.022-8.605h-25.15l.02 8.605 7.295-.018.022 8.787-.027 10.666h10.528l-.025-10.665.02-8.786 7.295.018M93.906 24.176c0 2.686-2.178 4.864-4.863 4.864-2.688 0-4.864-2.18-4.864-4.864 0-2.688 2.176-4.865 4.863-4.865 2.685 0 4.863 2.178 4.863 4.866zM119.57 13.976s4.514-1.207 4.367-7.097C123.79.99 118.734 0 115.38 0L99.43.067v28.04l19.234-.005s6.17-.123 6.324-7.116c.152-6.99-5.42-7.01-5.42-7.01zm-11.124-7.638l3.86.008c.372-.008 1.648.506 1.69 2.424.05 2.432-1.217 2.533-1.217 2.533l-4.335.03V6.338zm4.507 15.504l-4.43-.05-.076-5.204 4.506.05s1.68.377 1.716 2.715c.035 2.335-1.717 2.49-1.717 2.49zM145.77 13.976L156.63.066H144.05l-3.256 6.636-3.254-6.635h-12.583l10.325 13.906.008 3.554-.025 10.58h10.526l-.026-10.58.007-3.55"/></svg>