<svg xmlns="http://www.w3.org/2000/svg" viewBox="0 0 60.679 32.351"><path fill="#005A9C" d="M16.085.18l5.76 19.58L27.602.18h15.613v1.947l-5.878 10.127c2.065.663 3.627 1.868 4.686 3.615s1.59 3.798 1.59 6.154c0 2.913-.775 5.362-2.324 7.348s-3.555 2.978-6.017 2.978c-1.854 0-3.47-.59-4.845-1.767-1.377-1.178-2.396-2.773-3.058-4.786l3.256-1.35c.477 1.218 1.106 2.178 1.887 2.88.78.7 1.7 1.05 2.76 1.05 1.112 0 2.052-.62 2.82-1.865.768-1.245 1.152-2.74 1.152-4.488 0-1.933-.41-3.43-1.23-4.488-.955-1.244-2.45-1.866-4.49-1.866h-1.588v-1.906l5.56-9.612h-6.71l-.383.65L22.24 32.35h-.396l-5.958-19.936L9.928 32.35H9.53L0 .18h4.17l5.76 19.58L13.82 6.577 11.916.18h4.17z"/><path d="M59.775 0l.676 4.107-2.39 4.575s-.918-1.94-2.443-3.015c-1.285-.905-2.122-1.102-3.43-.832-1.682.347-3.588 2.357-4.42 4.835-.995 2.965-1.005 4.4-1.04 5.718-.056 2.113.277 3.362.277 3.362s-1.45-2.686-1.438-6.62c.01-2.808.45-5.354 1.75-7.867 1.143-2.21 2.842-3.535 4.35-3.69 1.56-.162 2.79.59 3.743 1.403.998.854 2.01 2.72 2.01 2.72L59.774 0zM60.07 23.238s-1.057 1.89-1.715 2.617c-.66.728-1.837 2.01-3.292 2.65-1.456.642-2.218.763-3.656.625-1.437-.138-2.773-.97-3.24-1.317s-1.665-1.37-2.34-2.322c-.676-.953-1.733-2.858-1.733-2.858s.59 1.91.958 2.72c.212.467.864 1.895 1.79 3.137.862 1.158 2.54 3.153 5.086 3.603 2.547.45 4.297-.693 4.73-.97.433-.278 1.346-1.042 1.924-1.66.603-.645 1.174-1.468 1.49-1.962.23-.36.607-1.09.607-1.09l-.61-3.172z"/></svg>