<svg xmlns="http://www.w3.org/2000/svg" viewBox="0 0 60.68 32.35"><path fill="#005A9C" d="M16.09.18l5.76 19.58L27.6.18h15.61v1.95l-5.87 10.12c2.06.67 3.62 1.87 4.68 3.62s1.6 3.8 1.6 6.15c0 2.92-.78 5.37-2.33 7.35s-3.56 2.98-6.02 2.98a7.22 7.22 0 0 1-4.84-1.77 10.4 10.4 0 0 1-3.06-4.78l3.26-1.35a7.43 7.43 0 0 0 1.88 2.88 4 4 0 0 0 2.76 1.05c1.11 0 2.05-.62 2.82-1.87a8.38 8.38 0 0 0 1.15-4.49c0-1.93-.4-3.43-1.23-4.48-.95-1.25-2.45-1.87-4.49-1.87h-1.58v-1.9l5.56-9.62h-6.71l-.39.65-8.16 27.55h-.4L15.9 12.41 9.93 32.35h-.4L0 .18h4.17l5.76 19.58 3.89-13.18-1.9-6.4h4.17z"/><path d="M59.77 0l.68 4.1-2.39 4.58s-.92-1.94-2.44-3.01c-1.29-.9-2.12-1.1-3.43-.84-1.68.35-3.59 2.36-4.42 4.84-1 2.96-1 4.4-1.04 5.72a13 13 0 0 0 .28 3.36s-1.45-2.69-1.44-6.62c0-2.8.45-5.35 1.75-7.87 1.14-2.2 2.84-3.53 4.35-3.69 1.56-.16 2.79.6 3.74 1.4 1 .86 2.01 2.73 2.01 2.73L59.77 0zm.3 23.24s-1.06 1.89-1.72 2.62a10.5 10.5 0 0 1-3.29 2.65 6.13 6.13 0 0 1-3.65.62c-1.44-.14-2.78-.97-3.24-1.32s-1.67-1.37-2.34-2.32c-.68-.95-1.74-2.86-1.74-2.86s.6 1.91.96 2.72c.21.47.87 1.9 1.8 3.14.85 1.16 2.53 3.15 5.08 3.6 2.54.45 4.3-.69 4.73-.97a13.4 13.4 0 0 0 1.92-1.66c.6-.64 1.18-1.47 1.5-1.96.22-.36.6-1.09.6-1.09l-.61-3.17z"/></svg>