<svg xmlns="http://www.w3.org/2000/svg" viewBox="0 0 134.69 89.57"><path d="M15.07 83v1.06H1.53V64.17h13.4v1.06H2.76v8H14.2v1.06H2.76V83zM17 69.75h1v3.07h.06a4.6 4.6 0 0 1 .8-1.44 5.28 5.28 0 0 1 2.69-1.74 6.16 6.16 0 0 1 1.65-.22 6.52 6.52 0 0 1 2.13.31 4.19 4.19 0 0 1 1.44.81 3.91 3.91 0 0 1 .88 1.13 5.25 5.25 0 0 1 .46 1.27 7.52 7.52 0 0 1 .17 1.24v9.87h-1.02V75a13.25 13.25 0 0 0-.08-1.35 4.07 4.07 0 0 0-.49-1.53 3.55 3.55 0 0 0-1.23-1.27 4.18 4.18 0 0 0-2.27-.53 5.09 5.09 0 0 0-2.16.45A4.68 4.68 0 0 0 19.39 72a5.47 5.47 0 0 0-1 1.9 8 8 0 0 0-.39 2.44v7.76h-1zm26.34 0V84.21a7.25 7.25 0 0 1-.2 1.3 6.46 6.46 0 0 1-.6 1.49 4.5 4.5 0 0 1-1.06 1.34 5.13 5.13 0 0 1-1.76 1 7.38 7.38 0 0 1-2.61.31 9.32 9.32 0 0 1-2.11-.32 5 5 0 0 1-1.74-.75A3.9 3.9 0 0 1 32 87.21a4.85 4.85 0 0 1-.52-2.11h1.06a3.85 3.85 0 0 0 .46 1.62 3.41 3.41 0 0 0 1 1.1 4.31 4.31 0 0 0 1.41.63 6.91 6.91 0 0 0 1.67.2 6.39 6.39 0 0 0 2.12-.31 4.53 4.53 0 0 0 1.44-.8 3.65 3.65 0 0 0 .88-1.07 5.79 5.79 0 0 0 .48-1.15 5 5 0 0 0 .18-1V80.3h-.06A5.36 5.36 0 0 1 37 83.56a6.41 6.41 0 0 1-2.75-.56 5.31 5.31 0 0 1-1.93-1.51 6.5 6.5 0 0 1-1.14-2.25 9.88 9.88 0 0 1-.38-2.79 9 9 0 0 1 .4-2.71 6.74 6.74 0 0 1 1.19-2.25A5.72 5.72 0 0 1 34.33 70a5.94 5.94 0 0 1 2.67-.58 6.16 6.16 0 0 1 1.65.22 5.82 5.82 0 0 1 1.49.64 5.16 5.16 0 0 1 1.21 1 4.72 4.72 0 0 1 .84 1.42h.06v-3zm-6.34.59a4.65 4.65 0 0 0-2.27.53 4.81 4.81 0 0 0-1.59 1.4 6.32 6.32 0 0 0-.95 2 8 8 0 0 0-.32 2.25 8.69 8.69 0 0 0 .32 2.39 5.65 5.65 0 0 0 1 2 4.76 4.76 0 0 0 1.62 1.33 4.83 4.83 0 0 0 2.22.49 4.93 4.93 0 0 0 2.29-.5 4.74 4.74 0 0 0 1.63-1.37 6 6 0 0 0 1-2 8.57 8.57 0 0 0 0-4.65 5.84 5.84 0 0 0-1-2 4.81 4.81 0 0 0-1.63-1.35 4.93 4.93 0 0 0-2.32-.52zM46.68 67v-2.83h1.06V67zm0 17V69.75h1.06v14.34zm4.44-14.34h1.06v3.07h.06a4.6 4.6 0 0 1 .8-1.44 5.28 5.28 0 0 1 2.69-1.74 6.16 6.16 0 0 1 1.65-.22 6.52 6.52 0 0 1 2.13.31 4.19 4.19 0 0 1 1.44.81 3.91 3.91 0 0 1 .88 1.13 5.25 5.25 0 0 1 .46 1.27 7.52 7.52 0 0 1 .17 1.24v9.87h-1.04V75a13.25 13.25 0 0 0-.08-1.35 4.07 4.07 0 0 0-.49-1.53 3.55 3.55 0 0 0-1.23-1.27 4.18 4.18 0 0 0-2.27-.53 5.09 5.09 0 0 0-2.16.45A4.68 4.68 0 0 0 53.55 72a5.47 5.47 0 0 0-1 1.9 8 8 0 0 0-.35 2.41v7.76h-1.08zM66 77.06a8.42 8.42 0 0 0 .29 2.43 6.07 6.07 0 0 0 1 2.07A5 5 0 0 0 69 83a4.86 4.86 0 0 0 2.33.53 5.11 5.11 0 0 0 3.39-1.13 5.23 5.23 0 0 0 1.74-3.14h1.06a6.08 6.08 0 0 1-2 3.86 7.12 7.12 0 0 1-6.93.75 5.61 5.61 0 0 1-2-1.56A6.84 6.84 0 0 1 65.34 80a9 9 0 0 1-.38-2.8 10.22 10.22 0 0 1 .35-2.87 7.47 7.47 0 0 1 1.17-2.48 6 6 0 0 1 2-1.74 5.79 5.79 0 0 1 2.82-.66 6.43 6.43 0 0 1 2.9.61 5.58 5.58 0 0 1 2 1.66 6.8 6.8 0 0 1 1.13 2.44 9.82 9.82 0 0 1 .27 2.93zm10.52-.92a7.26 7.26 0 0 0-.37-2.14 5.73 5.73 0 0 0-1-1.86 5.15 5.15 0 0 0-1.63-1.28 4.78 4.78 0 0 0-2.19-.49 4.43 4.43 0 0 0-2.13.5 5.25 5.25 0 0 0-1.6 1.33 6.58 6.58 0 0 0-1.11 1.8 7.74 7.74 0 0 0-.49 2.14zm4 .92a8.42 8.42 0 0 0 .29 2.43 6.07 6.07 0 0 0 1 2.07A5 5 0 0 0 83.45 83a4.86 4.86 0 0 0 2.33.53 5.11 5.11 0 0 0 3.39-1.13 5.23 5.23 0 0 0 1.74-3.14H92a6.08 6.08 0 0 1-2 3.86 7.12 7.12 0 0 1-6.93.75 5.61 5.61 0 0 1-2-1.56A6.84 6.84 0 0 1 79.82 80a9 9 0 0 1-.38-2.8 10.22 10.22 0 0 1 .35-2.87A7.47 7.47 0 0 1 81 71.82a6 6 0 0 1 2-1.74 5.79 5.79 0 0 1 2.82-.66 6.43 6.43 0 0 1 2.9.61 5.58 5.58 0 0 1 2 1.66 6.8 6.8 0 0 1 1.13 2.44 9.82 9.82 0 0 1 .27 2.93zM91 76.14a7.26 7.26 0 0 0-.37-2.14 5.73 5.73 0 0 0-1-1.86A5.15 5.15 0 0 0 88 70.83a4.78 4.78 0 0 0-2.19-.49 4.43 4.43 0 0 0-2.13.5A5.25 5.25 0 0 0 82 72.16 6.58 6.58 0 0 0 81 74a7.74 7.74 0 0 0-.47 2.11zm4.6-3.21h.08a3.4 3.4 0 0 1 .73-1.31 5.35 5.35 0 0 1 1.26-1.06 6 6 0 0 1 1.63-.68 6.66 6.66 0 0 1 1.88-.21v1.06a5 5 0 0 0-1.91.17 4.65 4.65 0 0 0-2.05 1.23 10 10 0 0 0-.68.81 3.92 3.92 0 0 0-.49.87 5.46 5.46 0 0 0-.31 1.06 9.24 9.24 0 0 0-.14 1.39v7.84h-1.03V69.75h1.06zm6.97-5.93v-2.83h1.06V67zm0 17V69.75h1.06v14.34zM107 69.75h1.06v3.07h.06a4.6 4.6 0 0 1 .8-1.44 5.28 5.28 0 0 1 2.69-1.74 6.16 6.16 0 0 1 1.65-.22 6.52 6.52 0 0 1 2.13.31 4.19 4.19 0 0 1 1.44.81 3.91 3.91 0 0 1 .88 1.13 5.25 5.25 0 0 1 .46 1.27 7.52 7.52 0 0 1 .17 1.24v9.87h-1.06V75a13.25 13.25 0 0 0-.08-1.35 4.07 4.07 0 0 0-.49-1.53 3.55 3.55 0 0 0-1.23-1.27 4.18 4.18 0 0 0-2.27-.53 5.09 5.09 0 0 0-2.16.45 4.68 4.68 0 0 0-1.61 1.23 5.47 5.47 0 0 0-1 1.9 8 8 0 0 0-.35 2.41v7.76H107zm26.34 0V84.21a7.25 7.25 0 0 1-.2 1.3 6.46 6.46 0 0 1-.54 1.45 4.5 4.5 0 0 1-1.06 1.34 5.13 5.13 0 0 1-1.76 1 7.38 7.38 0 0 1-2.61.31 9.32 9.32 0 0 1-2.15-.24 5 5 0 0 1-1.74-.75 3.9 3.9 0 0 1-1.2-1.37 4.85 4.85 0 0 1-.52-2.11h1.06a3.85 3.85 0 0 0 .47 1.62 3.41 3.41 0 0 0 1 1.1 4.31 4.31 0 0 0 1.41.63 6.91 6.91 0 0 0 1.67.2 6.39 6.39 0 0 0 2.12-.31 4.53 4.53 0 0 0 1.44-.8 3.65 3.65 0 0 0 .88-1.07 5.79 5.79 0 0 0 .46-1.14 5 5 0 0 0 .18-1V80.3h-.06a5.36 5.36 0 0 1-5.19 3.26 6.41 6.41 0 0 1-2.7-.56 5.31 5.31 0 0 1-1.93-1.51 6.5 6.5 0 0 1-1.14-2.25 9.88 9.88 0 0 1-.38-2.79 9 9 0 0 1 .4-2.71 6.74 6.74 0 0 1 1.19-2.25 5.72 5.72 0 0 1 1.94-1.49 5.94 5.94 0 0 1 2.66-.57 6.16 6.16 0 0 1 1.65.22 5.82 5.82 0 0 1 1.49.64 5.16 5.16 0 0 1 1.21 1 4.72 4.72 0 0 1 .84 1.42h.06v-3zm-6.31.59a4.65 4.65 0 0 0-2.27.53 4.81 4.81 0 0 0-1.59 1.4 6.32 6.32 0 0 0-.95 2 8 8 0 0 0-.32 2.25 8.69 8.69 0 0 0 .32 2.39 5.65 5.65 0 0 0 1 2 4.76 4.76 0 0 0 1.62 1.33 4.83 4.83 0 0 0 2.22.49 4.93 4.93 0 0 0 2.29-.5 4.74 4.74 0 0 0 1.65-1.46 6 6 0 0 0 1-2 8.57 8.57 0 0 0 0-4.65 5.84 5.84 0 0 0-1-2 4.81 4.81 0 0 0-1.63-1.35 4.93 4.93 0 0 0-2.37-.43zM77.06 1c-2.67 1.4-3.66 3.76-3.66 10.28a10.43 10.43 0 0 1 3.36-2 14.27 14.27 0 0 0 3.43-1.86c2.26-1.65 2.6-3.78 2.6-7.36 0-.06-3.68-.16-5.73.94zM61.23 2.51a10.2 10.2 0 0 0-2.81 5L51.21 35.4l-6-22.85a19.52 19.52 0 0 0-3.3-7.46C39.8 2.5 35.49 2.34 35 2.34s-4.77.16-6.89 2.75a19.52 19.52 0 0 0-3.3 7.46l-6 22.85-7.18-27.92a10.2 10.2 0 0 0-2.81-5C5.29-.61 0 .06 0 .06l13.8 52.18s4.55.33 6.83-.83c3-1.53 4.42-2.7 6.23-9.8 1.61-6.33 6.13-24.92 6.55-26.24.21-.65.47-2.22 1.62-2.22s1.42 1.56 1.62 2.22c.41 1.33 4.93 19.91 6.55 26.24 1.81 7.1 3.24 8.28 6.23 9.8 2.28 1.16 6.83.83 6.83.83L70.05.06s-5.29-.67-8.82 2.45zm21.55 6.07A8.44 8.44 0 0 1 80 11c-1.26.71-2.48 1.19-3.78 1.81-2.18 1-2.77 2.21-2.77 4v35.43s3.48.44 5.76-.72c2.93-1.49 3.61-2.94 3.63-9.42V10.47zm34.4 17.7l17.51-26s-7.39-1.26-11 2.07a41.73 41.73 0 0 0-5 6l-6.44 9.29a1.44 1.44 0 0 1-2.75 0L103 8.27a41.73 41.73 0 0 0-5-6C94.43-1 87 .23 87 .23l17.51 26-17.46 26s7.7 1 11.35-2.36a34.72 34.72 0 0 0 4.61-5.6l6.48-9.27a1.44 1.44 0 0 1 2.75 0l6.44 9.29a39.41 39.41 0 0 0 4.74 5.6c3.66 3.33 11.22 2.36 11.22 2.36z" fill="#20303c"/></svg>