<svg xmlns="http://www.w3.org/2000/svg" viewBox="0 0 110.72 44"><path d="M18 0h-5.9C6.32 0 1.42 4.4 1.42 13c0 5.1 2.4 8.9 6.6 10.8L.12 38.1c-.3.5 0 .8.4.8h3.7a.55.55 0 0 0 .6-.4L12 24.4h2.6v14.1a.43.43 0 0 0 .4.4h3.2a.37.37 0 0 0 .4-.4V.5c.02-.3-.18-.5-.6-.5zm-3.4 21.2h-2.2c-3.4 0-6.7-2.5-6.7-8.7C5.7 6 8.8 3.4 12 3.4h2.6z" fill="red"/><path d="M37.42 12.9h-3.2a.37.37 0 0 0-.4.4v9.9h-5.9v-9.9c0-.3-.1-.4-.4-.4h-3.2a.37.37 0 0 0-.4.4v25.2c0 .3.1.4.4.4h3.3a.43.43 0 0 0 .4-.4v-12h5.9v12a.37.37 0 0 0 .4.4h3.2a.37.37 0 0 0 .4-.4V13.3a.46.46 0 0 0-.5-.4zm73.3 24.4l-.4-1.8c-.1-.2-.1-.2-.3-.2a15.33 15.33 0 0 1-3.7.6c-3.9 0-5.8-3.8-5.8-9.8 0-5.3 1.6-10.5 4.3-10.5.7 0 1.6.2 3 1.5.2.2.3.2.4.2s.3-.1.5-.4l1.4-2.3c.1-.2.2-.3.2-.5s-.2-.4-.5-.5a9.84 9.84 0 0 0-4.8-1.3c-4.9 0-8.6 5.8-8.6 14.9 0 7.8 3.6 12.3 8.8 12.3a10.11 10.11 0 0 0 5.4-1.7.75.75 0 0 0 .1-.5zm-22.5-12.7l6.1-11.3c.1-.2.1-.4-.2-.4H91a1.35 1.35 0 0 0-1.5 1l-4.6 9.6a2.58 2.58 0 0 1-.8 1.1V13.3c0-.2-.1-.4-.3-.4h-3.2c-.2 0-.3.2-.3.4v25.2c0 .2.1.4.3.4H84c.2 0 .3-.2.3-.4V25.6a1 1 0 0 1 .4.5l5.8 12a1.42 1.42 0 0 0 1.4.8h3.3c.2 0 .3-.2.2-.4zm-29.7 11h-.6c-.8 0-1-.3-1-.9V13.3c0-.3-.1-.4-.3-.4h-10.3a.37.37 0 0 0-.4.4v1.9c0 6.3-.4 14.4-3.7 20.5h-1.1a.37.37 0 0 0-.4.4v7.5a.37.37 0 0 0 .4.4h2.5a.73.73 0 0 0 .8-.8v-4.3h11.1v4.7a.43.43 0 0 0 .4.4h2.6c.3 0 .6-.3.6-.8V36a.68.68 0 0 0-.6-.4zm-5.5 0h-7.5c2.6-4.5 3.7-9.6 4-15.8.1-1.3.2-2.8.2-3.6H53zm16.1-23.3c-5.6 0-8.1 7.1-8.1 14.7 0 7.8 3.5 12.5 8.7 12.5a11.82 11.82 0 0 0 5.9-1.7.37.37 0 0 0 .2-.5l-.4-1.8c-.1-.2-.2-.3-.4-.3a14.49 14.49 0 0 1-3.8.6c-4 0-5.8-3.5-5.8-8v-1.2s2 .2 3.2.2h7.5v-2.2c0-8-2.9-12.3-7-12.3zm-3.7 11.5a14.75 14.75 0 0 1 .1-1.6c.5-4.4 1.6-6.6 3.4-6.6s2.7 2.3 2.9 6.3a17.36 17.36 0 0 1 .1 1.8h-3.4z"/></svg>