<svg xmlns="http://www.w3.org/2000/svg" viewBox="0 0 150.602 87.6"><path fill="#F00" d="M24.56 0h-8c-7.9 0-14.6 6-14.6 17.6 0 7 3.2 12.1 9 14.7L.16 51.8c-.4.6 0 1.1.6 1.1h5c.4 0 .7-.1.8-.5l9.8-19.1h3.5v19.1c0 .2.2.5.5.5h4.4c.4 0 .6-.2.6-.6V.6c0-.4-.3-.6-.8-.6zm-4.6 28.8h-3c-4.6 0-9.1-3.4-9.1-11.9 0-8.8 4.2-12.4 8.5-12.4h3.6v24.3z"/><path d="M51.06 18.2h-4.4c-.4 0-.6.3-.6.5v12.8h-8.1V18.7c0-.3-.1-.5-.5-.5h-4.4c-.4 0-.6.2-.6.5v33.6c0 .4.1.6.5.6h4.4c.3 0 .5-.2.5-.6V36h8.1v16.4c0 .4.2.6.6.6h4.4c.4 0 .5-.3.5-.6V18.8c.1-.4-.2-.6-.4-.6zM150.56 50.6l-.6-2.4c-.1-.2-.1-.3-.3-.3-.4 0-2.3.8-5 .8-5.3 0-7.9-5.1-7.9-13.3 0-7.2 2.2-13.7 5.8-13.7 1 0 2.2.3 4.1 2 .2.2.4.3.6.3.2 0 .4-.1.6-.5l1.9-3.1c.1-.2.2-.4.2-.6 0-.3-.3-.5-.7-.7-2.9-1.5-4.9-1.8-6.5-1.8-6.6 0-11.7 7.2-11.7 19.6 0 10.7 4.9 16.8 12 16.8 3 0 6.1-1.4 7.4-2.3.1-.2.2-.5.1-.8zM120.06 33.5l8.4-14.8c.1-.2.1-.5-.2-.5h-4.1c-1.2 0-1.6.4-2 1.3l-6.3 12.5c-.4.8-.7 1.3-1.1 1.5V18.6c0-.3-.1-.5-.4-.5h-4.6c-.2 0-.4.2-.4.5v33.7c0 .2.1.5.4.5h4.6c.3 0 .4-.2.4-.5V34.6c.2.1.4.4.5.6l8 16.5c.4.8 1.1 1.1 2 1.1h4.5c.3 0 .4-.3.2-.5l-9.9-18.8zM79.76 48.4h-.8c-1.1 0-1.3-.4-1.3-1.3V18.6c0-.3-.1-.5-.4-.5h-14.1c-.4 0-.6.2-.6.5v2.5c0 8.5-.5 18.9-5 27.2h-1.5c-.4 0-.6.2-.6.6v10.3c0 .4.3.5.5.5h3.4c.8 0 1.1-.6 1.1-1.1v-5.9h15.1v6.4c0 .3.2.5.5.5h3.6c.4 0 .8-.4.8-1.1V49c-.2-.3-.4-.6-.7-.6zm-7.6 0h-10.2c3.6-6.1 5-13.1 5.5-21.5.1-1.8.2-3.1.2-4.3h4.5v25.8zM93.26 36.5h10.3v-3c0-10.9-3.9-16.1-9.5-16.1-7.6 0-11 8.9-11 19.4 0 10.7 4.8 17 11.8 17 3.4 0 6.5-1.3 8-2.3.3-.1.4-.4.3-.6l-.6-2.4c-.1-.3-.2-.4-.6-.4-.3 0-2.3.8-5.2.8-5.4 0-8-4.7-8-10.9v-1.7c.2-.2 2.9.2 4.5.2zm-4-6.4c.6-6 2.1-8.4 4.6-8.4 2.2 0 3.7 2.4 4 7.9.1 1.1.1 2.4.1 2.4h-4.6c-1.6 0-4.1.3-4.1.3s-.1-1.1 0-2.2zM17.46 85h-2V70.1h2v6.4h6.7v-6.4h2.1V85h-2.1v-6.8h-6.7M37.06 83.4c-.3-.3-.2-1-.2-1.5v-3.4c0-.8 0-1.9-.8-2.7-.5-.5-1.4-.9-2.9-.9-1.3 0-2.6.3-3.8 1.2l.9 1.2c.5-.3.9-.4 1.3-.6.5-.1 1-.3 1.6-.3.5 0 1.1.1 1.5.4.5.4.5 1.2.5 1.8v.1c-.8 0-1.9.1-2.8.2-.7.1-2 .4-2.8 1.2-.4.4-.9 1.1-.9 2.1s.4 1.7.9 2.2c.7.7 1.6.8 2.4.8.9 0 1.6-.2 2.1-.4s.9-.7 1.3-1c.1.4.4.8.7 1.1.4.3 1 .5 1.7.3l.3-1.5c-.6 0-.9-.1-1-.3zm-2-1.3c-.4.5-1.1 1-1.6 1.3-.4.2-.9.3-1.2.3-.4 0-.9-.1-1.3-.4-.2-.2-.4-.5-.4-1s.3-.9.5-1.1c.4-.3 1-.6 1.6-.7.8-.2 2.4-.2 2.5-.2v1.8h-.1zM47.26 76.2v-1h1.7V85h-1.7v-6.7l-4.7 5.7v1h-1.7v-9.8h1.7v6.6M47.86 70.6c-.1 1.4-.6 2-1 2.3-.6.5-1.3.6-2 .6-.6 0-1.4-.1-1.9-.6-.7-.6-1-1.6-1-2.3l1.3-.3c0 .4.2 1.2.6 1.6.2.1.5.3 1 .3s.9-.2 1-.3c.3-.3.5-.8.6-1.6l1.4.3zM60.26 83.5v-8.3h-6.6v1.7c0 1.6 0 2.6-.2 3.4-.2 1.1-.7 2.2-1.2 3.2h-1.2v4.1h1.6V85h7.4v2.6h1.6v-4.1h-1.4zm-1.7 0h-4.5c.5-.9.8-1.8 1-2.8.1-.3.3-1.5.3-3v-1h3.1v6.8h.1zM65.86 70.4c.6 0 1.2.5 1.2 1.2s-.5 1.2-1.2 1.2-1.2-.5-1.2-1.2.6-1.2 1.2-1.2zM68.36 83.7c-.6 0-1.3-.1-1.9-.7s-.9-1.6-1-2.5h7.1c0-1.3-.3-3.3-1.5-4.4-.8-.8-1.8-1.1-2.9-1.1-1.4 0-2.4.5-3.2 1.3-.9 1-1.4 2.6-1.4 3.9 0 1.5.5 2.9 1.4 3.8 1.1 1.1 2.3 1.3 3.5 1.3 1.9 0 3-.7 3.8-1.6l-1.2-1c-1 .9-2.1 1-2.7 1zm-1.8-6.7c.5-.5 1-.6 1.6-.6.5 0 1.1.1 1.6.6.4.4.7 1.2.8 1.8h-5c.1-.6.5-1.3 1-1.8zM70.16 70.4c.6 0 1.2.5 1.2 1.2s-.5 1.2-1.2 1.2-1.2-.5-1.2-1.2.5-1.2 1.2-1.2zM76.56 76.7h-2.9v-1.5h7.6v1.5h-2.9V85h-1.8M91.26 83.6c-1.2 1.4-2.8 1.6-3.7 1.6-1.2 0-2.5-.1-3.6-1.3-.7-.7-1.4-1.9-1.4-3.8 0-1.1.2-2.6 1.4-3.8 1-1.1 2.2-1.4 3.6-1.4 1.1 0 2.4.2 3.6 1.2l-1 1.2c-1.1-.8-2-.9-2.5-.9-1 0-1.6.4-2 .8-.7.7-1 1.9-1 3 0 1.4.5 2.2 1 2.7s1.2.8 2 .8c.5 0 1.5-.1 2.6-1.1l1 1zM97.36 75.2c-1.6 0-2.4.5-2.8.8-.5.4-.8 1.2-.8 2.1 0 .5.1 1.2.6 1.7.4.4 1.1.7 1.9.7v.1c-.5.1-.8.3-1.1.6-.2.2-.4.5-.5.8l-.3.6c-.1.3-.3.6-.6.8-.2.1-.6.2-.8.2l.2 1.6c.3 0 1.1.1 1.7-.2.4-.3.8-.8 1-1.2l.4-.8c.3-.7.5-1 .7-1.2.3-.3.8-.5 1.5-.5h1.2v3.8h1.7v-9.8h-4v-.1zm2.3 4.5h-2c-.3 0-1.1 0-1.5-.4-.3-.2-.5-.5-.5-1.1s.3-.9.4-1.1c.4-.4 1-.4 1.3-.4h2.2v3h.1zM115.76 80.7c-.4-.4-1-.7-1.6-.8v-.1c.3 0 .7-.1 1.1-.6.3-.3.6-.8.6-1.6 0-.7-.2-1.3-.7-1.7-.6-.6-1.6-.8-2.6-.8h-3.9v9.8h4.2c1 0 2.2-.1 2.9-.8.4-.4.7-1.1.7-1.9-.1-.6-.2-1.1-.7-1.5zm-5.4-4h2.1c.3 0 .9 0 1.2.3.2.2.4.4.4.9 0 .3-.1.7-.4.9-.4.3-1 .3-1.3.3h-2v-2.4zm3.7 6.4c-.2.2-.6.4-1.6.4h-2.1v-2.8h2c1 0 1.4.2 1.7.4.3.3.4.6.4 1s-.1.8-.4 1zM126.66 83.6c-1.2 1.4-2.8 1.6-3.7 1.6-1.2 0-2.5-.1-3.6-1.3-.7-.7-1.4-1.9-1.4-3.8 0-1.1.2-2.6 1.4-3.8 1-1.1 2.2-1.4 3.6-1.4 1.1 0 2.4.2 3.6 1.2l-1 1.2c-1.1-.8-1.9-.9-2.5-.9-1 0-1.6.4-2 .8-.7.7-1 1.9-1 3 0 1.4.5 2.2 1 2.7s1.2.8 2 .8c.5 0 1.5-.1 2.6-1.1l1 1zM130.36 70.4c.6 0 1.2.5 1.2 1.2s-.5 1.2-1.2 1.2-1.2-.5-1.2-1.2.5-1.2 1.2-1.2zM132.86 83.7c-.6 0-1.3-.1-1.9-.7-.6-.6-.9-1.6-1-2.5h7.1c0-1.3-.3-3.3-1.5-4.4-.8-.8-1.8-1.1-2.9-1.1-1.4 0-2.4.5-3.2 1.3-.9 1-1.4 2.6-1.4 3.9 0 1.5.5 2.9 1.4 3.8 1.1 1.1 2.3 1.3 3.5 1.3 1.9 0 3-.7 3.8-1.6l-1.2-1c-1 .9-2.1 1-2.7 1zm-1.9-6.7c.5-.5 1-.6 1.6-.6.5 0 1.1.1 1.6.6.4.4.7 1.2.8 1.8h-5c.2-.6.6-1.3 1-1.8zM134.56 70.4c.6 0 1.2.5 1.2 1.2s-.5 1.2-1.2 1.2-1.2-.5-1.2-1.2.6-1.2 1.2-1.2z"/></svg>