<?xml version="1.0" encoding="utf-8"?>
<svg version="1.1" xmlns="http://www.w3.org/2000/svg" viewBox="0 0 350 250">
	<defs>
		<style>
			.ball {
				fill:#a89503;
				stroke:#000;
				stroke-width:2;
				}
			.glow {
				fill:#ffff00;
				filter:url(#blur);
				}
			.hole {
				fill:#000;
				stroke:#C00;
				stroke-width:4;
				}
		</style>
		<filter id="blur">
			<feGaussianBlur in="SourceGraphic" stdDeviation="2"/>
		</filter>
	</defs>
	<path fill="#9C6A14" d="M311.918,197.228c0.005,0.003,0.011,0.005,0.016,0.007 c-1.317-3.857-3.299-7.437-6.623-10.541c-1.668-1.558-4.949-3.98-6.782-6.661c-0.26-0.337-0.506-0.686-0.794-1.011 c-0.626-0.709-1.357-1.377-2.124-1.93c-0.098-0.07-0.157-0.156-0.202-0.246c-0.242-0.228-0.322-0.596,0.008-0.867 c0.915-0.75,1.882-1.449,2.83-2.17c0.118-0.112,0.241-0.209,0.371-0.291c0.896-0.693,1.771-1.409,2.555-2.221 c1.134-1.174,2.145-2.434,3.085-3.75c1.229-1.949,2.157-4.1,2.646-6.502c1.197-5.887-0.245-18.99-7.959-20.445 c-3.747-1.999-6.897-0.805-10.069,1.703c-4.505,3.563-5.175,9.014-4.81,14.359c0.197,2.895,0.102,5.568-0.327,8.128 c0.433,4.011-1.132,9.581-2.271,12.991c-0.358,1.074-0.709,2.187-1.077,3.304c-0.587,2.309-1.318,4.575-2.342,6.722 c-2.125,4.459-5.343,7.451-8.666,10.949c-0.13,0.137-0.267,0.246-0.403,0.349c-0.064,0.061-0.128,0.124-0.197,0.177 c0.024,0.091,0.044,0.183,0.067,0.273c-1.328,0.913-2.586,1.932-3.922,2.847c-3.054,2.092-7.437,2.748-10.952,3.688 c-2.604,0.695-6.922,1.643-8.766,3.796c-1.48,1.73-1.259,3.53,0.729,4.712c3.797,2.258,9.292-0.679,12.72-2.323 c4.484-2.152,10.19-5.379,15.473-5.142c0.294-0.073,0.653,0.08,0.653,0.473v0.021c0,0.187-0.086,0.314-0.203,0.396 c-1.519,1.494-4.88,4.667-5.155,4.865c-2.482,1.792-5.213,3.258-7.87,4.77c-2.962,1.686-20.542,11.081-12.212,15.96 c6.617,3.876,15.034-6.302,19.49-9.894c3.535-2.85,6.921-5.819,10.873-8.095c2.614-1.507,5.856-2.649,7.777,0.487 c1.229,2.005,1.146,5.15,1.594,7.412c0.794,4.006,8.121,12.443,12.008,6.835c2.103-3.033,0.585-5.886-1.336-8.605 c-2.898-4.104-4.487-8.208-3.518-12.294c-0.001-0.028-0.004-0.057-0.004-0.085c0-0.001-0.001-0.002-0.001-0.003 c0-0.005,0.001-0.01,0.001-0.015c-0.003-0.139-0.003-0.278-0.001-0.423c0-0.046,0.018-0.08,0.026-0.121 c0.186-1.399,1.234-3.243,2.52-3.606c1.27-0.357,2.569-0.069,3.871-0.099c1.522-0.034,3.021-0.189,4.527-0.398 c2.737-0.982,4.742-2.89,4.833-6.241C312.015,198.061,311.983,197.646,311.918,197.228z"/>
	<path fill="#C1AA65" d="M313.616,97.667c-0.172-1.682-1.082-2.86-2.254-3.558 c-3.246-4.596-9.053-6.691-14.828-7.87c-2.498-0.827-5.09-1.177-7.792-1.209c-0.124-0.016-0.253-0.033-0.376-0.048 c-10.918-1.389-21.997-2.449-33.003-2.432c-13.825,0.021-27.841,1.821-41.095,5.794c-11.729,3.516-18.804,11.381-23.375,22.469 c-2.364,5.734-2.902,12.265-7.438,16.825c-4.305,4.329-10.539,6.502-15.003,10.848c-7.953,7.744-12.468,19.104-14.104,29.9 c-1.6,10.555-0.319,21.946,6.406,30.554c1.736,2.223,3.906,3.834,6.317,5.029c2.152,1.442,4.722,2.388,7.378,2.698 c5.238,0.611,10.505,0.916,15.783,1.029c26.269,1.535,58.133,7.559,80.589-8.785c5.755-4.188,10.131-9.827,12.966-16.338 c4.509-10.349,7.544-21.639,10.595-32.488c1.408-5.007,2.636-10.058,3.788-15.128c0.513-1.19,0.808-2.427,0.914-3.672 c1.545-5.182,4.257-10.024,6.918-14.681c1.842-3.223,6.411-4.182,8.334-7.667C316.438,105.127,314.006,101.477,313.616,97.667z"/>
	<path fill="#9C6A14" d="M342.389,97.685c-0.113-0.843-0.473-1.659-1.103-2.305 c-1.157-1.186-1.977-2.566-3.393-3.5c-0.489-0.323-1.005-0.585-1.531-0.82c-0.02-0.013-0.035-0.03-0.056-0.043 c-9.74-6.289-14.478-15.277-19.008-25.606c-3.212-7.321-8.032-13.874-15.145-16.873c3.107-10.56,4.828-24.788-5.244-31.446 c-10.131-6.696-20.65-3.009-28.314,4.339c-1.85,3.331-4.615,6.556-4.609,10.319c0.003,1.632-1.258,2.552-2.736,2.737 c-0.829,0.104-1.625,0.056-2.391-0.134c-1.771,0.44-4.068-0.981-3.498-3.331c1.303-5.363-2.24-10.811-3.851-15.83 c-3.534-3.987-8.007-6.96-13.443-8.136c-15.042-3.254-37.759,6.744-41.802,22.591c-0.169,0.249-0.328,0.521-0.467,0.829 c-0.253,0.561-0.536,1.099-0.824,1.632c-0.686,0.975-1.335,2.017-1.947,3.134c-2.349,3.359-5.197,6.344-7.748,9.621 c-3.682,4.73-5.572,9.917-7.056,15.553c-2.335,4.877-4.058,9.96-5.662,15.155c-0.228,0.072-0.454,0.153-0.682,0.232 c-0.04,0.095-0.069,0.192-0.116,0.285c-0.498,0.974-1.058,1.913-1.578,2.875c-0.236,0.436-0.475,0.872-0.684,1.322 c-0.027,0.061-0.044,0.096-0.064,0.14c-0.066,0.179-0.129,0.359-0.182,0.542c-0.591,1.896-2.52,3.086-4.483,2.546 c-0.491-0.135-0.937-0.382-1.321-0.702c-2.705,0.124-5.172,0.2-7.969,1.438c-3.168,1.402-6.567,1.522-9.85,2.145 c-0.483-0.537-1.191-0.896-2.133-0.896c-1.742,0-2.692,1.217-2.865,2.554c-2.147,1.114-4.037,2.594-5.882,4.159 c-1.154,0.979-2.139,1.508-3.126,1.731c-1.959-1.561-4.465-2.552-7.416-2.897c-1.239-0.386-2.627-0.541-3.714-0.603 c-1.985,0.006-3.837,0.507-5.552,1.502c-1.653,0.978-2.969,2.293-3.946,3.946c-0.347,0.564-0.617,1.161-0.841,1.773 c-0.395,0.449-0.762,0.903-1.102,1.357c-0.984,1.135-1.871,2.386-2.678,3.698c-0.435-0.288-0.971-0.471-1.629-0.471 c-3.479,0-3.818,4.835-1.044,5.815c-1.587,3.895-2.92,7.867-5.241,11.412c-3.568,5.452-9.15,8.582-11.205,15.136 c-0.564,1.801-0.521,5.025-1.68,6.52c0.198-0.255-3.404,0.677-4.195,1.091c-5.023,2.636-3.31,9.952-0.863,13.634 c1.607,2.42,1.336,2.746-0.473,5.096c-1.672,2.172-2.818,4.364-3.42,7.052c-1.225,5.454-0.154,11.278,2.625,16.06 c5.781,9.948,18.693,16.499,29.256,19.731c4.42,1.353,9.03,1.989,13.606,2.538c0.108,0.013,0.209,0.015,0.313,0.022 c0.005,0.004,0.01,0.009,0.014,0.013c0.081,0.334,0.222,0.675,0.466,1.021c4.057,5.745,10.195,8.163,16.641,10.334 c4.961,1.672,10.287,2.677,15.563,2.588c2.079,0.32,4.121,0.732,5.914,1.444c0.326,0.944,0.938,1.837,1.898,2.562 c1.564,1.181,3.378,2.397,5.303,3.361c0.09,0.044,0.179,0.091,0.27,0.129c1.865,0.905,3.83,1.553,5.774,1.687 c0.1,0.037,0.198,0.076,0.312,0.102c2.148,0.473,4.094,1.123,5.93,1.926c1.953,1.583,3.738,3.382,5.639,5.029 c3.664,3.178,9,7.128,13.931,7.788c1.85,0.248,6.494-0.271,5.23-3.473c-0.62-1.571-1.826-2.937-3.265-3.981 c-1.631-1.768-4.068-3.071-5.964-4.054c-2.45-1.27-5.048-2.224-7.501-3.495c-1.795-0.931-3.14-2.125-4.348-3.452 c-0.01-0.027-0.013-0.053-0.024-0.081c-1.776-4.26,16.796,0.656,18.274,1.141c8.811,2.888,15.961,8.501,24.377,11.979 c5.394,2.229,7.634-2.987,4.227-6.84c-5.43-6.137-17.173-7.703-24.439-9.929c-4.373-1.339-8.864-2.694-12.971-4.742 c-0.243-0.121-0.452-0.234-0.633-0.342c-0.274-0.073-0.5-0.252-0.662-0.484c-0.205-0.201-0.281-0.369-0.228-0.501 c-0.131-0.531,0.018-1.138,0.573-1.467c0.076-0.045,0.151-0.09,0.227-0.134c0.278-0.165,0.551-0.216,0.801-0.186 c4.858-0.979,13.174,3.565,18.287,2.548c0.099-0.175,0.225-0.344,0.412-0.487c0.319-0.453,0.638-0.907,0.957-1.36 c-0.001-0.053-0.009-0.103-0.012-0.154c0.039-0.099,0.087-0.191,0.115-0.296c0.395-1.435-0.379-2.993-1.736-3.555 c-0.229-0.218-0.473-0.42-0.748-0.589c-5.428-1.677-11.038-2.15-16.856-2.646c-5.204-0.443-12.796-0.345-17.504-3.032 c-0.131,0.003-0.262-0.001-0.392,0.002c-3.136-2.204-6.082-4.555-8.598-7.476c-0.052-0.093-0.104-0.181-0.154-0.274 c3.83-4.549,5.452-10.999,5.328-17.192c-0.132-6.604-2.661-12.852-2.336-19.512c0.322-6.598,6.35-12.694,10.957-16.751 c6.313-5.561,16.727-4.803,21.742-12.128c2.154-3.147,0.451-7.244-1.092-10.195c-0.872-1.666-1.876-3.258-2.737-4.931 c-0.202-0.393-0.47-0.891-0.575-1.333c0.087-0.034,0.185-0.071,0.296-0.113c0.845-0.322,1.513-0.797,2.028-1.361 c7.251-3.222,15.411-4.656,23.094-5.951c14.284-2.409,28.853-4.867,43.367-4.872c14.076-0.004,28.1,2.124,42.149,2.802 c10.039,0.484,20.822,1.466,30.222-2.788C342.331,101.583,342.908,99.558,342.389,97.685z"/>
	<path fill="#483915" d="M115.783,145.387c-2.557-2.47-5.817-2.199-9.1-1.656c-1.383,0.229-2.883,0.612-4.312,0.842 c-0.904-0.337-1.794-0.741-2.19-1.285c-1.329-1.822-1.321-5.5-1.397-7.62c-0.166-4.577-1.379-9-2.037-13.508 c-0.515,0.538-1.08,1.018-1.691,1.397c-0.152,0.206-0.301,0.411-0.457,0.618c-1.194,1.583-3.121,2.4-4.988,1.308 c-0.546-0.32-1.008-0.837-1.338-1.436c-2.863-1.816-6.309-3.126-8.614-4.248c-9.29-4.517-17.857-8.556-28.369-8.791 c-2.16-5.497-9.798-5.532-11.953,0.659c-14.479-0.482-29.668,8.621-30.809,24.086c-0.501,6.794,3.727,13.217,8.972,17.128 c3.199,2.386,6.67,4.117,10.408,5.487c1.139,0.417,2.293,0.721,3.455,0.967c1.69,1.828,3.38,3.634,5.09,5.41 c-0.231,2.908,1.535,6.006,5.3,6.006c0.247,0,0.482-0.016,0.712-0.042c3.029,2.858,6.181,5.592,9.576,8.127 c4.506,3.365,9.235,6.35,14.084,9.133c-12.44,2.42-25.141,2.665-36.903,8.144c-2.563,1.193-8.311,3.81-7.435,7.648 c0.769,3.374,4.761,3.827,7.656,3.848c5.565,0.039,11.22-3.362,16.303-5.253c4.465-1.661,9.4-2.834,14.182-3.01 c0.201-0.008,0.374-0.003,0.545,0.002c0.106-0.026,0.219-0.044,0.344-0.044c1.031,0,1.434,0.964,1.22,1.729 c0.006,0.008,0.01,0.018,0.016,0.026c-0.01,0.018-0.026,0.037-0.038,0.056c-0.083,0.241-0.233,0.454-0.446,0.606 c-1.738,2.085-6.001,4.89-7.131,5.604c-3.886,2.459-7.681,4.812-11.285,7.673c-3.735,2.963-15.05,12.443-8.785,18.016 c5.407,4.81,13.136-4.188,16.774-7.537c8.422-7.752,28.458-24.299,39.839-13.803c3.488,3.217,3.704,8.969,6.935,12.523 c2.052,2.257,6.088,4.376,8.389,1.168c1.85-2.579,1.711-5.433-0.396-7.872c-0.444-0.515-0.874-0.994-1.286-1.465 c-0.826-1.656-1.898-3.146-3.011-4.623c-0.075-0.195-0.155-0.384-0.224-0.592c-1.008-3.078-0.684-6.628-0.519-9.812 c0.005-0.093-0.003-0.178-0.009-0.264c-2.299-0.843-4.58-1.979-6.477-3.477c-3.405-1.777-6.581-5.369-8.813-8.26 c-0.603-0.416-1.198-1.074-1.405-1.785c-0.765-1.048-1.229-2.318-1.16-3.605c-0.023-0.007-0.044-0.02-0.068-0.025 c0.223-3.064,1.08-5.776,2.771-8.53c2.81-4.575,8.637-6.15,11.332-0.757c1.396,2.793,4.602,7.161,8.289,6.443 c3.395-0.661,4.699-4.091,5.467-7.101c0.559-2.189,0.56-4.501,0.607-6.741c0.092-4.27,2.992-7.321,4.943-10.857 C117.941,153.144,118.436,147.949,115.783,145.387z"/>
	<path fill="#483915" d="M154.656,158.766c-4.082-5.555-12.175-0.896-16.26,2.166c-5.992,4.493-8.507,12.041-14.299,16.448 c-2.488,1.894-6.133,0.848-7.936,4.269c-1.631,3.094-1.75,6.005-0.402,9.249c1.838,4.43,8.834,2.847,7.953-1.351 c0.188-0.204,0.364-0.433,0.524-0.694c5.479-8.979,19.565-5.994,28.442-7.828c1.673-0.346,3.009-2.176,2.937-3.857 c-0.124-2.891-0.985-5.098-2.546-7.091C155.365,166.625,157.466,162.589,154.656,158.766z"/>
	<path fill="#483915" d="M170.106,100.367c-0.101-5.377-0.604-10.799,0.809-16.049c0.05-0.185,0.122-0.343,0.205-0.488 c-0.742-1.848-2.589-3.295-4.733-2.521c-6.979,2.521-12.543,6.688-17.012,12.613c-2.346,3.11-4.422,6.396-6.402,9.748 c-1.356,2.298-4.277,9.275-7.512,8.3c-12.141-3.661-26.595,6.899-30.868,18.133c-1.077,2.829,1.133,4.697,3.512,4.812 c0.949,0.347,2.058,0.322,3.198-0.294c4.473-2.418,7.395-5.203,12.949-3.958c3.258,0.73,1.578,4.027,0.841,6.273 c-2.052,6.255,1.761,11.687,8.529,9.655c3.685-1.105,6.446-4.479,9.136-7.002c3.031-2.844,6.113-5.636,9.004-8.625 c2.832-2.93,10.658-12.467,15.502-10.344c2.434,1.066,6.409-0.445,6.154-3.388c-0.049-0.082-0.1-0.16-0.141-0.256 C170.976,111.626,170.215,106.167,170.106,100.367z"/>
	<path fill="#483915" d="M191.496,63.314c-4.222,6.732-22.449,19.598-9.231,27.64c5.793,3.524,11.021-1.243,13.318-6.361 c2.554-5.689,2.696-11.396,3.367-17.426c0.041-0.37,0.014-0.706-0.041-1.025C199.87,62.294,193.974,59.364,191.496,63.314z"/>
	<path fill="#483915" d="M309.295,61.379c-1.499-1.093-2.839-2.273-4.11-3.623c-0.974-1.032-0.667-4.105-0.885-5.487 c-0.116-0.733-0.519-1.431-1.076-2.091c0.438-0.136,0.862-0.303,1.29-0.462c-0.761-0.436-1.546-0.833-2.366-1.179 c3.107-10.56,4.828-24.788-5.244-31.446c-10.125-6.692-20.638-3.014-28.301,4.326c-1.849,3.335-4.622,6.564-4.616,10.332 c0.003,1.632-1.258,2.552-2.736,2.737c-0.829,0.104-1.625,0.056-2.391-0.134c-1.771,0.44-4.068-0.981-3.498-3.331 c1.302-5.359-2.234-10.802-3.847-15.816c-3.535-3.994-8.013-6.973-13.454-8.149c-15.042-3.254-37.759,6.744-41.802,22.591 c-0.169,0.249-0.328,0.521-0.467,0.829c-0.253,0.561-0.536,1.099-0.824,1.632c-0.686,0.975-1.335,2.017-1.947,3.134 c-2.349,3.359-5.197,6.344-7.747,9.621c-0.558,0.717-1.062,1.447-1.543,2.185c0.065,1.51,0.923,2.952,2.815,3.475 c3.362,0.93,6.47,1.18,9.7-0.432c5.07-2.531,7.881,0.225,12.512,2.195c8.22,3.498,18.104,0.818,26.226-1.583 c8.46-2.5,18.437-3.757,26.708,0.067c1.661,0.768,3.152,1.819,4.163,3.365c0.405,0.62-1.601,2.973-1.925,3.467 c-0.479,0.729-0.857,1.547-1.099,2.392c-0.239,0.509-0.38,1.068-0.372,1.66c0.027,1.914,0.566,3.693,1.92,5.091 c0.596,0.616,1.35,1.03,2.146,1.323c0.179,0.104,0.37,0.195,0.571,0.274c0.265,0.149,0.552,0.27,0.872,0.353 c3.42,1.985,8.006,2.951,11.089,4.309c7.31,3.222,10.897,10.1,17.533,13.948c2.08,1.206,5.409,0.197,5.876-2.391 c0.62-3.446,0.354-6.887,0.833-10.333c0.449-3.235,3.321-4.751,5.995-5.943C312.32,66.938,311.437,62.941,309.295,61.379z"/>
	<path fill="#674A50" d="M297.41,140.323c-0.314-0.069-0.632-0.123-0.949-0.174 c-0.057,0.139-0.115,0.277-0.199,0.407c-1.186,1.844-2.177,3.824-3.818,5.324c-0.048,0.043-0.102,0.075-0.151,0.115 c-0.149,0.134-0.298,0.27-0.447,0.404c-1.527,1.862-3.57,3.043-5.673,4.299c-1.873,1.118-3.698,2.112-5.672,2.833 c-1.455,0.895-2.965,1.683-4.629,2.165c-2.139,0.619-4.319,1.247-6.454,1.945c-6.547,2.456-14.049,2.908-20.854,2.945 c-0.116,0-0.218-0.02-0.327-0.031c-0.17,0.025-0.341,0.036-0.511,0.064c-16.713-1.983-33.048-7.467-46.888-17.142 c-0.489-0.342-0.974-0.525-1.44-0.594c-10.005-7.297-19.962-15.285-24.385-27.274c-2.533-6.869-3.848-14.035-3.752-21.353 c0.015-1.077,0.07-2.153,0.146-3.229c-0.057-3.163,0.218-6.35,0.354-9.695c0.128-3.167,0.227-6.328,1.303-9.224 c-0.402-0.39-0.838-0.747-1.316-1.079c-0.953,0.5-1.881,1.04-2.754,1.681c-0.594,0.22-1.125,0.592-1.525,1.104 c-0.586,3.146-2.106,6.075-2.784,9.236c-1.078,5.032-1.92,10.034-1.884,15.198c0.043,6.021,0.223,12.301,0.836,18.471 c0.337,1.319,0.701,2.632,1.127,3.934c1.137,3.471,2.686,6.874,4.145,10.221c1.699,3.894,4.771,6.194,7.143,9.559 c0.066,0.095,0.145,0.165,0.217,0.251c0.223,1.281,1.078,2.418,2.562,2.712c0.423,0.409,0.878,0.786,1.353,1.145 c4.173,4.458,9.271,7.973,14.437,11.274c8.287,5.296,16.732,9.566,26.17,12.415c10.109,3.053,21.077,3.576,31.571,3.414 c4.573-0.07,9.213-0.778,13.539-2.286c0.164-0.044,0.32-0.096,0.469-0.159c1.341-0.488,2.646-1.062,3.912-1.713 c0.129-0.028,0.258-0.064,0.39-0.111c6.066-2.152,12.703-4.74,18.477-8.229c0.011-0.023,0.026-0.046,0.038-0.069 c0.276-0.093,0.531-0.245,0.731-0.475c0.058-0.066,0.219-0.255,0.328-0.385c0.625-0.476,1.185-1.034,1.734-1.678 c1-1.17,2.331-1.87,3-3.342c0.038-0.083,0.065-0.169,0.095-0.254c0.067-0.102,0.144-0.197,0.209-0.3 c1.811-2.833,2.627-6.003,3.791-9.109C298.748,142.371,298.207,141.276,297.41,140.323z"/>
	<path fill="#000" d="M194.005,125.97c-4.314-3.029-4.781-9.514-2.875-14.038c0.501-1.188-1.436-1.701-1.928-0.531 c-2.289,5.431-1.231,12.768,3.793,16.295C194.054,128.44,195.052,126.705,194.005,125.97z"/>
	<path fill="#000" d="M244.54,123.041c5.32-4.512,13.775-5.164,20.361-3.743c1.257,0.271,1.792-1.657,0.531-1.929 c-7.341-1.584-16.398-0.753-22.307,4.257C242.141,122.462,243.562,123.869,244.54,123.041z"/>
	<path fill="#000" d="M343.37,97.482c-0.159-1.078-0.631-2.045-1.368-2.801c-0.375-0.385-0.713-0.791-1.049-1.195 c-0.714-0.857-1.451-1.744-2.509-2.441c-0.456-0.301-0.956-0.572-1.566-0.85l-0.029-0.02c-9.786-6.319-14.398-15.51-18.634-25.167 c-3.691-8.414-8.688-14.138-14.858-17.03c3.072-10.9,4.38-24.929-5.895-31.721c-3.689-2.438-7.614-3.675-11.665-3.675 c-6.073,0-12.428,2.886-17.894,8.127l-0.182,0.236c-0.432,0.776-0.908,1.538-1.413,2.344c-1.636,2.612-3.327,5.314-3.322,8.462 c0.002,0.819-0.486,1.251-0.979,1.485c-0.087,0.007-0.171,0.004-0.258,0.013c-0.223,0.022-0.393,0.115-0.538,0.23 c-0.027,0.004-0.063,0.011-0.086,0.014c-0.699,0.085-1.376,0.049-2.025-0.112l-0.241-0.06l-0.241,0.06 c-0.691,0.171-1.579-0.134-2.02-0.694c-0.311-0.395-0.4-0.876-0.266-1.431c1.031-4.247-0.674-8.362-2.322-12.342 c-0.581-1.402-1.13-2.727-1.548-4.029l-0.064-0.2l-0.14-0.158c-3.949-4.455-8.652-7.298-13.979-8.45 c-1.952-0.422-4.063-0.636-6.275-0.636c-14.719,0-32.91,9.553-36.664,23.792c-0.177,0.274-0.326,0.548-0.453,0.83 c-0.234,0.521-0.497,1.021-0.765,1.517c-0.689,0.984-1.343,2.037-1.945,3.132c-1.376,1.962-2.969,3.847-4.509,5.67 c-1.055,1.248-2.146,2.539-3.178,3.865c-4.03,5.178-5.909,10.897-7.21,15.821c-1.7,3.565-3.048,7.177-4.224,10.696 c-0.236-0.192-0.481-0.377-0.74-0.558c-0.306-0.212-0.704-0.236-1.035-0.063c-1.106,0.581-1.991,1.118-2.772,1.682 c-0.726,0.295-1.356,0.768-1.829,1.373c-0.1,0.126-0.167,0.275-0.196,0.433c-0.291,1.566-0.824,3.071-1.389,4.665 c-0.415,1.17-0.836,2.375-1.162,3.616l-0.141-0.117l-0.633,0.029c-2.674,0.121-5.198,0.235-8.081,1.511 c-2.146,0.95-4.397,1.276-6.781,1.622c-0.785,0.114-1.569,0.228-2.348,0.364c-0.668-0.54-1.504-0.822-2.449-0.822 c-2.113,0-3.358,1.381-3.754,2.895c-2.121,1.162-3.962,2.632-5.641,4.056c-0.826,0.702-1.559,1.153-2.268,1.396 c-2.037-1.495-4.529-2.43-7.42-2.781c-1.078-0.325-2.379-0.533-3.924-0.621c-2.155,0.008-4.19,0.559-6.058,1.642 c-1.793,1.061-3.238,2.507-4.29,4.284c-0.326,0.532-0.609,1.115-0.861,1.775c-0.36,0.416-0.701,0.841-0.984,1.223 c-0.785,0.906-1.556,1.938-2.296,3.074c-0.394-0.127-0.813-0.191-1.255-0.191c-1.991,0-3.495,1.27-3.832,3.234 c-0.242,1.416,0.227,3.098,1.525,4.039c-0.198,0.496-0.393,0.992-0.588,1.488c-1.245,3.168-2.421,6.158-4.228,8.917 c-1.319,2.016-2.972,3.752-4.57,5.432c-0.066,0.069-0.133,0.141-0.199,0.21c0.002-0.012,0.005-0.023,0.007-0.035 c0.003-0.021,0.006-0.051,0.009-0.072c-0.863,0.59-1.856,0.685-2.759,0.156c-0.367-0.217-0.711-0.592-0.968-1.057l-0.124-0.225 l-0.216-0.137c-2.082-1.32-4.404-2.355-6.454-3.269c-0.821-0.366-1.589-0.708-2.259-1.034c-8.572-4.168-17.43-8.476-28.147-8.873 c-1.243-2.529-3.656-4.075-6.441-4.075c-3.003,0-5.57,1.782-6.846,4.7c-0.142-0.002-0.282-0.003-0.423-0.003 c-13.991,0-29.509,8.772-30.708,25.03c-0.568,7.699,4.469,14.348,9.371,18.004c3.046,2.271,6.533,4.111,10.662,5.625 c0.986,0.361,2.062,0.668,3.277,0.938c1.742,1.882,3.215,3.447,4.591,4.883c-0.032,1.791,0.579,3.488,1.711,4.713 c1.153,1.25,2.747,1.91,4.608,1.91c0.119,0,0.235-0.004,0.351-0.01c3.245,3.045,6.304,5.63,9.339,7.896 c3.514,2.624,7.407,5.2,11.845,7.834c-2.752,0.474-5.526,0.869-8.231,1.255c-8.748,1.248-17.793,2.538-26.256,6.48l-0.104,0.048 c-2.897,1.349-8.927,4.153-7.884,8.729c1.042,4.571,6.748,4.611,8.624,4.625h0.103c4.239,0,8.375-1.815,12.375-3.57 c1.457-0.64,2.834-1.244,4.181-1.745c4.757-1.77,9.553-2.789,13.872-2.948l0.18-0.003l0.434,0.01l0.133-0.033 c0.242-0.058,0.289,0.029,0.31,0.059c0.067,0.088,0.089,0.25,0.051,0.386l-0.015,0.055c-0.019,0.038-0.043,0.069-0.072,0.091 l-0.186,0.172c-1.441,1.73-5.014,4.209-6.897,5.4l-0.832,0.525c-3.679,2.324-7.151,4.52-10.54,7.209 c-4.947,3.924-10.873,9.658-11.016,14.688c-0.053,1.886,0.684,3.52,2.188,4.857c1.222,1.087,2.633,1.638,4.195,1.638 c4.495,0,9.25-4.646,12.396-7.721c0.562-0.551,1.075-1.052,1.524-1.466c8.389-7.721,20.443-16.925,30.236-16.925 c3.227,0,6.002,1.051,8.248,3.122c1.658,1.528,2.522,3.745,3.438,6.092c0.871,2.231,1.771,4.54,3.434,6.369 c1.377,1.514,3.697,3.131,6.083,3.131c1.561,0,2.896-0.71,3.858-2.053c2.106-2.938,1.938-6.342-0.451-9.108 c-0.28-0.325-0.556-0.637-0.823-0.94l-0.385-0.436c-0.856-1.688-1.929-3.173-2.965-4.551l-0.016-0.04 c-0.048-0.121-0.096-0.242-0.139-0.371c-0.806-2.461-0.698-5.281-0.547-8.039c2.542,1.032,4.781,1.785,6.429,2.289 c4.419,1.353,8.994,1.994,13.329,2.521c0.117,0.16,0.217,0.323,0.341,0.483c0.06,0.077,0.127,0.139,0.196,0.193 c0.004,0.006,0.006,0.012,0.01,0.018c4.22,5.977,10.515,8.474,17.138,10.704c5.415,1.825,10.72,2.721,15.813,2.642 c1.547,0.24,3.487,0.594,5.213,1.221c0.438,1.01,1.132,1.877,2.066,2.583c1.894,1.429,3.729,2.593,5.529,3.493 c0.086,0.043,0.172,0.085,0.209,0.099c2.114,1.026,4.131,1.623,5.997,1.773c0.098,0.035,0.198,0.066,0.311,0.092 c1.957,0.431,3.797,1.023,5.62,1.812c1.091,0.892,2.155,1.874,3.186,2.824c0.768,0.708,1.535,1.416,2.322,2.099 c5.509,4.777,10.372,7.477,14.453,8.023c0.306,0.041,0.664,0.062,1.035,0.062c0.88,0,3.846-0.139,5.06-1.922 c0.396-0.582,0.752-1.57,0.198-2.972c-0.642-1.628-1.86-3.136-3.527-4.365c-1.677-1.784-4.062-3.098-6.171-4.19 c-1.252-0.648-2.549-1.22-3.803-1.772c-1.229-0.541-2.498-1.101-3.698-1.723c-1.419-0.735-2.638-1.692-3.931-3.089 c-0.001-0.002-0.002-0.005-0.003-0.007c0.16-0.087,0.654-0.273,1.942-0.273c4.648,0,13.897,2.413,15.122,2.814 c4.862,1.594,9.32,4.096,13.632,6.515c3.41,1.914,6.937,3.894,10.675,5.438c0.98,0.405,1.921,0.611,2.796,0.611 c1.816,0,3.316-0.924,4.014-2.471c0.894-1.982,0.323-4.56-1.452-6.567c-4.415-4.989-12.426-7.001-19.492-8.776 c-1.952-0.49-3.796-0.953-5.403-1.445l-0.31-0.095c-4.214-1.29-8.572-2.624-12.508-4.587c-0.219-0.108-0.406-0.21-0.568-0.306 l-0.253-0.106c-0.021-0.006-0.06-0.033-0.1-0.091l-0.077-0.168c-0.029-0.12-0.034-0.28,0.196-0.417l0.143-0.084 c0.042-0.024,0.145-0.046,0.171-0.053l0.16,0.019l0.157-0.031c0.394-0.079,0.841-0.12,1.33-0.12c2.036,0,4.636,0.693,7.149,1.363 c2.716,0.725,5.524,1.474,7.956,1.474c0.665,0,1.287-0.057,1.85-0.169l0.45-0.089l0.226-0.4c0.049-0.087,0.094-0.143,0.149-0.185 l1.354-1.846l-0.005-0.293c0.025-0.065,0.048-0.133,0.066-0.2c0.411-1.496-0.138-3.09-1.27-4.076 c4.5,0.282,9.025,0.486,13.529,0.486h0.003c6.243,0,11.925-0.399,17.137-1.202c-0.525,0.867-0.731,1.763-0.589,2.63 c0.128,0.777,0.603,1.895,2.135,2.805c1.073,0.639,2.332,0.962,3.741,0.962c3.232,0,6.719-1.69,9.264-2.925l0.658-0.318 c0.57-0.273,1.161-0.564,1.768-0.864c3.813-1.881,8.114-4.002,12.176-4.18c-1.636,1.579-3.923,3.729-4.193,3.945 c-2.046,1.477-4.318,2.758-6.516,3.996l-1.77,0.999c-6.174,3.466-14.389,8.62-14.432,13.348c-0.016,1.63,0.898,2.996,2.714,4.061 c1.137,0.665,2.384,1.003,3.706,1.003c4.998,0,10.226-4.86,14.042-8.409c1.058-0.983,2.057-1.912,2.876-2.572 c0.613-0.494,1.223-0.993,1.831-1.49c2.939-2.404,5.716-4.676,8.913-6.517c3.245-1.869,5.174-1.899,6.426,0.144 c0.738,1.205,0.941,3.005,1.139,4.746c0.094,0.827,0.182,1.608,0.327,2.338c0.628,3.171,5.301,9.508,9.787,9.508 c1.108,0,2.707-0.399,4.023-2.298c2.414-3.483,0.782-6.745-1.342-9.752c-3.065-4.341-4.165-8.099-3.361-11.486l0.03-0.194 l-0.007-0.16c-0.002-0.091-0.003-0.184-0.002-0.282l0.019-0.108c0.102-0.766,0.509-1.604,0.986-2.164 c0.241-0.08,0.45-0.245,0.561-0.495c0.085-0.05,0.17-0.093,0.253-0.116c0.587-0.165,1.418-0.15,2.254-0.104 c0.383,0.022,0.767,0.044,1.15,0.044l0.218-0.002c1.386-0.031,2.861-0.161,4.643-0.408l0.2-0.049 c3.42-1.228,5.312-3.616,5.485-6.918c-0.036-1.767,0.167-0.608-0.114-1.825c-1.524-4.463-3.776-8.044-6.887-10.948 c-0.436-0.407-0.979-0.872-1.578-1.385c-1.681-1.437-3.771-3.225-5.095-5.156l-0.204-0.27c-0.202-0.269-0.406-0.538-0.632-0.793 c-0.617-0.699-1.325-1.354-2.06-1.91c0.526-0.417,1.066-0.822,1.606-1.227l0.82-0.619l0.083-0.07 c0.068-0.064,0.14-0.122,0.295-0.225c0.829-0.643,1.794-1.42,2.662-2.317c1.081-1.12,2.121-2.384,3.211-3.911 c1.361-2.157,2.296-4.457,2.779-6.836c0.854-4.194,0.505-12.406-2.941-17.533c-1.498-2.229-3.402-3.596-5.66-4.064 c-0.512-0.264-1.024-0.462-1.538-0.627c0.342-1.419,0.688-2.896,1.046-4.453c0.514-1.211,0.838-2.5,0.964-3.836 c1.609-5.299,4.561-10.42,6.934-14.54c0.797-1.382,2.245-2.342,3.776-3.357c1.773-1.174,3.605-2.389,4.73-4.411 c0.314-0.565,0.533-1.125,0.689-1.679c1.933,0.085,3.885,0.149,5.83,0.149h0.001c7.824,0,13.583-1.027,18.672-3.33 C342.924,102.412,344.063,100.088,343.37,97.482z M226.741,209.2c-6.776,0-13.633-0.445-20.369-0.971 c-3.918-0.76-7.916-1.11-12.11-1.468c-0.987-0.084-2.059-0.149-3.181-0.217c-4.586-0.277-10.293-0.622-13.912-2.688l-0.241-0.138 l-0.331,0.007c-2.351-1.663-5.274-3.891-7.803-6.725c2.799-3.624,4.522-8.562,4.948-13.958c-0.642,0.134-1.33,0.119-2.003-0.036 c-0.387,4.695-1.823,8.978-4.128,12.214c-2.413-3.469-5.322-6.525-8.529-9.304c-0.97-0.84-2.391,0.568-1.414,1.414 c3.315,2.873,6.313,6.028,8.739,9.675l0.243,0.447l0.275,0.45c2.843,3.301,6.186,5.817,8.78,7.642l0.368,0.188l0.341-0.007 c4.02,2.179,9.846,2.531,14.545,2.814c1.104,0.066,2.16,0.131,3.199,0.219c3.809,0.324,7.477,0.646,11.051,1.286 c-0.017,0.04-0.03,0.081-0.047,0.12c0.381,0.03,0.766,0.057,1.147,0.086c1.446,0.29,2.879,0.636,4.298,1.068 c0.154,0.104,0.311,0.232,0.483,0.396l0.135,0.129l0.173,0.071c0.894,0.37,1.411,1.431,1.124,2.438l-0.132,0.326l0.002,0.03 l-0.678,0.963c-0.089,0.078-0.171,0.163-0.248,0.254c-0.334,0.045-0.694,0.067-1.077,0.067c-2.17,0-4.85-0.715-7.441-1.405 c-2.638-0.704-5.365-1.432-7.664-1.432c-0.566,0-1.1,0.045-1.586,0.133c-0.448-0.015-0.855,0.097-1.247,0.329l-0.231,0.137 c-0.819,0.485-1.229,1.388-1.079,2.343c-0.019,0.308,0.073,0.707,0.478,1.133c0.271,0.359,0.62,0.618,1.021,0.757 c0.175,0.101,0.371,0.206,0.594,0.316c4.084,2.037,8.522,3.396,12.815,4.709l0.309,0.095c1.657,0.508,3.524,0.977,5.502,1.473 c6.785,1.705,14.477,3.637,18.481,8.162c1.255,1.419,1.697,3.154,1.127,4.42c-0.598,1.325-2.235,1.654-4.223,0.834 c-3.628-1.499-7.101-3.448-10.46-5.334c-4.395-2.466-8.939-5.017-13.987-6.671c-0.753-0.247-10.537-2.914-15.745-2.914 c-1.955,0-3.118,0.378-3.659,1.19c-0.254,0.381-0.478,1.022-0.137,1.826l0.104,0.312l0.136,0.148 c1.511,1.661,2.938,2.792,4.627,3.667c1.256,0.651,2.556,1.224,3.812,1.777c1.227,0.54,2.493,1.099,3.689,1.718 c1.535,0.796,4.105,2.128,5.688,3.844l0.147,0.131c1.399,1.017,2.409,2.24,2.922,3.54c0.281,0.711,0.083,1.003,0.009,1.112 c-0.42,0.616-1.82,1.047-3.406,1.047c-0.289,0-0.552-0.016-0.77-0.045c-3.688-0.494-8.199-3.035-13.408-7.553 c-0.771-0.669-1.523-1.362-2.276-2.057c-1.087-1.003-2.211-2.04-3.388-2.994l-0.229-0.139c-1.984-0.868-3.985-1.518-6.111-1.985 c-0.054-0.012-0.1-0.032-0.182-0.063l-0.28-0.061c-1.649-0.113-3.468-0.647-5.456-1.61c-0.047-0.021-0.093-0.044-0.209-0.102 c-1.619-0.811-3.352-1.909-5.147-3.265c-0.748-0.565-1.271-1.269-1.556-2.091l-0.149-0.434l-0.427-0.17 c-2.038-0.809-4.347-1.229-6.131-1.503l-0.084-0.013l-0.085,0.001c-4.891,0.089-9.999-0.773-15.228-2.535 c-6.298-2.121-12.271-4.479-16.144-9.964c-0.151-0.215-0.25-0.431-0.311-0.68l-0.065-0.27l-0.538-0.481l-0.166-0.012 c-9.839-15.262,10.224-32.58,22.109-40.006c1.091-0.681,0.088-2.412-1.01-1.727c-12.418,7.759-32.396,25.475-23.602,41.443 c-3.745-0.482-7.622-1.104-11.341-2.241c-1.456-0.446-3.928-1.271-6.859-2.501c-0.167-0.019-0.334-0.048-0.499-0.104 c-0.607-0.207-1.041-0.446-1.492-0.768c-6.857-3.117-15.4-8.275-19.834-15.905c-0.014-0.024-0.024-0.05-0.039-0.074 c-0.043-0.179-0.125-0.343-0.251-0.482c-1.189-2.188-2.011-4.544-2.408-6.945c-0.713-0.121-1.409-0.328-2.085-0.605 c0.295,2.356,0.936,4.691,1.922,6.898c-6.786-1.468-12.252-6.832-16.884-11.725c-5.655-5.977-9.17-13.32-13.083-20.459 c2.483-0.857,4.803-2.291,6.583-3.961c0.943-0.884-0.475-2.295-1.414-1.414c-3.555,3.334-9.778,5.804-14.287,3.011 c-1.101-0.682-2.104,1.05-1.01,1.727c2.488,1.542,5.393,1.763,8.212,1.167c0.021,0.102,0.038,0.203,0.097,0.308 c6.993,12.737,16.633,31.366,32.917,33.558c0.001,0.001,0.001,0.003,0.002,0.004c4.859,8.361,14.037,13.819,21.441,17.069 c0,0-0.001,0.001-0.001,0.002l-0.013,0.233c-0.165,2.949-0.353,6.291,0.617,9.254c0.056,0.169,0.117,0.326,0.18,0.483l0.195,0.397 c1.029,1.366,2.102,2.838,2.915,4.468l0.615,0.749c0.263,0.299,0.533,0.604,0.809,0.923c1.796,2.08,1.917,4.437,0.34,6.636 c-0.588,0.82-1.319,1.219-2.233,1.219c-1.624,0-3.482-1.243-4.603-2.477c-1.414-1.555-2.209-3.593-3.051-5.751 c-0.958-2.454-1.948-4.993-3.946-6.835c-2.627-2.423-5.858-3.651-9.604-3.651c-10.438,0-22.94,9.491-31.591,17.454 c-0.462,0.425-0.989,0.939-1.568,1.506c-2.914,2.848-7.318,7.151-10.998,7.151c-1.072,0-2.01-0.37-2.866-1.132 c-1.057-0.94-1.554-2.021-1.517-3.307c0.094-3.324,3.736-8.005,10.259-13.179c3.304-2.622,6.733-4.79,10.365-7.084l0.833-0.527 c0.539-0.341,5.277-3.37,7.292-5.724c0.272-0.224,0.483-0.511,0.626-0.838c0-0.004,0-0.007,0.001-0.01 c0.04-0.21,0.077-0.42,0.118-0.63c0.016-0.084,0.053-0.157,0.077-0.237c0.025-0.564-0.136-1.121-0.471-1.563 c-0.505-0.667-1.342-0.987-2.236-0.823c-0.076-0.002-0.153-0.003-0.233-0.003l-0.256,0.005c-4.527,0.166-9.539,1.229-14.493,3.071 c-1.401,0.521-2.804,1.137-4.288,1.788c-3.81,1.673-7.75,3.402-11.658,3.402h-0.001c-4.092-0.029-6.217-1.005-6.688-3.07 c-0.685-2.999,4.544-5.432,6.777-6.471l0.104-0.049c8.195-3.816,17.092-5.086,25.693-6.312c3.397-0.484,6.902-0.99,10.357-1.643 c1.143,1,2.451,1.837,3.859,2.551c-0.053,0.277-0.001,0.577,0.242,0.844c2.068,2.268,3.684,4.951,6,7 c0.962,0.852,2.382-0.558,1.414-1.414c-1.668-1.476-2.974-3.279-4.346-5.021c3.606,1.292,7.51,2.034,10.873,2.692 c1.26,0.247,1.797-1.681,0.531-1.928c-5.035-0.985-11.483-2.112-15.955-5.226l0.042-0.008c-1-0.682-2.024-1.347-2.93-2.15 c-4.841-2.826-9.042-5.572-12.787-8.369c-3.075-2.295-6.178-4.93-9.487-8.053l-0.338-0.318l-0.461,0.053 c-0.193,0.021-0.392,0.035-0.6,0.035c-1.307,0-2.363-0.426-3.139-1.267c-0.84-0.908-1.274-2.276-1.164-3.66l0.035-0.448 l-0.312-0.324c-1.508-1.567-3.121-3.281-5.075-5.396l-0.216-0.233l-0.312-0.066c-1.253-0.266-2.337-0.568-3.317-0.928 c-3.943-1.445-7.266-3.195-10.154-5.35c-4.478-3.338-9.08-9.361-8.572-16.252c1.11-15.056,15.623-23.179,28.714-23.179 c0.354,0,0.71,0.006,1.064,0.018l0.735,0.024l0.242-0.695c1.038-2.981,3.381-4.044,5.227-4.044c2.163,0,4.021,1.312,4.852,3.423 l0.243,0.619l0.665,0.015c10.567,0.235,19.406,4.534,27.954,8.69c0.688,0.334,1.477,0.686,2.32,1.062 c1.918,0.854,4.083,1.818,5.992,3.002c0.418,0.678,0.957,1.222,1.572,1.582c0.515,0.302,1.057,0.486,1.606,0.566 c-1.818,2.087-3.465,4.403-4.405,7.402c-0.227,0.723-0.355,1.586-0.492,2.501c-0.177,1.183-0.374,2.501-0.79,3.327 c-1.131,0.189-3.422,0.84-4.104,1.196c-1.772,0.931-2.979,2.478-3.491,4.474c-0.913,3.57,0.531,7.998,2.26,10.6 c1.202,1.809,1.202,1.809-0.432,3.932c-0.3,0.391-0.574,0.777-0.838,1.166c0.471,0.275,0.894,0.625,1.274,1.047 c0.131,0.023,0.256,0.048,0.384,0.071c0.248-0.364,0.509-0.731,0.796-1.104c1.962-2.55,2.396-3.336,0.481-6.219 c-1.539-2.316-2.717-6.15-1.988-8.996c0.372-1.453,1.208-2.529,2.482-3.198c0.55-0.288,2.929-0.712,3.511-1.077l1.377-0.85 c0.701-0.947,0.839-2.622,1.056-4.072c0.124-0.836,0.242-1.625,0.422-2.197c1.197-3.818,3.672-6.42,6.293-9.173 c1.659-1.744,3.376-3.548,4.795-5.715c1.919-2.931,3.188-6.159,4.415-9.28c0.302-0.768,0.604-1.537,0.915-2.302l0.396-0.972 l-0.988-0.349c-0.956-0.337-1.302-1.412-1.149-2.3c0.081-0.473,0.424-1.572,1.86-1.572c0.415,0,0.768,0.1,1.077,0.305l0.862,0.57 l0.541-0.881c0.827-1.346,1.695-2.545,2.627-3.623c0.328-0.439,0.683-0.875,1.052-1.297l0.124-0.141l0.064-0.176 c0.222-0.607,0.469-1.129,0.762-1.606c0.887-1.499,2.096-2.708,3.588-3.591c1.553-0.9,3.253-1.361,4.992-1.368 c1.365,0.078,2.533,0.267,3.475,0.56l0.181,0.038c2.751,0.321,5.076,1.226,6.909,2.687l0.375,0.299l0.469-0.105 c1.173-0.266,2.302-0.884,3.552-1.944c1.701-1.442,3.568-2.931,5.695-4.034l0.465-0.24l0.067-0.519 c0.051-0.396,0.337-1.683,1.873-1.683c0.585,0,1.052,0.19,1.39,0.564l0.376,0.419l0.554-0.104c0.915-0.174,1.839-0.308,2.765-0.441 c2.412-0.35,4.906-0.711,7.303-1.772c2.503-1.107,4.709-1.222,7.248-1.337c0.104,0.073,0.218,0.119,0.327,0.181 c-0.88,4.249-1.699,9.155-1.663,14.249c0.054,7.527,0.313,13.252,0.841,18.562c0.005,0.049,0.014,0.1,0.026,0.148 c0.395,1.544,0.759,2.814,1.146,3.996c1.006,3.072,2.332,6.096,3.614,9.021l0.563,1.29c1.132,2.593,2.838,4.518,4.487,6.379 c0.938,1.059,1.907,2.152,2.753,3.354c0.034,0.048,0.069,0.093,0.111,0.143c0.374,1.572,1.489,2.748,2.995,3.157 c0.35,0.323,0.736,0.646,1.173,0.979c4.256,4.527,9.517,8.141,14.57,11.371c9.216,5.89,17.61,9.871,26.419,12.529 c7.869,2.377,16.95,3.483,28.58,3.483h0.003c1.103,0,2.199-0.01,3.293-0.026c4.952-0.076,9.612-0.864,13.782-2.32 c0.211-0.057,0.412-0.124,0.552-0.186c1.327-0.482,2.645-1.057,3.919-1.707c0.124-0.031,0.249-0.069,0.375-0.114 c5.867-2.081,12.672-4.697,18.66-8.315c0.037-0.023,0.074-0.051,0.111-0.084c0.067-0.03,0.123-0.074,0.187-0.108 c-2.211,7.551-4.635,15.113-7.749,22.204c-2.862,6.521-7.318,12.093-12.888,16.113C258.858,205.682,245.328,209.201,226.741,209.2z M296.986,179.685c0.19,0.216,0.361,0.444,0.531,0.67l0.186,0.242c1.438,2.104,3.642,3.988,5.412,5.502 c0.574,0.491,1.096,0.936,1.513,1.325c2.867,2.678,4.873,5.851,6.305,9.975c0.056,0.365,0.08,0.717,0.071,1.046 c-0.069,2.572-1.402,4.305-4.075,5.292c-1.656,0.228-3.027,0.347-4.308,0.375l-0.173,0.002c-0.346,0-0.69-0.021-1.035-0.04 c-0.349-0.021-0.697-0.037-1.045-0.04c1.835-3.199,2.376-7.145-0.286-10.115c-0.862-0.962-2.272,0.457-1.414,1.414 c2.518,2.809,0.91,6.951-1.25,9.461c-0.009,0.011-0.01,0.022-0.019,0.032c-1.131,0.868-1.93,2.425-2.129,3.798l-0.044,0.301 c-0.002,0.151-0.002,0.298,0.001,0.442c-0.886,3.94,0.327,8.184,3.705,12.968c2.025,2.868,2.954,5.116,1.33,7.459 c-0.67,0.966-1.448,1.437-2.379,1.437c-3.105,0-7.265-5.066-7.826-7.896c-0.128-0.648-0.212-1.39-0.301-2.174 c-0.211-1.867-0.45-3.983-1.421-5.566c-0.99-1.616-2.442-2.471-4.199-2.471c-1.403,0-3.016,0.536-4.93,1.64 c-3.339,1.922-6.309,4.352-9.181,6.7c-0.605,0.495-1.211,0.99-1.821,1.482c-0.874,0.704-1.897,1.656-2.981,2.664 c-3.574,3.323-8.469,7.874-12.681,7.874c-0.976,0-1.857-0.238-2.694-0.729c-1.738-1.018-1.729-1.994-1.726-2.315 c0.017-1.878,2.357-5.418,13.411-11.622l1.771-1.001c2.246-1.266,4.567-2.574,6.703-4.116c0.391-0.281,3.908-3.624,5.229-4.92 c0.349-0.281,0.546-0.697,0.546-1.174c0-0.906-0.817-1.587-1.721-1.477c-4.853-0.18-9.98,2.361-14.09,4.39 c-0.601,0.296-1.184,0.584-1.748,0.854l-0.665,0.321c-2.371,1.15-5.618,2.725-8.392,2.725c-1.059,0-1.948-0.223-2.72-0.681 c-0.48-0.286-1.076-0.763-1.183-1.411c-0.111-0.672,0.32-1.345,0.702-1.791c0.362-0.424,0.858-0.8,1.435-1.136 c4.624-0.918,8.855-2.19,12.745-3.835c1.904-0.555,3.781-1.268,5.344-2.338c0.68-0.466,1.34-0.959,1.999-1.451 c1.034-0.641,2.052-1.304,3.034-2.013c1.608-1.161,3.119-2.455,4.54-3.849c0.048-0.03,0.098-0.042,0.143-0.082 c3.072-2.701,7.742-3.164,11.668-3.082c1.29,0.027,1.288-1.973,0-2c-2.649-0.055-5.492,0.176-8.101,0.988 c2.1-2.713,3.895-5.7,5.307-8.916c1.516-3.449,2.861-7.002,4.104-10.603c0.881,0.921,2.124,1.454,3.206,2.09 c1.378,0.811,1.853,2.42,3.229,3.178c0.009,0.005,0.018,0.004,0.027,0.009c0.106,0.156,0.226,0.297,0.378,0.406 C295.723,178.405,296.4,179.021,296.986,179.685z M300.008,143.885c0.074-0.199,0.084-0.416,0.027-0.619 c-0.146-0.525-0.341-1.021-0.561-1.499c1.474,0.468,2.752,1.493,3.806,3.061c3.09,4.597,3.403,12.275,2.643,16.019 c-0.441,2.17-1.263,4.188-2.479,6.119c-1,1.398-1.979,2.588-2.99,3.637c-0.78,0.807-1.675,1.527-2.367,2.068 c-0.169,0.105-0.329,0.229-0.483,0.371l-0.771,0.581c-0.646,0.483-1.288,0.971-1.912,1.477c-0.211-0.283-0.394-0.595-0.605-0.878 c-0.371-0.498-0.831-0.875-1.321-1.249c-1.158-0.883-2.732-1.263-3.66-2.428c-0.142-0.178-0.302-0.276-0.465-0.319 c1.454-4.368,2.764-8.796,4.021-13.194c0.281-0.305,0.587-0.589,0.915-0.884c0.735-0.656,1.567-1.401,2.083-2.535 c0.03-0.066,0.056-0.133,0.084-0.209l0.006-0.01c0.051-0.07,0.102-0.141,0.146-0.212c1.422-2.226,2.257-4.646,3.065-6.987 C299.454,145.424,299.72,144.652,300.008,143.885z M298.018,143.498c-0.25,0.68-0.485,1.362-0.72,2.043 c-0.806,2.334-1.566,4.537-2.861,6.564l-0.198,0.284c-0.048,0.071-0.099,0.187-0.127,0.269c-0.014,0.041-0.026,0.084-0.045,0.125 c-0.342,0.752-0.923,1.271-1.596,1.873c-0.419,0.375-0.852,0.762-1.255,1.233c-0.548,0.642-1.05,1.128-1.579,1.532 c-0.059,0.044-0.112,0.095-0.159,0.15l-0.318,0.373c-0.069,0.08-0.166,0.14-0.296,0.184c-0.145,0.049-0.282,0.142-0.394,0.256 c-5.797,3.477-12.416,6.019-18.137,8.048c-0.091,0.032-0.18,0.058-0.27,0.077c-0.084,0.019-0.166,0.048-0.243,0.088 c-1.233,0.635-2.511,1.193-3.848,1.682c-0.105,0.046-0.217,0.082-0.404,0.135c-4.038,1.407-8.487,2.158-13.226,2.23 c-1.083,0.018-2.17,0.026-3.262,0.026h-0.003c-11.429,0-20.326-1.079-28.002-3.397c-8.627-2.604-16.863-6.513-25.92-12.301 c-4.967-3.175-10.131-6.719-14.245-11.115c-0.039-0.041-0.082-0.08-0.128-0.114c-0.487-0.368-0.899-0.716-1.26-1.065 c-0.139-0.134-0.312-0.225-0.501-0.262c-1.347-0.268-1.688-1.42-1.771-1.902c-0.03-0.174-0.106-0.338-0.22-0.473l-0.165-0.184 c-0.912-1.294-1.919-2.431-2.893-3.529c-1.618-1.826-3.146-3.55-4.15-5.853l-0.566-1.294c-1.263-2.881-2.569-5.859-3.545-8.838 c-0.366-1.121-0.713-2.33-1.09-3.797c-0.517-5.226-0.771-10.875-0.823-18.304c-0.037-5.369,0.92-10.587,1.861-14.981 c0.311-1.447,0.823-2.896,1.319-4.296c0.536-1.514,1.09-3.076,1.419-4.7c0.256-0.27,0.577-0.481,0.94-0.615 c0.088-0.033,0.17-0.077,0.245-0.132c0.596-0.438,1.266-0.859,2.078-1.307c0.081,0.064,0.161,0.129,0.239,0.195 c-0.896,2.779-1.015,5.743-1.13,8.616l-0.011,0.27c-0.042,1.024-0.097,2.032-0.151,3.03c-0.125,2.312-0.244,4.497-0.202,6.637 c-0.087,1.25-0.134,2.293-0.147,3.285c-0.095,7.287,1.188,14.592,3.813,21.712c4.517,12.241,14.695,20.414,24.734,27.735 c0.131,0.096,0.283,0.158,0.444,0.182c0.34,0.051,0.681,0.193,1.012,0.424c13.185,9.217,29.556,15.205,47.343,17.315 c0.093,0.011,0.189,0.009,0.282-0.007c0.074-0.012,0.147-0.02,0.222-0.027c0.044-0.005,0.087-0.01,0.131-0.016 c0.103,0.014,0.206,0.023,0.327,0.023c6.225-0.033,14.261-0.406,21.159-2.994c2.036-0.666,4.139-1.275,6.173-1.863l0.249-0.072 c1.513-0.438,2.994-1.124,4.789-2.221c2.145-0.795,4.106-1.899,5.746-2.879l0.236-0.141c2.003-1.194,4.074-2.43,5.648-4.323 l0.365-0.329c0.062-0.045,0.123-0.09,0.184-0.145c1.374-1.256,2.307-2.789,3.21-4.271c0.203-0.334,0.406-0.668,0.614-0.998 C297.405,141.986,297.766,142.707,298.018,143.498z M339.561,101.74c-4.818,2.18-10.323,3.152-17.849,3.152 c-3.15,0-6.349-0.166-9.44-0.327l-2.473-0.126c-5.665-0.272-11.431-0.792-17.008-1.295c-8.228-0.74-16.735-1.508-25.189-1.508 c-14.587,0.005-29.286,2.483-43.533,4.887c-2.939,0.495-6.188,1.055-9.519,1.771c1.178-2.229,2.22-4.532,3.646-6.622 c0.729-1.069-1.005-2.068-1.727-1.01c-1.942,2.847-3.171,6.086-5,9c-0.688,1.096,1.043,2.098,1.727,1.01 c0.005-0.008,0.009-0.016,0.013-0.022c3.912-0.909,7.773-1.579,11.225-2.16c14.134-2.384,28.748-4.848,43.212-4.853 c8.32,0,16.782,0.763,24.967,1.5c5.597,0.504,11.384,1.025,17.091,1.301l2.464,0.125c0.529,0.027,1.064,0.055,1.6,0.082 c-0.098,0.266-0.212,0.533-0.36,0.801c-0.884,1.59-2.435,2.617-4.076,3.705c-1.662,1.102-3.38,2.24-4.415,4.037 c-2.439,4.234-5.477,9.505-7.146,15.062l-0.04,0.203c-0.102,1.188-0.389,2.332-0.853,3.4l-0.059,0.176 c-0.491,2.146-0.965,4.145-1.429,6.036c-0.263,0.41-0.517,0.826-0.771,1.242c-0.867,1.425-1.688,2.772-2.845,3.827 c-0.03,0.021-0.123,0.092-0.15,0.117l-0.449,0.405c-0.037,0.034-0.071,0.069-0.104,0.108c-1.358,1.657-3.212,2.763-5.175,3.933 l-0.237,0.142c-1.584,0.945-3.477,2.012-5.502,2.752c-0.063,0.023-0.124,0.053-0.181,0.088c-1.674,1.029-3.026,1.662-4.384,2.056 l-0.248,0.071c-2.051,0.594-4.17,1.207-6.279,1.898c-6.643,2.491-14.449,2.848-20.598,2.871l-0.135-0.016 c-0.082-0.01-0.165-0.006-0.245,0.006l-0.193,0.023c-0.061,0.006-0.121,0.014-0.183,0.021c-17.41-2.086-33.419-7.946-46.303-16.952 c-0.51-0.356-1.05-0.598-1.607-0.717c-9.731-7.107-19.556-15.033-23.852-26.678c-2.541-6.889-3.782-13.952-3.69-20.992 c0.013-0.953,0.059-1.962,0.146-3.262c-0.039-2.154,0.078-4.304,0.201-6.579c0.055-1.006,0.11-2.024,0.152-3.057l0.011-0.271 c0.064-1.599,0.13-3.15,0.313-4.646l0.279-0.088l0.154-0.501c1.493-4.833,3.206-9.999,5.609-15.019l0.064-0.177 c1.25-4.749,3.045-10.268,6.878-15.193c1.008-1.294,2.085-2.569,3.127-3.803c1.581-1.871,3.216-3.806,4.651-5.859l0.058-0.093 c0.584-1.065,1.219-2.088,1.889-3.04l0.062-0.1c0.332-0.615,0.604-1.139,0.856-1.698c0.103-0.228,0.228-0.449,0.382-0.677 l0.099-0.145l0.043-0.169c3.427-13.43,20.745-22.452,34.77-22.452c2.07,0,4.039,0.199,5.853,0.591 c4.841,1.047,9.137,3.626,12.769,7.668c0.435,1.316,0.995,2.669,1.538,3.979c1.526,3.684,3.104,7.492,2.227,11.105 c-0.278,1.147-0.053,2.262,0.637,3.138c0.864,1.099,2.429,1.692,3.822,1.452c0.819,0.175,1.659,0.21,2.525,0.102 c0.389-0.048,0.742-0.146,1.079-0.266c3.312-0.163,6.238,0.846,9.292,2.15c1.172,0.501,2.192-1.222,1.01-1.727 c-2.679-1.145-5.284-2.129-8.08-2.391c0.198-0.453,0.312-0.953,0.312-1.498c-0.004-2.571,1.464-4.916,3.018-7.397 c0.47-0.75,0.954-1.523,1.392-2.301c5.065-4.817,10.886-7.468,16.401-7.468c3.651,0,7.205,1.125,10.562,3.343 c9.521,6.294,7.886,19.967,4.837,30.33l-0.253,0.857l0.823,0.347c6.06,2.555,10.978,8.057,14.617,16.353 c4.363,9.947,9.128,19.424,19.312,25.995l0.259,0.166c0.559,0.249,1,0.484,1.389,0.742c0.811,0.534,1.424,1.271,2.073,2.051 c0.36,0.434,0.732,0.881,1.154,1.312c0.45,0.462,0.736,1.063,0.827,1.74l0.027,0.133C341.644,98.738,341.898,100.682,339.561,101.74 z"/>
	<path fill="#000" d="M118.036,101.016c0.775,5.099-1.947,9.97-6.041,12.871c-1.043,0.739-0.045,2.475,1.01,1.727 c4.903-3.475,7.881-9.07,6.959-15.129C119.771,99.212,117.844,99.755,118.036,101.016z"/>
	<path fill="#000" d="M113.255,146.637c-2.576-1.541-5.656-1.004-7.413,1.503c-1.886,2.691-1.703,6.103,0.451,8.567 c0.851,0.973,2.259-0.448,1.414-1.414c-2.789-3.191,0.192-9.528,4.538-6.93C113.355,149.027,114.36,147.297,113.255,146.637z"/>
	<path fill="#000" d="M151.495,145.613c1.045,0.76,2.042-0.976,1.01-1.727c-3.237-2.354,2.583-8.349,4.882-4.382 c0.646,1.115,2.375,0.108,1.727-1.01C155.266,131.854,145.443,141.212,151.495,145.613z"/>
	<path fill="#000" d="M141.495,127.137c-4.309,2.443-6.703-6.793-1.495-7.137c1.28-0.084,1.288-2.085,0-2 c-8.567,0.565-4.64,14.914,2.505,10.863C143.626,128.228,142.619,126.5,141.495,127.137z"/>
	<path fill="#000" d="M155.113,98.995c-0.257-0.37-0.45-0.709-0.433-1.15c0.007-0.181,0.205-0.396,0.387-0.513 c0.562-0.362,1.234-0.241,1.726,0.375c0.341,0.427,1.062,0.353,1.414,0c0.418-0.417,0.34-0.988,0-1.414 c-0.998-1.25-2.796-1.461-4.149-0.688c-1.648,0.942-1.659,2.975-0.671,4.399C154.116,101.057,155.851,100.058,155.113,98.995z"/>
	<path fill="#000" d="M126.438,158.833c-1.591,0.026-3.057,1.116-4.051,2.272c-1.023,1.19-1.834,2.812-1.646,4.421 c0.222,1.9,1.74,2.994,3.494,3.438c1.251,0.316,1.781-1.613,0.531-1.929c-0.961-0.243-1.981-0.698-2.053-1.814 c-0.062-0.977,0.49-1.97,1.088-2.702c1.194-1.462,3.388-2.637,4.235-0.254c0.429,1.207,2.361,0.687,1.928-0.531 C129.393,160.127,128.265,158.804,126.438,158.833z"/>
	<path fill="#000" d="M24.23,127.012c-0.855,0.886-1.477,2.146-1.376,3.4c0.125,1.551,1.272,2.504,2.63,3.053 c1.196,0.483,1.711-1.452,0.531-1.929c-1.548-0.625-1.356-2.025-0.371-3.11c1.047-1.152,2.477-1.45,3.242,0.079 c0.577,1.153,2.302,0.14,1.727-1.01C29.248,124.767,26.142,125.03,24.23,127.012z"/>
	<path fill="#000" d="M61.036,126.516c0.474,1.182,2.409,0.667,1.929-0.531c-0.673-1.68,0.306-2.474,1.979-2.457 c1.64,0.017,2.97,1.01,2.343,2.707c-0.448,1.212,1.485,1.73,1.929,0.531C71.672,120.12,58.351,119.819,61.036,126.516z"/>
	<path fill="#000" d="M284.63,55.521c-1.117-0.193-2.295,0.14-3.048,1.018c-0.759,0.886-0.956,2.049-0.49,3.122 c0.529,1.223,1.912,1.826,3.143,2.054c0.535,0.099,1.076-0.14,1.229-0.699c0.136-0.491-0.161-1.131-0.698-1.23 c-0.528-0.098-0.938-0.209-1.353-0.449c-0.331-0.191-0.361-0.229-0.533-0.55c0,0,0,0-0.001-0.001 c-0.003-0.01-0.004-0.016-0.01-0.032c-0.022-0.067-0.037-0.138-0.052-0.208c0.062,0.304,0.055-0.259,0.017-0.177 c0.009-0.039,0.017-0.079,0.026-0.118c0.009-0.033,0.015-0.057,0.019-0.074c0.002-0.005,0.003-0.006,0.006-0.012 c0.03-0.064,0.066-0.124,0.103-0.185c0.023-0.038,0.026-0.046,0.034-0.062c0.005-0.003,0.005,0,0.021-0.02 c0.04-0.046,0.219-0.196,0.237-0.22c0.042-0.026,0.083-0.053,0.125-0.078c0.047-0.027,0.061-0.037,0.074-0.046 c0.007-0.001,0.006,0,0.029-0.008c0.061-0.022,0.318-0.072,0.343-0.084c0.058-0.003,0.114-0.006,0.172-0.007 c0.053,0.001,0.105,0.004,0.159,0.008c0.002,0,0.001,0,0.003,0c0.441,0.076,0.627,0.187,1.046,0.481s0.844,0.841,1.155,1.309 c0.711,1.068,2.443,0.067,1.727-1.01C287.296,57.017,286.156,55.784,284.63,55.521z"/>
	<path fill="#000" d="M299.699,55.201c-1.048-0.346-2.332-0.178-3.254,0.426c-1.258,0.825-1.606,2.218-1.409,3.639 c0.074,0.541,0.757,0.829,1.229,0.699c0.576-0.159,0.773-0.691,0.698-1.23c0.033,0.235-0.002-0.123-0.004-0.166 c-0.005-0.103,0.003-0.206,0.01-0.309c0.007-0.046,0.02-0.147,0.027-0.181c0.018-0.078,0.046-0.152,0.072-0.227 c0.02-0.039,0.057-0.122,0.073-0.151c0.021-0.036,0.044-0.072,0.067-0.107c0.002-0.003,0-0.001,0.002-0.003 c0.062-0.075,0.134-0.144,0.206-0.21c0.004-0.003,0.001-0.001,0.005-0.004c0.027-0.02,0.055-0.039,0.083-0.058 c0.067-0.044,0.139-0.083,0.21-0.12c0.021-0.011,0.031-0.017,0.044-0.024c0.014-0.004,0.027-0.009,0.052-0.018 c0.096-0.034,0.194-0.06,0.292-0.084c0.028-0.007,0.096-0.018,0.151-0.027c0.161-0.015,0.324-0.02,0.486-0.011 c0.026,0.001,0.052,0.004,0.078,0.006c0.004,0.001,0.005,0.001,0.01,0.002c0.096,0.017,0.19,0.041,0.284,0.067 c0.034,0.01,0.068,0.023,0.102,0.035c0.039,0.018,0.138,0.061,0.177,0.082c0.028,0.016,0.084,0.054,0.127,0.083 c0.044,0.04,0.089,0.079,0.129,0.121c0.001,0.003,0,0.001,0.002,0.004c0.017,0.025,0.039,0.07,0.059,0.112 c0.009,0.027,0.016,0.055,0.022,0.083c0.006,0.052,0.016,0.139,0.015,0.182c0,0.016,0,0.021,0,0.033 c-0.001,0.005-0.002,0.005-0.003,0.012c-0.021,0.114-0.058,0.225-0.096,0.334c-0.003,0.008-0.002,0.004-0.004,0.011 c-0.029,0.061-0.059,0.12-0.09,0.179c-0.069,0.132-0.151,0.258-0.234,0.381c-0.306,0.456-0.978,1.08-1.525,1.528 c-0.423,0.345-0.356,1.058,0,1.414c0.414,0.414,0.992,0.345,1.414,0c1.196-0.977,2.502-2.304,2.539-3.952 C301.775,56.497,300.823,55.571,299.699,55.201z"/>
	<g transform="translate( 220, 24 )">
		<circle r="22" class="ball"/>
		<g transform="scale( 1, 0.2 )">
			<circle r="16" class="glow"/>
			<circle r="12" class="hole"/>
			<animateTransform id="left1" attributeName="transform" begin="0;left2.end" type="scale" to="1, 1" dur="0.5s" fill="freeze"/>
			<animateTransform id="left2" attributeName="transform" begin="left1.end" type="scale" to="1, 0.2" dur="0.5s"/>
		</g>
	</g>
	<g transform="translate( 300, 30 )">
		<circle r="22" class="ball"/>
		<g transform="scale( 1, 1 )">
			<circle r="16" class="glow"/>
			<circle r="12" class="hole"/>
			<animateTransform id="right1" attributeName="transform" begin="0;right2.end" type="scale" to="1, 0.2" dur="0.5s" fill="freeze"/>
			<animateTransform id="right2" attributeName="transform" begin="right1.end" type="scale" to="1, 1" dur="0.5s"/>
		</g>
	</g>
</svg>