<?xml version="1.0" encoding="utf-8"?>
<svg version="1.1" xmlns="http://www.w3.org/2000/svg" viewBox="0 0 628 530">
	<defs>
		<filter id="blur">
			<feGaussianBlur in="SourceGraphic" stdDeviation="15"/>
		</filter>
	</defs>
	<g transform="translate(23,8)">
		<path fill="#000" fill-opacity="0.4" filter="url(#blur)" transform="translate(5,20)" d="M553.199,164.241c6.957,2.722,13.914,5.445,20.871,8.167c-45.723-52.209-111.051-80.252-178.731-90.479,c-52.35-7.909-106.096-6.252-158.345,1.654c-16.368,2.477-32.681,5.553-48.735,9.61c-3.879,0.981-7.76,1.999-11.569,3.225,c-7.375,2.375-11.42,1.959-19.121,0.87c26.428-37.73,85.737-46.905,127.87-52.085c22.083-2.715,44.39-4.105,66.642-3.942,c12.468,0.091,24.869,1.208,37.302,2.026c12.635,0.832,28.726,3.223,40.776-1.906c-2.942-3.508-6.651-8.076-13.018-10.121,c6.318,0.154,12.974,1.624,18.127,5.446c-1.252-2.435-3.985-7.801-8.882-11.793c-5.314-4.359-11.566-7.483-17.953-9.941,C387.957,7.101,364.772,4.79,343.013,4.79c-79.8-1.007-158.96,23.152-223,70.895c-8.188,6.104-19.895,11.354-26.958,18.753,c-5.959,6.244-7.076,9.984-14.771,13.631c-4.168,1.973-8.228,4.181-12.15,6.605c-3.43,2.123-6.758,4.412-9.963,6.861,c-6.039,4.648-5.893,3.147-14.132,1.588c-9.951-1.883-15.297,8.397-19.923,15.868c2.417-1.194,4.833-2.389,7.25-3.583,c-2.762,2.413-5.332,5.192-7.25,8.333c4.19-3.494,9.792-4.675,15.129-4.636c-0.827,3.953-5.002,5.341-5.83,10.032,c-0.435,2.465-0.452,12.159,3.234,10.784c-17.455,18.985-42.135,59.626-21.752,83.249c10.999,12.742,18.397,21.42,36.259,23.344,c-2.929-6.219,3.498-2.126,7.218-1.577c4.48,0.662,4.876,2.008,10.062,1.332c9.834-1.282,16.077-5.108,24.506-11.121,c-0.112,1.25-0.331,2.482-0.656,3.698c5.273-2.832,10.599-5.495,15.868-8.361c-5.991,12.43-18.511,37.551-5.342,48.022,c12.646,10.036,31.233-14.999,36.317-24.223c5.959,26.856,3.838,56.159,7.038,83.484c1.694,14.469,7.327,30.552,8.243,44.299,c2.013,24.887-44.934,21.989-44.379,51.841c1.678-0.537,3.975-0.648,5.62-0.999c-2.041,4.703-3.586,10.162-3.62,15.332,c6.247-3.06,12.621-6.023,18.672-9.475c-0.008,1.938,0.551,4.523,0.328,6.475c16.589-11.006,33.475-22.896,53.513-26.729,c4.559-0.879,16.202,6.94,20.973,8.628c10.658,3.77,21.623,6.63,32.248,8.469c-8.418,6.233-14.81,15.923-15.734,26.632,c1.56,0.255,3.932,0.002,5.055-0.11c-1.299,4.23-1.903,8.705-1.388,13.11c5.005-1.19,9.939-2.84,14.571-5.09,c-0.08,1.479-0.048,2.953,0.096,4.424c12.664-1.881,25.876-7.897,37.377-13.917c18.826-9.854,38.767-17.907,59.957-20.75,c0.281-0.275,0.406-1.276,0.517-1.635c2.286-7.482,5.727-7.492,11.87-12.004c11.326-4.76,24.501-8.021,36.711-4.947,c14.222,3.607,26.569,8.753,41.595,9.996c11.723,0.97,23.557,1.152,35.308,0.59c-4.851-1.305-9.601-2.996-14.334-4.667,c40.612,4.406,75.228-20.975,84-60.667c-2.667,1.223-5.333,2.444-8,3.667c2.111-3.556,4.223-7.111,6.334-10.667c-6,2-12,4-18,6,c5.247-3.797,10.914-7.384,17-9.666c-7.23-10.395-19.128-17.684-31-21.667c4.312-0.493,8.667-0.5,13-0.333,c-26.368-16.518-53.564-13.95-78.538,3.383c-14.029,9.736-39.287,39.24-58.897,29.598c-10.179-4.965-7.717-24.133-9.168-32.815,c-14.99-90.398-73.846-184.715-151.362-234.573c44.777-21.853,94.025-25.759,141.909-12.68,c49.674,13.66,92.694,42.126,138.033,65.508c16.595,8.575,63.043,34.225,78.725,14.771c-3.901-2.786-7.802-5.572-11.703-8.358,c4,0.833,8,1.667,12,2.5C565.532,175.575,559.366,169.908,553.199,164.241L553.199,164.241z"/>
		<path fill="#4A5C5E" d="M412.435,31.375c15.332-1.167,22.832,5.333,22.832,5.333C416.935,1.041,313.732-2.778,228.6,22.374,c-88.001,26-141.667,83.667-141.667,83.667s50.137-1.05,69.471-7.05c32.75-50.5,152.264-58.923,202.529-57.617,c21.531,0.56,57.6,5.807,71.225,0.008C423.781,33.78,417.199,32.645,412.435,31.375z"/>
		<linearGradient id="SVGID_2_" gradientUnits="userSpaceOnUse" x1="86.6997" y1="54.6665" x2="435.0327" y2="54.6665">
			<stop offset="4.780000e-04" style="stop-color:#C0EBFC"/>
			<stop offset="1" style="stop-color:#D8E4E8"/>
		</linearGradient>
		<path fill="url(#SVGID_2_)" d="M412.201,29.908c15.332-1.167,22.832,5.333,22.832,5.333,C416.701-0.425,313.498-4.245,228.367,20.908c-88.001,26-141.667,83.667-141.667,83.667s20.999-1.667,40.333-7.667,c92-57.667,181.4-58.306,231.666-57c21.531,0.56,57.6,5.807,71.225,0.008C423.546,32.313,416.964,31.179,412.201,29.908z"/>
		<linearGradient id="SVGID_4_" gradientUnits="userSpaceOnUse" x1="172.416" y1="94.3335" x2="222.6043" y2="5.2418">
			<stop offset="0" style="stop-color:#2A5669"/>
			<stop offset="1" style="stop-color:#91BDCF"/>
		</linearGradient>
		<path fill-opacity="0.4" fill="url(#SVGID_4_)" d="M128.651,95.908c42.859-26.563,85.106-40.817,123.045-48.325,c0.126-0.116,0.247-0.225,0.374-0.342c-96,10.667-133.667,48.667-133.667,48.667H128.651z"/>
		<linearGradient id="SVGID_6_" gradientUnits="userSpaceOnUse" x1="125.6079" y1="85.0557" x2="180.2284" y2="54.4346">
			<stop offset="0" style="stop-color:#082F40"/>
			<stop offset="1" style="stop-color:#215D75;stop-opacity:0"/>
		</linearGradient>
		<path fill-opacity="0.3" fill="url(#SVGID_6_)" d="M187.044,66.521c0,0-48.307,9.72-28.636-15.761,c-33.671,19.147-53.151,36.221-64.011,46.289l11.514,4.896c6.491-1.17,13.921-2.803,21.121-5.038,C147.293,84.208,167.426,74.277,187.044,66.521z"/>
		<linearGradient id="SVGID_8_" gradientUnits="userSpaceOnUse" x1="78.751" y1="75.5161" x2="512.7505" y2="-7.4841">
			<stop offset="0" style="stop-color:#FFF"/>
			<stop offset="1" style="stop-color:#FFF;stop-opacity:0"/>
		</linearGradient>
		<path fill-opacity="0.5" fill="url(#SVGID_8_)" d="M228.367,20.908c-58.87,17.393-102.369,48.955-124.721,67.947l0.424,4.387l9-4,c0,0,59-58.333,148.333-73.667s161.591,5.667,173.629,19.667C416.701-0.425,313.498-4.245,228.367,20.908z"/>
		<linearGradient id="SVGID_10_" gradientUnits="userSpaceOnUse" x1="67.3667" y1="93.9946" x2="130.3687" y2="93.9946">
			<stop offset="4.780000e-04" style="stop-color:#C0EBFC"/>
			<stop offset="1" style="stop-color:#86BCCF"/>
		</linearGradient>
		<path fill="url(#SVGID_10_)" d="M140.117,88.991l-28-4l-7.912,3.391c-4.857,4.108-8.749,7.649-11.617,10.364l-0.971,2.996,c0,0,3.303,0.528,7.955,1.257c7.672-1.166,17.775-3.084,27.461-6.09c4.348-2.725,8.688-5.321,13.02-7.797,C140.09,89.04,140.117,88.991,140.117,88.991z"/>
		<linearGradient id="SVGID_12_" gradientUnits="userSpaceOnUse" x1="108.0327" y1="434.9082" x2="192.7793" y2="434.9082">
			<stop offset="0" style="stop-color:#97C7DB"/>
			<stop offset="1" style="stop-color:#BEC8CC"/>
		</linearGradient>
		<path fill="url(#SVGID_12_)" d="M152.367,401.575c0,0,1.666,13-8.667,17s-34.999,14.666-35.667,35.333c6-1.667,7.334-2,7.334-2,s-5.334,6.999-5.334,16.333c16.334-8,19-9.666,19-9.666v6.666c0,0,31.666-24.333,57.334-27.333,C212.033,434.908,152.367,401.575,152.367,401.575z"/>
		<path fill-opacity="0.3" fill="#FFF" d="M143.7,418.575c-6.775,2.623-19.71,8.111-28.004,17.404l3.042,2.262,c0,0,5.167-7.834,17.667-13.167s18.333-6.166,21.667-11.333c1.382-2.143,0.814-5.66-0.323-9.044,c-3.264-1.939-5.381-3.122-5.381-3.122S154.033,414.575,143.7,418.575z"/>
		<path fill="#4E6E75" fill-opacity="0.1" d="M187.433,425.615c-3.076,0.034-7.317,1.524-13.154,5.376c-24.625,16.25-47.375,18.125-47.375,18.125,l-3.439,12.427c4.557-2.337,5.568-2.968,5.568-2.968v6.666c0,0,31.666-24.333,57.334-27.333,C195.724,436.814,193.734,431.688,187.433,425.615z"/>
		<linearGradient id="SVGID_16_" gradientUnits="userSpaceOnUse" x1="109.8066" y1="441.9814" x2="127.637" y2="457.4792">
			<stop offset="0" style="stop-color:#496570"/>
			<stop offset="0.993" style="stop-color:#062430"/>
		</linearGradient>
		<path fill="url(#SVGID_16_)" d="M108.033,453.908c0,0-1.004-9.042,8.871-19.167c2.375,1.125,4,12.875,4,15.125,S108.033,453.908,108.033,453.908z"/>
		<linearGradient id="SVGID_18_" gradientUnits="userSpaceOnUse" x1="203.0532" y1="461.9707" x2="138.4094" y2="395.2747">
			<stop offset="0" style="stop-color:#60A7C4"/>
			<stop offset="1" style="stop-color:#BEC8CC"/>
		</linearGradient>
		<path fill="url(#SVGID_18_)" fill-opacity="0.5" d="M152.367,401.575c0,0,1.4,10.984-6.404,15.864c2.866,6.183,9.269,17.568,20.496,26.057,c6.615-2.728,13.451-4.833,19.908-5.588C212.033,434.908,152.367,401.575,152.367,401.575z"/>
		<linearGradient id="SVGID_20_" gradientUnits="userSpaceOnUse" x1="203.9233" y1="459.6445" x2="141.8574" y2="395.6082">
			<stop offset="0" style="stop-color:#60A7C4"/>
			<stop offset="1" style="stop-color:#BEC8CC"/>
		</linearGradient>
		<path fill-opacity="0.4" fill="url(#SVGID_20_)" d="M192.044,435.763l-39.594-31.386c-0.022,0.64-0.072,1.357-0.171,2.13v0.609,c0,0,6.75,25.75,24.75,32.5c0.107,0.04,0.205,0.072,0.311,0.111c3.05-0.838,6.079-1.475,9.027-1.819,C189.318,437.563,191.129,436.813,192.044,435.763z"/>
		<linearGradient id="SVGID_22_" gradientUnits="userSpaceOnUse" x1="136.2871" y1="291.3438" x2="91.8497" y2="245.4956">
			<stop offset="0" style="stop-color:#60A7C4"/>
			<stop offset="1" style="stop-color:#D1DCE0"/>
		</linearGradient>
		<path fill="url(#SVGID_22_)" d="M107.867,247.491c-0.75,0.25-20.5,39.75-8.75,48s37-47,37-47l-23.75-9.25L107.867,247.491z"/>
		<path fill-opacity="0.4" fill="#FFF" d="M111.404,246.741l-3.052-0.139l-0.485,0.889c-0.736,0.245-19.769,38.292-9.369,47.505,c1.358-1.045,2.026-3.197-0.094-7.588c-4.667-9.666,13.167-37.333,13.5-37.833L111.404,246.741z"/>
		<path fill="#4E6E75" fill-opacity="0.4" d="M105.904,251.241c0,0,5.167,4,11,6s4.833-8.333,4.833-8.333l-14.167-2.667L105.904,251.241z"/>
		<linearGradient id="SVGID_26_" gradientUnits="userSpaceOnUse" x1="336.2915" y1="397.1357" x2="531.3667" y2="397.1357">
			<stop offset="0" style="stop-color:#97C7DB"/>
			<stop offset="1" style="stop-color:#BEC8CC"/>
		</linearGradient>
		<path fill="url(#SVGID_26_)" d="M364.367,371.241c0,0,0.666,25.001,27.666,14.667s60.668-68.333,118.668-32,c-8.668-0.334-13,0.333-13,0.333s20.334,6.334,31,21.667c-8,3-17,9.666-17,9.666l18-6l-6.334,10.667l8-3.667,c0,0-13.334,68.334-84,60.667c11.334,4,14.334,4.667,14.334,4.667s-48,2.666-70.668-8.334c-22.666-11-53.666,8-53.666,8,S328.033,383.908,364.367,371.241z"/>	
		<radialGradient id="SVGID_28_" cx="452.0708" cy="378.9082" r="80.9142" gradientTransform="matrix(0.9403 -0.3403 0.1524 0.4211 -30.7585 373.2087)" gradientUnits="userSpaceOnUse">
			<stop offset="0" style="stop-color:#FFF"/>
			<stop offset="1" style="stop-color:#BEC8CC"/>
		</radialGradient>
		<path fill="url(#SVGID_28_)" d="M364.367,371.241c0,0,0.666,25.001,27.666,14.667s60.668-68.333,118.668-32,c-8.668-0.334-13,0.333-13,0.333s20.334,6.334,31,21.667c-8,3-17,9.666-17,9.666l18-6l-6.334,10.667l8-3.667,c0,0-13.334,68.334-84,60.667c11.334,4,14.334,4.667,14.334,4.667s-48,2.666-70.668-8.334c-22.666-11-53.666,8-53.666,8,S328.033,383.908,364.367,371.241z"/>
		<linearGradient id="SVGID_30_" gradientUnits="userSpaceOnUse" x1="527.3403" y1="511.5986" x2="348.9908" y2="327.587">
			<stop offset="0" style="stop-color:#60A7C4"/>
			<stop offset="1" style="stop-color:#BEC8CC"/>
		</linearGradient>
		<path fill-opacity="0.5" fill="url(#SVGID_30_)" d="M531.367,386.574c-19.668,28.999-52.666,39.667-52.666,39.667s3,1.334,15.666-0.666,c-40,22.667-119.666,19-120.566-38.432c-9.109-3.966-9.434-15.902-9.434-15.902c-3.375,1.177-6.354,2.829-8.984,4.855,l-11.016,18.145l-2.689,54.981c9.293-4.71,31.814-14.161,49.355-5.648c22.668,11,70.668,8.334,70.668,8.334s-3-0.667-14.334-4.667,C518.033,454.908,531.367,386.574,531.367,386.574z"/>
		<path fill-opacity="0.4" fill="#4E6E75" d="M365.691,377.774l-23.472,71.176c3.996-1.992,10.132-4.697,17.186-6.583,c16.376-10.368,10.666-57.625,10.666-57.625l-0.044-0.079C367.86,382.646,366.515,380.107,365.691,377.774z"/>
		<linearGradient id="SVGID_33_" gradientUnits="userSpaceOnUse" x1="76.6177" y1="142.626" x2="278.1512" y2="363.5129">
			<stop offset="0" style="stop-color:#77AFC7"/>
			<stop offset="1" style="stop-color:#BEC8CC"/>
		</linearGradient>
		<path fill="url(#SVGID_33_)" d="M366.867,377.241c-9-127-123.25-266.25-206.25-279.5s-122.5,41.25-122.5,41.25l0.75,16.625,c0,0-38.834,35.625-32.167,79.292c7.356,11.268,15.907,18.561,24.884,23.016c7.207,3.576,14.689,5.323,22.052,5.828,c-2.595-5.655-2.784-11.043-0.342-12.256c2.556-1.27,7.019,2.512,9.968,8.447c0.619,1.248,1.116,2.488,1.502,3.687,c6.152-0.527,12.062-1.756,17.48-3.308c-0.757-2.365-0.999-5.36-0.543-8.547c0.99-6.921,4.863-12.092,8.651-11.55,c3.788,0.542,6.058,6.591,5.067,13.512c-0.102,0.716-0.242,1.407-0.402,2.081c9.653-4.039,15.85-8.076,15.85-8.076,c23.5,6.5,26.537,23.914,27.5,35c3.098,35.688,4,118.5,25.5,141c30.322,31.733,108,42.5,163,31.5S366.867,377.241,366.867,377.241,z"/>
		<radialGradient id="SVGID_35_" cx="177.4038" cy="376.2412" r="97.8429" gradientTransform="matrix(0.2588 0.9659 -0.5695 0.1526 345.759 147.4618)" gradientUnits="userSpaceOnUse">
			<stop offset="0" style="stop-color:#FFF"/>
			<stop offset="0.3342" style="stop-color:#FCFDFD;stop-opacity:0.6658"/>
			<stop offset="0.5499" style="stop-color:#F4F5F6;stop-opacity:0.4501"/>
			<stop offset="0.7322" style="stop-color:#E5E9EA;stop-opacity:0.2678"/>
			<stop offset="0.8948" style="stop-color:#D0D7DA;stop-opacity:0.1052"/>
			<stop offset="1" style="stop-color:#BEC8CC;stop-opacity:0"/>
		</radialGradient>
		<path fill="url(#SVGID_35_)" d="M366.867,377.241c-9-127-123.25-266.25-206.25-279.5s-122.5,41.25-122.5,41.25l0.75,16.625,c0,0-38.834,35.625-32.167,79.292c7.356,11.268,15.907,18.561,24.884,23.016c7.207,3.576,14.689,5.323,22.052,5.828,c-2.595-5.655-2.784-11.043-0.342-12.256c2.556-1.27,7.019,2.512,9.968,8.447c0.619,1.248,1.116,2.488,1.502,3.687,c6.152-0.527,12.062-1.756,17.48-3.308c-0.757-2.365-0.999-5.36-0.543-8.547c0.99-6.921,4.863-12.092,8.651-11.55,c3.788,0.542,6.058,6.591,5.067,13.512c-0.102,0.716-0.242,1.407-0.402,2.081c9.653-4.039,15.85-8.076,15.85-8.076,c23.5,6.5,26.537,23.914,27.5,35c3.098,35.688,4,118.5,25.5,141c30.322,31.733,108,42.5,163,31.5S366.867,377.241,366.867,377.241,z"/>
		<radialGradient id="SVGID_37_" cx="54.4038" cy="234.2412" r="82.5302" gradientTransform="matrix(0.9685 -0.249 0.1457 0.5667 -32.4197 115.0476)" gradientUnits="userSpaceOnUse">
			<stop offset="0" style="stop-color:#1C78AD"/>
			<stop offset="0.341" style="stop-color:#1E79AD;stop-opacity:0.659"/>
			<stop offset="0.4948" style="stop-color:#257DAF;stop-opacity:0.5052"/>
			<stop offset="0.6109" style="stop-color:#3283B1;stop-opacity:0.3891"/>
			<stop offset="0.7082" style="stop-color:#448CB5;stop-opacity:0.2918"/>
			<stop offset="0.7937" style="stop-color:#5C97B9;stop-opacity:0.2063"/>
			<stop offset="0.8708" style="stop-color:#79A6BF;stop-opacity:0.1292"/>
			<stop offset="0.9402" style="stop-color:#9AB6C5;stop-opacity:0.0598"/>
			<stop offset="1" style="stop-color:#BEC8CC;stop-opacity:0"/>
		</radialGradient>
		<path fill="url(#SVGID_37_)" d="M366.867,377.241c-9-127-123.25-266.25-206.25-279.5s-122.5,41.25-122.5,41.25l0.75,16.625,c0,0-38.834,35.625-32.167,79.292c7.356,11.268,15.907,18.561,24.884,23.016c7.207,3.576,14.689,5.323,22.052,5.828,c-2.595-5.655-2.784-11.043-0.342-12.256c2.556-1.27,7.019,2.512,9.968,8.447c0.619,1.248,1.116,2.488,1.502,3.687,c6.152-0.527,12.062-1.756,17.48-3.308c-0.757-2.365-0.999-5.36-0.543-8.547c0.99-6.921,4.863-12.092,8.651-11.55,c3.788,0.542,6.058,6.591,5.067,13.512c-0.102,0.716-0.242,1.407-0.402,2.081c9.653-4.039,15.85-8.076,15.85-8.076,c23.5,6.5,26.537,23.914,27.5,35c3.098,35.688,4,118.5,25.5,141c30.322,31.733,108,42.5,163,31.5S366.867,377.241,366.867,377.241,z"/>
		<linearGradient id="SVGID_39_" gradientUnits="userSpaceOnUse" x1="188.002" y1="218.6953" x2="147.5424" y2="245.2659">
			<stop offset="0" style="stop-color:#FFF;stop-opacity:0"/>
			<stop offset="1" style="stop-color:#FFF"/>
		</linearGradient>
		<path fill-opacity="0.4" fill="url(#SVGID_39_)" d="M136.404,249.366c0.375-0.125,32.25-12.5,43.75-26.75c0,0-22,24.125-44,29.375,C134.779,250.866,136.404,249.366,136.404,249.366z"/>
		<radialGradient id="SVGID_41_" cx="304.2173" cy="382.6719" r="140.8178" gradientUnits="userSpaceOnUse">
			<stop offset="0.0061" style="stop-color:#97C7DB"/>
			<stop offset="0.3676" style="stop-color:#3E829E"/>
			<stop offset="1" style="stop-color:#1A495C"/>
		</radialGradient>
		<path fill-opacity="0.2" fill="url(#SVGID_41_)" d="M366.867,377.241c-0.72-10.15-2.118-20.379-4.112-30.614,c2.076,15.596,1.796,48.562-44.017,24.614c-34-18.333-41-25.333-41-25.333c-1,0-30.333,21.333-43.333,58.333,s-72,31.999-86.333-21.667c-0.202-0.758-0.397-1.479-0.587-2.172c3.467,18.979,8.561,35.152,16.383,43.339,c30.322,31.733,108,42.5,163,31.5S366.867,377.241,366.867,377.241z"/>
		<linearGradient id="SVGID_43_" gradientUnits="userSpaceOnUse" x1="198.4038" y1="240.7412" x2="204.6963" y2="240.7412">
			<stop offset="0" style="stop-color:#1B6887"/>
			<stop offset="0.993" style="stop-color:#062430"/>
		</linearGradient>
		<path fill="url(#SVGID_43_)" d="M203.279,246.866c0,0,3.5-6.375-0.5-12.25c-0.25,3.5-4.375,8.875-4.375,8.875,S200.154,246.491,203.279,246.866z"/>
		<linearGradient id="SVGID_45_" gradientUnits="userSpaceOnUse" x1="238.7954" y1="228.9399" x2="359.7957" y2="498.94">
			<stop offset="0" style="stop-color:#2A5669"/>
			<stop offset="1" style="stop-color:#91BDCF"/>
		</linearGradient>
		<path fill-opacity="0.2" fill="url(#SVGID_45_)" d="M366.867,377.241c-9-127-123.25-266.25-206.25-279.5,c-20.534-3.278-38.4-2.405-53.67,0.758l3.957,23.742l39.375,2.625c0,0,39.125-21.125,63.625,16.875c4,16-4,54.5-5.5,58,c8.5-9.5,17.5-40,17.5-40s25.5,38,17.5,43s-19,20.5-19,20.5s21.5-18,24.5-17.5s44.5,16,27,81.5c6.5-8,8.5-16.5,8.5-16.5,s12.5,45.5,9,60c8.5,2.5,35.5-1.5,46,34c8.152,27.562-0.271,70.49-4.447,88.312C380.321,437.378,366.867,377.241,366.867,377.241z"/>
		<linearGradient id="SVGID_47_" gradientUnits="userSpaceOnUse" x1="243.8809" y1="324.0889" x2="346.1774" y2="142.4973">
			<stop offset="0" style="stop-color:#2A5669"/>
			<stop offset="1" style="stop-color:#91BDCF"/>
		</linearGradient>
		<path fill-opacity="0.3" fill="url(#SVGID_47_)" d="M193.397,108.574l-5.494-0.333c0,0,37.5,18,49,39c21.5,13.5,87.5,85,108.5,172,c0.5-12-0.5-20.5-0.5-20.5s30.281,109.98,2.891,146.99c-0.382,0.517-0.741,1.017-1.091,1.509,c31.101-21.107,20.163-69.999,20.163-69.999C359.007,266.334,270.882,146.093,193.397,108.574z"/>
		<linearGradient id="SVGID_49_" gradientUnits="userSpaceOnUse" x1="141.1577" y1="286.2979" x2="217.4913" y2="442.6318">
			<stop offset="0" style="stop-color:#FFF"/>
			<stop offset="1" style="stop-color:#BEC8CC"/>
		</linearGradient>
		<path fill-opacity="0.3" fill="url(#SVGID_49_)" d="M208.737,442.575c0,0,1.667-0.667,6.333-2.334c-80.333-4.334-64.333-134-64.333-134,s8.333,25.667,11,36.334c-4.667-44.666-21.333-86-21.333-86l-5.667,3.666l-0.117,6.314c2.551,5.657,3.338,11.488,3.746,16.186,c3.098,35.688,4,118.5,25.5,141c19.877,20.803,60.105,32.594,100.954,35.151c0.769-2.845,1.215-6.713,0.917-11.984,C238.738,452.575,208.737,442.575,208.737,442.575z"/>
		<linearGradient id="SVGID_51_" gradientUnits="userSpaceOnUse" x1="220.6401" y1="241.7344" x2="223.6841" y2="241.7344" gradientTransform="matrix(-0.8426 -2.2743 0.9377 -0.3474 108.5504 884.7536)">
			<stop offset="0" style="stop-color:#97C7DB"/>
			<stop offset="1" style="stop-color:#BEC8CC"/>
		</linearGradient>
		<path fill-opacity="0.2" fill="url(#SVGID_51_)" d="M146.749,292.05c2.759-1.022,5.569-0.301,6.278,1.609,c0.708,1.913-0.954,4.29-3.713,5.314c-2.76,1.021-5.57,0.3-6.278-1.611C142.327,295.45,143.989,293.071,146.749,292.05z"/>
		<linearGradient id="SVGID_53_" gradientUnits="userSpaceOnUse" x1="218.3062" y1="159.0967" x2="177.5561" y2="166.5967">
			<stop offset="0" style="stop-color:#FFF;stop-opacity:0"/>
			<stop offset="1" style="stop-color:#FFF"/>
		</linearGradient>
		<path fill="url(#SVGID_53_)" fill-opacity="0.8" d="M170.237,132.575c0,0,16.167,1.333,22.833,9s5.333,40.333-10.667,59.5,C184.737,185.741,170.237,132.575,170.237,132.575z"/>
		<linearGradient id="SVGID_55_" gradientUnits="userSpaceOnUse" x1="133.4702" y1="214.8184" x2="171.7596" y2="231.5787">
			<stop offset="0" style="stop-color:#2A5669"/>
			<stop offset="1" style="stop-color:#91BDCF"/>
		</linearGradient>
		<path fill-opacity="0.9" fill="url(#SVGID_55_)" d="M130.404,254.241c0.75-0.25,55-17.5,62.75-57c-8,29-20,47.5-59.75,61.25,C130.654,256.991,130.404,254.241,130.404,254.241z"/>
		<linearGradient id="SVGID_59_" gradientUnits="userSpaceOnUse" x1="31.8364" y1="211.0576" x2="66.769" y2="211.0576" gradientTransform="matrix(1.0024 0.0667 -0.0388 1.051 7.8578 -14.1949)">
			<stop offset="0" style="stop-color:#97C7DB"/>
			<stop offset="1" style="stop-color:#BEC8CC"/>
		</linearGradient>
		<path fill="url(#SVGID_59_)" fill-opacity="0.5" d="M51.484,220.912c-9.657,2.312-18.557-0.292-19.879-5.809,c-1.322-5.522,5.436-11.873,15.091-14.182c9.657-2.316,18.556,0.288,19.878,5.811C67.896,212.25,61.14,218.602,51.484,220.912z"/>
		<linearGradient id="SVGID_61_" gradientUnits="userSpaceOnUse" x1="104.1436" y1="158.9937" x2="90.3936" y2="180.4937">
			<stop offset="0" style="stop-color:#97C7DB"/>
			<stop offset="1" style="stop-color:#BEC8CC;stop-opacity:0"/>
		</linearGradient>
		<path fill="url(#SVGID_61_)" fill-opacity="0.6" d="M111.939,169.09c-8.516,10.435-19.613,15.469-24.785,11.251,c-5.174-4.222-2.463-16.105,6.053-26.536c8.512-10.439,19.608-15.472,24.785-11.25,C123.163,146.776,120.456,158.659,111.939,169.09z"/>
		<path fill="#063A3F" fill-opacity="0.2" d="M57.737,135.408c0,0,14.833,5.833,41.333-10.5c-1.333,21-2.167,30-2.167,30,s-18-6.167-32.167,4.667C56.404,146.741,57.737,135.408,57.737,135.408z"/>
		<linearGradient id="SVGID_64_" gradientUnits="userSpaceOnUse" x1="66.5942" y1="117.0005" x2="158.3443" y2="102.7505">
			<stop offset="0" style="stop-color:#FFF"/>
			<stop offset="1" style="stop-color:#215D75"/>
		</linearGradient>
		<path fill-opacity="0.6" fill="url(#SVGID_64_)" d="M156.904,102.991c4.943-1.149,9.018-2.455,11.994-3.532,c-2.79-0.703-5.553-1.282-8.281-1.718C97.964,87.739,60.104,116.337,45.304,130.962c0.058,0.477,0.1,0.779,0.1,0.779l11-0.75,C56.404,130.991,86.904,89.491,156.904,102.991z"/>
		<path fill="#FFF" fill-opacity="0.3" d="M125.225,95.946c-15.667,0.964-29.194,4.394-40.614,8.936c-2.33,3.522-4.24,7.736-5.492,12.792,c2.367-2.241,4.497-5.709,4.394-4.926c-0.103,0.784-2.872,12.78-2.872,12.78l11.339,5.952c0,0,12.054-31.11,37.809-33.553,C128.145,96.991,126.604,96.368,125.225,95.946z"/>
		<path fill-opacity="0.5" fill="#FFF" d="M88.07,109.575c0,0-9.5,9.833-7.833,29.5c1.333-9,4.333-16.833,9.167-21.5,S88.07,109.575,88.07,109.575z"/>
		<path fill="#FFF" fill-opacity="0.2" d="M241.737,218.741c0,0-4.5,0.167-8.167,9.5s-15.667,22.833-15.667,22.833l9.667,7l14-30L241.737,218.741z"/>
		<path fill="#FFF" fill-opacity="0.2" d="M93.529,157.991c0,0,1.375-15,1.25-14.5s-5.25,16.5-5.25,16.5s0.375-13.5,1.25-17,c-1.875,4.875-2.375,15.75-2.375,15.75s-1-12.875-0.5-15.75c-1,9.75-1,11.125-1,11.125s-0.625-12.125,0.625-19.5,c-1.625,4.375-1.625,4.375-1.625,4.375s-2.366-37.53,42.458-34.25c10.25,0.75,21.5,6,27.042,18.125,c-2.625-2.125-7-4.625-6.625-4.625s3.875,6,3.875,6l-3.625-2.5l1.25,3.125l-7,1.625c0,0-17.875,2.75-25.625,10.125,S100.404,146.366,93.529,157.991z"/>
		<path fill="#FFF" fill-opacity="0.3" d="M295.451,335.991c-73.668,2.334-38.001,105.334-38.001,105.334s-17.646,1.607-30.849,12.534,c32.222,6.901,69.145,7.406,99.266,1.382c1.12-0.225,2.201-0.479,3.265-0.749C334.143,438.075,363.32,333.841,295.451,335.991z"/>
		<linearGradient id="SVGID_71_" gradientUnits="userSpaceOnUse" x1="101.6763" y1="198.0869" x2="251.0916" y2="194.8388">
			<stop offset="0" style="stop-color:#60A7C4"/>
			<stop offset="1" style="stop-color:#BEC8CC"/>
		</linearGradient>
		<path fill="url(#SVGID_71_)" fill-opacity="0.9" d="M113.667,248.956l35.737-54.714l4.75-51l-2.5-2.75l-2.75,3.75c0,0-8,75-62.5,70.5,c-2.431,10.02,10.174,39.967,10.174,39.967c8.168-3.637,13.289-6.967,13.289-6.967,C111.201,248.11,112.461,248.519,113.667,248.956z"/>
		<path fill="#FFF" fill-opacity="0.7" d="M108.071,237.908c-6.445,3.997-10.302,7.436-12.56,10.297c0.199,1.708,0.187,3.582-0.092,5.531,c-0.102,0.716-0.242,1.407-0.402,2.081c9.653-4.039,15.85-8.076,15.85-8.076c1.728,0.478,3.331,1.021,4.845,1.61l2.692-1.11,c0,0,27-56.833,27.333-70.833C145.737,177.408,129.571,224.574,108.071,237.908z"/>
		<path fill-opacity="0.5" fill="#4E6E75" d="M151.654,140.491l-6.25,7.25c0,0,1.5,36.25-14.25,67.25,C141.154,199.241,152.654,173.741,151.654,140.491z"/>
		<linearGradient id="SVGID_75_" gradientUnits="userSpaceOnUse" x1="226.5513" y1="246.1533" x2="189.8847" y2="303.4863">
			<stop offset="0" style="stop-color:#2A5669"/>
			<stop offset="1" style="stop-color:#91BDCF"/>
		</linearGradient>
		<path fill="url(#SVGID_75_)" fill-opacity="0.3" d="M255.117,230.241c0,0,5.707,40.535-8,49.75c-29.75,20-75.25-3.5-75.25-3.5l13.5-4l-15.75-5.25,c0,0,9.75-4.25,14.75-4.5s48,5.5,48,5.5L255.117,230.241z"/>
		<linearGradient id="SVGID_77_" gradientUnits="userSpaceOnUse" x1="131.2529" y1="264.5303" x2="160.7157" y2="263.8898">
			<stop offset="0" style="stop-color:#2A5669"/>
			<stop offset="1" style="stop-color:#91BDCF"/>
		</linearGradient>
		<path fill="url(#SVGID_77_)" fill-opacity="0.2" d="M152.538,249.713l-9.83,8.639c0,0,4.674-9.932,6.423-12.969,c-7.675,0.046-13.982,9.083-13.982,9.083l-2.085-12.954c0,0-5.857,5.097-8.497,12.113c11.137,8.166,13.069,20.209,13.8,28.616,c0.14,1.608,0.274,3.315,0.407,5.104C152.784,269.638,152.538,249.713,152.538,249.713z"/>
		<path fill="#4E6E75" d="M146.737,127.491c0,0-3.167,27.417-45.833,26.25C105.737,148.075,127.404,130.824,146.737,127.491z"/>
		<linearGradient id="SVGID_80_" gradientUnits="userSpaceOnUse" x1="121.688" y1="140.5381" x2="129.4878" y2="156.8689">
			<stop offset="0" style="stop-color:#69BADB"/>
			<stop offset="1" style="stop-color:#BEC8CC"/>
		</linearGradient>
		<path fill="url(#SVGID_80_)" d="M145.737,127.241c0,0-5,28.667-47.667,27.5C102.904,149.075,126.404,130.574,145.737,127.241z"/>
		<path fill="#4E6E75" d="M98.07,154.741c2.397,0.065,4.658,0.024,6.823-0.088c-0.054-0.026-0.098-0.05-0.156-0.078,c-5.083-2.417,19.667-18.75,19.667-18.75l-5.731,2.899C108.756,144.865,100.684,151.678,98.07,154.741z"/>
		<linearGradient id="SVGID_84_" gradientUnits="userSpaceOnUse" x1="124.9668" y1="115.8682" x2="136.0422" y2="142.449">
			<stop offset="0" style="stop-color:#082F40"/>
			<stop offset="1" style="stop-color:#215D75"/>
		</linearGradient>
		<path fill="url(#SVGID_84_)" fill-opacity="0.4" d="M146.279,127.116c0,0,2,17-23.25,24c5.375-2.125,17.792-6.125,17.542-22.458,c2.25-1.25,5.167-1.417,5.167-1.417"/>
		<linearGradient id="SVGID_86_" gradientUnits="userSpaceOnUse" x1="40.6724" y1="201.3027" x2="7.923" y2="192.8029">
			<stop offset="0" style="stop-color:#FFF;stop-opacity:0"/>
			<stop offset="1" style="stop-color:#FFF"/>
		</linearGradient>
		<path fill="url(#SVGID_86_)" fill-opacity="0.6" d="M68.904,158.241c-3.873-18.458-22.041-8.225-30.039-2.67l0.002,0.045,c0,0-38.834,35.625-32.167,79.292c6.869,10.521,14.779,17.574,23.105,22.09c7.549-14.293-6.708-9.891-4.234-18.59,C17.737,180.741,71.842,172.248,68.904,158.241z"/>
		<linearGradient id="SVGID_88_" gradientUnits="userSpaceOnUse" x1="66.7002" y1="204.8633" x2="29.2342" y2="184.7926">
			<stop offset="0" style="stop-color:#FFF;stop-opacity:0"/>
			<stop offset="1" style="stop-color:#FFF"/>
		</linearGradient>
		<path fill="url(#SVGID_88_)" d="M21.071,233.575c0,0-2.833-31.667,19.667-47.833s28.833-23.667,26.833-31.5,s5.166,7.333,0.333,12.667s-40.5,33.167-28.833,55C35.404,230.241,21.071,233.575,21.071,233.575z"/>
		<linearGradient id="SVGID_90_" gradientUnits="userSpaceOnUse" x1="50.3647" y1="162.2339" x2="47.2395" y2="153.2331">
			<stop offset="0" style="stop-color:#42839E"/>
			<stop offset="1" style="stop-color:#8AC8CC"/>
		</linearGradient>
		<path fill="url(#SVGID_90_)" d="M34.821,159.575c0,0-1.167,2.833,3.083,3.833s19.667-7.583,26.75-3.833,C59.321,156.491,46.821,151.241,34.821,159.575z"/>
		<linearGradient id="SVGID_92_" gradientUnits="userSpaceOnUse" x1="35.9131" y1="152.2832" x2="49.9656" y2="164.0811">
			<stop offset="0" style="stop-color:#082F40"/>
			<stop offset="1" style="stop-color:#215D75"/>
		</linearGradient>
		<path fill-opacity="0.4" fill="url(#SVGID_92_)" d="M52.32,156.241c0,0-9.166,1.25-16.833,5.5c-0.667-1.833-0.833-3.583-0.833-3.583,L52.32,156.241z"/>
		<path fill="#FFF" fill-opacity="0.2" d="M57.117,210.967c-24.98,3.122-45,16.55-42.625,32.501c0.25,1.681,0.802,3.291,1.621,4.817,c4.604,4.26,9.471,7.489,14.471,9.87c5.308,2.527,10.764,4.096,16.212,4.944c-2.359-5.23-2.465-10.105-0.103-11.231,c1.195-0.57,2.81-0.069,4.49,1.199c0.276-0.487,0.645-0.856,1.11-1.079c2.556-1.219,7.019,2.41,9.968,8.104,c0.619,1.197,1.116,2.388,1.502,3.537c0.769-0.063,1.534-0.137,2.294-0.22c3.46-0.506,6.796-1.208,9.958-2.103,c-1.044-2.387-1.44-5.658-0.916-9.172c0.989-6.64,4.863-11.602,8.651-11.082c0.822,0.113,1.567,0.487,2.228,1.051,c1.078-0.738,2.229-1.088,3.373-0.931c3.51,0.481,5.711,5.503,5.228,11.52c8.062-5.777,12.593-13.086,11.595-20.444,C104.245,218.032,82.097,207.845,57.117,210.967z"/>
		<path fill="#4E6E75" d="M64.654,159.241c0,0-1.25-7.125-1-6.75s3.25,6.75,3.25,6.75l-0.875-5.5l2.75,3.125c0,0-4.5-21.625-7-25,s-24.625,1.125-24.625,1.125l0.375,24.875C37.529,157.866,58.404,150.491,64.654,159.241z"/>
		<path fill="#4E6E75" d="M59.071,143.908c0,0,4.333,2.5,7,0.5s2.333-15.334,5.833-21.167c-3.667,5.167-4,8.667-5.333,11.167,s-6,0-6,0S56.904,140.908,59.071,143.908z"/>
		<path fill="#2D4144" d="M95.404,157.491c0,0,1.375-15,1.25-14.5s-5.25,16.5-5.25,16.5s0.375-13.5,1.25-17,c-1.875,4.875-2.375,15.75-2.375,15.75s-1-12.875-0.5-15.75c-1,9.75-1,11.125-1,11.125s-0.625-12.125,0.625-19.5,c-1.625,4.375-1.625,4.375-1.625,4.375s-2.366-37.53,42.458-34.25c10.25,0.75,21.5,6,27.042,18.125,c-2.625-2.125-7-4.625-6.625-4.625s3.875,6,3.875,6l-3.625-2.5l1.25,3.125l-7,1.625c0,0-17.875,2.75-25.625,10.125,S102.279,145.866,95.404,157.491z"/>
		<linearGradient id="SVGID_98_" gradientUnits="userSpaceOnUse" x1="84.3242" y1="170.3779" x2="34.9501" y2="146.417">
			<stop offset="0" style="stop-color:#031A24"/>
			<stop offset="1" style="stop-color:#085370"/>
		</linearGradient>
		<path fill="url(#SVGID_98_)" d="M33.2,160.491c0,0,20.583-8.833,31.792-0.75c-0.75-4.625-9.051-30.125-28.463-18.125,C26.968,147.526,33.2,160.491,33.2,160.491z"/>
		<linearGradient id="SVGID_100_" gradientUnits="userSpaceOnUse" x1="98.748" y1="145.0449" x2="129.5815" y2="124.0449">
			<stop offset="0" style="stop-color:#031A24"/>
			<stop offset="1" style="stop-color:#053345"/>
		</linearGradient>
		<path fill="url(#SVGID_100_)" d="M94.867,158.908c0,0-2.167-56.5,44.5-47.042c-5.875-0.5-9.125,0.5-9.125,0.5s7.25-1,13.5,5.25,c-1.125,0.75-1.75,1-1.75,1l3.375,5.625l10.833,2C156.2,126.241,116.7,131.741,94.867,158.908z"/>
		<linearGradient id="SVGID_102_" gradientUnits="userSpaceOnUse" x1="133.3667" y1="190.4121" x2="213.9707" y2="190.4121">
			<stop offset="0" style="stop-color:#082F40"/>
			<stop offset="1" style="stop-color:#215D75"/>
		</linearGradient>
		<path fill-opacity="0.5" fill="url(#SVGID_102_)" d="M109.867,247.741c0,0,46.5-57.167,38.333-107.667c0,0,7-19.167,36.667,0.667,c3.833,8.833,27.166,74-61.5,108.333L109.867,247.741z"/>
		<linearGradient id="SVGID_104_" gradientUnits="userSpaceOnUse" x1="286.7993" y1="438.376" x2="349.0604" y2="327.8532">
			<stop offset="0" style="stop-color:#2A5669"/>
			<stop offset="1" style="stop-color:#91BDCF"/>
		</linearGradient>
		<path fill="url(#SVGID_104_)" fill-opacity="0.3" d="M301.154,342.689c-73.287,7.83-39.75,111.552-39.75,111.552s-4.021,0.268-10.691,3.506,c25.621,2.871,52.338,2.058,75.154-2.506c9.102-1.82,16.275-5.181,21.928-9.51C352.929,412.715,358.697,336.541,301.154,342.689z"/>
		<linearGradient id="SVGID_106_" gradientUnits="userSpaceOnUse" x1="76.3989" y1="247.2627" x2="128.3385" y2="293.8058">
			<stop offset="0" style="stop-color:#2A5669"/>
			<stop offset="1" style="stop-color:#91BDCF;stop-opacity:0"/>
		</linearGradient>
		<path fill="url(#SVGID_106_)" d="M65.949,213.625c-24.98,3.343-43.666,18.394-41.736,33.618c0.451,3.549,1.986,6.793,4.388,9.64,c0.659,0.361,1.319,0.712,1.983,1.041c7.207,3.576,14.689,5.323,22.052,5.828c-2.595-5.655-2.784-11.043-0.342-12.256,c2.556-1.27,7.019,2.512,9.968,8.447c0.068,0.139,0.121,0.276,0.187,0.415c0.72,0.949,1.414,2.021,2.057,3.197,c5.885-0.56,11.539-1.744,16.739-3.233c-0.757-2.365-0.999-5.36-0.543-8.547c0.99-6.921,4.863-12.092,8.651-11.55,c2.054,0.293,3.653,2.212,4.538,5.003c2.105,1.41,3.473,4.844,3.638,9.056c7.618-3.467,12.339-6.542,12.339-6.542,c0.521,0.145,1.021,0.3,1.523,0.455c2.623-4.144,3.852-8.591,3.285-13.058C112.745,219.915,90.929,210.283,65.949,213.625z"/>
		<radialGradient id="SVGID_108_" cx="70.0708" cy="251.1455" r="22.8364" gradientUnits="userSpaceOnUse">
			<stop offset="0.0244" style="stop-color:#8A1323"/>
			<stop offset="1" style="stop-color:#2B0712"/>
		</radialGradient>
		<path fill="url(#SVGID_108_)" d="M41.071,258.074c0,0,19.75-40.333,58-9.583c-32.583,30.25-58,10.583-58,10.583V258.074z"/>
		<path fill="#0F1C1E" d="M40.071,255.074c0,0,19.75-40.333,58-9.583c-32.583,30.25-58,10.583-58,10.583V255.074z"/>
		<radialGradient id="SVGID_111_" cx="45.5288" cy="253.4912" r="11.4079" gradientUnits="userSpaceOnUse">
			<stop offset="0.0244" style="stop-color:#8A1323"/>
			<stop offset="1" style="stop-color:#2B0712"/>
		</radialGradient>
		<path fill="url(#SVGID_111_)" d="M65.639,262.104c-1.081-0.396-3.27-0.885-7.11-1.488c-17.5-2.75-7.25-8.5-7.25-8.5l-4.586-0.745,l-2.914,5.245l0.845,2.092C49.007,260.774,56.336,263.14,65.639,262.104z"/>
		<radialGradient id="SVGID_113_" cx="87.7788" cy="245.1162" r="12.3908" gradientUnits="userSpaceOnUse">
			<stop offset="0.0244" style="stop-color:#8A1323"/>
			<stop offset="1" style="stop-color:#2B0712"/>
		</radialGradient>
		<path fill="url(#SVGID_113_)" d="M93.713,242.244c-1.288-0.889-2.553-1.698-3.794-2.429l-4.765-0.074l-4,3.75,c0,0,7.75-1,5.25,5.625s-9.875,9-9.875,9l0.169,1.267c5.717-2.179,11.9-5.737,18.4-11.252L93.713,242.244z"/>
		<radialGradient id="SVGID_115_" cx="156.7373" cy="200.4077" r="57.2642" gradientUnits="userSpaceOnUse">
			<stop offset="0" style="stop-color:#FFF"/>
			<stop offset="0.2223" style="stop-color:#FAFEFF"/>
			<stop offset="0.5006" style="stop-color:#EAFBFF"/>
			<stop offset="0.8075" style="stop-color:#D1F7FF"/>
			<stop offset="1" style="stop-color:#BDF3FF"/>
		</radialGradient>
		<path fill="url(#SVGID_115_)" d="M109.867,247.741c0,0,49.5-59.5,43.25-108.25c14.5-10.75,28.75,3.5,28.75,3.5,s31.5,71-62.25,108.25C112.867,252.241,109.867,247.741,109.867,247.741z"/>
		<radialGradient id="SVGID_117_" cx="163.5474" cy="164.8872" r="12.3488" gradientUnits="userSpaceOnUse">
			<stop offset="0.0061" style="stop-color:#97C7DB"/>
			<stop offset="0.3676" style="stop-color:#3E829E"/>
			<stop offset="1" style="stop-color:#1A495C"/>
		</radialGradient>
		<path fill-opacity="0.4" fill="url(#SVGID_117_)" d="M152.154,164.075c0,0,10.667,1.167,13.333,7.667,c0.167-1.083,0.167-1.667,0.167-1.667l1.917,2.25l0.667-3.667l-6.167-4l-9.75-3.333L152.154,164.075z"/>
		<linearGradient id="SVGID_119_" gradientUnits="userSpaceOnUse" x1="158.3931" y1="203.1953" x2="175.6538" y2="203.1953">
			<stop offset="0" style="stop-color:#97C7DB"/>
			<stop offset="1" style="stop-color:#BEC8CC"/>
		</linearGradient>
		<path fill="url(#SVGID_119_)" d="M158.654,195.491c0,0,15.875,5,12,17.5c3.875-3.125,5-9.625,5-9.625l-2.5-3.375,c0,0-11.667-6.417-13.583-6.583S158.654,195.491,158.654,195.491z"/>
		<path fill-opacity="0.5" fill="#4E6E75" d="M161.57,193.241c0,0,11.5-11,10.5-24.333s-2.833,0.333-2.833,0.333,s-5.5,18.167-9.167,21.833S161.57,193.241,161.57,193.241z"/>
		<path fill="#FFF" d="M172.029,162.991c0,0,12,5.75,13.375-0.375c0,3.125,0.375,5.375-2,6.25s-12.75-1.625-12.75-1.625,L172.029,162.991z"/>
		<path fill-opacity="0.5" fill="#4E6E75" d="M174.654,146.741c0,0,3.917,8.167,3.083,10.167s-1.773,8.465-6.47,9.899,c-0.53-2.066-0.03-3.399-0.03-3.399S174.737,149.574,174.654,146.741z"/>
		<path fill="#FFF" d="M152.779,156.741c0,0,12.5,7.375,18.5,6.125c-0.625,2.875-2.375,3.875-2.375,3.875l-15.375-5.75,L152.779,156.741z"/>
		<path fill-opacity="0.5" fill="#4E6E75" d="M145.154,215.741c0,0,15.875-10.75,15.875-21.375c-3-0.75-3.75,0-3.75,0,s-7.5,17.125-12.75,19.5C143.404,214.991,145.154,215.741,145.154,215.741z"/>
		<linearGradient id="SVGID_126_" gradientUnits="userSpaceOnUse" x1="174.0288" y1="154.334" x2="186.1289" y2="154.334">
			<stop offset="0" style="stop-color:#97C7DB"/>
			<stop offset="1" style="stop-color:#BEC8CC"/>
		</linearGradient>
		<path fill="url(#SVGID_126_)" fill-opacity="0.4" d="M174.279,151.991c0,0,12.25,4.625,11.625,11.25s1.5-13-1.125-16.375s-9.25-2.75-9.25-2.75,s-1.5,1.875-1.5,2.375S174.279,151.991,174.279,151.991z"/>
		<ellipse transform="matrix(-0.4091 0.9125 -0.9125 -0.4091 388.898 110.0613)" fill="#FFF" cx="158.813" cy="180.948" rx="2.385" ry="6.211"/>
		<linearGradient id="SVGID_129_" gradientUnits="userSpaceOnUse" x1="173.6309" y1="176.7725" x2="185.8789" y2="176.7725">
			<stop offset="0" style="stop-color:#97C7DB"/>
			<stop offset="1" style="stop-color:#BEC8CC"/>
		</linearGradient>
		<path fill="url(#SVGID_129_)" fill-opacity="0.4" d="M185.654,174.116c0,0-11.375-5.625-12-3.25s11.75,8.375,11.75,11.75,S186.279,175.116,185.654,174.116z"/>
		<linearGradient id="SVGID_131_" gradientUnits="userSpaceOnUse" x1="151.9102" y1="184.5508" x2="163.9043" y2="184.5508">
			<stop offset="0" style="stop-color:#97C7DB"/>
			<stop offset="1" style="stop-color:#BEC8CC"/>
		</linearGradient>
		<path fill="url(#SVGID_131_)" fill-opacity="0.4" d="M163.904,184.241c0.098-0.405-10.917-6.75-11.917-3.417s8.083,8.417,8.083,8.417,S163.237,186.991,163.904,184.241z"/>
		<linearGradient id="SVGID_133_" gradientUnits="userSpaceOnUse" x1="152.8208" y1="152.2832" x2="173.7373" y2="152.2832">
			<stop offset="0" style="stop-color:#97C7DB"/>
			<stop offset="1" style="stop-color:#BEC8CC"/>
		</linearGradient>
		<path fill="url(#SVGID_133_)" fill-opacity="0.4" d="M152.821,140.991c0,0,13.333,1.667,17.167,6.417c-4.917-2-7.417-2.583-7.417-2.583,s12.75,12.833,1,19.667c2.583,1.917,5.75,2.583,5.75,2.583l2-4.417l1.917-5.667l0.5-8.75l-1.417-6.583l-14.917-4.167,L152.821,140.991z"/>
		<linearGradient id="SVGID_135_" gradientUnits="userSpaceOnUse" x1="122.9658" y1="190.957" x2="232.5626" y2="188.5745">
			<stop offset="0" style="stop-color:#347691"/>
			<stop offset="1" style="stop-color:#BEC8CC"/>
		</linearGradient>
		<path fill="url(#SVGID_135_)" d="M153.185,140.106c4.969,41.952-30.859,91.609-40.802,104.466l0,0l18.256-15.017,c0,0-0.734-1.064-2.484-2.064c-0.75-3.75,5-11.75,9.25-14.5c-0.75-5.75,5.5-16.5,12.5-22.75c-2.75-5,2-20,7.75-27.5,c-7.5-9.25,3.5-26,3.5-26L153.185,140.106z"/>
		<linearGradient id="SVGID_137_" gradientUnits="userSpaceOnUse" x1="143.1685" y1="218.96" x2="135.4258" y2="236.8076">
			<stop offset="0" style="stop-color:#1C373D"/>
			<stop offset="1" style="stop-color:#215D75"/>
		</linearGradient>
		<path fill-opacity="0.2" fill="url(#SVGID_137_)" d="M160.409,227.205c-4.898-0.83-15.197-9.656-17.671-12.13,c-5.166-1.5-8.108-4.627-8.108-4.627c-11.815,21.728-24.762,37.294-24.762,37.294s3,4.5,9.75,3.5,C137.339,244.2,150.579,235.951,160.409,227.205z"/>
		<path fill-opacity="0.5" fill="#4E6E75" d="M132.404,228.991c0,0,9.75-3.75,11.375-11.875c-1.625-1.25-2.125-0.75-2.125-0.75,s-6.75,10.125-9.625,11S132.404,228.991,132.404,228.991z"/>
		<path fill="#FFF" d="M114.737,242.575c0,0,4,5.5,10.833,6.5c-4.5,3.667-11.907,3.167-15.704-1.333,C112.237,244.075,114.737,242.575,114.737,242.575z"/>
		<ellipse transform="matrix(-0.2917 0.9565 -0.9565 -0.2917 386.4781 209.9704)" fill-opacity="0.4" fill="#FFF" cx="115.5" cy="248.074" rx="2.141" ry="5.231"/>
		<linearGradient id="SVGID_142_" gradientUnits="userSpaceOnUse" x1="130.8926" y1="230.0537" x2="158.7788" y2="230.0537">
			<stop offset="0" style="stop-color:#97C7DB"/>
			<stop offset="1" style="stop-color:#BEC8CC"/>
		</linearGradient>
		<path fill="url(#SVGID_142_)" fill-opacity="0.6" d="M134.654,225.241c0,0,7.5,13.25,13.75,10.5s-3.375-11.125-3.375-11.125s4.625,0.5,6.75,4,c-3.375-5.625-1.125-4-5.75-9.75c7.5,5.25,12.75,7.875,12.75,7.875l-6.75,7.125l-5.625,3.875l-6.25,3.5l-3.375-2.125,c0,0-5.625-9.375-5.875-10.75S134.654,225.241,134.654,225.241z"/>
		<radialGradient id="SVGID_144_" cx="118.4873" cy="133.3467" r="31.4197" gradientUnits="userSpaceOnUse">
			<stop offset="0" style="stop-color:#FFF"/>
			<stop offset="1" style="stop-color:#75FFFF"/>
		</radialGradient>
		<path fill="url(#SVGID_144_)" d="M98.533,152.408c0,0,16.5-22.167,44-26.167c0,0-5.166-20.833-26.666-7.5,C100.619,128.197,98.533,152.408,98.533,152.408z"/>
		<path fill="#F5C6B3" d="M105.517,129.988c-5.942,10.408-6.984,22.42-6.984,22.42s1.827-2.447,5.26-5.855,C99.137,144.281,103.578,133.973,105.517,129.988z"/>
		<path fill="#91BCC1" d="M115.867,118.741c-15.248,9.456-17.334,33.667-17.334,33.667c7.371-8.25,8.766-8.524,11.455-11.417,c-4.5-3.5-4.026-17.698,11.333-23.667c14.583-5.667,18.102,7.392,18.583,9.417c0.518-0.089,2.104-0.424,2.629-0.5,C142.533,126.241,137.367,105.408,115.867,118.741z"/>
		<radialGradient id="SVGID_148_" cx="44.2788" cy="146.3662" r="20.5961" gradientUnits="userSpaceOnUse">
			<stop offset="0" style="stop-color:#FFF"/>
			<stop offset="1" style="stop-color:#75FFFF"/>
		</radialGradient>
		<path fill="url(#SVGID_148_)" d="M63.533,158.241c0,0-3-17-18.166-15.833c-15.167,1.167-7.834,13.333-7.834,13.333,S52.201,151.574,63.533,158.241z"/>
		<linearGradient id="SVGID_150_" gradientUnits="userSpaceOnUse" x1="74.7969" y1="160.1597" x2="50.2136" y2="148.2296">
			<stop offset="0" style="stop-color:#031A24"/>
			<stop offset="1" style="stop-color:#085370"/>
		</linearGradient>
		<path fill-opacity="0.2" fill="url(#SVGID_150_)" d="M51.399,142.998c0.924,1.507,5.338,9.287-0.541,11.561,c4.099,0.293,8.602,1.286,12.675,3.683C63.533,158.241,61.36,145.967,51.399,142.998z"/>
		<linearGradient id="SVGID_152_" gradientUnits="userSpaceOnUse" x1="144.6572" y1="135.0972" x2="574.0698" y2="135.0972">
			<stop offset="0" style="stop-color:#97C7DB"/>
			<stop offset="1" style="stop-color:#BEC8CC"/>
		</linearGradient>
		<path fill="url(#SVGID_152_)" d="M559.699,178.741l12,2.5l-18.5-17l20.871,8.167C443.478,23.348,187.357,91.745,174.367,97.241,c-13,5.5-27.213,4.25-27.213,4.25c-15.625,9.75,46.75,22.5,58.213,21.75c148-78.5,259.5,57,342,69.5,c12.762,1.934,20.209-0.895,24.035-5.642L559.699,178.741z"/>
		<linearGradient id="SVGID_154_" gradientUnits="userSpaceOnUse" x1="141.6772" y1="115.561" x2="202.1743" y2="115.561" gradientTransform="matrix(0.8359 0.202 -0.1809 0.7485 52.5479 -9.0487)">
			<stop offset="0" style="stop-color:#97C7DB"/>
			<stop offset="1" style="stop-color:#BEC8CC"/>
		</linearGradient>
		<path fill="url(#SVGID_154_)" d="M200.641,118.29c-0.85,3.513-12.858,3.626-26.823,0.251s-24.597-8.96-23.747-12.474,c0.849-3.514,12.858-3.626,26.822-0.25C190.858,109.191,201.491,114.776,200.641,118.29z"/>
		<linearGradient id="SVGID_156_" gradientUnits="userSpaceOnUse" x1="454.4702" y1="118.2241" x2="353.4696" y2="94.5576">
			<stop offset="0" style="stop-color:#FFF;stop-opacity:0"/>
			<stop offset="1" style="stop-color:#FFF"/>
		</linearGradient>
		<path fill="url(#SVGID_156_)" d="M324.071,81.575c0,0,58.333,9.333,98,38.333s64.666,18,60.333,4S394.071,74.242,324.071,81.575z"/>
		<linearGradient id="SVGID_158_" gradientUnits="userSpaceOnUse" x1="333.8599" y1="36.0664" x2="227.5849" y2="11.1639" gradientTransform="matrix(0.8999 -0.4362 0.4362 0.8999 13.3195 132.0651)">
			<stop offset="0" style="stop-color:#FFF;stop-opacity:0"/>
			<stop offset="1" style="stop-color:#FFF"/>
		</linearGradient>
		<path fill="url(#SVGID_158_)" d="M188.904,42.741c0,0,40.5-18.5,113.904-7.498c48.594,7.283,66.041-12.009,56.035-22.717,S258.904,4.241,188.904,42.741z"/>
		<linearGradient id="SVGID_160_" gradientUnits="userSpaceOnUse" x1="134.4399" y1="97.6875" x2="75.4398" y2="111.5211">
			<stop offset="0" style="stop-color:#03131A"/>
			<stop offset="1" style="stop-color:#215D75"/>
		</linearGradient>
		<path fill="url(#SVGID_160_)" d="M96.479,125.979c0,0,12.054-31.11,37.809-33.553c-6.01-3.419-10.721-2.761-10.721-2.761,l8.004-2.06c0,0-8.314-3.482-17.348-1.478c7.917-3.826,13.412-4.381,13.412-4.381s-35.875-2.472-44.017,30.427,c2.367-2.241,4.497-5.709,4.394-4.926c-0.103,0.784-2.872,12.78-2.872,12.78L96.479,125.979z"/>
		<linearGradient id="SVGID_162_" gradientUnits="userSpaceOnUse" x1="71.8652" y1="144.1768" x2="36.8452" y2="134.6567">
			<stop offset="0" style="stop-color:#082F40"/>
			<stop offset="1" style="stop-color:#215D75"/>
		</linearGradient>
		<path fill="url(#SVGID_162_)" d="M61.867,145.241c0,0-26.25-12.75-39.75-1.5c2.75-4.5,7.25-8.333,7.25-8.333l-7.25,3.583,c0,0,8.5-14,14-16s25.75,6.75,25.75,6.75V145.241z"/>
		<radialGradient id="SVGID_164_" cx="251.2373" cy="229.4082" r="66.3033" gradientUnits="userSpaceOnUse">
			<stop offset="0.0061" style="stop-color:#97C7DB"/>
			<stop offset="0.3676" style="stop-color:#3E829E"/>
			<stop offset="1" style="stop-color:#1A495C"/>
		</radialGradient>
		<path fill="url(#SVGID_164_)" d="M236.867,226.741c0,0-8,23.5-14.25,26c-1.5-2.5-3.5-3-3.5-3l-2.5,2l-3.25-2.25l-3,0.5,c0,0-7.834-3.917-14.167-9.25s-15.5-6.333-15.5-6.333l5.667,11.833c0,0-10.334-3.833-16.667,0.5c3.167,1.5,12.667,7,12.667,7,l-13-1.5c0,0,8.166,23.5,47.666,25c11.67,0.443,25.564,1.363,31.834-12C270.367,219.408,240.7,206.741,236.867,226.741z"/>
		<radialGradient id="SVGID_166_" cx="309.9038" cy="389.7412" r="157.0131" gradientUnits="userSpaceOnUse">
			<stop offset="0.0061" style="stop-color:#97C7DB"/>
			<stop offset="0.3676" style="stop-color:#3E829E"/>
			<stop offset="1" style="stop-color:#1A495C"/>
		</radialGradient>
		<path fill="url(#SVGID_166_)" d="M335.701,459.908c0,0,40.666-123.001-33-120.667c-73.668,2.334-38.001,105.334-38.001,105.334,s-40.333,3.666-44.667,37.666c5.334-0.333,5.334-0.333,5.334-0.333l-1.667,13.333l14.667-5.333v4.667c0,0,23-6.334,35-12.667,S308.367,463.575,335.701,459.908z"/>
		<path fill-opacity="0.2" fill="#FFF" d="M264.571,407.742c0,0,2,1.666,6,3.666c-14.872-15.647-4.546-51.879-2.883-57.312,c-24.249,29.052-2.988,90.479-2.988,90.479s-32.195,2.93-42.146,27.804c1.742,5.026,4.634,8.773,9.017,1.529,c8.167-13.5,36.167-20.166,50.167-22.5C262.737,442.574,264.571,407.742,264.571,407.742z"/>
		<linearGradient id="SVGID_169_" gradientUnits="userSpaceOnUse" x1="216.8716" y1="464.8145" x2="243.3716" y2="481.6485">
			<stop offset="0" style="stop-color:#496570"/>
			<stop offset="0.993" style="stop-color:#062430"/>
		</linearGradient>
		<path fill="url(#SVGID_169_)" d="M220.033,482.241c0,0,0.371-12.375,11.746-23.375c1.75,3.75,3.875,16.375,3.625,21.375,C232.654,481.241,223.037,482.741,220.033,482.241z"/>
		<linearGradient id="SVGID_171_" gradientUnits="userSpaceOnUse" x1="127.8042" y1="132.0288" x2="123.9296" y2="124.4047">
			<stop offset="0" style="stop-color:#F29545"/>
			<stop offset="1" style="stop-color:#D51323"/>
		</linearGradient>
		<path fill="url(#SVGID_171_)" d="M126.316,122.996c-3.371,0-6.104,2.733-6.104,6.104c0,1.571,0.599,3,1.574,4.082,c3.238-1.729,6.782-3.295,10.611-4.548C132.158,125.481,129.53,122.996,126.316,122.996z"/>
		<linearGradient id="SVGID_173_" gradientUnits="userSpaceOnUse" x1="127.8042" y1="132.0288" x2="123.9296" y2="124.4047">
			<stop offset="0" style="stop-color:#F29545"/>
			<stop offset="1" style="stop-color:#D51323"/>
		</linearGradient>
		<path fill="url(#SVGID_173_)" d="M126.316,122.996c-3.371,0-6.104,2.733-6.104,6.104c0,1.571,0.599,3,1.574,4.082,c3.238-1.729,6.782-3.295,10.611-4.548C132.158,125.481,129.53,122.996,126.316,122.996z"/>
		<ellipse transform="matrix(0.924 -0.3824 0.3824 0.924 -39.5915 57.9572)" fill="#F29545" cx="126.023" cy="128.59" rx="5.395" ry="2.195"/>
		<path fill="#F29545" d="M130.25,128.808c0-1.817-1.475-3.292-3.292-3.292s-3.292,1.474-3.292,3.292,c0,1.133,0.574,2.133,1.447,2.725c1.627-0.759,3.316-1.47,5.075-2.118C130.224,129.218,130.25,129.016,130.25,128.808z"/>
		<linearGradient id="SVGID_177_" gradientUnits="userSpaceOnUse" x1="59.5845" y1="155.5439" x2="54.5845" y2="147.669">
			<stop offset="0" style="stop-color:#F29545"/>
			<stop offset="1" style="stop-color:#D51323"/>
		</linearGradient>
		<path fill="url(#SVGID_177_)" d="M62.167,153.818c-0.543-1.328-1.281-2.816-2.262-4.273c-0.461-0.195-0.966-0.304-1.497-0.304,c-2.117,0-3.833,1.716-3.833,3.833c0,0.762,0.229,1.468,0.611,2.064c1.609,0.323,3.232,0.778,4.83,1.404,C61.111,156.034,61.927,155.033,62.167,153.818z"/>
		<circle cx="59.301" cy="152.991" r="1.667"/>
		<path d="M129.716,128.976c0-1.427-1.156-2.583-2.584-2.583c-1.426,0-2.582,1.156-2.582,2.583c0,0.947,0.515,1.766,1.274,2.216,c1.229-0.557,2.499-1.081,3.802-1.574C129.679,129.411,129.716,129.198,129.716,128.976z"/>
		<radialGradient id="SVGID_181_" cx="47.1157" cy="227.3032" r="73.6778" gradientTransform="matrix(0.9958 -0.0921 0.0491 0.5313 -10.9677 110.8705)" gradientUnits="userSpaceOnUse">
			<stop offset="0" style="stop-color:#F29545"/>
			<stop offset="0.4634" style="stop-color:#F74711"/>
			<stop offset="0.7134" style="stop-color:#8A1323"/>
			<stop offset="1" style="stop-color:#7D2F47"/>
		</radialGradient>
		<path fill="url(#SVGID_181_)" d="M108.175,233.548c-1.931-14.818-23.746-24.194-48.727-20.94s-43.666,17.904-41.736,32.723,c1.465,11.244,14.385,19.347,31.445,21.183c-2.71-5.75-2.944-11.286-0.465-12.518c2.555-1.27,7.018,2.512,9.967,8.447,c0.738,1.484,1.312,2.964,1.717,4.366c1.994-0.101,4.016-0.274,6.062-0.541c4.046-0.527,7.923-1.356,11.578-2.434,c-1.044-2.488-1.44-5.897-0.916-9.561c0.989-6.92,4.863-12.092,8.651-11.55c3.789,0.542,6.059,6.591,5.067,13.512,c-0.129,0.903-0.31,1.774-0.53,2.609C102.191,252.443,109.41,243.033,108.175,233.548z"/>
		<path fill="#FFFF00" fill-opacity="0.6" d="M69.828,265.156c1.328-0.25,2.642-0.523,3.925-0.836c-1.65-1.402-17.696-15.697-18.365-41.3,C54.22,238.356,57.754,255.363,69.828,265.156z"/>
		<path fill="#C1272D" fill-opacity="0.3" d="M49.158,266.514c-2.71-5.75-2.944-11.286-0.465-12.518c2.555-1.27,7.018,2.512,9.967,8.447,c0.738,1.484,1.312,2.964,1.717,4.366c1.994-0.101,4.016-0.274,6.062-0.541c4.046-0.527,7.923-1.356,11.578-2.434,c-1.044-2.488-1.44-5.897-0.916-9.561c0.515-3.601,1.814-6.718,3.472-8.813c-5.125,2.332-11.661,4.392-20.002,5.947,c-33.704,6.282-40.875-3.371-42.271-9.16l0.415,6.955C22.314,258.411,34.126,264.896,49.158,266.514z"/>
		<path fill="#C1272D" fill-opacity="0.3" d="M97.987,219.229c0.812,3.12,2.534,14.511-12.217,23.5c3.777,0.56,6.038,6.599,5.048,13.507,c-0.129,0.903-0.31,1.774-0.53,2.609c11.902-6.402,19.121-15.813,17.887-25.298C107.429,227.822,103.706,222.915,97.987,219.229z"/>
		<path fill="#C1272D" fill-opacity="0.3" d="M17.985,239.57c-0.005,0.68,0.058,1.614,0.314,2.678l-0.19-3.184,C18.067,239.232,18.022,239.401,17.985,239.57z"/>
		<linearGradient id="SVGID_187_" gradientUnits="userSpaceOnUse" x1="68.0034" y1="228.2314" x2="37.6678" y2="224.1767">
			<stop offset="0" style="stop-color:#FFF;stop-opacity:0"/>
			<stop offset="1" style="stop-color:#FFF"/>
		</linearGradient>
		<path fill="url(#SVGID_187_)" fill-opacity="0.3" d="M64.49,217.785c1.417,3.739-6.149,10.071-16.893,14.145c-10.749,4.074-20.61,4.345-22.026,0.607,c-1.418-3.737,6.148-10.071,16.893-14.145C53.211,214.318,63.073,214.047,64.49,217.785z"/>
		<ellipse transform="matrix(0.9106 -0.4132 0.4132 0.9106 -89.8527 36.1705)" fill="#FFF" cx="38.7" cy="225.824" rx="11.5" ry="4"/>
		<circle fill="#FFF" cx="120.97" cy="127.929" r="1.75"/>
		<ellipse transform="matrix(0.5961 -0.8029 0.8029 0.5961 -58.4747 142.6388)" fill="#FFF" cx="112.548" cy="129.444" rx="6.058" ry="2.756"/>
		<circle fill-opacity="0.4" fill="#FFF" cx="60.7" cy="155.324" r="1.417"/>
		<ellipse fill="#FFF" cx="38.616" cy="150.075" rx="1.75" ry="4.083"/>
		<path fill="#380502" d="M174.654,146.741c0,0-1.25-0.75-3.5-0.75c2.083,5.75,3.417,13.917-3.082,19.612,c-3.636-0.625-11.837-3.143-15.13-6.633c-0.138,1.068-0.294,2.136-0.469,3.205c2.538,0.604,10.379,2.738,14.563,6.91,c-0.132,6.406-1.215,16.406-10.207,23.052c-5.392-0.73-9.5-4.001-11.141-5.505c-0.27,0.708-0.543,1.416-0.822,2.119,c3.384,0.237,8.589,3.846,10.765,5.462c-1.229,6.195-4.562,14.612-13.479,19.577c-3.803-0.417-6.062-3.048-6.499-5.36,c-0.193,0.355-2.119,3.96-2.312,4.312c2.5-0.562,5.5,0.688,7.456,2.747c-1.643,4.753-3.726,8.42-10.362,11.902,c-2.698,0.271-4.506-0.564-5.259-1.011c-0.113,0.175-0.224,0.345-0.335,0.519c0.785,0.39,2.896,1.406,4.357,1.803,c-6.627,8.624-15.418,14.712-16.78,15.826c-0.012,0.015-0.023,0.029-0.035,0.045c6.801-4.967,12.859-9.996,18.256-15.017,c1.928,2.884,7.891,12.686,7.891,12.686s0.5-0.25,2.375-1.5c-6.336-1.223-8.319-9.253-8.769-12.602,c3.974-3.782,7.58-7.555,10.845-11.291c3.047,2.401,14.044,9.631,16.45,11.207c0.814-0.706,1.605-1.414,2.375-2.126,c-8.833-0.624-15.308-8.083-17.137-11.044c6-7.089,10.8-14.018,14.64-20.577c5.146,0.769,14.347,6.516,18.014,12.599,c0.5-0.954,3.083-5.792,3.771-7.729c-7.938,1.688-18.692-5.315-20.687-6.782c4.862-8.63,8.068-16.567,10.179-23.319,c4.383-0.351,11.788,0.846,16.29,4.917c0.066-1.486,0.156-5.066-0.032-7.253c-2.938,3.375-11.785,1.689-15.574,0.066,C174.802,154.549,174.654,146.741,174.654,146.741z"/>
		<path fill="#380502" d="M171.154,145.991c3,1.375,3.5,0.75,3.5,0.75s5.869-2.21,9.269,2.223c-1.09-3.79-2.056-5.973-2.056-5.973,s-13.812-13.793-28.075-3.965C157.111,139.199,168.8,140.213,171.154,145.991z"/>
		<linearGradient id="SVGID_196_" gradientUnits="userSpaceOnUse" x1="46.4736" y1="123.8516" x2="24.8487" y2="138.2265">
			<stop offset="0" style="stop-color:#FFF;stop-opacity:0"/>
			<stop offset="1" style="stop-color:#FFF"/>
		</linearGradient>
		<path fill-opacity="0.2" fill="url(#SVGID_196_)" d="M22.117,143.741c3.742-3.118,8.464-4.388,13.334-4.601,c-6.714-5.815-1.964-14.149,2.833-16.44c-0.854-0.003-1.594,0.083-2.167,0.292c-5.5,2-14,16-14,16l7.25-3.583,C29.367,135.408,24.867,139.241,22.117,143.741z"/>
		<linearGradient id="SVGID_198_" gradientUnits="userSpaceOnUse" x1="119.4429" y1="93.7656" x2="128.9006" y2="77.2146" gradientTransform="matrix(0.9817 -0.1902 0.1902 0.9817 -17.7967 22.3179)">
			<stop offset="0" style="stop-color:#FFF;stop-opacity:0"/>
			<stop offset="1" style="stop-color:#FFF"/>
		</linearGradient>
		<path fill-opacity="0.5" fill="url(#SVGID_198_)" d="M123.568,89.665l8.004-2.06c0,0-8.314-3.482-17.348-1.478,c7.917-3.826,13.412-4.381,13.412-4.381s-13.899-0.956-26.358,6.255c5.138,1.779,14.48,4.97,21.852,7.483,c3.384-1.575,7.101-2.674,11.159-3.059C128.279,89.007,123.568,89.665,123.568,89.665z"/>
		<linearGradient id="SVGID_200_" gradientUnits="userSpaceOnUse" x1="443.9038" y1="23.7046" x2="337.1097" y2="23.7046">
			<stop offset="0" style="stop-color:#082F40"/>
			<stop offset="1" style="stop-color:#215D75"/>
		</linearGradient>
		<path fill-opacity="0.2" fill="url(#SVGID_200_)" d="M435.033,35.241c-10.225-19.893-46.854-29.874-92.02-30.452,c5.158,7.997,10.754,22.042-1.584,34.835c6.166,0.029,11.94,0.145,17.27,0.283c21.531,0.56,57.6,5.807,71.225,0.008,c-6.377-7.603-12.959-8.737-17.723-10.008C427.533,28.742,435.033,35.241,435.033,35.241z"/>
		<linearGradient id="SVGID_202_" gradientUnits="userSpaceOnUse" x1="586.2183" y1="145.8516" x2="439.9733" y2="145.8516">
			<stop offset="0" style="stop-color:#082F40"/>
			<stop offset="1" style="stop-color:#215D75"/>
		</linearGradient>
		<path fill-opacity="0.5" fill="url(#SVGID_202_)" d="M462.215,98.347c2.793,5.539,22.629,47.46-16.327,48.381,c37.873,20.799,71.58,41.483,101.479,46.013c12.762,1.934,20.209-0.895,24.035-5.642l-11.703-8.358l12,2.5l-18.5-17l20.871,8.167,C542.412,136.273,503.376,112.917,462.215,98.347z"/>	
		<ellipse transform="matrix(-0.3991 0.9169 -0.9169 -0.3991 419.3778 113.9208)" fill="#FFF" cx="172.362" cy="194.373" rx="3.5" ry="8.547"/>
		<ellipse transform="matrix(0.5842 0.8116 -0.8116 0.5842 169.6104 -45.8907)" fill="#FFF" fill-opacity="0.3" cx="129.589" cy="142.575" rx="4.332" ry="10.323"/>
		<ellipse transform="matrix(-0.5483 0.8363 -0.8363 -0.5483 424.6975 209.4199)" fill="#FFF" cx="155.79" cy="219.409" rx="3.5" ry="8.74"/>
		<ellipse transform="matrix(-0.7473 0.6645 -0.6645 -0.7473 397.5149 316.675)" fill-opacity="0.4" fill="#FFF" cx="138.542" cy="233.924" rx="2.385" ry="6.909"/>
		<linearGradient id="SVGID_208_" gradientUnits="userSpaceOnUse" x1="143.7373" y1="140.0225" x2="187.2373" y2="140.0225">
			<stop offset="0" style="stop-color:#082F40"/>
			<stop offset="1" style="stop-color:#215D75"/>
		</linearGradient>
		<path fill="url(#SVGID_208_)" d="M145.237,149.908c0,0,18-24,42-12.667c-7.167-5.333-26.333-15-43.5,4.833,C144.071,146.741,145.237,149.908,145.237,149.908z"/>
		<linearGradient id="SVGID_210_" gradientUnits="userSpaceOnUse" x1="280.397" y1="135.3462" x2="323.9273" y2="58.0734">
			<stop offset="0" style="stop-color:#2A5669"/>
			<stop offset="1" style="stop-color:#91BDCF"/>
		</linearGradient>
		<path fill-opacity="0.7" fill="url(#SVGID_210_)" d="M403.063,124.839C299.337,62.07,207.095,97.511,179.904,106.491,c16.053,4.128,29.992,12.037,32.19,13.317C284.229,84.417,347.589,99.397,403.063,124.839z"/>
		<linearGradient id="SVGID_212_" gradientUnits="userSpaceOnUse" x1="179.9038" y1="110.9434" x2="248.1538" y2="110.9434">
			<stop offset="0" style="stop-color:#03131A"/>
			<stop offset="1" style="stop-color:#215D75"/>
		</linearGradient>
		<path fill="url(#SVGID_212_)" fill-opacity="0.2" d="M248.154,105.866c-27.625-8.875-68.25,0.625-68.25,0.625,c16.053,4.128,29.992,12.037,32.19,13.317C214.778,118.492,235.279,108.866,248.154,105.866z"/>
		<path fill="#754C24" fill-opacity="0.8" d="M69.279,265.616c1.335-0.207,1.688-0.565,2.981-0.837c-1.604-1.456-17.181-16.26-17.023-41.871,C53.575,238.199,57.404,256.991,69.279,265.616z"/>
		<path fill-opacity="0.5" fill="#4E6E75" d="M61.867,145.241v-15.5c-0.046,0,0.454,9.917-4.129,10.083s-10.5-5.417-18-5.833,c2.25,1.917,3.5,2.75,3.5,2.75s-14.273-2.809-20.522,6.073c-0.013,0.02-0.028,0.04-0.042,0.06c-0.193,0.278-0.38,0.566-0.557,0.867,C35.617,132.491,61.867,145.241,61.867,145.241z"/>
		<path fill-opacity="0.4" fill="#ED1E79" d="M83.654,242.908l0.008,0.079c0.687-0.265,1.39-0.362,2.089-0.262,c3.789,0.542,6.059,6.591,5.067,13.512c-0.129,0.903-0.31,1.774-0.53,2.609c0.979-0.526,1.913-1.08,2.826-1.646,C94.851,237.688,83.654,242.908,83.654,242.908z"/>
		<path fill-opacity="0.5" fill="#4E6E75" d="M134.289,92.426c-7.99-1.315-17.26,0.94-20.385,3.44c-0.25-1.75,0.75-3.125,3.125-6.25,c-9.875,1.75-11.25,10.875-12.25,15.125c-1.75-5.75,2.625-11.125,2.625-11.125c-9,5.875-11.875,27.125-12.375,27,s-9.5-1.125-9.5-1.125l-0.287,0.096c-0.064,0.278-0.102,0.44-0.102,0.44l11.339,5.952,C96.479,125.979,108.533,94.869,134.289,92.426z"/>
		<linearGradient id="SVGID_218_" gradientUnits="userSpaceOnUse" x1="179.9038" y1="99.2227" x2="365.0366" y2="99.2227">
			<stop offset="0" style="stop-color:#03131A"/>
			<stop offset="1" style="stop-color:#215D75"/>
		</linearGradient>
		<path fill-opacity="0.5" fill="url(#SVGID_218_)" d="M365.037,105.755c-87.616-35.284-161.32-7.128-185.133,0.736,c3.922,1.009,7.716,2.244,11.246,3.552l0.754-0.302C191.904,109.741,280.513,74.765,365.037,105.755z"/>
		<radialGradient id="SVGID_220_" cx="171.7441" cy="201.6118" r="45.7255" gradientUnits="userSpaceOnUse">
			<stop offset="0" style="stop-color:#F5C6B3"/>
			<stop offset="0.9878" style="stop-color:#ED3E3E"/>
		</radialGradient>
		<path fill="url(#SVGID_220_)" d="M183.922,148.964L183.922,148.964c0,0,3.106,17.027,0.356,19.152s-0.042,3.708,0.208,3.958,s3.083,17.5-7.5,27c-4.833,0.5-2.5,3.667-2.333,4.25s-5.583,18.833-16.333,21.833c-1.333,0.583-1.333,1.5-1.333,1.5,s-10.083,11.75-16.083,14.083c-0.806,0.313-0.527,0.142,0.472,0.046C195.294,209.553,188.515,164.935,183.922,148.964z"/>
		<linearGradient id="SVGID_222_" gradientUnits="userSpaceOnUse" x1="133.1348" y1="219.8369" x2="158.6342" y2="259.336">
			<stop offset="0" style="stop-color:#60A7C4"/>
			<stop offset="1" style="stop-color:#60A7C4;stop-opacity:0"/>
		</linearGradient>
		<path fill="url(#SVGID_222_)" fill-opacity="0.6" d="M147.404,177.991c0,0-4,28.5,0,32.25c4-4.5,4-4.5,4-4.5s3.75,12,15.25,14.25,c-1.5,3-9.75,10-1.75,16.75s6.5,20.5,1.75,29.5s-32.25,3-32.25,3l-24.537-21.5l1.537-3,C111.404,244.741,134.654,216.991,147.404,177.991z"/>
		<path fill-opacity="0.2" fill="#FFF" d="M146.154,213.325c0,0,8.25,10.083,14.25,11.25c-1.333,1-3.083,1.333-3.083,1.333l-9-5.583,l-5-5.917L146.154,213.325z"/>
		<circle fill="#FFF" fill-opacity="0.5" cx="167.904" cy="193.408" r="8.333"/>
		<linearGradient id="SVGID_226_" gradientUnits="userSpaceOnUse" x1="97.1538" y1="266.0312" x2="149.1526" y2="274.0311">
			<stop offset="0" style="stop-color:#60A7C4"/>
			<stop offset="0.993" style="stop-color:#0F394A"/>
		</linearGradient>
		<path fill="url(#SVGID_226_)" d="M145.205,245.213l-9.83,8.639c0,0,4.674-9.932,6.423-12.969,c-7.675,0.046-13.982,9.084-13.982,9.084l-2.085-12.955c0,0-6.964,6.043-9.131,14.036c-2.166,7.992-6.373,15.673-6.373,15.673,l-2.75,1.298l-1.389,3.701l-3.195-0.221c0,0-1.838,1.93-3.213,5.117c-9.807,22.733,7.166,25.312,9.199,24.064,C145.7,282.907,145.205,245.213,145.205,245.213z"/>
		<path fill-opacity="0.4" fill="#FFF" d="M112.737,268.074c0,0,3.667-5.5,4.5-9s2.042-9.708,2.042-9.708l-0.843-2.938,c-0.744,1.437-1.394,2.984-1.837,4.619c-2.166,7.992-6.373,15.673-6.373,15.673l-2.75,1.298l-1.389,3.701l-3.195-0.221,c0,0-1.838,1.93-3.213,5.117c-5.848,13.556-2.173,19.942,2.177,22.628c-0.179-0.331-0.437-0.719-0.786-1.17,c-5.667-7.334,1.5-21.166,2.167-23.666s4.167-0.834,4.167-0.834s0.833-2,1.333-3.833S112.737,268.074,112.737,268.074z"/>
		<path fill-opacity="0.2" fill="#4E6E75" d="M137.571,257.074c0,0-15.575,41-38.454,38.417c-0.329-0.037-0.644-0.069-0.95-0.098,c2.998,5.415,9.501,6.03,10.712,5.287c24.414-11.784,32.417-32.316,35.042-44.822L137.571,257.074z"/>
		<path fill="#FFF" d="M171.237,121.741c0.523,0.06-22.333-3-33.333,21.333s-19,26.667-19,26.667s15.667-9.5,22-25.5,S163.904,120.908,171.237,121.741z"/>
		<path fill-opacity="0.5" fill="#FFF" d="M34.999,220.354c-11.546,6.394-18.5,15.65-17.286,24.976,c1.465,11.244,14.385,19.347,31.445,21.183C3.22,250.001,30.058,224.591,34.999,220.354z"/>
		<path fill-opacity="0.2" fill="#29ABE2" d="M108.175,233.548c-1.216-9.336-10.33-16.508-23.15-19.726,c3.475,1.015,37.211,11.861,5.794,42.414c-0.129,0.903-0.31,1.774-0.53,2.609C102.191,252.443,109.41,243.033,108.175,233.548z"/>
		<linearGradient id="SVGID_233_" gradientUnits="userSpaceOnUse" x1="112.9214" y1="252.7739" x2="128.5887" y2="242.2738">
			<stop offset="0" style="stop-color:#1B6887"/>
			<stop offset="0.993" style="stop-color:#062430"/>
		</linearGradient>
		<path fill="url(#SVGID_233_)" d="M125.73,237.012c0,0-4.678,4.066-7.559,9.935c0.191,0.846,2.122,8.31,9.644,3.02L125.73,237.012z"/>
		<linearGradient id="SVGID_235_" gradientUnits="userSpaceOnUse" x1="119.8052" y1="258.7822" x2="142.5883" y2="243.513">
			<stop offset="0" style="stop-color:#1B6887"/>
			<stop offset="0.993" style="stop-color:#062430"/>
		</linearGradient>
		<path fill="url(#SVGID_235_)" d="M135.375,253.852c0,0,4.674-9.932,6.423-12.969c-7.675,0.046-13.982,9.084-13.982,9.084,S126.762,257.128,135.375,253.852z"/>
		<linearGradient id="SVGID_237_" gradientUnits="userSpaceOnUse" x1="151.083" y1="253.4355" x2="137.1665" y2="251.0185">
			<stop offset="0" style="stop-color:#1B6887"/>
			<stop offset="0.993" style="stop-color:#062430"/>
		</linearGradient>
		<path fill="url(#SVGID_237_)" d="M145.205,245.213l-8.951,7.866l-0.517,0.496c-0.166,0.249,3.235,8.628,7.887,3.612,C145.259,250.108,145.205,245.213,145.205,245.213z"/>
		<path fill="#FFF" d="M125.73,237.012c0,0-7.826,10.604-6.451,12.354S125.73,237.012,125.73,237.012z"/>
		<path fill-opacity="0.4" fill="#FFF" d="M141.797,240.882c0.377-0.157-8.31,1.692-13.81,10.942c0.167,1.333,1,2.25,1.333,2.167,S132.857,244.606,141.797,240.882z"/>
		<path fill-opacity="0.3" fill="#FFF" d="M138.273,257.741c1.38,1.235,3.236,1.728,5.352-0.554c1.635-7.079,1.58-11.975,1.58-11.975,S143.661,258.097,138.273,257.741z"/>
		<linearGradient id="SVGID_242_" gradientUnits="userSpaceOnUse" x1="180.6997" y1="240.4458" x2="193.9995" y2="240.4458">
			<stop offset="0" style="stop-color:#1B6887"/>
			<stop offset="0.993" style="stop-color:#062430"/>
		</linearGradient>
		<path fill="url(#SVGID_242_)" d="M193.843,239.024c-6.025-3.835-13.144-4.616-13.144-4.616l5.667,11.833,C195.205,247.954,194.037,240.072,193.843,239.024z"/>
		<linearGradient id="SVGID_244_" gradientUnits="userSpaceOnUse" x1="184.1553" y1="245.9102" x2="186.3667" y2="245.9102">
			<stop offset="0" style="stop-color:#1B6887"/>
			<stop offset="0.993" style="stop-color:#062430"/>
		</linearGradient>
		<path fill="url(#SVGID_244_)" d="M186.367,246.241c0,0-0.851-0.315-2.211-0.662C184.812,245.854,185.542,246.082,186.367,246.241z"/>
		<linearGradient id="SVGID_246_" gradientUnits="userSpaceOnUse" x1="180.6997" y1="240.4458" x2="193.9995" y2="240.4458">
			<stop offset="0" style="stop-color:#1B6887"/>
			<stop offset="0.993" style="stop-color:#062430"/>
		</linearGradient>
		<path fill="url(#SVGID_246_)" d="M193.843,239.024c-6.025-3.835-13.144-4.616-13.144-4.616l5.667,11.833,C195.205,247.954,194.037,240.072,193.843,239.024z"/>
		<linearGradient id="SVGID_248_" gradientUnits="userSpaceOnUse" x1="184.1553" y1="245.9102" x2="186.3667" y2="245.9102">
			<stop offset="0" style="stop-color:#1B6887"/>
			<stop offset="0.993" style="stop-color:#062430"/>
		</linearGradient>
		<path fill="url(#SVGID_248_)" d="M186.367,246.241c0,0-0.851-0.315-2.211-0.662C184.812,245.854,185.542,246.082,186.367,246.241z"/>
		<linearGradient id="SVGID_250_" gradientUnits="userSpaceOnUse" x1="180.6997" y1="240.4458" x2="193.9995" y2="240.4458">
			<stop offset="0" style="stop-color:#1B6887"/>
			<stop offset="0.993" style="stop-color:#062430"/>
		</linearGradient>
		<path fill="url(#SVGID_250_)" d="M193.843,239.024c-6.025-3.835-13.144-4.616-13.144-4.616l5.667,11.833,C195.205,247.954,194.037,240.072,193.843,239.024z"/>
		<linearGradient id="SVGID_252_" gradientUnits="userSpaceOnUse" x1="184.1553" y1="245.9102" x2="186.3667" y2="245.9102">
			<stop offset="0" style="stop-color:#1B6887"/>
			<stop offset="0.993" style="stop-color:#062430"/>
		</linearGradient>
		<path fill="url(#SVGID_252_)" d="M186.367,246.241c0,0-0.851-0.315-2.211-0.662C184.812,245.854,185.542,246.082,186.367,246.241z"/>
		<linearGradient id="SVGID_254_" gradientUnits="userSpaceOnUse" x1="169.6997" y1="249.2935" x2="188.8237" y2="249.2935">
			<stop offset="0" style="stop-color:#1B6887"/>
			<stop offset="0.993" style="stop-color:#062430"/>
		</linearGradient>
		<path fill="url(#SVGID_254_)" d="M186.367,246.241c0,0-10.334-3.833-16.667,0.5c3.167,1.5,12.667,7,12.667,7,C193.996,255.241,186.367,246.241,186.367,246.241z"/>
		<linearGradient id="SVGID_256_" gradientUnits="userSpaceOnUse" x1="169.3667" y1="257.1943" x2="181.9302" y2="257.1943">
			<stop offset="0" style="stop-color:#1B6887"/>
			<stop offset="0.993" style="stop-color:#062430"/>
		</linearGradient>
		<path fill="url(#SVGID_256_)" d="M181.906,253.688l-12.539-1.447c0,0,1.599,4.584,6.779,9.831c0.003,0,0.005,0.002,0.008,0.002,C182.443,263.042,181.945,254.258,181.906,253.688z"/>
		<path fill-opacity="0.4" fill="#FFF" d="M180.7,234.408c0,0,6.954,4.427,8.704,7.927s-1.156,3.281-1.688,2.594,S185.964,237.324,180.7,234.408z"/>
		<path fill="#FFF" d="M169.7,246.741c0,0,6.787-1.416,11.746,1.667s2.958,3.75,1.958,3.417S178.329,246.741,169.7,246.741z"/>
		<path fill="#FFF" d="M169.529,252.2c0,0,6.25,5.833,8.958,6.917s0.208,2.125-1.083,1.667S171.112,256.408,169.529,252.2z"/>
		<path fill-opacity="0.2" fill="#4E6E75" d="M248.696,265.58c-0.14,0.097-0.273,0.187-0.417,0.286c-24,16.625-68-5.375-68-5.375h-5.606,c6.106,6.93,18.521,15.845,42.36,16.75C228.601,277.681,242.35,278.58,248.696,265.58z"/>
		<linearGradient id="SVGID_262_" gradientUnits="userSpaceOnUse" x1="128.3989" y1="450.1982" x2="137.8989" y2="456.8643">
			<stop offset="0" style="stop-color:#496570"/>
			<stop offset="0.993" style="stop-color:#062430"/>
		</linearGradient>
		<path fill="url(#SVGID_262_)" d="M129.033,465.241c0,0-2.004-16,3.871-23s9.125,14.375,9.125,14.375L129.033,465.241z"/>
		<linearGradient id="SVGID_264_" gradientUnits="userSpaceOnUse" x1="115.4771" y1="452.0029" x2="132.1431" y2="468.668">
			<stop offset="0" style="stop-color:#496570"/>
			<stop offset="0.993" style="stop-color:#062430"/>
		</linearGradient>
		<path fill="url(#SVGID_264_)" d="M110.033,468.241c0,0,0.371-18.125,13.371-28.375c7.875-0.125,3.375,19.625,3.375,19.625,L110.033,468.241z"/>
		<path fill-opacity="0.3" fill="#FFF" d="M136.759,441.496c-1.12-0.977-2.407-0.98-3.855,0.745c-5.875,7-3.871,23-3.871,23,l1.285-0.853C128.402,452.146,135.654,442.832,136.759,441.496z"/>
		<path fill-opacity="0.5" fill="#FFF" d="M126.996,442.278c-0.713-1.49-1.848-2.439-3.592-2.412,c-13,10.25-13.371,28.375-13.371,28.375l3.601-1.882c0.005-0.07,0.017-0.13,0.021-0.201c0.333-7.25,9.833-18.5,9.833-18.5,s-5.5,5.167-8.167,9.75C115.63,451.196,125.631,443.325,126.996,442.278z"/>
		<path fill-opacity="0.5" fill="#FFF" d="M116.904,434.741c-9.875,10.125-8.871,19.167-8.871,19.167s1.127-0.157,2.711-0.436,c-0.002-0.105-0.001-0.205-0.006-0.314c-0.316-6.808,6.655-16.015,7.355-16.921C117.723,435.48,117.326,434.941,116.904,434.741z"/>
		<ellipse transform="matrix(0.5972 -0.8021 0.8021 0.5972 -310.2957 275.1525)" fill-opacity="0.3" fill="#FFF" cx="118.814" cy="446.529" rx="4.667" ry="1.216"/>
		<ellipse transform="matrix(0.3637 -0.9315 0.9315 0.3637 -331.7331 407.2612)" fill-opacity="0.3" fill="#FFF" cx="132.231" cy="446.445" rx="3.704" ry="1.217"/>
		<ellipse transform="matrix(0.5507 -0.8347 0.8347 0.5507 -316.8725 292.7899)" fill-opacity="0.2" fill="#FFF" cx="113.526" cy="440.727" rx="4.49" ry="0.97"/>
		<linearGradient id="SVGID_272_" gradientUnits="userSpaceOnUse" x1="223.7612" y1="474.7012" x2="236.5947" y2="483.2012">
			<stop offset="0" style="stop-color:#496570"/>
			<stop offset="0.993" style="stop-color:#062430"/>
		</linearGradient>
		<path fill="url(#SVGID_272_)" d="M223.7,495.241c0,0-2.921-16.125,13.454-32.25c10.375,9.625,4,25.625,4,25.625,S234.746,492.616,223.7,495.241z"/>
		<linearGradient id="SVGID_274_" gradientUnits="userSpaceOnUse" x1="236.3115" y1="478.6602" x2="248.1445" y2="485.9932">
			<stop offset="0" style="stop-color:#496570"/>
			<stop offset="0.993" style="stop-color:#062430"/>
		</linearGradient>
		<path fill="url(#SVGID_274_)" d="M238.367,494.575c0,0-1.838-14.834,8.162-24.209c3.875,1.875,9.5,18.875,9.5,18.875,S247.08,493.284,238.367,494.575z"/>
		<linearGradient id="SVGID_276_" gradientUnits="userSpaceOnUse" x1="188.1118" y1="213.144" x2="165.7781" y2="227.8111" gradientTransform="matrix(0.9039 -0.008 -0.008 0.9048 19.4427 21.7036)">
			<stop offset="0" style="stop-color:#FFF;stop-opacity:0"/>
			<stop offset="1" style="stop-color:#FFF"/>
		</linearGradient>
		<path fill-opacity="0.5" fill="url(#SVGID_276_)" d="M182.398,212.881c1.44,1.359-1.599,6.917-6.787,12.414,c-5.188,5.497-10.562,8.851-12.001,7.492c-1.44-1.358,1.599-6.917,6.787-12.414C175.585,214.877,180.958,211.523,182.398,212.881z"/>
		<path fill-opacity="0.3" fill="#4E6E75" d="M318.654,456.741c-20,15.25-66.25,23-67,23l-0.558,10.963,c7.303-2.385,16.195-5.59,22.271-8.796c12-6.333,35-18.333,62.334-22c0,0,7.964-24.104,10.457-50.769,C342.858,420.121,333.996,445.043,318.654,456.741z"/>
		<path fill-opacity="0.8" fill="#FFF" d="M244.779,479.866c0,0-2.625,6.938-2.938,9.875c-0.833-9.765,6.202-16.509,6.871-17.127,c-0.755-1.103-1.497-1.916-2.184-2.248c-10,9.375-8.162,24.209-8.162,24.209c1.677-0.248,3.361-0.6,4.99-1.004,C242.423,490.143,244.779,479.866,244.779,479.866z"/>
		<path fill-opacity="0.6" fill="#FFF" d="M237.154,462.991c-16.375,16.125-13.454,32.25-13.454,32.25,c1.711-0.406,3.297-0.848,4.779-1.301c-0.006-0.026-0.006-0.048-0.012-0.074c-1.562-6.688,5.25-20.25,5.25-20.25,s-5.062,8.5-6.625,12.562c1.679-10.733,11.003-20.597,11.758-21.381C238.341,464.176,237.779,463.571,237.154,462.991z"/>
		<path fill="#FFF" d="M231.779,458.866c-11.375,11-11.746,23.375-11.746,23.375c0.464,0.077,1.099,0.102,1.828,0.093,c0.014-0.075,0.029-0.141,0.043-0.218c2.271-12.546,10.118-19.935,10.807-20.563C232.398,460.451,232.083,459.519,231.779,458.866z"/>
		<ellipse transform="matrix(0.5674 -0.8234 0.8234 0.5674 -284.6392 389.0563)" fill-opacity="0.3" fill="#FFF" cx="227.981" cy="465.446" rx="3.704" ry="1.217"/>
		<ellipse transform="matrix(0.5674 -0.8234 0.8234 0.5674 -287.7497 395.3861)" fill-opacity="0.6" fill="#FFF" cx="232.452" cy="471.572" rx="5.604" ry="1.586"/>
		<ellipse transform="matrix(0.4529 -0.8916 0.8916 0.4529 -293.0718 478.2455)" fill-opacity="0.7" fill="#FFF" cx="243.117" cy="477.905" rx="5.604" ry="1.587"/>
		<linearGradient id="SVGID_285_" gradientUnits="userSpaceOnUse" x1="224.8306" y1="303.8115" x2="228.8306" y2="303.8115" gradientTransform="matrix(0.4314 -2.3867 0.9841 0.1779 -185.1383 780.9224)">
			<stop offset="0" style="stop-color:#97C7DB"/>
			<stop offset="1" style="stop-color:#BEC8CC"/>
		</linearGradient>
		<path fill-opacity="0.4" fill="url(#SVGID_285_)" d="M212.56,288.821c3.805,0.688,6.502,3.382,6.026,6.018,c-0.477,2.637-3.946,4.215-7.752,3.529c-3.805-0.688-6.501-3.383-6.025-6.019C205.285,289.713,208.755,288.134,212.56,288.821z"/>
		<linearGradient id="SVGID_287_" gradientUnits="userSpaceOnUse" x1="209.4663" y1="293.9229" x2="214.4565" y2="293.9229">
			<stop offset="0" style="stop-color:#97C7DB"/>
			<stop offset="1" style="stop-color:#BEC8CC"/>
		</linearGradient>
		<path fill-opacity="0.6" fill="url(#SVGID_287_)" d="M212.346,291.793c-1.361-0.246-2.637,0.508-2.85,1.685,c-0.212,1.176,0.718,2.329,2.08,2.575c1.361,0.245,2.637-0.508,2.85-1.685C214.639,293.192,213.708,292.039,212.346,291.793z,M213.622,294.376c-0.127,0.703-0.889,1.153-1.702,1.007c-0.813-0.147-1.369-0.836-1.243-1.539,c0.127-0.702,0.889-1.153,1.703-1.006C213.193,292.984,213.749,293.674,213.622,294.376z"/>
		<linearGradient id="SVGID_289_" gradientUnits="userSpaceOnUse" x1="144.7417" y1="294.6553" x2="149.7314" y2="294.6553" gradientTransform="matrix(0.8315 -0.5555 0.4006 0.5998 -93.7301 201.5673)">
			<stop offset="0" style="stop-color:#97C7DB"/>
			<stop offset="1" style="stop-color:#BEC8CC"/>
		</linearGradient>
		<path fill-opacity="0.3" fill="url(#SVGID_289_)" d="M146.203,295.021c-1.23,0.608-1.989,1.77-1.694,2.593,c0.294,0.823,1.53,0.998,2.761,0.389c1.23-0.608,1.989-1.769,1.694-2.593C148.669,294.586,147.434,294.411,146.203,295.021z,M148.298,295.861c0.176,0.491-0.277,1.186-1.012,1.549c-0.736,0.363-1.473,0.26-1.65-0.232c-0.176-0.492,0.277-1.186,1.013-1.55,C147.384,295.265,148.123,295.369,148.298,295.861z"/>
		<linearGradient id="SVGID_291_" gradientUnits="userSpaceOnUse" x1="167.4253" y1="368.1807" x2="172.3807" y2="383.3473">
			<stop offset="0" style="stop-color:#97C7DB"/>
			<stop offset="1" style="stop-color:#BEC8CC"/>
		</linearGradient>
		<path fill="url(#SVGID_291_)" d="M171.539,373.254c-0.029-0.163-0.058-0.326-0.092-0.492c-0.766-3.79-2.263-6.685-3.346-6.466,c-1.083,0.219-1.34,3.467-0.575,7.257c0.766,3.79,2.263,6.685,3.346,6.466c0.332-0.067,0.584-0.42,0.755-0.983,c0.693,4.434-1.303,3.496-2.141,3.705C173.986,384.164,172.764,377.571,171.539,373.254z"/>
		<path fill="#FFF" d="M155.018,229.093c-0.171,0.082-0.281,0.148-0.281,0.148C154.821,229.229,154.917,229.171,155.018,229.093z"/>
		<path fill="#FFF" d="M160.404,269.075c-0.167-0.834-2.833-39.667-1.333-44.5c-0.917,0.667-1.667,0.792-1.667,0.792,s-1.481,3.026-2.386,3.727c0.601-0.288,1.997-0.779,2.386,0.648c0.048,0.177,0.109,0.673,0.179,1.415,c-0.787,3.828-4.099,4.725-6.013,4.419c-2.083-0.333-0.917-2.167-0.917-2.167s-2.083,2.333-4.25,4.333,c3.167,0.167,7.333-1.25,9-1.833c1.518-0.531,2.48,1.283,2.64,1.612c0.683,11.004,1.509,29.868,1.027,31.556,c-0.667,2.333-2.334,4.334-0.167,5S160.57,269.909,160.404,269.075z"/>
	</g>
</svg>