<?xml version="1.0" encoding="utf-8"?>
<svg version="1.1" xmlns="http://www.w3.org/2000/svg" viewBox="0 0 628 500">
	<defs>
		<filter id="blur">
			<feGaussianBlur in="SourceGraphic" stdDeviation="15"/>
		</filter>
	</defs>
	<path fill="#000" fill-opacity="0.4" onclick="this.style.filter='url(#blur)'" d="M553.199,164.241c6.957,2.722,13.914,5.445,20.871,8.167c-45.723-52.209-111.051-80.252-178.731-90.479,c-52.35-7.909-106.096-6.252-158.345,1.654c-16.368,2.477-32.681,5.553-48.735,9.61c-3.879,0.981-7.76,1.999-11.569,3.225,c-7.375,2.375-11.42,1.959-19.121,0.87c26.428-37.73,85.737-46.905,127.87-52.085c22.083-2.715,44.39-4.105,66.642-3.942,c12.468,0.091,24.869,1.208,37.302,2.026c12.635,0.832,28.726,3.223,40.776-1.906c-2.942-3.508-6.651-8.076-13.018-10.121,c6.318,0.154,12.974,1.624,18.127,5.446c-1.252-2.435-3.985-7.801-8.882-11.793c-5.314-4.359-11.566-7.483-17.953-9.941,C387.957,7.101,364.772,4.79,343.013,4.79c-79.8-1.007-158.96,23.152-223,70.895c-8.188,6.104-19.895,11.354-26.958,18.753,c-5.959,6.244-7.076,9.984-14.771,13.631c-4.168,1.973-8.228,4.181-12.15,6.605c-3.43,2.123-6.758,4.412-9.963,6.861,c-6.039,4.648-5.893,3.147-14.132,1.588c-9.951-1.883-15.297,8.397-19.923,15.868c2.417-1.194,4.833-2.389,7.25-3.583,c-2.762,2.413-5.332,5.192-7.25,8.333c4.19-3.494,9.792-4.675,15.129-4.636c-0.827,3.953-5.002,5.341-5.83,10.032,c-0.435,2.465-0.452,12.159,3.234,10.784c-17.455,18.985-42.135,59.626-21.752,83.249c10.999,12.742,18.397,21.42,36.259,23.344,c-2.929-6.219,3.498-2.126,7.218-1.577c4.48,0.662,4.876,2.008,10.062,1.332c9.834-1.282,16.077-5.108,24.506-11.121,c-0.112,1.25-0.331,2.482-0.656,3.698c5.273-2.832,10.599-5.495,15.868-8.361c-5.991,12.43-18.511,37.551-5.342,48.022,c12.646,10.036,31.233-14.999,36.317-24.223c5.959,26.856,3.838,56.159,7.038,83.484c1.694,14.469,7.327,30.552,8.243,44.299,c2.013,24.887-44.934,21.989-44.379,51.841c1.678-0.537,3.975-0.648,5.62-0.999c-2.041,4.703-3.586,10.162-3.62,15.332,c6.247-3.06,12.621-6.023,18.672-9.475c-0.008,1.938,0.551,4.523,0.328,6.475c16.589-11.006,33.475-22.896,53.513-26.729,c4.559-0.879,16.202,6.94,20.973,8.628c10.658,3.77,21.623,6.63,32.248,8.469c-8.418,6.233-14.81,15.923-15.734,26.632,c1.56,0.255,3.932,0.002,5.055-0.11c-1.299,4.23-1.903,8.705-1.388,13.11c5.005-1.19,9.939-2.84,14.571-5.09,c-0.08,1.479-0.048,2.953,0.096,4.424c12.664-1.881,25.876-7.897,37.377-13.917c18.826-9.854,38.767-17.907,59.957-20.75,c0.281-0.275,0.406-1.276,0.517-1.635c2.286-7.482,5.727-7.492,11.87-12.004c11.326-4.76,24.501-8.021,36.711-4.947,c14.222,3.607,26.569,8.753,41.595,9.996c11.723,0.97,23.557,1.152,35.308,0.59c-4.851-1.305-9.601-2.996-14.334-4.667,c40.612,4.406,75.228-20.975,84-60.667c-2.667,1.223-5.333,2.444-8,3.667c2.111-3.556,4.223-7.111,6.334-10.667c-6,2-12,4-18,6,c5.247-3.797,10.914-7.384,17-9.666c-7.23-10.395-19.128-17.684-31-21.667c4.312-0.493,8.667-0.5,13-0.333,c-26.368-16.518-53.564-13.95-78.538,3.383c-14.029,9.736-39.287,39.24-58.897,29.598c-10.179-4.965-7.717-24.133-9.168-32.815,c-14.99-90.398-73.846-184.715-151.362-234.573c44.777-21.853,94.025-25.759,141.909-12.68,c49.674,13.66,92.694,42.126,138.033,65.508c16.595,8.575,63.043,34.225,78.725,14.771c-3.901-2.786-7.802-5.572-11.703-8.358,c4,0.833,8,1.667,12,2.5C565.532,175.575,559.366,169.908,553.199,164.241L553.199,164.241z"/>
</svg>