<?xml version="1.0" encoding="utf-8"?>
<svg version="1.1" viewBox="0 0 420 140" xmlns="http://www.w3.org/2000/svg">
	<style>
		#long {
			display:inline;
			}
		#short {
			display:none;
			}
		@media screen and (max-width:800px) {
			#long {
				display:none;
				}
			#short {
				display:inline;
				}
		}
		@media screen and (max-width:500px) {
			#short {
				display:none;
				}
		}
	</style>
	<g id="icon">
		<path fill="#E11F21" d="M51.423,68.398c0-15.592,2.519-32.819,14.829-32.819c12.307,0,14.807,17.41,14.807,33.001,c0,14.447-1.539,34.13-14.807,34.13C52.98,102.71,51.423,82.842,51.423,68.398 M30,69.266c0,20.646,14.497,39.452,36.25,39.452,c21.754,0,36.249-18.806,36.249-39.452c0-23.206-14.923-38.669-36.249-38.669C44.92,30.597,30,46.06,30,69.266"/>
	</g>
	<g id="long">
		<path fill="#E11F21" d="M131.417,86.975c-10.349,0-12.768-6.958-12.768-16.29c0-8.399,2.419-15.611,12.768-15.611,c10.351,0,12.896,7.212,12.896,15.611C144.313,80.061,141.768,86.975,131.417,86.975 M131.417,58.978,c-6.533,0-8.23,4.071-8.23,11.707c0,8.442,1.739,12.429,8.23,12.429c6.489,0,8.356-3.986,8.356-12.429,C139.773,63.092,137.95,58.978,131.417,58.978"/>
		<path fill="#E11F21" d="M156.573,86.975c-1.909,0-3.647-0.51-5.049-1.358v9.503h-4.454V63.558h3.056l0.931,1.953,c2.418-1.995,4.158-2.589,6.322-2.589c7.211,0,10.096,4.836,10.096,11.666C167.475,82.223,165.057,86.975,156.573,86.975,M157.379,66.528c-2.164,0-3.734,0.636-5.855,2.164v13.361c1.868,1.273,3.437,1.57,5.049,1.57c5.006,0,6.362-2.928,6.362-9.035,C162.935,69.201,161.368,66.528,157.379,66.528"/>
		<path fill="#E11F21" d="M173.788,76.327c0.084,4.793,1.655,6.957,6.279,6.957c2.969,0,4.877-0.935,6.108-3.31l3.774,1.442,c-1.865,3.818-4.793,5.558-9.882,5.558c-7.424,0-10.733-3.775-10.733-12.049c0-7.463,2.547-12.004,10.733-12.004,c8.781,0,10.138,7,10.138,12.004v1.401H173.788z M180.067,66.612c-4.073,0-5.94,1.442-6.235,6.108h11.664,C185.411,69.201,183.884,66.612,180.067,66.612"/>
		<path fill="#E11F21" d="M202.218,66.74c-1.316,0-2.631,0.255-3.606,1.061l-1.483,1.231v17.306h-4.456v-22.78h3.649l0.552,2.165,l1.567-1.316c1.359-1.145,2.843-1.485,4.498-1.485c0.721,0,1.399,0.086,2.121,0.17v3.903,C204.171,66.868,203.195,66.74,202.218,66.74"/>
		<path fill="#E11F21" d="M220.316,86.338l-0.467-1.654c-2.29,1.527-4.496,2.291-7.167,2.291c-5.601,0-8.061-3.182-8.061-7.679,c0-5.896,4.37-7.296,8.695-7.296c2.037,0,4.327,0.297,6.194,0.72v-2.924c0-2.164-1.146-3.268-4.199-3.268,c-2.546,0-4.667,0.593-6.152,2.757l-3.351-1.951c1.951-3.351,5.643-4.412,9.587-4.412c7.296,0,8.569,3.606,8.569,6.914v16.502,H220.316z M219.511,76.031c-1.654-0.256-3.479-0.553-5.304-0.553c-2.926,0-5.09,0.976-5.09,3.817c0,3.097,1.654,3.988,3.565,3.988,c2.757,0,4.536-0.679,6.828-2.164V76.031z"/>
		<path fill="#B2B2B2" d="M242.766,87.039c-5.13,0-9.199-1.908-10.768-6.23l2.799-1.398c1.524,3.263,3.984,4.66,7.969,4.66,c5.894,0,7.971-3.094,7.971-6.356c0-3.054-1.272-4.749-4.664-5.343l-6.656-1.188c-5.171-0.932-6.696-4.367-6.696-7.969,c0-4.452,2.372-8.099,10.257-8.099c6.529,0,8.988,3.182,9.963,5.046l-2.84,1.399c-1.229-2.161-3.35-3.476-7.123-3.476,c-5.425,0-6.908,1.992-6.908,5.13c0,2.967,1.018,4.282,4.111,4.834l6.656,1.143c5.086,0.89,7.249,4.113,7.249,8.522,C254.085,82.758,250.609,87.039,242.766,87.039"/>
		<path fill="#B2B2B2" d="M265.604,86.916c-7.462,0-10.174-4.406-10.174-12.082c0-7.63,2.712-12.04,10.174-12.04,c7.461,0,10.216,4.41,10.216,12.04C275.819,82.465,273.064,86.916,265.604,86.916 M265.604,65.551,c-4.917,0-6.825,2.459-6.825,9.283c0,6.825,1.863,9.327,6.825,9.327c4.96,0,6.825-2.502,6.825-9.327,C272.429,68.01,270.521,65.551,265.604,65.551"/>
		<path fill="#B2B2B2" d="M289.897,56.382c-0.59-0.1-1.214-0.161-2.089-0.163c-2.459,0-4.618,1.23-4.618,4.876v2.501h5.639,l-0.719,2.883h-4.92v19.883h-3.308V68.344c0-0.636,0.167-1.272,0.382-1.865h-3.901v-2.883h3.52v-2.501,c0-5.215,3.349-7.759,7.926-7.759c1.176,0,2,0.085,2.81,0.208L289.897,56.382z"/>
		<path fill="#B2B2B2" d="M299.854,87.039c-3.35,0-5.979-1.229-5.979-6.23V68.217c0-0.806,0.213-1.187,0.384-1.694h-4.284v-2.927h3.9,v-7.715l3.307-0.975v8.69h5.594l-0.975,2.927h-4.619v14.286c0,2.712,1.188,3.516,3.731,3.516c1.103,0,2.29-0.381,3.646-1.269,l2.077,2.118C304.899,86.615,302.059,87.039,299.854,87.039"/>
		<path fill="#B2B2B2" d="M328.53,86.361h-3.265l-4.705-15.218c-0.425-1.401-0.848-4.199-0.848-4.199s-0.256,2.798-0.679,4.199,l-4.748,15.218h-3.265l-7.08-22.766h3.224l4.705,15.559c0.381,1.188,0.806,4.155,0.806,4.155s0.379-2.841,0.805-4.155l4.748-15.559,h3.137l4.749,15.559c0.382,1.314,0.72,4.238,0.72,4.238s0.467-2.924,0.849-4.238l4.748-15.559h3.221L328.53,86.361z"/>
		<path fill="#B2B2B2" d="M351.402,86.361l-0.549-2.037c-2.628,2.037-4.665,2.715-7.971,2.715c-4.919,0-7.717-2.541-7.717-7.504,c0-5.34,3.858-7.164,8.732-7.164c2.248,0,4.705,0.34,6.827,0.976v-3.773c0-3.307-2.122-3.9-5.002-3.9,c-2.376,0-5.047,0.424-6.53,2.585l-2.586-1.569c1.78-3.008,5.851-3.773,9.116-3.773c4.831,0,8.309,1.485,8.309,6.699v16.746,H351.402z M350.726,75.763c-1.696-0.254-4.071-0.765-6.316-0.765c-3.011,0-5.852,0.891-5.852,4.537,c0,2.884,1.272,4.789,4.325,4.789c3.095,0,5.256-0.888,7.843-2.627V75.763z"/>
		<path fill="#B2B2B2" d="M366.627,66.182c-1.78,0-3.053,0.297-4.874,1.823l-1.315,1.102v17.254h-3.307V63.596h2.756l0.551,2.375,l1.951-1.611c1.398-1.187,3.306-1.442,4.238-1.442c0.932,0,1.356,0.084,1.991,0.212v3.222,C367.94,66.224,367.305,66.182,366.627,66.182"/>
		<path fill="#B2B2B2" d="M372.305,75.932c0.172,5.638,1.74,8.353,7.081,8.353c3.307,0,5.299-1.103,6.401-3.308l2.884,1.145,c-1.527,3.137-4.155,4.918-9.285,4.918c-7.29,0-10.599-3.646-10.599-12.082c0-7.63,2.63-12.04,10.641-12.04,c8.521,0,9.623,5.637,9.623,12.04v0.975H372.305z M379.428,65.674c-4.449,0-6.781,1.822-7.123,7.46h13.312,C385.617,68.554,384.516,65.674,379.428,65.674"/>
		<polygon fill="#B2B2B2" points="125.432,98.776 125.432,105.539 124.305,105.539 124.305,98.776 121.976,98.776 121.976,97.799,127.75,97.799 127.75,98.776"/>
		<polygon fill="#B2B2B2" points="134.299,105.539 134.299,101.976 130.358,101.976 130.358,105.539 129.231,105.539 129.231,97.799,130.358,97.799 130.358,100.934 134.299,100.934 134.299,97.799 135.426,97.799 135.426,105.539"/>
		<path fill="#B2B2B2" d="M137.228,105.539v-7.74h5.046v1.02h-3.918v2.126h3.542l-0.29,1.041h-3.328,c0.032,0.087,0.076,0.236,0.076,0.333v2.201h3.928v1.02H137.228z"/>
		<path fill="#B2B2B2" d="M149.843,105.539h-2.78V97.8h2.78c1.685,0,2.522,0.709,2.522,2.07c0,0.752-0.364,1.289-0.901,1.516,c0.622,0.181,1.256,0.761,1.256,1.791C152.72,104.809,151.625,105.539,149.843,105.539 M149.843,98.776h-1.653v2.2h1.771,c0.698,0,1.267-0.29,1.267-1.106C151.228,98.99,150.713,98.776,149.843,98.776 M149.961,101.964h-1.771v2.599h1.653,c1.363,0,1.75-0.484,1.75-1.386C151.593,102.18,150.659,101.964,149.961,101.964"/>
		<path fill="#B2B2B2" d="M154.34,105.539v-7.74h5.046v1.02h-3.919v2.126h3.542l-0.29,1.041h-3.327,c0.032,0.087,0.075,0.236,0.075,0.333v2.201h3.929v1.02H154.34z"/>
		<path fill="#B2B2B2" d="M163.539,105.71c-1.449,0-2.351-0.622-2.792-1.557l0.946-0.482c0.364,0.665,0.933,1.04,1.846,1.04,c1.352,0,1.792-0.643,1.792-1.404c0-0.645-0.279-1.042-1.051-1.17l-1.632-0.28c-1.214-0.203-1.761-0.944-1.761-2.104,c0-1.115,0.688-2.127,2.705-2.127c1.621,0,2.287,0.699,2.652,1.332l-0.956,0.483c-0.321-0.516-0.815-0.826-1.696-0.826,c-1.202,0-1.567,0.451-1.567,1.138c0,0.644,0.226,0.911,0.88,1.02l1.61,0.269c1.224,0.203,1.976,0.922,1.976,2.266,C166.491,104.647,165.6,105.71,163.539,105.71"/>
		<polygon fill="#B2B2B2" points="170.956,98.776 170.956,105.539 169.829,105.539 169.829,98.776 167.5,98.776 167.5,97.799,173.275,97.799 173.275,98.776"/>
		<rect x="177.938" y="97.799" fill="#B2B2B2" width="1.117" height="7.74"/>
		<path fill="#B2B2B2" d="M186.172,105.539l-4.251-5.829c0.022,0.106,0.065,0.289,0.065,0.44v5.389h-1.128v-7.74h1.01l4.251,5.828,c-0.011-0.095-0.065-0.29-0.065-0.471v-5.357h1.127v7.74H186.172z"/>
		<polygon fill="#B2B2B2" points="192.118,98.776 192.118,105.539 190.991,105.539 190.991,98.776 188.662,98.776 188.662,97.799,194.438,97.799 194.438,98.776"/>
		<path fill="#B2B2B2" d="M195.918,105.539v-7.74h5.046v1.02h-3.918v2.126h3.542l-0.29,1.041h-3.328,c0.032,0.087,0.076,0.236,0.076,0.333v2.201h3.928v1.02H195.918z"/>
		<path fill="#B2B2B2" d="M206.812,105.539l-1.814-2.78c-0.053-0.075-0.106-0.226-0.129-0.377h-1.18v3.157h-1.127v-7.74h2.49,c1.965,0,2.802,0.965,2.802,2.32c0,1.093-0.558,1.866-1.792,2.167l2.114,3.253H206.812z M205.063,98.776h-1.374v2.618h1.363,c1.105,0,1.652-0.32,1.652-1.275C206.705,99.205,206.147,98.776,205.063,98.776"/>
		<path fill="#B2B2B2" d="M214.949,105.539l-4.251-5.829c0.022,0.106,0.065,0.289,0.065,0.44v5.389h-1.128v-7.74h1.01l4.251,5.828,c-0.011-0.095-0.064-0.29-0.064-0.471v-5.357h1.127v7.74H214.949z"/>
		<path fill="#B2B2B2" d="M217.762,105.539v-7.74h5.046v1.02h-3.918v2.126h3.542l-0.29,1.041h-3.328,c0.032,0.087,0.076,0.236,0.076,0.333v2.201h3.928v1.02H217.762z"/>
		<polygon fill="#B2B2B2" points="227.541,98.776 227.541,105.539 226.414,105.539 226.414,98.776 224.085,98.776 224.085,97.799,229.859,97.799 229.859,98.776"/>
		<path fill="#B2B2B2" d="M234.539,105.539v-7.74h5.046v1.02h-3.918v2.126h3.542l-0.29,1.041h-3.328,c0.032,0.087,0.076,0.236,0.076,0.333v2.201h3.928v1.02H234.539z"/>
		<path fill="#B2B2B2" d="M246.153,105.539l-1.9-2.812c-0.096-0.141-0.117-0.236-0.15-0.376c-0.031,0.14-0.097,0.29-0.16,0.387,l-1.965,2.802h-1.374l2.845-4.015l-2.502-3.726h1.375l1.685,2.545c0.086,0.129,0.119,0.235,0.151,0.364,c0.043-0.119,0.053-0.226,0.15-0.364l1.761-2.545h1.396l-2.62,3.747l2.684,3.993H246.153z"/>
		<path fill="#B2B2B2" d="M251.327,102.716h-1.503c0.042,0.085,0.065,0.171,0.065,0.269v2.555h-1.129v-7.74h2.566,c1.975,0,2.813,1.106,2.813,2.469C254.141,101.62,253.323,102.716,251.327,102.716 M251.327,98.776h-1.438v2.963h1.438,c1.084,0,1.664-0.43,1.664-1.472C252.991,99.281,252.4,98.776,251.327,98.776"/>
		<path fill="#B2B2B2" d="M255.728,105.539v-7.74h5.046v1.02h-3.918v2.126h3.542l-0.29,1.041h-3.328,c0.032,0.087,0.076,0.236,0.076,0.333v2.201h3.929v1.02H255.728z"/>
		<path fill="#B2B2B2" d="M266.623,105.539l-1.814-2.78c-0.053-0.075-0.105-0.226-0.129-0.377h-1.18v3.157h-1.128v-7.74h2.491,c1.964,0,2.802,0.965,2.802,2.32c0,1.093-0.558,1.866-1.793,2.167l2.114,3.253H266.623z M264.874,98.776H263.5v2.618h1.363,c1.105,0,1.652-0.32,1.652-1.275C266.516,99.205,265.958,98.776,264.874,98.776"/>
		<rect x="269.446" y="97.799" fill="#B2B2B2" width="1.117" height="7.74"/>
		<path fill="#B2B2B2" d="M272.365,105.539v-7.74h5.046v1.02h-3.919v2.126h3.542l-0.29,1.041h-3.326,c0.031,0.087,0.074,0.236,0.074,0.333v2.201h3.93v1.02H272.365z"/>
		<path fill="#B2B2B2" d="M284.324,105.539l-4.252-5.829c0.022,0.106,0.064,0.289,0.064,0.44v5.389h-1.127v-7.74h1.009l4.252,5.828,c-0.012-0.095-0.064-0.29-0.064-0.471v-5.357h1.127v7.74H284.324z"/>
		<path fill="#B2B2B2" d="M290.152,105.71c-2.642,0-3.231-1.856-3.231-4.047c0-2.458,0.73-4.037,3.155-4.037,c1.922,0,2.653,1.139,2.728,2.298h-1.053c-0.096-0.719-0.493-1.309-1.684-1.309c-1.783,0-1.998,1.202-1.998,3.048,c0,1.664,0.247,3.061,2.083,3.061c0.881,0,1.449-0.376,1.846-1.277l0.902,0.547C292.525,104.853,291.805,105.71,290.152,105.71"/>
		<path fill="#B2B2B2" d="M294.445,105.539v-7.74h5.046v1.02h-3.919v2.126h3.542l-0.29,1.041h-3.327,c0.032,0.087,0.075,0.236,0.075,0.333v2.201h3.93v1.02H294.445z"/>
		<path fill="#B2B2B2" d="M307.305,105.7c-2.619,0-3.23-1.761-3.23-4.122c0-2.127,0.611-3.951,3.23-3.951s3.264,1.824,3.264,3.951,C310.568,103.95,309.924,105.7,307.305,105.7 M307.305,98.615c-1.653,0-2.082,1.031-2.082,2.963c0,2.136,0.439,3.145,2.082,3.145,s2.115-1.009,2.115-3.145C309.42,99.655,308.958,98.615,307.305,98.615"/>
		<path fill="#B2B2B2" d="M317.471,105.539l-4.252-5.829c0.022,0.106,0.064,0.289,0.064,0.44v5.389h-1.127v-7.74h1.009l4.253,5.828,c-0.013-0.095-0.065-0.29-0.065-0.471v-5.357h1.126v7.74H317.471z"/>
		<path fill="#B2B2B2" d="M328.72,105.54l-0.86-2.288h-2.887l-0.859,2.288h-1.158l2.887-7.741h1.192l2.877,7.741H328.72z,M326.54,99.656c-0.065-0.161-0.097-0.407-0.118-0.526c-0.022,0.119-0.065,0.365-0.118,0.516l-0.955,2.607h2.147L326.54,99.656z"/>
		<path fill="#B2B2B2" d="M336.501,105.539l-4.251-5.829c0.022,0.106,0.065,0.289,0.065,0.44v5.389h-1.128v-7.74h1.01l4.251,5.828,c-0.011-0.095-0.065-0.29-0.065-0.471v-5.357h1.127v7.74H336.501z"/>
		<path fill="#B2B2B2" d="M342.695,102.416v3.124h-1.127v-3.124l-2.803-4.617h1.256l1.976,3.263c0.063,0.098,0.106,0.269,0.129,0.409,c0.032-0.141,0.054-0.29,0.14-0.429l1.964-3.243h1.246L342.695,102.416z"/>
		<path fill="#B2B2B2" d="M352.267,105.539h-2.275v-7.74h2.275c2.716,0,3.8,1.62,3.8,3.779,C356.066,103.756,355.048,105.539,352.267,105.539 M352.267,98.776h-1.148v5.786h1.148c1.804,0,2.651-0.998,2.651-2.984,C354.918,99.688,354.07,98.776,352.267,98.776"/>
		<path fill="#B2B2B2" d="M357.655,105.539v-7.74h5.046v1.02h-3.919v2.126h3.542l-0.29,1.041h-3.327,c0.032,0.087,0.075,0.236,0.075,0.333v2.201h3.929v1.02H357.655z"/>
		<path fill="#B2B2B2" d="M367.874,105.539h-1.191l-2.877-7.74h1.191l2.125,5.733c0.054,0.149,0.14,0.407,0.183,0.688,c0.043-0.28,0.107-0.538,0.161-0.688l2.136-5.733h1.16L367.874,105.539z"/>
		<rect x="372.071" y="97.799" fill="#B2B2B2" width="1.116" height="7.74"/>
		<path fill="#B2B2B2" d="M378.007,105.71c-2.641,0-3.23-1.856-3.23-4.047c0-2.458,0.729-4.037,3.154-4.037,c1.923,0,2.653,1.139,2.728,2.298h-1.052c-0.098-0.719-0.494-1.309-1.686-1.309c-1.783,0-1.997,1.202-1.997,3.048,c0,1.664,0.247,3.061,2.083,3.061c0.88,0,1.449-0.376,1.847-1.277l0.901,0.547C380.379,104.853,379.66,105.71,378.007,105.71"/>
		<path fill="#B2B2B2" d="M382.301,105.539v-7.74h5.046v1.02h-3.919v2.126h3.542l-0.29,1.041h-3.327,c0.032,0.087,0.075,0.236,0.075,0.333v2.201h3.929v1.02H382.301z"/>
		<path fill="#B2B2B2" d="M393.779,54.15h-1.391v3.685h-1.099V54.15h-1.392v-0.892h3.881V54.15z M399.547,57.835h-0.989V54.15,h-0.021l-1.338,2.848h-0.587l-1.315-2.848h-0.032v3.685h-0.989v-4.577h1.375l1.261,2.718l1.256-2.718h1.381V57.835z"/>
	</g>
	<g id="short">
		<polygon fill="#E11F21" points="229.748,50.559 229.748,53.811 229.026,53.811 229.026,50.559 227.923,50.559,227.923,49.959 230.85,49.959 230.85,50.559"/>
		<path fill="#E11F21" d="M234.3,53.811l-0.172-2.287c-0.005-0.08-0.01-0.18,0.011-0.26l-0.753,1.709h-0.599,l-0.753-1.703c0.012,0.09,0.016,0.195,0.012,0.271l-0.171,2.27h-0.701l0.288-3.852h0.62l0.951,2.035,c0.031,0.07,0.047,0.135,0.06,0.182c0.01-0.062,0.02-0.127,0.048-0.188l0.949-2.029h0.62l0.29,3.852H234.3z"/>
		<path fill="#E11F21" d="M127.173,76.986c-9.188,0-11.247-6.285-11.247-14.111c0-7.059,2.095-13.527,11.247-13.527,c9.153,0,11.357,6.469,11.357,13.527C138.53,70.701,136.326,76.986,127.173,76.986 M127.173,53.574,c-4.852,0-6.248,3.051-6.248,9.301c0,6.982,1.432,9.922,6.248,9.922c4.852,0,6.357-2.977,6.357-9.922,C133.53,56.625,132.061,53.574,127.173,53.574"/>
		<path fill="#E11F21" d="M150.048,67.213h-4.301c0.074,0.254,0.257,0.697,0.257,0.953v8.27h-4.925v-26.5h8.969,c6.764,0,9.85,3.602,9.85,8.416C159.898,63.131,156.885,67.213,150.048,67.213 M150.048,54.125h-4.043v8.896h4.043,c3.309,0,4.851-1.656,4.851-4.67C154.899,55.521,153.283,54.125,150.048,54.125"/>
		<path fill="#E11F21" d="M161.986,76.436v-26.5h17.644v4.117h-12.718v6.359h11.614l-1.214,4.115h-10.547,c0.111,0.256,0.147,0.551,0.147,0.701v7.09h12.752v4.117H161.986z"/>
		<path fill="#E11F21" d="M196.847,76.461l-6.1-9.336c-0.185-0.26-0.258-0.588-0.333-0.885h-3.087v10.221h-4.923,v-26.5h9.004c6.726,0,9.812,3.307,9.812,8.195c0,3.602-1.764,6.25-5.513,7.424l7.057,10.881H196.847z M191.409,54.076h-4.081v8.049,h4.081c3.455,0,4.813-1.545,4.813-3.969C196.222,55.508,194.752,54.076,191.409,54.076"/>
		<path fill="#E11F21" d="M222.457,76.459l-2.278-6.723h-9.297l-2.315,6.723h-5.11l9.592-26.5h5.034l9.559,26.5,H222.457z M216.062,57.717c-0.257-0.699-0.475-1.617-0.55-2.096c-0.074,0.516-0.294,1.436-0.516,2.096l-2.719,7.902h6.469,L216.062,57.717z"/>
		<path fill="#B2B2B2" d="M123.139,102.846c-2.708,0-5.094-1.02-6.2-3.406l2.592-0.932,c0.698,1.312,1.917,1.895,3.608,1.895c2.095,0,3.492-0.73,3.492-2.445c0-1.076-0.582-1.746-1.747-1.951l-3.813-0.668,c-2.384-0.41-3.812-1.834-3.812-4.424c0-2.855,2.272-4.57,6.112-4.57c2.852,0,4.86,0.988,5.91,2.883l-2.358,1.195,c-0.67-0.994-1.689-1.607-3.523-1.607c-1.979,0-3.142,0.645-3.142,2.1c0,0.844,0.321,1.514,1.542,1.719l3.664,0.607,c2.303,0.379,4.223,1.662,4.223,4.455C129.687,101.449,126.602,102.846,123.139,102.846"/>
		<path fill="#B2B2B2" d="M137.887,102.846c-5.271,0-7.161-3.143-7.161-8.266c0-5.121,1.891-8.236,7.161-8.236,c5.265,0,7.188,3.115,7.188,8.236C145.075,99.703,143.152,102.846,137.887,102.846 M137.887,88.814,c-2.915,0-4.106,1.43-4.106,5.766s1.192,5.795,4.106,5.795c2.908,0,4.071-1.459,4.071-5.795S140.795,88.814,137.887,88.814"/>
		<path fill="#B2B2B2" d="M154.951,82.314c-0.482-0.076-0.917-0.107-1.425-0.107c-1.603,0-2.71,0.732-2.71,3.09,v1.482h3.971l-0.578,2.533h-3.393v13.098h-3.053V90.387c0-0.318,0.145-0.666,0.293-1.074h-2.691v-2.533h2.398v-1.482,c0-4.424,2.737-5.561,5.794-5.561c0.675,0,1.338,0.092,1.996,0.215L154.951,82.314z"/>
		<path fill="#B2B2B2" d="M163.065,102.846c-2.506,0-4.861-0.99-4.861-4.426v-8.117c0-0.291,0.059-0.582,0.29-0.99,h-2.851v-2.533h2.561v-5.297l3.056-0.902v6.199h5.307l-0.815,2.533h-4.492v9.107c0,1.371,0.928,1.895,2.009,1.895,c0.901,0,1.656-0.322,2.559-0.932l1.778,1.777C166.409,102.266,164.692,102.846,163.065,102.846"/>
		<path fill="#B2B2B2" d="M184.449,102.41h-2.766l-2.97-9.025c-0.204-0.58-0.376-1.076-0.435-1.92,c-0.059,0.844-0.262,1.34-0.466,1.92l-2.969,9.025h-2.764l-5.008-15.631h3.002l2.936,9.197c0.118,0.354,0.293,1.197,0.435,2.797,c0.206-1.6,0.323-2.127,0.526-2.738l2.968-9.256h2.65l2.97,9.256c0.203,0.611,0.319,1.139,0.523,2.738,c0.146-1.6,0.317-2.443,0.435-2.797l2.941-9.197h2.999L184.449,102.41z"/>
		<path fill="#B2B2B2" d="M200.318,102.412l-0.322-1.139c-1.57,1.051-3.085,1.572-4.916,1.572,c-3.843,0-5.533-2.182-5.533-5.27c0-4.043,3-5.006,5.969-5.006c1.395,0,2.967,0.205,4.249,0.498v-2.01,c0-1.486-0.786-2.244-2.882-2.244c-1.748,0-3.202,0.41-4.219,1.893l-2.301-1.34c1.338-2.295,3.873-3.023,6.578-3.023,c5.006,0,5.878,2.471,5.878,4.744v11.324H200.318z M199.765,95.34c-1.133-0.18-2.387-0.379-3.639-0.379,c-2.008,0-3.491,0.668-3.491,2.615c0,2.127,1.133,2.738,2.445,2.738c1.889,0,3.113-0.467,4.685-1.482V95.34z"/>
		<path fill="#B2B2B2" d="M211.433,88.963c-0.903,0-1.806,0.176-2.475,0.729l-1.019,0.844v11.875h-3.058V86.779,h2.502l0.381,1.482l1.076-0.9c0.931-0.785,1.951-1.018,3.083-1.018c0.497,0,0.963,0.057,1.458,0.117v2.678,C212.77,89.049,212.103,88.963,211.433,88.963"/>
		<path fill="#B2B2B2" d="M216.662,95.539c0.057,3.293,1.132,4.775,4.306,4.775c2.038,0,3.349-0.643,4.191-2.271,l2.589,0.992c-1.283,2.617-3.287,3.811-6.78,3.811c-5.093,0-7.364-2.59-7.364-8.266c0-5.121,1.747-8.236,7.364-8.236,c6.025,0,6.955,4.805,6.955,8.236v0.959H216.662z M220.968,88.877c-2.792,0-4.074,0.988-4.278,4.191h8.003,C224.634,90.65,223.587,88.877,220.968,88.877"/>
	</g>
</svg>