<svg xmlns="http://www.w3.org/2000/svg" viewBox="0 0 17 13"><g fill="#2D93B8"><path d="m8.499 .1c-3.308 0-6.309 1.381-8.478 3.61l1.209 1.237c1.86-1.912 4.434-3.097 7.269-3.097 2.838 0 5.41 1.185 7.27 3.097l1.21-1.237c-2.171-2.23-5.169-3.61-8.48-3.61"/><path d="m2.44 6.185l1.209 1.237c1.24-1.276 2.957-2.068 4.851-2.068 1.896 0 3.611 .792 4.85 2.068l1.21-1.237c-1.549-1.595-3.693-2.581-6.06-2.581-2.366 0-4.511 .986-6.06 2.581"/><path d="m4.858 8.662l1.209 1.239c.622-.642 1.482-1.046 2.433-1.046 .95 0 1.811 .4 2.432 1.046l1.21-1.239c-.93-.96-2.219-1.558-3.642-1.558-1.422 0-2.711 .598-3.642 1.558"/><path d="m7.19 11.025l1.309 1.341 1.31-1.341c-.332-.35-.795-.568-1.31-.568-.513 0-.975 .222-1.309 .568"/></g></svg>